<svg width="40" height="40" viewBox="0 0 40 40" fill="none" xmlns="http://www.w3.org/2000/svg">
<path d="M35.2061 14.3378H28.8707C28.2692 14.3378 27.6902 14.5356 27.173 14.9597V23.5703C27.173 24.0339 26.9931 24.4749 26.6615 24.8085C26.5265 24.9498 26.3523 25.0742 26.1499 25.1703L26.1106 25.1873L26.1162 25.2268C26.178 25.7922 26.6502 26.2219 27.2124 26.2219C27.5103 26.2219 27.7914 26.1032 28.0106 25.8883C28.05 25.8431 28.0781 25.8035 28.1062 25.7583L28.1343 25.7187V18.6063C28.1343 18.4763 28.2355 18.3802 28.3648 18.3802C28.4941 18.3802 28.5953 18.482 28.5953 18.6063V35.1831C28.5953 36.0707 29.3204 36.8 30.2086 36.8C31.0968 36.8 31.8164 36.0764 31.8164 35.1831V26.5046C31.8164 26.3746 31.9176 26.2784 32.0468 26.2784C32.1705 26.2784 32.2773 26.3802 32.2773 26.5046V35.1774C32.2773 36.065 32.9969 36.7944 33.8851 36.7944C34.7733 36.7944 35.4984 36.0707 35.4984 35.1774V18.6063C35.4984 18.482 35.5996 18.3802 35.7289 18.3802C35.8582 18.3802 35.9594 18.482 35.9594 18.6063L35.9706 25.747C36.1786 26.0353 36.5272 26.2106 36.8982 26.2106C37.1961 26.2106 37.4716 26.0975 37.6683 25.8996C37.8819 25.6848 38 25.4021 38 25.1081V17.1364C37.9775 15.5929 36.7352 14.3378 35.2061 14.3378ZM32.0356 23.5929C31.7433 23.5929 31.5128 23.3555 31.5128 23.0671C31.5128 22.7731 31.7489 22.5413 32.0356 22.5413C32.3279 22.5413 32.5584 22.7788 32.5584 23.0671C32.564 23.3555 32.3279 23.5929 32.0356 23.5929ZM32.0356 20.4099C31.7433 20.4099 31.5128 20.1724 31.5128 19.8841C31.5128 19.5901 31.7489 19.3583 32.0356 19.3583C32.3279 19.3583 32.5584 19.5957 32.5584 19.8841C32.564 20.1724 32.3279 20.4099 32.0356 20.4099ZM32.0356 17.2268C31.7433 17.2268 31.5128 16.9894 31.5128 16.701C31.5128 16.407 31.7489 16.1752 32.0356 16.1752C32.3279 16.1752 32.5584 16.4127 32.5584 16.701C32.564 16.9894 32.3279 17.2268 32.0356 17.2268ZM12.8045 23.576L12.782 14.9258C12.2873 14.5413 11.7083 14.3434 11.1012 14.3434H4.77139C3.24235 14.3378 2 15.5929 2 17.1307V25.1025C2 25.7187 2.50031 26.2219 3.11305 26.2219C3.41099 26.2219 3.69207 26.1032 3.91131 25.8883C3.95066 25.8431 3.99001 25.7922 4.03498 25.7074V18.6063C4.03498 18.4763 4.13616 18.3802 4.26546 18.3802C4.38913 18.3802 4.49594 18.482 4.49594 18.6063V35.1831C4.49594 36.0707 5.22111 36.8 6.10931 36.8C6.99188 36.8 7.71705 36.0764 7.71705 35.1831V26.5046C7.71705 26.3802 7.81824 26.2784 7.94753 26.2784C8.07683 26.2784 8.17801 26.3802 8.17801 26.5046V35.1774C8.17801 36.065 8.89756 36.7944 9.78576 36.7944C10.674 36.7944 11.3991 36.0707 11.3991 35.1774V18.6063C11.3991 18.4763 11.5003 18.3802 11.6296 18.3802C11.7589 18.3802 11.8601 18.482 11.8601 18.6063L11.8713 25.7413C12.0737 26.0297 12.4222 26.2049 12.8045 26.2049C13.1024 26.2049 13.3723 26.0975 13.569 25.8996C13.7433 25.7244 13.8557 25.4869 13.8894 25.2382L13.8951 25.1986L13.8557 25.1816C13.2092 24.882 12.8045 24.2601 12.8045 23.576ZM7.94191 23.5929C7.64959 23.5929 7.41911 23.3555 7.41911 23.0671C7.41911 22.7731 7.65522 22.5413 7.94191 22.5413C8.22861 22.5413 8.46471 22.7788 8.46471 23.0671C8.46471 23.3555 8.22861 23.5929 7.94191 23.5929ZM7.94191 20.4099C7.64959 20.4099 7.41911 20.1724 7.41911 19.8841C7.41911 19.5901 7.65522 19.3583 7.94191 19.3583C8.22861 19.3583 8.46471 19.5957 8.46471 19.8841C8.46471 20.1724 8.22861 20.4099 7.94191 20.4099ZM7.94191 17.2268C7.64959 17.2268 7.41911 16.9894 7.41911 16.701C7.41911 16.407 7.65522 16.1752 7.94191 16.1752C8.22861 16.1752 8.46471 16.4127 8.46471 16.701C8.46471 16.9894 8.22861 17.2268 7.94191 17.2268Z" fill="white"/>
<path d="M26.72 23.5753V14.5858C26.72 12.8332 25.3034 11.4084 23.5608 11.4084H16.4215C14.6788 11.4084 13.2622 12.8332 13.2622 14.5858V23.5753C13.2622 24.2876 13.8412 24.87 14.5495 24.87C14.9037 24.87 15.2297 24.7343 15.4658 24.4855C15.5164 24.4346 15.5614 24.3781 15.6176 24.265V16.2424C15.6176 16.1123 15.7188 16.0162 15.8481 16.0162C15.9717 16.0162 16.0786 16.118 16.0786 16.2424V34.9336C16.0786 35.9569 16.9049 36.788 17.9224 36.788C18.9399 36.788 19.7662 35.9569 19.7662 34.9336V25.1526C19.7662 25.0283 19.8674 24.9208 19.9967 24.9208C20.126 24.9208 20.2272 25.0226 20.2272 25.1526V34.9393C20.2272 35.9626 21.0536 36.7937 22.0711 36.7937C23.0885 36.7937 23.9149 35.9626 23.9149 34.9393V16.2424C23.9149 16.118 24.0161 16.0162 24.1454 16.0162C24.2747 16.0162 24.3759 16.118 24.3759 16.2424L24.3871 24.2933C24.6288 24.6551 25.0167 24.8643 25.4496 24.8643C25.7981 24.8643 26.1185 24.7286 26.3546 24.4855C26.5851 24.2424 26.72 23.9145 26.72 23.5753ZM19.9911 21.8735C19.6651 21.8735 19.4009 21.6078 19.4009 21.2798C19.4009 20.9519 19.6651 20.6862 19.9911 20.6862C20.3172 20.6862 20.5814 20.9519 20.5814 21.2798C20.5814 21.6021 20.3172 21.8735 19.9911 21.8735ZM19.9911 18.2777C19.6651 18.2777 19.4009 18.012 19.4009 17.6841C19.4009 17.3562 19.6651 17.0904 19.9911 17.0904C20.3172 17.0904 20.5814 17.3562 20.5814 17.6841C20.5814 18.012 20.3172 18.2777 19.9911 18.2777ZM19.9911 14.6876C19.6651 14.6876 19.4009 14.4219 19.4009 14.094C19.4009 13.766 19.6651 13.5003 19.9911 13.5003C20.3172 13.5003 20.5814 13.766 20.5814 14.094C20.5814 14.4219 20.3172 14.6876 19.9911 14.6876ZM19.9911 10.5604C22.0092 10.5604 23.6507 8.90948 23.6507 6.8798C23.6507 4.85011 22.0092 3.19922 19.9911 3.19922C17.973 3.19922 16.3315 4.85011 16.3315 6.8798C16.3315 8.90948 17.973 10.5604 19.9911 10.5604ZM7.94426 13.6247C9.71503 13.6247 11.1541 12.1773 11.1541 10.3964C11.1541 8.61549 9.71503 7.16814 7.94426 7.16814C6.17349 7.16814 4.73439 8.61549 4.73439 10.3964C4.72877 12.1773 6.17349 13.6247 7.94426 13.6247ZM32.038 13.6247C33.8087 13.6247 35.2478 12.1773 35.2478 10.3964C35.2478 8.61549 33.8087 7.16814 32.038 7.16814C30.2672 7.16814 28.8281 8.61549 28.8281 10.3964C28.8281 12.1773 30.2672 13.6247 32.038 13.6247Z" fill="white"/>
</svg>
