<svg width="40" height="40" viewBox="0 0 40 40" fill="none" xmlns="http://www.w3.org/2000/svg">
<path d="M37.2257 22.0059C37.4838 24.595 37.7399 27.15 38 29.7674H2C2.2601 27.1621 2.5142 24.6091 2.7743 22.0059H37.2237H37.2257Z" fill="white"/>
<path d="M4.09996 31.2003C3.79584 30.0004 4.4681 30.2138 4.89227 30.24C5.10635 30.2541 5.30643 30.4916 5.51251 30.6265C5.06833 30.8077 4.62416 30.9869 4.09996 31.2003Z" fill="white"/>
<path d="M35.9127 31.159C35.4085 30.9819 34.9504 30.8208 34.4922 30.6597C34.7523 30.5128 35.0064 30.2611 35.2765 30.2369C35.9728 30.1765 35.9748 30.2168 35.9127 31.159Z" fill="white"/>
<path d="M32.7999 19.8882C31.2673 20.1277 31.1013 19.9687 31.1193 18.3117C31.1253 17.7761 30.8872 17.2285 30.9472 16.7091C30.9892 16.3426 31.2873 15.95 31.5755 15.6802C32.5778 14.734 33.3782 13.7253 33.2581 12.2233C33.2041 11.5589 33.1501 10.8623 33.2901 10.224C33.3762 9.83947 33.8383 9.53746 34.1304 9.19922C34.4246 9.52941 34.9608 9.85155 34.9748 10.1938C35.0568 12.2817 35.2049 14.3353 33.8423 16.25C33.1661 17.2003 33.1381 18.6177 32.7979 19.8902L32.7999 19.8882Z" fill="white"/>
<path d="M32.0827 13.1873C32.0587 14.4376 31.1763 15.3739 30.0639 15.3296C28.9735 15.2873 28.1511 14.2766 28.1972 13.0343C28.2392 11.8626 29.1355 10.8982 30.1659 10.9143C31.2403 10.9324 32.1067 11.9592 32.0827 13.1873Z" fill="white"/>
<path d="M30.1625 19.9403H28.2478C28.2178 20.4779 28.1918 20.9591 28.1618 21.4926H27.2234C27.2234 20.1699 27.1454 18.8672 27.2494 17.5807C27.3294 16.58 27.9917 15.9881 29.1542 15.8633C29.4863 17.1981 29.8144 18.5209 30.1645 19.9383L30.1625 19.9403Z" fill="white"/>
<path d="M28.6328 20.3661C29.9393 20.3661 31.1338 20.2997 32.3122 20.4064C32.6764 20.4386 32.9985 20.942 33.3386 21.2279C33.2786 21.3164 33.2166 21.405 33.1566 21.4936H28.6328V20.3661Z" fill="white"/>
<path d="M30.6407 19.9131C30.4346 19.2749 30.2105 18.6407 30.0424 17.9904C30.0104 17.8675 30.2145 17.6843 30.3085 17.5293C30.4646 17.6662 30.7427 17.793 30.7527 17.942C30.8027 18.5843 30.7747 19.2346 30.7747 19.8809C30.7287 19.891 30.6847 19.901 30.6387 19.9111L30.6407 19.9131Z" fill="white"/>
<path d="M7.82364 13.0245C7.88766 11.8527 8.80002 10.8903 9.82442 10.9145C10.9228 10.9407 11.8452 12.0823 11.7512 13.2963C11.6571 14.4923 10.7668 15.3781 9.70237 15.3318C8.62795 15.2855 7.75962 14.2184 7.82364 13.0225V13.0245Z" fill="white"/>
<path d="M12.7308 21.5033H11.8124C11.7784 21.006 11.7464 20.549 11.7084 19.9953H9.76562C10.1138 18.5618 10.4299 17.2612 10.744 15.9746C11.9425 15.9726 12.6568 16.5988 12.7188 17.7887C12.7808 18.9886 12.7328 20.1946 12.7328 21.5033H12.7308Z" fill="white"/>
<path d="M8.6677 19.9345H7.00906C6.46885 17.4943 7.07508 15.9077 8.99783 15.9359C8.88979 17.2527 8.78175 18.5513 8.6677 19.9345Z" fill="white"/>
<path d="M6.78125 21.5019C6.79726 20.6523 7.09137 20.2858 7.9337 20.3462C9.02212 20.4227 10.1185 20.3644 11.291 20.3644V21.5019H6.78125Z" fill="white"/>
<path d="M9.09375 19.9096C9.13176 19.213 9.15577 18.5143 9.2238 17.8197C9.2338 17.715 9.50191 17.5258 9.55793 17.556C9.70399 17.6325 9.92007 17.8398 9.89406 17.9385C9.71999 18.615 9.4919 19.2754 9.28182 19.9418C9.2198 19.9297 9.15777 19.9196 9.09575 19.9076L9.09375 19.9096Z" fill="white"/>
<path d="M22.7004 21.2859C22.6084 20.8672 22.5163 20.4504 22.4083 19.9652H20.6996C20.6996 18.8739 20.6176 17.8552 20.7356 16.8606C20.7897 16.4096 21.1818 15.9485 21.5219 15.5901C22.4203 14.6499 23.2026 13.6915 23.0925 12.2641C23.0385 11.5634 23.0685 10.8547 23.0966 10.1521C23.1206 9.57623 23.4207 9.09303 24.0149 9.24806C24.343 9.33463 24.7832 9.83998 24.7932 10.1702C24.8632 12.26 25.0693 14.3479 23.6588 16.2364C23.1146 16.9653 23.0805 18.1189 22.9325 19.0974C22.8244 19.8061 22.9125 20.545 22.9125 21.2698C22.8405 21.2739 22.7684 21.2779 22.6984 21.2839L22.7004 21.2859Z" fill="white"/>
<path d="M18.018 13.0979C18.038 11.8858 18.9763 10.8711 20.0367 10.9134C21.0671 10.9537 21.9315 11.9583 21.9375 13.122C21.9455 14.3401 21.0531 15.3388 19.9607 15.3327C18.8663 15.3247 17.996 14.326 18.016 13.0979H18.018Z" fill="white"/>
<path d="M17.0346 21.3147C17.0346 20.0946 16.9826 18.8705 17.0506 17.6544C17.1087 16.6235 17.7729 16.0598 19.0874 15.8887C19.2035 17.2094 19.3215 18.5242 19.4436 19.9114C18.7273 19.9496 18.1431 19.9818 17.5408 20.0141C17.4188 20.4852 17.3088 20.912 17.1987 21.3409C17.1447 21.3328 17.0907 21.3227 17.0366 21.3147H17.0346Z" fill="white"/>
<path d="M17.6328 21.4768C17.7188 21.0742 17.7869 20.754 17.8709 20.3655C19.1134 20.3655 20.3399 20.3111 21.5563 20.4037C21.8625 20.4279 22.1346 20.9191 22.4227 21.195C22.3567 21.2896 22.2906 21.3822 22.2246 21.4768H17.6328Z" fill="white"/>
<path d="M19.8892 19.9012C19.7972 19.265 19.6791 18.6328 19.6331 17.9946C19.6231 17.8476 19.8592 17.6805 19.9813 17.5234C20.1033 17.6543 20.3374 17.7932 20.3294 17.914C20.2794 18.5784 20.1713 19.2388 20.0833 19.9012C20.0193 19.9012 19.9532 19.9012 19.8892 19.9012Z" fill="white"/>
</svg>
