<svg width="44" height="44" viewBox="0 0 44 44" fill="none" xmlns="http://www.w3.org/2000/svg">
<g clip-path="url(#clip0_10802_150484)">
<path d="M14.0014 4.09229C10.7384 4.09229 8.09375 6.7369 8.09375 9.99998C8.09375 13.2631 10.7384 15.9077 14.0014 15.9077C17.2645 15.9077 19.9091 13.2631 19.9091 9.99998C19.9091 6.7369 17.2645 4.09229 14.0014 4.09229ZM10.1061 8.07536L12.9861 7.17075L13.1799 7.78921L10.2999 8.68921L10.1061 8.07536ZM10.7661 9.86152C10.7661 9.29844 11.2184 8.84613 11.7814 8.84613C12.3445 8.84613 12.7968 9.29844 12.7968 9.86152C12.7968 10.4246 12.3445 10.8769 11.7814 10.8769C11.2184 10.8769 10.7661 10.4246 10.7661 9.86152ZM16.023 13.6738L15.303 13.1061L14.4353 13.7892L13.5676 13.1061L12.6999 13.7892L11.6845 12.9907L11.9799 12.6169L12.6999 13.1846L13.5676 12.5015L14.4353 13.1846L15.303 12.5015L16.3184 13.3L16.023 13.6738ZM16.2214 10.8769C15.6584 10.8769 15.2061 10.4246 15.2061 9.86152C15.2061 9.29844 15.6584 8.84613 16.2214 8.84613C16.7845 8.84613 17.2368 9.29844 17.2368 9.86152C17.2368 10.4246 16.7845 10.8769 16.2214 10.8769ZM17.703 8.68921L14.823 7.78921L15.0168 7.17075L17.8968 8.07075L17.703 8.68921Z" fill="white"/>
</g>
<g clip-path="url(#clip1_10802_150484)">
<path d="M34 24C30.6866 24 28 26.6862 28 30C28 33.3138 30.6866 36 34 36C37.3141 36 40 33.3138 40 30C40 26.6862 37.3141 24 34 24ZM32.3358 29.314H30.5839C30.2938 29.314 30.0584 29.0789 30.0584 28.7884C30.0584 28.498 30.2938 28.2629 30.5839 28.2629H32.3358C32.6259 28.2629 32.8613 28.498 32.8613 28.7884C32.8613 29.0789 32.6266 29.314 32.3358 29.314ZM34 33.4672C33.3424 33.4672 32.8102 32.9343 32.8102 32.2774C32.8102 31.6204 33.3431 31.0875 34 31.0875C34.6569 31.0875 35.1898 31.6204 35.1898 32.2774C35.1898 32.9343 34.6569 33.4672 34 33.4672ZM37.4161 29.314H35.6642C35.3741 29.314 35.1387 29.0789 35.1387 28.7884C35.1387 28.498 35.3741 28.2629 35.6642 28.2629H37.4161C37.7062 28.2629 37.9416 28.498 37.9416 28.7884C37.9416 29.0789 37.7069 29.314 37.4161 29.314Z" fill="white"/>
</g>
<path d="M37 2L2 37V42H6L42 6V2H37Z" fill="white"/>
<path d="M2 2V42H42" stroke="white" stroke-width="3" stroke-linecap="round"/>
<defs>
<clipPath id="clip0_10802_150484">
<rect width="12" height="12" fill="white" transform="translate(8 4)"/>
</clipPath>
<clipPath id="clip1_10802_150484">
<rect width="12" height="12" fill="white" transform="translate(28 24)"/>
</clipPath>
</defs>
</svg>
