<svg width="40" height="40" viewBox="0 0 40 40" fill="none" xmlns="http://www.w3.org/2000/svg">
<path d="M37.7418 19.1703C36.0848 11.6789 33.5911 7.68044 29.8918 6.58825C29.1143 6.36013 28.3077 6.24618 27.4973 6.24997C26.4262 6.24997 25.4934 6.51091 24.5067 6.78747C23.3176 7.12106 21.9668 7.49997 19.9973 7.49997C18.0278 7.49997 16.6762 7.12184 15.4848 6.78825C14.4973 6.51091 13.5653 6.24997 12.4973 6.24997C11.6594 6.24702 10.8251 6.36061 10.0184 6.58747C6.33872 7.67497 3.84653 11.6718 2.16528 19.1656C0.357468 27.2297 1.24731 32.3211 4.66059 33.5023C5.12846 33.6673 5.62075 33.7523 6.11684 33.7539C8.45512 33.7539 10.3301 31.8062 11.6114 30.2117C13.059 28.407 14.7536 27.4914 19.9973 27.4914C24.6809 27.4914 26.6192 28.1265 28.2934 30.2117C29.3458 31.5226 30.3403 32.4398 31.3325 33.0172C32.652 33.7843 33.9707 33.9547 35.2512 33.5148C37.2684 32.8265 38.4247 31.007 38.6887 28.1054C38.8895 25.8804 38.5801 22.9578 37.7418 19.1703ZM16.2473 18.75H13.7473V21.25C13.7473 21.5815 13.6156 21.8994 13.3812 22.1339C13.1468 22.3683 12.8288 22.5 12.4973 22.5C12.1658 22.5 11.8478 22.3683 11.6134 22.1339C11.379 21.8994 11.2473 21.5815 11.2473 21.25V18.75H8.74731C8.41579 18.75 8.09785 18.6183 7.86343 18.3839C7.62901 18.1494 7.49731 17.8315 7.49731 17.5C7.49731 17.1684 7.62901 16.8505 7.86343 16.6161C8.09785 16.3817 8.41579 16.25 8.74731 16.25H11.2473V13.75C11.2473 13.4184 11.379 13.1005 11.6134 12.8661C11.8478 12.6317 12.1658 12.5 12.4973 12.5C12.8288 12.5 13.1468 12.6317 13.3812 12.8661C13.6156 13.1005 13.7473 13.4184 13.7473 13.75V16.25H16.2473C16.5788 16.25 16.8968 16.3817 17.1312 16.6161C17.3656 16.8505 17.4973 17.1684 17.4973 17.5C17.4973 17.8315 17.3656 18.1494 17.1312 18.3839C16.8968 18.6183 16.5788 18.75 16.2473 18.75ZM22.8098 19.0625C22.5008 19.0625 22.1987 18.9708 21.9417 18.7991C21.6848 18.6275 21.4845 18.3834 21.3663 18.0979C21.248 17.8124 21.217 17.4982 21.2773 17.1951C21.3376 16.892 21.4864 16.6136 21.705 16.3951C21.9235 16.1766 22.2019 16.0278 22.505 15.9675C22.8081 15.9072 23.1222 15.9381 23.4078 16.0564C23.6933 16.1747 23.9373 16.3749 24.109 16.6319C24.2807 16.8888 24.3723 17.1909 24.3723 17.5C24.3723 17.9144 24.2077 18.3118 23.9147 18.6048C23.6216 18.8979 23.2242 19.0625 22.8098 19.0625ZM26.2473 22.5C25.9381 22.5 25.6359 22.4082 25.3788 22.2364C25.1218 22.0645 24.9215 21.8202 24.8034 21.5345C24.6852 21.2488 24.6545 20.9344 24.7151 20.6312C24.7757 20.328 24.9249 20.0496 25.1438 19.8312C25.3628 19.6129 25.6415 19.4644 25.9449 19.4045C26.2482 19.3447 26.5625 19.3762 26.848 19.495C27.1334 19.6139 27.3772 19.8148 27.5484 20.0722C27.7196 20.3297 27.8106 20.6322 27.8098 20.9414C27.8088 21.3551 27.6437 21.7515 27.3508 22.0437C27.0579 22.3359 26.661 22.5 26.2473 22.5ZM26.2473 15.625C25.9383 15.625 25.6362 15.5333 25.3792 15.3616C25.1223 15.19 24.922 14.9459 24.8038 14.6604C24.6855 14.3749 24.6545 14.0607 24.7148 13.7576C24.7751 13.4545 24.9239 13.1761 25.1425 12.9576C25.361 12.7391 25.6394 12.5903 25.9425 12.53C26.2456 12.4697 26.5597 12.5006 26.8453 12.6189C27.1308 12.7372 27.3748 12.9374 27.5465 13.1944C27.7182 13.4513 27.8098 13.7534 27.8098 14.0625C27.8098 14.4769 27.6452 14.8743 27.3522 15.1673C27.0591 15.4603 26.6617 15.625 26.2473 15.625ZM29.6848 19.0625C29.3758 19.0625 29.0737 18.9708 28.8167 18.7991C28.5598 18.6275 28.3595 18.3834 28.2413 18.0979C28.123 17.8124 28.092 17.4982 28.1523 17.1951C28.2126 16.892 28.3614 16.6136 28.58 16.3951C28.7985 16.1766 29.0769 16.0278 29.38 15.9675C29.6831 15.9072 29.9972 15.9381 30.2828 16.0564C30.5683 16.1747 30.8123 16.3749 30.984 16.6319C31.1557 16.8888 31.2473 17.1909 31.2473 17.5C31.2473 17.9144 31.0827 18.3118 30.7897 18.6048C30.4966 18.8979 30.0992 19.0625 29.6848 19.0625Z" fill="white" style="fill:white;fill-opacity:1;"/>
</svg>
