<svg width="40" height="40" viewBox="0 0 40 40" fill="none" xmlns="http://www.w3.org/2000/svg">
<path d="M38 16.0091C38 17.6825 36.548 19.1134 34.85 19.1134H27.8292C28.9781 20.321 29.1192 22.6385 27.3863 24.1386C28.391 25.7557 27.5373 27.894 26.2297 28.5526C26.8607 32.0334 24.6866 33.6004 21.125 33.6004C20.9319 33.6004 20.1915 33.586 20 33.5866C15.6427 33.5985 14.5934 31.3861 11.3002 30.8726C10.4794 30.7446 9.875 30.0303 9.875 29.1936V17.0439L9.87514 17.0438C9.87592 15.7429 10.6209 14.5017 11.8765 13.9381C13.9076 13.0177 18.5852 10.4646 19.4375 8.46107C19.9857 7.17226 20.9411 6.40096 22.25 6.40039C24.6562 6.3994 26.3107 8.8865 25.3521 11.1397C25.1002 11.7318 24.7677 12.3205 24.357 12.9047H34.85C36.4988 12.9047 38 14.3599 38 16.0091ZM8.75 16.0337V29.6337C8.75 30.5726 7.99449 31.3337 7.0625 31.3337H3.6875C2.75551 31.3337 2 30.5726 2 29.6337V16.0337C2 15.0948 2.75551 14.3337 3.6875 14.3337H7.0625C7.99449 14.3337 8.75 15.0948 8.75 16.0337ZM6.78125 27.9337C6.78125 27.1513 6.15167 26.5171 5.375 26.5171C4.59833 26.5171 3.96875 27.1513 3.96875 27.9337C3.96875 28.7161 4.59833 29.3504 5.375 29.3504C6.15167 29.3504 6.78125 28.7161 6.78125 27.9337Z" fill="#1B1C17" style="fill:#1B1C17;fill:color(display-p3 0.1059 0.1098 0.0902);fill-opacity:1;"/>
</svg>
