<svg width="60" height="60" viewBox="0 0 60 60" fill="none" xmlns="http://www.w3.org/2000/svg">
<path d="M17.4363 39.4005C17.4363 35.0624 17.4303 30.7243 17.4363 26.3862C17.4423 23.7221 18.9666 22.2041 21.6432 22.1981C27.2304 22.1921 32.8236 22.1921 38.4109 22.1981C41.0214 22.2041 42.5758 23.7401 42.5758 26.3262C42.5818 35.1344 42.5818 43.9486 42.5758 52.7569C42.5758 55.2889 41.0214 56.849 38.4709 56.855C32.8476 56.873 27.2244 56.867 21.6012 56.855C18.9846 56.849 17.4423 55.3069 17.4363 52.7149C17.4303 48.2748 17.4363 43.8406 17.4363 39.4005ZM21.2711 45.2447C27.1344 45.2447 32.8897 45.2447 38.6389 45.2447C39.137 41.9926 37.0066 38.0085 34.0959 36.7365C33.8559 36.6285 33.4598 36.6885 33.2077 36.8085C31.0953 37.8285 29.0068 37.8345 26.8703 36.8565C26.5283 36.7005 25.9521 36.7065 25.6401 36.8925C22.5314 38.7465 21.2171 41.5726 21.2711 45.2447ZM34.8161 30.9103C34.8281 28.2043 32.6736 26.0262 29.991 26.0382C27.3444 26.0502 25.202 28.1983 25.196 30.8443C25.19 33.5024 27.3024 35.6384 29.973 35.6684C32.6136 35.6984 34.8041 33.5444 34.8161 30.9103ZM29.901 50.0748C32.6916 50.0748 35.4882 50.0688 38.2788 50.0808C38.957 50.0808 39.6291 50.0328 39.6231 49.1628C39.6231 48.3108 38.969 48.2088 38.2788 48.2088C32.7576 48.2088 27.2424 48.2088 21.7212 48.2088C21.0371 48.2088 20.3829 48.3048 20.3769 49.1568C20.3709 50.0268 21.0371 50.0868 21.7212 50.0808C24.4518 50.0688 27.1764 50.0748 29.901 50.0748ZM26.1562 52.0489C24.6318 52.0489 23.1015 52.0549 21.5772 52.0429C20.881 52.0368 20.3769 52.2829 20.3829 53.0389C20.3889 53.7469 20.899 53.9869 21.5352 53.9869C24.5898 53.9929 27.6385 53.9929 30.6932 53.9869C31.3713 53.9869 31.9174 53.7409 31.8874 52.9789C31.8574 52.2349 31.3233 52.0249 30.6332 52.0369C29.1448 52.0609 27.6505 52.0489 26.1562 52.0489Z" fill="#0668E1"/>
<path d="M56.7376 51.1978C56.8216 48.1738 55.7894 45.9177 53.4549 44.2677C53.0168 43.9617 52.6807 43.9557 52.2006 44.2137C50.5262 45.1137 48.7438 45.2337 47.0215 44.4297C46.1393 44.0157 45.4371 43.8537 44.6209 44.8257C44.6209 39.9776 44.6209 35.3515 44.6209 30.6473C44.957 30.6293 45.2811 30.6053 45.6052 30.6053C49.1279 30.5993 52.6567 30.5993 56.1795 30.6053C58.712 30.6113 59.9963 31.8714 59.9963 34.3854C60.0023 41.6696 60.0023 48.9538 59.9963 56.238C59.9963 58.776 58.748 59.9941 56.1855 59.9941C51.5285 59.9941 46.8714 59.9881 42.2204 60.0001C41.1762 60.0001 40.282 59.7121 39.5078 58.812C43.5407 57.816 44.813 55.0559 44.5069 51.2038C48.6238 51.1978 52.6267 51.1978 56.7376 51.1978ZM53.4369 38.9215C53.4249 36.6955 51.6305 34.8894 49.398 34.8654C47.1475 34.8414 45.2571 36.7195 45.2691 38.9515C45.2811 41.1596 47.1115 42.9836 49.332 43.0076C51.5945 43.0376 53.4429 41.1896 53.4369 38.9215Z" fill="#0668E1"/>
<path d="M3.27255 51.1428C7.33545 51.1428 11.3143 51.1428 15.4852 51.1428C15.4852 51.7128 15.4792 52.1928 15.4852 52.6668C15.5092 55.7929 17.0816 57.8269 20.1122 58.661C20.2023 58.685 20.2803 58.751 20.4243 58.829C19.8422 59.645 19.032 59.969 18.1198 59.975C13.1327 59.993 8.14562 60.005 3.15253 59.969C1.35813 59.957 0.0438464 58.535 0.0198411 56.6569C-0.0161668 54.2748 0.00783845 51.8868 0.00783845 49.5047C0.00783845 44.4706 0.00183714 39.4425 0.00783845 34.4083C0.0138398 31.8883 1.29212 30.6043 3.80067 30.5983C7.35945 30.5922 10.9182 30.5922 14.477 30.5983C14.7711 30.5983 15.0591 30.6283 15.4192 30.6523C15.4192 35.3204 15.4192 39.9345 15.4192 44.7946C14.483 43.5886 13.6128 44.2006 12.6526 44.5666C11.0263 45.1846 9.36989 45.0646 7.83956 44.2126C7.31744 43.9246 6.95736 43.9666 6.50126 44.2966C4.17875 45.9706 3.18854 48.2387 3.27255 51.1428ZM6.57328 38.9505C6.57928 41.1705 8.37367 42.9826 10.6062 43.0126C12.8567 43.0426 14.7471 41.1705 14.7351 38.9265C14.7231 36.7124 12.9047 34.8884 10.6842 34.8644C8.42768 34.8404 6.56728 36.6824 6.57328 38.9505Z" fill="#0668E1"/>
<path d="M32.0814 18.3224C32.0814 16.9424 32.0814 15.7963 32.0814 14.4883C31.4753 14.4883 30.9592 14.5003 30.443 14.4883C28.9907 14.4463 28.0905 13.6483 28.0725 12.2262C28.0305 8.91416 28.0305 5.60208 28.0725 2.296C28.0905 0.819962 28.9967 0.00994137 30.5091 0.00994137C35.9643 -0.00205893 41.4195 -0.00205893 46.8746 0.00394122C48.513 0.00394122 49.3772 0.885963 49.3832 2.536C49.3952 5.68008 49.3952 8.82416 49.3832 11.9742C49.3772 13.6123 48.507 14.4823 46.8566 14.4883C43.928 14.5003 41.0054 14.4703 38.0767 14.5123C37.5906 14.5183 37.0325 14.7103 36.6304 14.9863C35.1421 16.0123 33.7078 17.1164 32.0814 18.3224ZM37.1165 8.45815C36.5464 7.81014 36.1503 7.19812 35.5982 6.80211C35.2921 6.58011 34.614 6.55011 34.2959 6.74211C33.7738 7.06612 33.8398 7.66613 34.2719 8.11614C34.986 8.86016 35.7182 9.58018 36.4564 10.2942C36.9065 10.7322 37.4226 10.7742 37.8727 10.3302C39.511 8.72816 41.1554 7.13212 42.7157 5.46408C42.7697 5.40408 42.7998 5.32007 42.8118 5.22407C42.8838 4.63006 42.3617 4.12004 41.7615 4.15605C41.6295 4.16205 41.5035 4.18005 41.3774 4.21005C41.1614 4.25805 40.9934 4.55206 40.8073 4.74406C39.6431 5.91409 38.4728 7.09012 37.1165 8.45815Z" fill="#0668E1"/>
</svg>
