<svg width="60" height="60" viewBox="0 0 60 60" fill="none" xmlns="http://www.w3.org/2000/svg">
<path d="M14.9751 59.9948C10.8712 59.9948 6.77325 60.0008 2.66931 59.9948C0.761343 59.9948 -0.0126452 59.2388 0.00535453 57.331C0.0353541 54.8352 -0.102644 52.3155 0.209351 49.8557C0.695344 45.968 4.18729 42.9563 8.11723 42.8783C12.6832 42.7883 17.2491 42.7883 21.815 42.8723C26.267 42.9563 29.8849 46.682 29.9809 51.1636C30.0289 53.2694 29.9989 55.3752 29.9869 57.475C29.9749 59.1729 29.1829 59.9768 27.4909 59.9828C23.321 60.0008 19.1451 59.9948 14.9751 59.9948Z" fill="#0668E1"/>
<path d="M23.5674 32.1271C23.5674 36.8427 19.7094 40.7064 14.9995 40.7064C10.2896 40.7064 6.43164 36.8427 6.43164 32.1271C6.43164 27.3936 10.2536 23.5659 14.9995 23.5659C19.7334 23.5719 23.5674 27.3996 23.5674 32.1271Z" fill="#0668E1"/>
<path d="M49.2753 59.994C46.5634 59.994 43.8574 60 41.1454 59.994C39.3155 59.988 38.5475 59.2201 38.5595 57.3662C38.5715 55.6924 38.4755 53.9945 38.7215 52.3567C39.1655 49.3929 41.6734 47.2391 44.6554 47.1671C47.7213 47.0891 50.7873 47.0891 53.8533 47.1671C57.1892 47.2511 59.8232 49.9389 59.9612 53.2866C60.0212 54.7445 59.9972 56.2083 59.9732 57.6722C59.9492 59.1481 59.1152 59.952 57.6212 60C57.5852 60 57.5492 60 57.5132 60C54.7652 59.994 52.0233 59.994 49.2753 59.994Z" fill="#0668E1"/>
<path d="M49.2922 32.1382C52.8321 32.1502 55.6761 35 55.6881 38.5276C55.7001 42.0913 52.7901 45.0071 49.2322 44.9891C45.6802 44.9711 42.8003 42.0373 42.8363 38.4736C42.8783 34.946 45.7522 32.1262 49.2922 32.1382Z" fill="#0668E1"/>
<path d="M36.6491 23.9996C36.6491 22.192 36.6491 20.6909 36.6491 18.9775C35.8315 18.9775 35.1354 18.9933 34.4392 18.9775C32.4802 18.9225 31.266 17.8772 31.2417 16.0146C31.1851 11.6762 31.1851 7.3379 31.2417 3.00742C31.266 1.07403 32.4883 0.0130217 34.5282 0.0130217C41.8865 -0.00269689 49.2447 -0.00269689 56.603 0.00516242C58.8129 0.00516242 59.9785 1.16048 59.9866 3.32179C60.0028 7.44007 60.0028 11.5583 59.9866 15.6845C59.9785 17.8301 58.8048 18.9697 56.5787 18.9775C52.6284 18.9933 48.6862 18.954 44.7359 19.009C44.0802 19.0168 43.3274 19.2683 42.785 19.6299C40.7775 20.9738 38.8428 22.4199 36.6491 23.9996ZM43.4407 11.0789C42.6717 10.2301 42.1374 9.42848 41.3927 8.90976C40.9799 8.61897 40.0651 8.57967 39.6361 8.83117C38.9319 9.25557 39.0209 10.0415 39.6037 10.6309C40.567 11.6055 41.5546 12.5486 42.5503 13.4839C43.1574 14.0576 43.8535 14.1126 44.4607 13.531C46.6706 11.4326 48.8886 9.34202 50.9932 7.15714C51.0661 7.07854 51.1066 6.96851 51.1227 6.84276C51.2199 6.06469 50.5156 5.39665 49.7061 5.44381C49.528 5.45166 49.3581 5.47524 49.1881 5.51454C48.8967 5.57741 48.67 5.96252 48.4191 6.21402C46.8486 7.74658 45.2701 9.28701 43.4407 11.0789Z" fill="#0668E1"/>
</svg>
