<svg width="60" height="58" viewBox="0 0 60 58" fill="none" xmlns="http://www.w3.org/2000/svg">
<path d="M31.8637 28.5954L33.863 30.8529V5.14215C33.863 2.25753 31.6138 0 28.7398 0H4.99823C2.2492 0.125418 0 2.38295 0 5.14215V51.5469C0 54.3061 2.2492 56.689 5.12318 56.689H27.7402C29.3646 56.689 30.864 56.062 31.9886 54.9332C30.2393 53.1773 28.6148 51.2961 28.115 49.0385H5.74796C4.99823 49.0385 4.4984 48.5369 4.4984 47.7844V8.90469C4.4984 8.2776 4.99823 7.65051 5.74796 7.65051H28.24C28.9897 7.65051 29.4895 8.2776 29.4895 8.90469V26.9649C30.3642 27.3412 31.2389 27.8428 31.8637 28.5954ZM13.995 51.5469H19.9929C20.7426 51.5469 21.2425 52.0486 21.2425 52.8011C21.2425 53.4282 20.7426 54.0553 19.9929 54.0553H13.995C13.2453 54.0553 12.7455 53.4282 12.7455 52.8011C12.7455 52.0486 13.2453 51.5469 13.995 51.5469Z" fill="#0668E1"/>
<path d="M58.4731 44.0215C57.8483 36.8727 50.8508 31.9814 48.3517 28.5951C46.3524 26.463 42.8536 27.3409 42.1039 29.9747C40.1046 29.473 38.1053 31.1034 37.7304 32.9847C36.3559 32.8593 34.9814 33.6118 34.1067 34.866L29.9832 30.2255C28.6087 28.7205 26.2345 28.5951 24.735 29.9747C22.111 32.2322 23.9853 34.4897 24.86 35.6185C27.4841 38.6285 20.6115 30.978 31.2327 42.6419C30.608 43.6453 30.3581 44.774 30.2331 45.9028C30.1081 47.7841 30.7329 49.6653 31.8575 51.0449C32.4823 51.7975 38.1053 59.0717 44.728 56.4379C46.4773 58.3192 49.4763 58.57 51.4756 56.8142L58.3481 50.9195C60.3474 49.1637 60.5973 46.2791 58.723 44.2724L58.4731 44.0215Z" fill="#0668E1"/>
<path d="M23.1115 28.0934C24.1111 27.2155 25.4857 26.7138 26.8602 26.5884C26.8602 26.463 26.8602 26.2122 26.8602 26.0868C26.7352 25.5851 26.3603 25.3342 25.8605 25.2088L20.4874 24.4563L18.1133 19.6904C17.7384 18.8125 16.2389 18.8125 15.8641 19.6904L13.4899 24.4563L8.11682 25.2088C7.61699 25.3342 7.24213 25.5851 7.11717 26.0868C6.99222 26.5884 7.11717 27.0901 7.49204 27.3409L11.3657 31.1035L10.491 36.371C10.366 36.8727 10.6159 37.3744 10.9908 37.6252C11.3657 37.8761 11.8655 37.8761 12.2404 37.7507L16.9887 35.2423L21.737 37.7507C22.1119 38.0015 22.6117 37.8761 23.1115 37.6252C23.1115 37.6252 23.2365 37.6252 23.2365 37.4998C23.2365 37.4998 23.1115 37.3744 22.9865 37.249C19.2379 32.6085 21.4871 29.4731 23.1115 28.0934Z" fill="#0668E1"/>
</svg>
