<svg width="60" height="60" viewBox="0 0 60 60" fill="none" xmlns="http://www.w3.org/2000/svg">
<path d="M5.72772 1.06633C6.18295 -0.355445 8.16507 -0.355444 8.62031 1.06633L9.27133 3.09961C9.47492 3.73545 10.0588 4.16594 10.7176 4.16594H12.8244C14.2975 4.16594 14.9101 6.07893 13.7182 6.95764L12.0138 8.21427C11.4808 8.60724 11.2578 9.3038 11.4614 9.93964L12.1124 11.9729C12.5677 13.3947 10.9641 14.577 9.77227 13.6983L8.06787 12.4416C7.53488 12.0487 6.81315 12.0487 6.28015 12.4416L4.57575 13.6983C3.38394 14.577 1.78036 13.3947 2.2356 11.9729L2.88662 9.93964C3.0902 9.3038 2.86718 8.60724 2.33418 8.21427L0.629779 6.95764C-0.562033 6.07893 0.0504793 4.16594 1.52364 4.16594H3.6304C4.28922 4.16594 4.87311 3.73545 5.07669 3.09961L5.72772 1.06633Z" fill="#0668E1"/>
<rect x="20.8672" y="2.66406" width="39.131" height="7.55556" rx="1.73915" fill="#0668E1"/>
<rect x="20.8672" y="11.1094" width="30.4352" height="1.33333" rx="0.666667" fill="#0668E1"/>
<rect x="53.4766" y="11.1094" width="4.34789" height="1.33333" rx="0.666667" fill="#0668E1"/>
<path d="M4.58217 27.914C4.94636 26.6953 6.53206 26.6953 6.89624 27.914L7.41706 29.6568C7.57993 30.2018 8.04705 30.5708 8.5741 30.5708H10.2595C11.438 30.5708 11.928 32.2105 10.9746 32.9637L9.61107 34.0408C9.18468 34.3776 9.00625 34.9747 9.16912 35.5197L9.68994 37.2625C10.0541 38.4812 8.77127 39.4946 7.81782 38.7414L6.4543 37.6643C6.0279 37.3274 5.45052 37.3274 5.02412 37.6643L3.6606 38.7414C2.70715 39.4946 1.42429 38.4812 1.78848 37.2625L2.3093 35.5197C2.47216 34.9747 2.29374 34.3776 1.86735 34.0408L0.503824 32.9637C-0.449626 32.2105 0.0403835 30.5708 1.21891 30.5708H2.90432C3.43137 30.5708 3.89848 30.2018 4.06135 29.6568L4.58217 27.914Z" fill="#0668E1"/>
<rect x="16.6953" y="29.2876" width="31.3048" height="6.47619" rx="1.39132" fill="#0668E1"/>
<rect x="16.6953" y="36.5234" width="24.3482" height="1.14286" rx="0.571428" fill="#0668E1"/>
<rect x="42.7812" y="36.5234" width="3.47831" height="1.14286" rx="0.571428" fill="#0668E1"/>
<path d="M2.86386 52.6093C3.09147 51.7969 4.08254 51.7969 4.31015 52.6093L4.63567 53.7712C4.73746 54.1345 5.0294 54.3805 5.35881 54.3805H6.41219C7.14877 54.3805 7.45503 55.4737 6.85912 55.9758L6.00692 56.6939C5.74042 56.9184 5.62891 57.3165 5.7307 57.6798L6.05621 58.8417C6.28383 59.6541 5.48204 60.3297 4.88614 59.8276L4.03394 59.1095C3.76744 58.885 3.40657 58.885 3.14008 59.1095L2.28787 59.8276C1.69197 60.3297 0.890182 59.6541 1.1178 58.8417L1.44331 57.6798C1.5451 57.3165 1.43359 56.9184 1.16709 56.6939L0.31489 55.9758C-0.281017 55.4737 0.0252397 54.3805 0.76182 54.3805H1.8152C2.14461 54.3805 2.43655 54.1345 2.53835 53.7712L2.86386 52.6093Z" fill="#0668E1"/>
<rect x="10.4297" y="53.5251" width="19.5655" height="4.31746" rx="0.869577" fill="#0668E1"/>
<rect x="10.4297" y="58.3503" width="15.2176" height="0.761905" rx="0.380952" fill="#0668E1"/>
<rect x="26.7422" y="58.3503" width="2.17394" height="0.761905" rx="0.380952" fill="#0668E1"/>
</svg>
