<svg width="60" height="60" viewBox="0 0 60 60" fill="none" xmlns="http://www.w3.org/2000/svg">
<g clip-path="url(#clip0_10802_156011)">
<path d="M42.5 4H17.5C16.12 4 15 5.12 15 6.5V26.5C15 27.88 16.12 29 17.5 29H42.5C43.88 29 45 27.88 45 26.5V6.5C45 5.12 43.88 4 42.5 4ZM22.5 6.5C22.5 6.775 22.275 7 22 7C21.725 7 21.5 6.775 21.5 6.5C21.5 6.225 21.725 6 22 6C22.275 6 22.5 6.225 22.5 6.5ZM20.5 6.5C20.5 6.775 20.275 7 20 7C19.725 7 19.5 6.775 19.5 6.5C19.5 6.225 19.725 6 20 6C20.275 6 20.5 6.225 20.5 6.5ZM18 6C18.275 6 18.5 6.225 18.5 6.5C18.5 6.775 18.275 7 18 7C17.725 7 17.5 6.775 17.5 6.5C17.5 6.225 17.725 6 18 6ZM44 26.5C44 27.325 43.325 28 42.5 28H17.5C16.675 28 16 27.325 16 26.5V9H44V26.5Z" fill="#0668E1"/>
<path d="M20 25.9995H41C41.275 25.9995 41.5 25.7745 41.5 25.4995C41.5 25.2245 41.275 24.9995 41 24.9995H39.5V16.9995C39.5 16.4495 39.05 15.9995 38.5 15.9995H37.5C36.95 15.9995 36.5 16.4495 36.5 16.9995V24.9995H35.5V19.4995C35.5 18.9495 35.05 18.4995 34.5 18.4995H33.5C32.95 18.4995 32.5 18.9495 32.5 19.4995V24.9995H31.5V19.4995C31.5 18.9495 31.05 18.4995 30.5 18.4995H29.5C28.95 18.4995 28.5 18.9495 28.5 19.4995V24.9995H27.5V21.9995C27.5 21.4495 27.05 20.9995 26.5 20.9995H25.5C24.95 20.9995 24.5 21.4495 24.5 21.9995V24.9995H23.5V22.9995C23.5 22.4495 23.05 21.9995 22.5 21.9995H21.5C20.95 21.9995 20.5 22.4495 20.5 22.9995V24.9995H20C19.725 24.9995 19.5 24.7745 19.5 24.4995V11.4995C19.5 11.2245 19.275 10.9995 19 10.9995C18.725 10.9995 18.5 11.2245 18.5 11.4995V24.4995C18.5 25.3245 19.175 25.9995 20 25.9995Z" fill="#0668E1"/>
<path d="M21.9993 20.9997C22.0943 20.9997 22.1843 20.9747 22.2693 20.9197L29.1443 16.4997H33.9993C34.1193 16.4997 34.2393 16.4547 34.3293 16.3747L38.3293 12.8747C38.5393 12.6947 38.5593 12.3747 38.3743 12.1697C38.1943 11.9597 37.8743 11.9397 37.6693 12.1247L33.8093 15.4997H28.9993C28.9043 15.4997 28.8093 15.5247 28.7293 15.5797L21.7293 20.0797C21.4993 20.2297 21.4293 20.5397 21.5793 20.7697C21.6743 20.9197 21.8343 20.9997 21.9993 20.9997Z" fill="#0668E1"/>
<path d="M7.51888 35.5705C7.58488 36.0265 7.59088 36.2905 7.65688 36.5365C8.90489 41.1261 10.2009 45.7038 11.3829 50.3114C11.6769 51.4693 12.3489 51.7813 13.3629 52.0093C19.2009 53.3172 25.033 54.6491 30.853 56.029C32.431 56.401 33.799 56.239 35.197 55.339C39.6371 52.4833 44.1371 49.7115 48.6131 46.9097C52.0211 44.7798 55.4292 42.65 58.8252 40.5082C59.9652 39.7882 60.3192 38.9003 59.6772 38.0244C57.9912 35.7025 55.8912 34.2027 52.4531 35.5106C50.5091 36.2485 48.6551 37.2204 46.7351 38.0244C45.5951 38.4983 44.8571 38.9663 44.8571 40.5022C44.8631 42.566 43.1051 44.0539 40.7111 44.5159C35.653 45.4818 30.553 45.0618 25.465 44.8578C24.775 44.8278 24.223 44.4559 24.259 43.6699C24.295 42.866 24.847 42.626 25.579 42.662C26.989 42.722 28.405 42.854 29.815 42.812C33.265 42.71 36.715 42.554 40.1651 42.356C41.1791 42.296 42.0071 41.7741 42.4331 40.7841C43.0751 39.2723 42.1031 37.5444 40.3811 37.4844C36.8171 37.3584 33.241 37.4364 29.671 37.3704C28.567 37.3524 27.427 37.2744 26.377 36.9744C23.911 36.2725 21.511 35.3486 19.0449 34.6466C17.7789 34.2866 16.3929 33.8907 15.1269 34.0467C12.6009 34.3466 10.1229 35.0246 7.51888 35.5705ZM4.27886 35.1326C2.85085 35.5166 1.68084 35.7445 0.582837 36.1825C0.258835 36.3085 -0.0171664 37.0164 0.000833732 37.4424C0.0248339 38.1324 0.306836 38.8103 0.492837 39.4942C1.82484 44.3659 3.15085 49.2315 4.50086 54.0971C4.83086 55.279 5.29886 55.519 6.47487 55.2371C7.19488 55.0631 7.91488 54.8831 8.63488 54.6851C9.79889 54.3671 10.1109 53.9232 9.78689 52.7232C8.31088 47.2397 6.81687 41.7621 5.26886 36.2965C5.13686 35.8285 4.58486 35.4806 4.27886 35.1326Z" fill="#0668E1"/>
<path d="M7.52344 35.5708C10.1215 35.0249 12.6055 34.3469 15.1375 34.0349C16.4035 33.879 17.7895 34.2749 19.0555 34.6349C21.5215 35.3368 23.9215 36.2608 26.3875 36.9627C27.4376 37.2627 28.5776 37.3347 29.6816 37.3587C33.2516 37.4247 36.8216 37.3527 40.3916 37.4727C42.1136 37.5327 43.0916 39.2665 42.4436 40.7724C42.0176 41.7684 41.1896 42.2903 40.1756 42.3443C36.7316 42.5423 33.2816 42.6983 29.8256 42.8003C28.4156 42.8423 26.9995 42.7103 25.5895 42.6503C24.8575 42.6203 24.3055 42.8603 24.2695 43.6582C24.2335 44.4442 24.7855 44.8221 25.4755 44.8461C30.5636 45.0501 35.6636 45.4701 40.7216 44.5041C43.1156 44.0482 44.8737 42.5603 44.8677 40.4905C44.8677 38.9546 45.6057 38.4866 46.7457 38.0126C48.6657 37.2087 50.5197 36.2368 52.4637 35.4988C55.9017 34.1909 58.0017 35.6908 59.6877 38.0126C60.3237 38.8886 59.9757 39.7765 58.8357 40.4965C55.4337 42.6383 52.0257 44.7621 48.6237 46.898C44.1477 49.6998 39.6476 52.4715 35.2076 55.3273C33.8096 56.2273 32.4416 56.3892 30.8636 56.0173C25.0435 54.6374 19.2115 53.3055 13.3735 51.9976C12.3595 51.7696 11.6875 51.4576 11.3935 50.2997C10.2115 45.6921 8.91545 41.1144 7.66744 36.5248C7.59544 36.2968 7.58944 36.0328 7.52344 35.5708Z" fill="#0668E1"/>
<path d="M4.27886 35.1328C4.58486 35.4808 5.14286 35.8288 5.27486 36.2907C6.82287 41.7563 8.31688 47.2339 9.79289 52.7175C10.1169 53.9114 9.80489 54.3614 8.64088 54.6793C7.92688 54.8713 7.20688 55.0513 6.48087 55.2313C5.29886 55.5193 4.83086 55.2733 4.50686 54.0914C3.15685 49.2257 1.83084 44.3601 0.498837 39.4885C0.306836 38.8045 0.0308339 38.1266 0.000833732 37.4366C-0.0171664 37.0107 0.258835 36.3027 0.582837 36.1767C1.67484 35.7448 2.85085 35.5168 4.27886 35.1328Z" fill="#0668E1"/>
</g>
<defs>
<clipPath id="clip0_10802_156011">
<rect width="60" height="60" fill="white"/>
</clipPath>
</defs>
</svg>
