<svg width="60" height="60" viewBox="0 0 60 60" fill="none" xmlns="http://www.w3.org/2000/svg">
<g clip-path="url(#clip0_10802_156062)">
<path d="M28.015 3.57744C29.2182 2.80752 30.7932 2.80752 31.9963 3.57744L33.9432 4.81143C34.5994 5.22275 35.365 5.42314 36.1416 5.38096L38.4713 5.24385C39.915 5.15947 41.2713 5.91885 41.9166 7.16338L42.9666 9.17783C43.3166 9.85283 43.8853 10.3907 44.5744 10.7282L46.6853 11.7513C47.976 12.3735 48.7635 13.6813 48.676 15.0735L48.5338 17.32C48.49 18.0688 48.6978 18.8177 49.1244 19.4399L50.415 21.3173C51.2135 22.4774 51.2135 23.9962 50.415 25.1563L49.1244 27.0442C48.6978 27.6771 48.49 28.4153 48.5338 29.1642L48.676 31.4106C48.7635 32.8028 47.976 34.1106 46.6853 34.7329L44.5963 35.7454C43.8963 36.0829 43.3385 36.6314 42.9885 37.2958L41.9275 39.3313C41.2822 40.5759 39.926 41.3353 38.4822 41.2509L36.1525 41.1138C35.376 41.0716 34.5994 41.272 33.9541 41.6833L32.0072 42.9278C30.8041 43.6978 29.2291 43.6978 28.026 42.9278L26.0682 41.6833C25.4119 41.272 24.6463 41.0716 23.8697 41.1138L21.54 41.2509C20.0963 41.3353 18.74 40.5759 18.0947 39.3313L17.0447 37.3169C16.6947 36.6419 16.126 36.104 15.4369 35.7665L13.326 34.7435C12.0353 34.1212 11.2478 32.8134 11.3353 31.4212L11.4775 29.1747C11.5213 28.4259 11.3135 27.6771 10.8869 27.0548L9.60722 25.1669C8.80878 24.0067 8.80878 22.488 9.60722 21.3278L10.8869 19.4505C11.3135 18.8177 11.5213 18.0794 11.4775 17.3306L11.3353 15.0841C11.2478 13.6919 12.0353 12.3841 13.326 11.7618L15.415 10.7493C16.115 10.4013 16.6838 9.85283 17.0338 9.17783L18.0838 7.16338C18.7291 5.91885 20.0853 5.15947 21.5291 5.24385L23.8588 5.38096C24.6353 5.42314 25.4119 5.22275 26.0572 4.81143L28.015 3.57744ZM38.7557 23.2474C38.7557 21.0096 37.8338 18.8635 36.1928 17.2812C34.5519 15.6988 32.3263 14.8099 30.0057 14.8099C27.685 14.8099 25.4594 15.6988 23.8185 17.2812C22.1775 18.8635 21.2557 21.0096 21.2557 23.2474C21.2557 25.4851 22.1775 27.6312 23.8185 29.2136C25.4594 30.7959 27.685 31.6849 30.0057 31.6849C32.3263 31.6849 34.5519 30.7959 36.1928 29.2136C37.8338 27.6312 38.7557 25.4851 38.7557 23.2474ZM9.14784 49.5935L13.8619 38.7829C13.8838 38.7935 13.8947 38.804 13.9057 38.8251L14.9557 40.8396C16.2353 43.2864 18.8932 44.7735 21.7369 44.6153L24.0666 44.4782C24.0885 44.4782 24.1213 44.4782 24.1432 44.4993L26.09 45.7438C26.6478 46.0919 27.2385 46.3661 27.851 46.556L23.7385 55.9743C23.4869 56.5544 22.9291 56.9446 22.2838 56.9974C21.6385 57.0501 21.015 56.7653 20.665 56.238L17.1432 51.0384L11.0072 51.9138C10.3838 51.9981 9.76034 51.7556 9.36659 51.281C8.97284 50.8063 8.89628 50.1524 9.13691 49.5935H9.14784ZM36.2728 55.9638L32.1603 46.556C32.7728 46.3661 33.3635 46.1024 33.9213 45.7438L35.8682 44.4993C35.89 44.4888 35.9119 44.4782 35.9447 44.4782L38.2744 44.6153C41.1182 44.7735 43.776 43.2864 45.0557 40.8396L46.1057 38.8251C46.1166 38.804 46.1275 38.7935 46.1494 38.7829L50.8744 49.5935C51.115 50.1524 51.0275 50.7958 50.6447 51.281C50.2619 51.7661 49.6275 52.0087 49.0041 51.9138L42.8682 51.0384L39.3463 56.2274C38.9963 56.7548 38.3728 57.0396 37.7275 56.9868C37.0822 56.9341 36.5244 56.5333 36.2728 55.9638Z" fill="#0668E1"/>
</g>
<defs>
<clipPath id="clip0_10802_156062">
<rect width="42" height="54" fill="white" transform="translate(9 3)"/>
</clipPath>
</defs>
</svg>
