<svg width="60" height="60" viewBox="0 0 60 60" fill="none" xmlns="http://www.w3.org/2000/svg">
<path d="M51 6H48V3C48 1.2 46.8 0 45 0C43.2 0 42 1.2 42 3V6H18V3C18 1.2 16.8 0 15 0C13.2 0 12 1.2 12 3V6H9C3.9 6 0 9.9 0 15V18H60V15C60 9.9 56.1 6 51 6ZM0 51C0 56.1 3.9 60 9 60H51C56.1 60 60 56.1 60 51V24H0V51Z" fill="#0668E1"/>
<path fill-rule="evenodd" clip-rule="evenodd" d="M34.9213 32.8452C34.7227 32.5278 34.4301 32.2803 34.0842 32.137C33.7383 31.9938 33.3564 31.9619 32.9916 32.0459L30.4024 32.6407C30.1371 32.7016 29.8613 32.7016 29.596 32.6407L27.0068 32.0459C26.642 31.9619 26.26 31.9938 25.9142 32.137C25.5683 32.2803 25.2757 32.5278 25.0771 32.8452L23.6659 35.0975C23.5219 35.328 23.3275 35.5224 23.097 35.6678L20.8448 37.0792C20.528 37.2776 20.2809 37.5697 20.1377 37.915C19.9944 38.2603 19.9623 38.6417 20.0456 39.0061L20.6403 41.5983C20.7011 41.8632 20.7011 42.1385 20.6403 42.4034L20.0456 44.9942C19.9619 45.3588 19.9939 45.7404 20.1372 46.086C20.2804 46.4316 20.5278 46.724 20.8448 46.9225L23.097 48.3339C23.3275 48.4779 23.5219 48.6723 23.6673 48.9027L25.0786 51.1551C25.4846 51.8046 26.2594 52.1258 27.0068 51.9544L29.596 51.3596C29.8613 51.2986 30.1371 51.2986 30.4024 51.3596L32.993 51.9544C33.3577 52.038 33.7393 52.006 34.0848 51.8628C34.4304 51.7195 34.7228 51.4722 34.9213 51.1551L36.3325 48.9027C36.4765 48.6723 36.6709 48.4779 36.9013 48.3339L39.155 46.9225C39.4721 46.7237 39.7193 46.431 39.8623 46.0851C40.0053 45.7393 40.0369 45.3574 39.9528 44.9927L39.3595 42.4034C39.2985 42.138 39.2985 41.8623 39.3595 41.5969L39.9542 39.0061C40.038 38.6416 40.0062 38.2601 39.8633 37.9145C39.7203 37.5689 39.4732 37.2765 39.1564 37.0777L36.9028 35.6664C36.6727 35.5221 36.4782 35.3276 36.334 35.0975L34.9213 32.8452ZM34.1969 38.7886C34.286 38.6248 34.3081 38.4329 34.2585 38.2531C34.2089 38.0734 34.0916 37.9199 33.9311 37.8249C33.7707 37.73 33.5797 37.7009 33.3983 37.744C33.2169 37.787 33.0592 37.8987 32.9585 38.0556L29.1928 44.4296L26.9189 42.2522C26.8515 42.1829 26.7708 42.1279 26.6816 42.0905C26.5924 42.0531 26.4967 42.0341 26.4 42.0345C26.3033 42.0349 26.2077 42.0548 26.1188 42.093C26.03 42.1311 25.9498 42.1868 25.8829 42.2567C25.8161 42.3265 25.764 42.4091 25.7297 42.4996C25.6955 42.59 25.6798 42.6864 25.6837 42.783C25.6875 42.8796 25.7107 42.9745 25.752 43.0619C25.7932 43.1493 25.8517 43.2276 25.9239 43.2919L28.8529 46.0988C28.9313 46.1737 29.0256 46.23 29.1288 46.2634C29.232 46.2968 29.3414 46.3065 29.4489 46.2916C29.5563 46.2768 29.659 46.2379 29.7493 46.1778C29.8396 46.1178 29.9152 46.0381 29.9704 45.9447L34.1969 38.7886Z" fill="white"/>
</svg>
