<svg width="60" height="60" viewBox="0 0 60 60" fill="none" xmlns="http://www.w3.org/2000/svg">
<path d="M22.0376 23.1004C22.1396 22.4764 22.2716 21.5585 22.4336 20.6525C22.6436 19.4886 22.2896 18.5227 21.4556 17.7128C20.8736 17.1488 20.2676 16.6029 19.7276 16.0029C18.0836 14.167 18.8936 11.2693 21.3236 11.0053C24.3296 10.6813 26.2256 9.4274 27.4316 6.59562C28.3976 4.33979 31.3977 4.42379 32.6817 6.53562C33.0237 7.09358 33.3417 7.67554 33.5877 8.28149C34.2297 9.87737 35.4717 10.5433 37.0977 10.6813C37.6737 10.7293 38.2497 10.8073 38.8137 10.9333C41.2797 11.4852 42.1257 14.185 40.4037 16.0389C39.8517 16.6329 39.2217 17.1488 38.6397 17.7128C37.7637 18.5587 37.4817 19.5786 37.7217 20.7785C37.8957 21.6485 38.0877 22.5244 38.1177 23.4003C38.1957 25.6862 35.9277 27.276 33.9057 26.2321C30.5996 24.5283 30.2756 23.9823 26.2256 26.2321C24.2396 27.342 21.9956 25.6982 22.0376 23.1004Z" fill="#0668E1"/>
<path d="M22.9869 9.30778C22.5009 9.39177 22.0148 9.47576 21.5288 9.54776C19.7828 9.80574 18.4928 10.6997 17.9048 12.3795C17.3228 14.0354 17.6468 15.5773 18.8528 16.8852C19.2728 17.3412 19.7108 17.7791 20.1848 18.1691C21.1808 18.973 21.4208 19.909 21.0548 21.1449C20.6408 22.5308 19.8608 23.1907 18.4088 22.8607C17.4848 22.6508 16.5848 22.2428 15.7508 21.7868C14.5508 21.1329 13.4288 21.0669 12.2528 21.7928C11.7308 22.1168 11.1728 22.3928 10.6088 22.6388C8.53877 23.5447 6.51076 22.1888 6.60676 19.933C6.63676 19.207 6.78076 18.4811 6.93676 17.7671C7.21276 16.5132 6.86476 15.4933 5.92275 14.6414C5.40675 14.1794 4.86675 13.7294 4.41674 13.2075C2.95874 11.5276 3.76274 8.83381 5.95875 8.67782C8.82077 8.47384 10.4828 7.24993 11.5628 4.59214C12.4268 2.4743 15.4628 2.4683 16.3448 4.58014C17.4428 7.21394 19.0868 8.64183 21.9668 8.61783C22.3088 8.61183 22.6569 8.85181 22.9989 8.9778C22.9929 9.08579 22.9869 9.19379 22.9869 9.30778Z" fill="#0668E1"/>
<path d="M37.0391 8.87448C37.8431 8.71249 38.6411 8.44851 39.4451 8.40652C41.1371 8.32252 42.2831 7.56658 42.8951 5.9827C43.0871 5.48474 43.3391 4.99878 43.6151 4.53681C44.7731 2.61696 47.2931 2.59896 48.4631 4.51881C48.8231 5.10677 49.1351 5.73672 49.4111 6.37267C49.9811 7.70457 51.0251 8.26253 52.4051 8.37652C53.0172 8.42452 53.6412 8.49651 54.2292 8.6585C56.2152 9.19246 56.9772 11.4663 55.6932 13.0802C55.1892 13.7101 54.5772 14.2561 53.9952 14.82C53.1492 15.642 52.8312 16.5899 53.0952 17.7598C53.2632 18.5097 53.3892 19.2837 53.4132 20.0456C53.4792 22.3195 51.4511 23.6154 49.3691 22.6674C49.2611 22.6194 49.1531 22.5774 49.0631 22.5054C47.0831 21.0536 45.1031 20.9936 43.0991 22.4574C42.8591 22.6314 42.5351 22.7034 42.2471 22.7994C41.2391 23.1234 40.1831 23.1414 39.4451 22.3555C38.6951 21.5575 38.9771 19.2777 39.7511 18.4917C40.2971 17.9458 40.8731 17.4298 41.3951 16.8599C42.5651 15.588 42.8831 14.0881 42.3371 12.4622C41.7671 10.7583 40.4891 9.86441 38.7551 9.56443C38.1911 9.46844 37.6211 9.37844 37.0571 9.28845C37.0511 9.15046 37.0451 9.01247 37.0391 8.87448Z" fill="#0668E1"/>
<path d="M7.51888 36.3537C7.58488 36.8097 7.59088 37.0737 7.65688 37.3197C8.90489 41.9093 10.2009 46.487 11.3829 51.0946C11.6769 52.2525 12.3489 52.5645 13.3629 52.7925C19.2009 54.1004 25.033 55.4323 30.853 56.8122C32.431 57.1842 33.799 57.0222 35.197 56.1222C39.6371 53.2665 44.1371 50.4947 48.6131 47.6929C52.0211 45.563 55.4292 43.4332 58.8252 41.2914C59.9652 40.5714 60.3192 39.6835 59.6772 38.8076C57.9912 36.4857 55.8912 34.9859 52.4531 36.2938C50.5091 37.0317 48.6551 38.0036 46.7351 38.8076C45.5951 39.2815 44.8571 39.7495 44.8571 41.2854C44.8631 43.3492 43.1051 44.8371 40.7111 45.2991C35.653 46.265 30.553 45.845 25.465 45.641C24.775 45.611 24.223 45.2391 24.259 44.4531C24.295 43.6492 24.847 43.4092 25.579 43.4452C26.989 43.5052 28.405 43.6372 29.815 43.5952C33.265 43.4932 36.7151 43.3372 40.1651 43.1392C41.1791 43.0792 42.0071 42.5573 42.4331 41.5674C43.0751 40.0555 42.1031 38.3276 40.3811 38.2676C36.8171 38.1416 33.241 38.2196 29.671 38.1536C28.567 38.1356 27.427 38.0576 26.377 37.7576C23.911 37.0557 21.511 36.1318 19.0449 35.4298C17.7789 35.0698 16.3929 34.6739 15.1269 34.8299C12.6009 35.1298 10.1229 35.8078 7.51888 36.3537ZM4.27886 35.9158C2.85085 36.2998 1.68084 36.5277 0.582837 36.9657C0.258835 37.0917 -0.0171664 37.7996 0.000833732 38.2256C0.0248339 38.9156 0.306836 39.5935 0.492837 40.2775C1.82484 45.1491 3.15085 50.0147 4.50086 54.8803C4.83086 56.0623 5.29886 56.3022 6.47487 56.0203C7.19488 55.8463 7.91488 55.6663 8.63488 55.4683C9.79889 55.1503 10.1109 54.7064 9.78689 53.5064C8.31088 48.0229 6.81687 42.5453 5.26886 37.0797C5.13686 36.6117 4.58486 36.2638 4.27886 35.9158Z" fill="#0668E1"/>
<path d="M7.52344 36.354C10.1215 35.8081 12.6055 35.1301 15.1375 34.8181C16.4035 34.6622 17.7895 35.0581 19.0555 35.4181C21.5215 36.12 23.9215 37.044 26.3875 37.7459C27.4376 38.0459 28.5776 38.1179 29.6816 38.1419C33.2516 38.2079 36.8216 38.1359 40.3916 38.2559C42.1136 38.3159 43.0916 40.0498 42.4436 41.5556C42.0176 42.5516 41.1896 43.0735 40.1756 43.1275C36.7316 43.3255 33.2816 43.4815 29.8256 43.5835C28.4156 43.6255 26.9996 43.4935 25.5895 43.4335C24.8575 43.4035 24.3055 43.6435 24.2695 44.4414C24.2335 45.2274 24.7855 45.6053 25.4755 45.6293C30.5636 45.8333 35.6636 46.2533 40.7216 45.2874C43.1156 44.8314 44.8737 43.3435 44.8677 41.2737C44.8677 39.7378 45.6057 39.2698 46.7457 38.7958C48.6657 37.9919 50.5197 37.02 52.4637 36.282C55.9017 34.9741 58.0017 36.474 59.6877 38.7958C60.3237 39.6718 59.9757 40.5597 58.8357 41.2797C55.4337 43.4215 52.0257 45.5453 48.6237 47.6812C44.1476 50.483 39.6476 53.2547 35.2076 56.1105C33.8096 57.0105 32.4416 57.1724 30.8636 56.8005C25.0435 55.4206 19.2115 54.0887 13.3735 52.7808C12.3595 52.5528 11.6875 52.2408 11.3935 51.0829C10.2115 46.4753 8.91545 41.8976 7.66744 37.308C7.59544 37.08 7.58944 36.816 7.52344 36.354Z" fill="#0668E1"/>
<path d="M4.27886 35.916C4.58486 36.264 5.14286 36.612 5.27486 37.0739C6.82287 42.5395 8.31688 48.0171 9.79289 53.5007C10.1169 54.6946 9.80489 55.1446 8.64088 55.4625C7.92688 55.6545 7.20688 55.8345 6.48087 56.0145C5.29886 56.3025 4.83086 56.0565 4.50686 54.8746C3.15685 50.0089 1.83084 45.1433 0.498837 40.2717C0.306836 39.5877 0.0308339 38.9098 0.000833732 38.2198C-0.0171664 37.7939 0.258835 37.0859 0.582837 36.9599C1.67484 36.528 2.85085 36.3 4.27886 35.916Z" fill="#0668E1"/>
</svg>
