<svg width="40" height="40" viewBox="0 0 40 40" fill="none" xmlns="http://www.w3.org/2000/svg">
<path d="M23.5996 38.0001C22.9524 38.0001 22.4041 37.5519 22.2838 36.9167C22.2145 36.5485 22.1547 36.179 22.0929 35.8095C21.9632 35.0381 21.8348 34.2667 21.7058 33.4953C21.5822 32.7563 21.4578 32.0179 21.3328 31.2789C21.1897 30.4315 21.0466 29.5847 20.9034 28.7373C20.7972 28.1074 20.691 27.4774 20.5869 26.8468C20.566 26.7192 20.5298 26.5989 20.4377 26.5031C20.2757 26.3345 20.0802 26.2552 19.8463 26.32C19.6118 26.3848 19.4585 26.5381 19.4122 26.7767C19.3604 27.0418 19.3201 27.3089 19.2751 27.5746C19.142 28.3619 19.0083 29.1498 18.8766 29.937C18.7348 30.7845 18.595 31.6326 18.4525 32.48C18.3262 33.2296 18.1951 33.9785 18.0688 34.7281C17.9492 35.4341 17.8289 36.14 17.716 36.8473C17.599 37.5823 16.9727 38.0669 16.2234 37.9928C15.4774 37.9188 14.9277 37.2076 15.0507 36.4738C15.1831 35.6806 15.3135 34.8874 15.4479 34.0942C15.638 32.9698 15.8329 31.8467 16.0218 30.7223C16.1844 29.7553 16.3531 28.7895 16.5009 27.8205C16.7214 26.3755 16.8316 24.9213 16.8477 23.4598C16.8578 22.5317 16.7926 21.6102 16.6279 20.6974C16.3907 19.3833 15.9694 18.1274 15.3746 16.927C14.8329 15.833 14.2967 14.737 13.7577 13.6417C13.4922 13.1017 13.2234 12.5629 12.9627 12.0209C12.7046 11.4848 12.9909 10.8727 13.5648 10.7194C13.9694 10.611 14.4076 10.7848 14.6132 11.155C14.7684 11.4346 14.9015 11.7268 15.0433 12.0136C15.6918 13.3317 16.3363 14.6511 16.9888 15.9672C17.6071 17.2145 18.9122 17.9495 20.3147 17.8068C21.5566 17.6805 22.4686 17.0446 23.0217 15.9434C23.7179 14.5566 24.3946 13.1598 25.0794 11.7677C25.1722 11.5793 25.2595 11.389 25.3583 11.2039C25.5512 10.8423 25.902 10.6473 26.2958 10.6949C26.7017 10.7438 26.9712 10.9712 27.0955 11.3539C27.1701 11.584 27.1412 11.8114 27.035 12.0282C26.5801 12.9549 26.1217 13.8803 25.6688 14.8084C25.2226 15.7213 24.7716 16.6315 24.3402 17.551C24.0042 18.2675 23.7629 19.0184 23.5707 19.7845C23.3671 20.5936 23.228 21.4139 23.187 22.2461C23.1567 22.8563 23.1567 23.4684 23.1661 24.0791C23.1843 25.2478 23.2878 26.4112 23.4484 27.5686C23.5378 28.2118 23.652 28.8523 23.7589 29.4935C23.9712 30.7646 24.1863 32.0358 24.4 33.3069C24.5781 34.3659 24.7595 35.4248 24.9336 36.4844C25.064 37.2816 24.4269 38.0014 23.5996 38.0008V38.0001Z" fill="#1B1C17"/>
<path d="M19.9986 16.956C18.6861 16.9474 17.6378 15.9083 17.6485 14.6273C17.6593 13.3436 18.7244 12.3137 20.0282 12.3263C21.3198 12.3388 22.3615 13.3859 22.3541 14.6643C22.346 15.9262 21.2795 16.9646 19.9993 16.956H19.9986Z" fill="#1B1C17"/>
<path d="M28.643 11.1646C28.3258 11.1639 28.0825 11.0013 27.9891 10.7627C27.8883 10.5062 27.9495 10.2319 28.1511 10.0514C28.1921 10.0144 28.2378 9.98135 28.2862 9.95358C29.1585 9.45782 30.0301 8.9614 30.9044 8.4696C31.1873 8.3103 31.4871 8.35657 31.7041 8.57537C31.9723 8.84638 31.9534 9.2734 31.6544 9.51136C31.5556 9.59003 31.4393 9.64952 31.3285 9.71297C30.5388 10.1625 29.7485 10.61 28.9589 11.0588C28.8446 11.1236 28.7257 11.1652 28.6444 11.1632L28.643 11.1646Z" fill="#1B1C17"/>
<path d="M8.77818 22.4269C8.49256 22.4243 8.25063 22.2584 8.15588 22.0164C8.05776 21.7672 8.1169 21.4975 8.31448 21.3197C8.36757 21.2721 8.42872 21.2305 8.49122 21.1955C9.32857 20.7175 10.1673 20.2423 11.0046 19.7644C11.2318 19.6348 11.4609 19.5892 11.7055 19.7148C12.1 19.9171 12.1834 20.4287 11.8648 20.7341C11.7902 20.8061 11.6968 20.8616 11.6054 20.9139C10.7976 21.3752 9.98783 21.834 9.17871 22.2941C9.04632 22.3694 8.91124 22.4342 8.77818 22.4276V22.4269Z" fill="#1B1C17"/>
<path d="M31.8905 21.7861C31.8892 22.2508 31.3872 22.5641 30.9578 22.3632C30.8166 22.2971 30.6849 22.2118 30.5492 22.1351C29.8025 21.7114 29.0566 21.2871 28.3093 20.8647C28.1527 20.7761 28.0317 20.6591 27.9753 20.4885C27.8852 20.2189 27.9592 19.9882 28.1648 19.7978C28.3536 19.6233 28.6446 19.5856 28.8852 19.7092C29.0983 19.8189 29.3046 19.9419 29.5129 20.0602C30.1816 20.4396 30.8502 20.8204 31.5196 21.1991C31.7508 21.33 31.8845 21.5184 31.8912 21.7861H31.8905Z" fill="#1B1C17"/>
<path d="M11.3565 11.164C11.2678 11.1666 11.1455 11.1177 11.0265 11.0503C10.3296 10.6524 9.63072 10.2577 8.93315 9.86113C8.7685 9.76792 8.60184 9.6767 8.43988 9.57953C8.23424 9.45658 8.11999 9.27547 8.10991 9.03684C8.09177 8.60123 8.53732 8.27271 8.95801 8.41086C9.03127 8.43532 9.1025 8.47035 9.17038 8.50869C10.0091 8.98396 10.8471 9.46121 11.6858 9.93582C11.8363 10.0211 11.9546 10.1321 12.0158 10.2954C12.1737 10.7191 11.8652 11.1587 11.3572 11.1646L11.3565 11.164Z" fill="#1B1C17"/>
<path d="M19.3417 4.12631C19.3417 3.64773 19.3431 3.1685 19.3411 2.68992C19.3411 2.55375 19.3706 2.4275 19.4412 2.31182C19.5937 2.0613 19.8867 1.9476 20.1818 2.02296C20.4311 2.08642 20.6367 2.33892 20.6556 2.60531C20.6576 2.63241 20.6562 2.66018 20.6562 2.68794C20.6562 3.65699 20.6549 4.62537 20.6569 5.59442C20.6569 5.8119 20.585 5.995 20.417 6.13447C20.214 6.30303 19.9775 6.33145 19.7402 6.23098C19.495 6.1272 19.3632 5.92691 19.3437 5.66251C19.3364 5.56402 19.3417 5.4642 19.3417 5.36505C19.3417 4.95192 19.3417 4.53944 19.3417 4.12631Z" fill="#1B1C17"/>
<path d="M25.4019 23.9147C25.6176 23.9253 25.8118 24.0291 25.9395 24.2393C26.086 24.4799 26.2278 24.7238 26.3702 24.9664C26.4657 25.1283 26.5651 25.2883 26.6512 25.4549C26.8508 25.8442 26.6344 26.2884 26.2022 26.379C25.963 26.4292 25.7614 26.3525 25.5927 26.1833C25.5732 26.1635 25.5551 26.1423 25.541 26.1185C25.2876 25.6909 25.0161 25.2718 24.7869 24.8316C24.5685 24.4131 24.9019 23.9134 25.4019 23.9141V23.9147Z" fill="#1B1C17"/>
<path d="M13.2617 25.7193C13.2859 25.6413 13.2994 25.5388 13.3471 25.4555C13.585 25.0378 13.8188 24.6167 14.0789 24.2128C14.3477 23.7944 14.9465 23.8195 15.1925 24.2452C15.3128 24.4534 15.3101 24.6722 15.1938 24.8771C14.9646 25.281 14.7288 25.6809 14.4862 26.0769C14.3437 26.3096 14.1219 26.42 13.8464 26.3869C13.5796 26.3545 13.3968 26.1998 13.3054 25.9513C13.2812 25.8852 13.2785 25.8118 13.2624 25.7199L13.2617 25.7193Z" fill="#1B1C17"/>
<path d="M26.747 5.0693C26.7121 5.17242 26.6933 5.28413 26.6402 5.37667C26.411 5.77989 26.1799 6.18311 25.9339 6.57641C25.7081 6.93733 25.2484 6.99418 24.9353 6.71589C24.7155 6.52089 24.655 6.19633 24.8062 5.92994C25.0354 5.52672 25.2706 5.12615 25.5132 4.7302C25.6752 4.46579 25.9729 4.3554 26.2497 4.43605C26.5428 4.52198 26.7276 4.76391 26.747 5.06864V5.0693Z" fill="#1B1C17"/>
<path d="M31.4519 14.7621C31.6925 14.7621 31.9331 14.7561 32.1737 14.7634C32.4546 14.7726 32.6966 14.9617 32.7711 15.2149C32.8854 15.6002 32.6287 15.9876 32.2234 16.0411C32.1905 16.0457 32.1562 16.0477 32.1233 16.0477C31.6757 16.0477 31.2282 16.0517 30.7806 16.0451C30.6771 16.0438 30.5676 16.02 30.4728 15.9796C30.2053 15.8653 30.0548 15.5784 30.1025 15.3041C30.1549 15.006 30.3935 14.7806 30.6966 14.7667C30.9479 14.7554 31.1999 14.764 31.4519 14.764C31.4519 14.7634 31.4519 14.7621 31.4519 14.7614V14.7621Z" fill="#1B1C17"/>
<path d="M13.9044 4.41016C14.1557 4.4247 14.3371 4.50931 14.4608 4.69175C14.532 4.79685 14.5945 4.9079 14.6591 5.01763C14.8331 5.31244 15.0092 5.60659 15.1792 5.90405C15.4292 6.33966 15.1752 6.83344 14.6711 6.88434C14.3996 6.9121 14.194 6.7865 14.0556 6.5611C13.9017 6.3119 13.7572 6.05741 13.6087 5.8049C13.5247 5.66212 13.436 5.52198 13.3573 5.3759C13.1557 4.99846 13.3311 4.56748 13.7377 4.4399C13.8009 4.42007 13.8687 4.41611 13.9044 4.41016Z" fill="#1B1C17"/>
<path d="M8.54304 16.0466C8.30783 16.0466 8.07262 16.0552 7.83808 16.0446C7.51282 16.0301 7.27021 15.8212 7.21107 15.5224C7.13917 15.1575 7.4026 14.8059 7.7776 14.7669C7.8112 14.7636 7.8448 14.7609 7.8784 14.7609C8.33135 14.7609 8.78497 14.7576 9.23792 14.7622C9.54974 14.7649 9.78025 14.9334 9.87098 15.2117C9.9906 15.5779 9.75068 15.9679 9.36426 16.0334C9.29303 16.0453 9.21978 16.0472 9.1472 16.0479C8.94559 16.0499 8.74465 16.0486 8.54304 16.0486C8.54304 16.0479 8.54304 16.0472 8.54304 16.0466Z" fill="#1B1C17"/>
</svg>
