<svg width="40" height="40" viewBox="0 0 40 40" fill="none" xmlns="http://www.w3.org/2000/svg">
<path d="M29.4329 18.6667C29.0496 18.1667 28.5829 17.7333 28.1496 17.3C27.0329 16.3 25.7663 15.5833 24.6996 14.5333C22.2163 12.1 21.6663 8.08333 23.2496 5C21.6663 5.38333 20.2829 6.25 19.0996 7.2C14.7829 10.6667 13.0829 16.7833 15.1163 22.0333C15.1829 22.2 15.2496 22.3667 15.2496 22.5833C15.2496 22.95 14.9996 23.2833 14.6663 23.4167C14.2829 23.5833 13.8829 23.4833 13.5663 23.2167C13.4717 23.1374 13.3926 23.0414 13.3329 22.9333C11.4496 20.55 11.1496 17.1333 12.4163 14.4C9.63293 16.6667 8.11626 20.5 8.33293 24.1167C8.43293 24.95 8.53293 25.7833 8.81626 26.6167C9.04959 27.6167 9.49959 28.6167 9.99959 29.5C11.7996 32.3833 14.9163 34.45 18.2663 34.8667C21.8329 35.3167 25.6496 34.6667 28.3829 32.2C31.4329 29.4333 32.4996 25 30.9329 21.2L30.7163 20.7667C30.3663 20 29.4329 18.6667 29.4329 18.6667ZM24.1663 29.1667C23.6996 29.5667 22.9329 30 22.3329 30.1667C20.4663 30.8333 18.5996 29.9 17.4996 28.8C19.4829 28.3333 20.6663 26.8667 21.0163 25.3833C21.2996 24.05 20.7663 22.95 20.5496 21.6667C20.3496 20.4333 20.3829 19.3833 20.8329 18.2333C21.1496 18.8667 21.4829 19.5 21.8829 20C23.1663 21.6667 25.1829 22.4 25.6163 24.6667C25.6829 24.9 25.7163 25.1333 25.7163 25.3833C25.7663 26.75 25.1663 28.25 24.1663 29.1667Z" fill="#1B1C17"/>
</svg>
