<svg width="60" height="60" viewBox="0 0 60 60" fill="none" xmlns="http://www.w3.org/2000/svg">
<path d="M27.2997 28.7999C17.1932 34.4529 0 41.9998 0 41.9998C0 41.9998 8.74149 40.2354 13.7999 38.6998C20.3366 36.7154 23.7884 34.9437 29.9997 32.0999C39.4363 27.7793 53.3994 19.5 53.3994 19.5L55.4994 22.2L59.9994 9.6001L46.7995 11.4001L49.1995 15C49.1995 15 36.1221 23.8651 27.2997 28.7999Z" fill="#0668E1"/>
<path d="M25.8951 13.2006C25.8951 13.2006 21.2212 14.9699 18.0952 15.0006C15.1085 15.0298 13.4182 14.4767 10.5953 13.5006C7.87187 12.5588 6.39545 11.4006 3.99537 10.2006C2.86677 9.63631 1.6229 10.3059 0.995404 11.4006C0.344024 12.537 0.458088 14.0508 1.5954 14.7006C3.69573 15.9005 11.4953 19.2005 12.3953 21.3005C13.1427 23.0444 12.6953 34.5003 12.6953 34.5003L23.4952 28.5004C23.4952 28.5004 23.4952 24.0004 24.0952 21.0005C24.3545 19.7039 26.4622 18.917 28.2952 18.0005C30.6952 16.8005 32.1952 16.2005 34.5951 14.4006C35.5509 13.6837 35.7401 12.4638 35.195 11.4006C34.6194 10.2778 33.3481 9.68813 32.1951 10.2006C29.4952 11.4006 25.8951 13.2006 25.8951 13.2006Z" fill="#0668E1"/>
<circle cx="18.0945" cy="5.69994" r="5.69994" fill="#0668E1"/>
<path d="M16.1953 21.2999L17.0953 15H18.8953L19.7953 21.2999L17.9953 23.9999L16.1953 21.2999Z" fill="white"/>
<rect x="4.80078" y="46.7991" width="7.19992" height="13.1999" fill="#0668E1"/>
<rect x="15" y="43.2002" width="7.19992" height="16.7998" fill="#0668E1"/>
<rect x="25.1992" y="38.3994" width="7.19992" height="21.5998" fill="#0668E1"/>
<rect x="36" y="34.2002" width="7.19992" height="25.7997" fill="#0668E1"/>
<rect x="46.8008" y="29.3994" width="7.19992" height="29.9997" fill="#0668E1"/>
</svg>
