<svg width="40" height="40" viewBox="0 0 40 40" fill="none" xmlns="http://www.w3.org/2000/svg">
<path d="M28.4529 13.6971C28.4529 13.6971 29.4986 17.8712 27.9238 18.7026C28.4735 19.4533 31.9947 18.0033 31.9947 18.0033C31.9947 18.0033 35.7432 20.0471 36.5613 18.6502C35.4295 17.5592 36.1057 13.8419 36.1057 13.8419" fill="#1B1C17"/>
<path d="M39.7974 21.0621C39.7876 20.9986 39.7725 21.011 39.7387 20.9398C39.7387 20.9398 39.7119 20.8598 38.642 19.3402C38.322 18.8857 37.7892 18.4921 36.7187 18.3249C35.6482 18.1575 34.5565 18.0018 34.5565 18.0018H30.077C30.077 18.0018 28.0495 18.2742 27.1888 18.446C26.3279 18.6179 26.2584 19.0265 25.775 19.4601C24.9726 20.18 24.7051 21.0996 24.7051 21.0996C24.7051 21.0996 27.8482 21.7913 31.9503 21.8746C31.9504 21.8746 36.6988 21.9413 39.7974 21.0621Z" fill="#1B1C17"/>
<path d="M33.9583 15.5956H30.8254L30.2988 18.4538L32.392 22.0285L34.4846 18.4538L33.9583 15.5956Z" fill="#1B1C17"/>
<path d="M29.3632 12.5419C29.3632 12.5419 28.5948 11.9799 28.4962 12.3963C28.3976 12.8124 28.4762 14.0612 28.7328 14.2484C28.9891 14.4354 29.3632 14.498 29.3632 14.498" fill="#1B1C17"/>
<path d="M35.3965 12.5419C35.3965 12.5419 36.1651 11.9799 36.2637 12.3963C36.3621 12.8124 36.2831 14.0612 36.0272 14.2484C35.7712 14.4354 35.3965 14.498 35.3965 14.498" fill="#1B1C17"/>
<path d="M35.3698 15.5301C35.0246 16.48 33.6296 17.2804 33.2481 17.5555C32.8669 17.8301 32.024 17.8951 31.5932 17.5801C31.1623 17.2652 29.8995 16.6465 29.4598 15.53C29.0132 14.3961 29.4053 10.8802 29.4053 10.8802L30.5883 9.88989L35.4279 10.8523C35.4279 10.8523 35.7151 14.5805 35.3698 15.5301Z" fill="white"/>
<path d="M36.3084 13.1132C36.3546 12.5182 36.4669 10.7136 36.0292 9.69856C35.3193 8.0523 33.5008 7.49658 33.5008 7.49658C33.5008 7.49658 32.9323 9.02497 33.6089 10.1359C34.2858 11.2479 35.5401 12.5777 35.5401 12.5777C35.5401 12.5777 36.1462 11.8236 36.3084 13.1132Z" fill="#1B1C17"/>
<path d="M29.5019 13.7551C29.4141 13.5398 29.3313 13.2341 29.3532 12.9968C29.3817 12.6832 29.7255 12.4384 29.8889 12.1812C30.0222 11.9726 29.9973 11.713 30.0611 11.4745C30.1241 11.2373 30.2799 10.5965 30.3845 10.3768C30.708 11.0038 31.3572 11.5411 31.9297 11.7927C32.2203 11.9206 32.6309 11.9451 32.9299 12.0413C33.0905 12.0933 33.299 12.1216 33.4544 12.1788C33.6283 12.243 33.8853 12.2867 34.0625 12.3653C34.6651 12.6333 35.0283 13.0987 35.4036 13.6856C34.8458 13.1345 34.0722 12.8984 33.3409 12.7036C32.839 12.5699 32.3215 12.5218 31.8301 12.3261C31.639 12.2501 31.4032 12.1785 31.2275 12.0725C31.0798 11.9835 30.9565 11.8312 30.8215 11.7204C30.6869 11.6099 30.5696 11.5096 30.4675 11.359C30.4376 11.4646 30.4211 11.5847 30.3839 11.6841C30.3306 11.8256 30.2139 11.9097 30.133 12.036C30.0203 12.2124 29.9081 12.4269 29.8157 12.6157C29.7281 12.794 29.644 12.9653 29.5999 13.1547C29.5568 13.3386 29.4092 13.6454 29.4285 13.8413" fill="#1B1C17"/>
<path d="M33.9902 7.72157C36.0046 8.77484 35.7691 11.6721 35.5435 13.8417C34.0393 11.6721 32.9363 12.7436 31.0819 11.429C30.0157 10.6729 29.9158 9.00879 30.7457 8.0095C31.3696 7.25824 32.3975 6.8883 33.9902 7.72157Z" fill="#1B1C17"/>
<path d="M29.1159 8.417C28.7054 8.85803 28.1459 9.82246 28.1167 10.9244C28.0953 11.7615 28.0542 13.2 28.5436 13.8419C28.4495 13.2036 28.3937 12.5425 28.5389 12.3537C28.7601 12.0652 29.2193 12.8616 29.2193 12.8616C29.2193 12.8616 29.0506 13.6106 29.4666 14.0656C29.2659 12.8746 29.5524 12.6377 29.9407 12.0689C30.3288 11.4999 30.2044 10.5024 30.6697 10.0878C31.3016 9.52565 32.0785 8.03351 31.4932 7.84087C30.8112 7.61656 30.0257 7.43761 29.1159 8.417Z" fill="#1B1C17"/>
<path d="M29.1618 8.53753C28.774 8.95435 28.245 9.86594 28.2174 10.9079C28.1969 11.6991 28.3012 12.4216 28.4384 12.2433C28.6476 11.9705 29.2597 12.7395 29.2597 12.7395C29.2597 12.7395 29.5741 12.5274 29.9415 11.9898C30.3086 11.4517 30.191 10.5088 30.6309 10.1171C31.2283 9.58535 31.9625 8.17482 31.4094 7.99271C30.765 7.78068 30.0216 7.61149 29.1618 8.53753Z" fill="#1B1C17"/>
<path d="M33.9299 8.06808C35.6856 8.98613 35.4801 11.5108 35.2835 13.4021C33.9728 11.5108 33.0114 12.4448 31.3953 11.2992C30.4665 10.6404 30.3789 9.19004 31.1027 8.31889C31.6463 7.66444 32.542 7.34191 33.9299 8.06808Z" fill="#1B1C17"/>
<path d="M39.9989 7.03455L32.4358 9.59758L24.873 7.03455L32.576 4.66846L39.9989 7.03455Z" fill="#1B1C17"/>
<path d="M29.086 7.52941C29.086 7.52941 29.411 6.40808 32.2687 6.40808C35.1263 6.40808 35.3579 7.48163 35.3579 7.48163L36.1632 9.79107C36.1632 9.79107 34.1771 9.9832 32.3722 9.9832C30.5677 9.9832 28.2793 9.59806 28.2793 9.59806L29.086 7.52941Z" fill="#1B1C17"/>
<path d="M37.3636 9.43099H36.9824V5.91544C36.9824 5.91544 37.3636 5.76108 37.3636 6.06967C37.3636 6.37839 37.3636 9.43099 37.3636 9.43099Z" fill="#1B1C17"/>
<path d="M37.8905 9.89434C37.8905 10.6489 37.6207 11.3755 37.0735 11.9616C37.3588 10.8711 36.457 10.649 36.457 9.89434C36.457 9.43861 36.9747 8.99973 37.1738 9.09656C37.5669 8.95031 37.8905 9.36523 37.8905 9.89434Z" fill="#1B1C17"/>
<path d="M10.5752 28.7966C11.1525 30.1083 12.5154 30.3399 13.6648 30.5667C15.3459 30.8983 16.9921 32.5189 16.9921 34.3557V35.1042C16.9921 35.2305 16.8912 35.3334 16.7672 35.3334H0.224846C0.100891 35.3334 0 35.2305 0 35.1042V34.427C0 32.22 1.74839 30.9164 3.51494 30.6751C4.8001 30.4998 5.86964 30.3217 6.32199 28.7357C6.43904 28.8404 6.56203 28.9461 6.68732 29.0598C7.85808 30.1224 9.17722 30.1685 10.3051 29.0582C10.3978 28.9666 10.4884 28.8804 10.5752 28.7966Z" fill="#1B1C17"/>
<path d="M10.5764 28.7973C10.8784 29.4833 11.3953 29.8741 11.9838 30.1228C9.99308 31.6139 7.24471 31.5277 5.19727 30.2534C5.81744 29.9124 6.12801 29.4187 6.32256 28.7357C6.43958 28.8404 6.56291 28.9461 6.68852 29.0602C7.85928 30.1228 9.17843 30.1689 10.3063 29.0585C10.399 28.967 10.4896 28.8808 10.5764 28.7973Z" fill="#1B1C17"/>
<path d="M8.6077 31.2248C7.41716 31.2302 6.21968 30.8895 5.19727 30.2534C5.81512 29.9138 6.13362 29.4123 6.32286 28.7357C6.44024 28.8404 6.56291 28.9461 6.68852 29.0602C7.30342 29.6183 7.95984 29.8959 8.6077 29.8731V31.2248Z" fill="#1B1C17"/>
<path d="M10.2002 21.4264C10.639 21.661 10.9979 22.0028 11.2344 22.5289C11.4835 23.0833 11.6002 23.8495 11.5205 24.9235L11.5166 24.9791C11.5041 25.0691 11.4916 25.1591 11.4766 25.2487L11.4336 25.5006L11.6357 25.3444C11.855 25.1748 12.105 25.1136 12.2607 25.1627C12.3327 25.1855 12.3868 25.2315 12.416 25.3102C12.4465 25.3928 12.452 25.5205 12.4033 25.7067L12.1172 26.5377C12.0815 26.6411 12.0605 26.6811 12.0352 26.7018C12.0144 26.7186 11.9731 26.7356 11.8555 26.7291C11.7693 26.7244 11.6763 26.6895 11.5771 26.6227L11.4043 26.5065L11.4219 26.7145C11.4707 27.3096 11.354 27.6947 11.1426 28.0182C10.9252 28.3506 10.609 28.6197 10.2354 28.9879C9.68635 29.5287 9.09885 29.7802 8.51367 29.775C7.92749 29.7698 7.32799 29.5065 6.75586 28.9869C6.40508 28.6684 6.09504 28.4293 5.86133 28.108C5.6329 27.794 5.47766 27.3999 5.46289 26.778L5.45996 26.6451L5.33301 26.6852C5.16724 26.737 5.03244 26.7392 4.9209 26.6744C4.8053 26.6072 4.71649 26.4684 4.6543 26.2926C4.59309 26.1194 4.56331 25.9262 4.55566 25.775C4.54953 25.653 4.55551 25.3109 4.57129 25.1842C4.60486 25.0915 4.64533 25.0391 4.68555 25.0094C4.72648 24.9792 4.77807 24.964 4.84863 24.9655C4.92134 24.967 5.00926 24.9858 5.11426 25.0182C5.21882 25.0505 5.33385 25.0941 5.46289 25.1422L5.57617 25.1842L5.58301 25.1881V25.1862L5.63281 25.2057L5.59766 25.0377C5.68813 24.0689 5.90736 23.4994 6.2002 23.15C6.49086 22.8033 6.86597 22.6595 7.30371 22.569C8.15618 22.3927 9.25855 22.4277 10.2002 21.4264Z" fill="white" stroke="#1B1C17" stroke-width="0.2"/>
<path fill-rule="evenodd" clip-rule="evenodd" d="M3.58789 21.1178C5.84628 18.2689 8.44932 16.7193 10.4039 19.2537C12.7992 19.3822 13.6301 23.3721 11.6211 24.9287C11.7821 22.7616 11.1537 21.7896 10.182 21.3012C8.3326 23.3599 5.8636 21.1141 5.49847 25.0265L4.61213 24.5553C4.52411 23.4332 4.78158 21.4865 3.58789 21.1178Z" fill="#1B1C17"/>
<path d="M25.6222 12.864C25.6755 12.7889 25.6578 12.6849 25.5827 12.6316L24.359 11.764C24.2839 11.7108 24.1799 11.7285 24.1267 11.8036C24.0734 11.8787 24.0911 11.9827 24.1662 12.036L25.2539 12.8071L24.4827 13.8948C24.4295 13.9699 24.4472 14.0739 24.5223 14.1272C24.5974 14.1804 24.7014 14.1627 24.7546 14.0876L25.6222 12.864ZM15.291 18.843L15.4306 18.9341C15.4904 18.8424 15.5525 18.7495 15.617 18.6555L15.4796 18.5612L15.3422 18.4669C15.2761 18.5631 15.2126 18.6582 15.1514 18.7519L15.291 18.843ZM15.8785 18.0099L16.011 18.111C16.1424 17.9389 16.2823 17.7647 16.4317 17.5895L16.3049 17.4814L16.1781 17.3732C16.0246 17.5533 15.8809 17.7321 15.746 17.9087L15.8785 18.0099ZM16.7603 16.9766L16.8809 17.0916C17.0312 16.9341 17.1898 16.7766 17.3574 16.6197L17.2435 16.498L17.1297 16.3763C16.9573 16.5376 16.7943 16.6996 16.6397 16.8615L16.7603 16.9766ZM17.7529 16.0476L17.8598 16.1755C18.0271 16.0357 18.2024 15.8971 18.386 15.7601L18.2864 15.6265L18.1868 15.4929C17.9982 15.6336 17.8181 15.776 17.6461 15.9197L17.7529 16.0476ZM18.8418 15.2352L18.9341 15.374C19.116 15.2529 19.3052 15.1338 19.5021 15.0169L19.4171 14.8735L19.332 14.7302C19.1301 14.85 18.9361 14.9723 18.7495 15.0965L18.8418 15.2352ZM20.0105 14.5409L20.0884 14.6882C20.282 14.5859 20.4823 14.4857 20.6897 14.3882L20.6187 14.2374L20.5477 14.0866C20.3357 14.1863 20.1308 14.2888 19.9326 14.3936L20.0105 14.5409ZM21.2397 13.9619L21.3039 14.1157C21.5066 14.031 21.7154 13.9487 21.9306 13.8691L21.8728 13.7128L21.815 13.5565C21.5955 13.6377 21.3824 13.7216 21.1754 13.8081L21.2397 13.9619ZM22.5145 13.4897L22.5662 13.6481C22.7752 13.5799 22.9898 13.5142 23.2101 13.4511L23.1643 13.2909L23.1184 13.1306C22.8942 13.1948 22.6757 13.2618 22.4628 13.3312L22.5145 13.4897ZM23.8223 13.1147L23.8626 13.2764C24.0763 13.223 24.295 13.1721 24.5188 13.1237L24.4836 12.9608L24.4484 12.7979C24.2211 12.847 23.999 12.8987 23.7819 12.953L23.8223 13.1147ZM25.1494 12.8274L25.1798 12.9913C25.2901 12.9709 25.4016 12.9511 25.5142 12.9319L25.4863 12.7676L25.4583 12.6033C25.3441 12.6227 25.231 12.6428 25.1191 12.6635L25.1494 12.8274Z" fill="#1B1C17"/>
<path d="M13.4598 29.1634C13.4066 29.2385 13.4243 29.3425 13.4994 29.3957L14.723 30.2633C14.7981 30.3166 14.9021 30.2988 14.9554 30.2238C15.0086 30.1487 14.9909 30.0446 14.9158 29.9914L13.8281 29.2202L14.5993 28.1325C14.6525 28.0574 14.6348 27.9534 14.5597 27.9002C14.4847 27.8469 14.3806 27.8646 14.3274 27.9397L13.4598 29.1634ZM23.791 23.1843L23.6514 23.0932C23.5916 23.1849 23.5295 23.2779 23.465 23.3718L23.6025 23.4661L23.7399 23.5604C23.8059 23.4642 23.8694 23.3692 23.9306 23.2754L23.791 23.1843ZM23.2035 24.0175L23.071 23.9163C22.9397 24.0884 22.7997 24.2626 22.6503 24.4378L22.7771 24.546L22.9039 24.6541C23.0575 24.4741 23.2012 24.2952 23.336 24.1186L23.2035 24.0175ZM22.3217 25.0508L22.2012 24.9357C22.0509 25.0932 21.8922 25.2508 21.7246 25.4076L21.8385 25.5293L21.9524 25.651C22.1247 25.4898 22.2878 25.3278 22.4423 25.1659L22.3217 25.0508ZM21.3291 25.9797L21.2222 25.8518C21.0549 25.9916 20.8796 26.1303 20.696 26.2672L20.7956 26.4008L20.8953 26.5344C21.0839 26.3938 21.2639 26.2513 21.4359 26.1076L21.3291 25.9797ZM20.2402 26.7921L20.1479 26.6534C19.966 26.7744 19.7768 26.8936 19.5799 27.0105L19.665 27.1538L19.75 27.2971C19.9519 27.1773 20.146 27.0551 20.3326 26.9309L20.2402 26.7921ZM19.0715 27.4864L18.9936 27.3391C18.8 27.4415 18.5997 27.5416 18.3924 27.6392L18.4633 27.79L18.5343 27.9408C18.7463 27.841 18.9513 27.7386 19.1494 27.6338L19.0715 27.4864ZM17.8424 28.0655L17.7781 27.9117C17.5754 27.9964 17.3666 28.0786 17.1514 28.1582L17.2092 28.3146L17.267 28.4709C17.4865 28.3897 17.6997 28.3057 17.9066 28.2193L17.8424 28.0655ZM16.5675 28.5377L16.5158 28.3792C16.3068 28.4474 16.0922 28.5132 15.8719 28.5763L15.9178 28.7365L15.9637 28.8967C16.1878 28.8325 16.4063 28.7656 16.6192 28.6961L16.5675 28.5377ZM15.2598 28.9127L15.2194 28.751C15.0057 28.8043 14.7871 28.8553 14.5632 28.9036L14.5984 29.0666L14.6336 29.2295C14.8609 29.1804 15.083 29.1286 15.3001 29.0744L15.2598 28.9127ZM13.9326 29.1999L13.9023 29.0361C13.792 29.0565 13.6805 29.0763 13.5678 29.0955L13.5958 29.2598L13.6237 29.4241C13.738 29.4046 13.851 29.3845 13.9629 29.3638L13.9326 29.1999Z" fill="#1B1C17"/>
</svg>
