<svg width="40" height="40" viewBox="0 0 40 40" fill="none" xmlns="http://www.w3.org/2000/svg">
<path d="M28.4529 13.6971C28.4529 13.6971 29.4986 17.8712 27.9238 18.7026C28.4735 19.4533 31.9947 18.0033 31.9947 18.0033C31.9947 18.0033 35.7432 20.0471 36.5613 18.6502C35.4295 17.5592 36.1057 13.8419 36.1057 13.8419" fill="white"/>
<path d="M39.7974 21.0621C39.7876 20.9986 39.7725 21.011 39.7387 20.9398C39.7387 20.9398 39.7119 20.8598 38.642 19.3402C38.322 18.8857 37.7892 18.4921 36.7187 18.3249C35.6482 18.1575 34.5565 18.0018 34.5565 18.0018H30.077C30.077 18.0018 28.0495 18.2742 27.1888 18.446C26.3279 18.6179 26.2584 19.0265 25.775 19.4601C24.9726 20.18 24.7051 21.0996 24.7051 21.0996C24.7051 21.0996 27.8482 21.7913 31.9503 21.8746C31.9504 21.8746 36.6988 21.9413 39.7974 21.0621Z" fill="white"/>
<path d="M33.9583 15.5956H30.8254L30.2988 18.4538L32.392 22.0285L34.4846 18.4538L33.9583 15.5956Z" fill="white"/>
<path d="M29.3632 12.5419C29.3632 12.5419 28.5948 11.9799 28.4962 12.3963C28.3976 12.8124 28.4762 14.0612 28.7328 14.2484C28.9891 14.4354 29.3632 14.498 29.3632 14.498" fill="white"/>
<path d="M35.3965 12.5419C35.3965 12.5419 36.1651 11.9799 36.2637 12.3963C36.3621 12.8124 36.2831 14.0612 36.0272 14.2484C35.7712 14.4354 35.3965 14.498 35.3965 14.498" fill="white"/>
<path d="M35.3698 15.5301C35.0246 16.48 33.6296 17.2804 33.2481 17.5555C32.8669 17.8301 32.024 17.8951 31.5932 17.5801C31.1623 17.2652 29.8995 16.6465 29.4598 15.53C29.0132 14.3961 29.4053 10.8802 29.4053 10.8802L30.5883 9.88989L35.4279 10.8523C35.4279 10.8523 35.7151 14.5805 35.3698 15.5301Z" fill="#0668E1"/>
<path d="M36.3084 13.1132C36.3546 12.5182 36.4669 10.7136 36.0292 9.69856C35.3193 8.0523 33.5008 7.49658 33.5008 7.49658C33.5008 7.49658 32.9323 9.02497 33.6089 10.1359C34.2858 11.2479 35.5401 12.5777 35.5401 12.5777C35.5401 12.5777 36.1462 11.8236 36.3084 13.1132Z" fill="white"/>
<path d="M29.5019 13.7551C29.4141 13.5398 29.3313 13.2341 29.3532 12.9968C29.3817 12.6832 29.7255 12.4384 29.8889 12.1812C30.0222 11.9726 29.9973 11.713 30.0611 11.4745C30.1241 11.2373 30.2799 10.5965 30.3845 10.3768C30.708 11.0038 31.3572 11.5411 31.9297 11.7927C32.2203 11.9206 32.6309 11.9451 32.9299 12.0413C33.0905 12.0933 33.299 12.1216 33.4544 12.1788C33.6283 12.243 33.8853 12.2867 34.0625 12.3653C34.6651 12.6333 35.0283 13.0987 35.4036 13.6856C34.8458 13.1345 34.0722 12.8984 33.3409 12.7036C32.839 12.5699 32.3215 12.5218 31.8301 12.3261C31.639 12.2501 31.4032 12.1785 31.2275 12.0725C31.0798 11.9835 30.9565 11.8312 30.8215 11.7204C30.6869 11.6099 30.5696 11.5096 30.4675 11.359C30.4376 11.4646 30.4211 11.5847 30.3839 11.6841C30.3306 11.8256 30.2139 11.9097 30.133 12.036C30.0203 12.2124 29.9081 12.4269 29.8157 12.6157C29.7281 12.794 29.644 12.9653 29.5999 13.1547C29.5568 13.3386 29.4092 13.6454 29.4285 13.8413" fill="white"/>
<path d="M33.9902 7.72157C36.0046 8.77484 35.7691 11.6721 35.5435 13.8417C34.0393 11.6721 32.9363 12.7436 31.0819 11.429C30.0157 10.6729 29.9158 9.00879 30.7457 8.0095C31.3696 7.25824 32.3975 6.8883 33.9902 7.72157Z" fill="white"/>
<path d="M29.1159 8.417C28.7054 8.85803 28.1459 9.82246 28.1167 10.9244C28.0953 11.7615 28.0542 13.2 28.5436 13.8419C28.4495 13.2036 28.3937 12.5425 28.5389 12.3537C28.7601 12.0652 29.2193 12.8616 29.2193 12.8616C29.2193 12.8616 29.0506 13.6106 29.4666 14.0656C29.2659 12.8746 29.5524 12.6377 29.9407 12.0689C30.3288 11.4999 30.2044 10.5024 30.6697 10.0878C31.3016 9.52565 32.0785 8.03351 31.4932 7.84087C30.8112 7.61656 30.0257 7.43761 29.1159 8.417Z" fill="white"/>
<path d="M29.1618 8.53753C28.774 8.95435 28.245 9.86594 28.2174 10.9079C28.1969 11.6991 28.3012 12.4216 28.4384 12.2433C28.6476 11.9705 29.2597 12.7395 29.2597 12.7395C29.2597 12.7395 29.5741 12.5274 29.9415 11.9898C30.3086 11.4517 30.191 10.5088 30.6309 10.1171C31.2283 9.58535 31.9625 8.17482 31.4094 7.99271C30.765 7.78068 30.0216 7.61149 29.1618 8.53753Z" fill="white"/>
<path d="M33.9299 8.06808C35.6856 8.98613 35.4801 11.5108 35.2835 13.4021C33.9728 11.5108 33.0114 12.4448 31.3953 11.2992C30.4665 10.6404 30.3789 9.19004 31.1027 8.31889C31.6463 7.66444 32.542 7.34191 33.9299 8.06808Z" fill="white"/>
<path d="M39.9989 7.03455L32.4358 9.59758L24.873 7.03455L32.576 4.66846L39.9989 7.03455Z" fill="white"/>
<path d="M29.086 7.52941C29.086 7.52941 29.411 6.40808 32.2687 6.40808C35.1263 6.40808 35.3579 7.48163 35.3579 7.48163L36.1632 9.79107C36.1632 9.79107 34.1771 9.9832 32.3722 9.9832C30.5677 9.9832 28.2793 9.59806 28.2793 9.59806L29.086 7.52941Z" fill="white"/>
<path d="M37.3636 9.43099H36.9824V5.91544C36.9824 5.91544 37.3636 5.76108 37.3636 6.06967C37.3636 6.37839 37.3636 9.43099 37.3636 9.43099Z" fill="white"/>
<path d="M37.8905 9.89434C37.8905 10.6489 37.6207 11.3755 37.0735 11.9616C37.3588 10.8711 36.457 10.649 36.457 9.89434C36.457 9.43861 36.9747 8.99973 37.1738 9.09656C37.5669 8.95031 37.8905 9.36523 37.8905 9.89434Z" fill="white"/>
<path d="M10.5752 28.7966C11.1525 30.1083 12.5154 30.3399 13.6648 30.5667C15.3459 30.8983 16.9921 32.5189 16.9921 34.3557V35.1042C16.9921 35.2305 16.8912 35.3334 16.7672 35.3334H0.224846C0.100891 35.3334 0 35.2305 0 35.1042V34.427C0 32.22 1.74839 30.9164 3.51494 30.6751C4.8001 30.4998 5.86964 30.3217 6.32199 28.7357C6.43904 28.8404 6.56203 28.9461 6.68732 29.0598C7.85808 30.1224 9.17722 30.1685 10.3051 29.0582C10.3978 28.9666 10.4884 28.8804 10.5752 28.7966Z" fill="white"/>
<path d="M10.5764 28.7973C10.8784 29.4833 11.3953 29.8741 11.9838 30.1228C9.99308 31.6139 7.24471 31.5277 5.19727 30.2534C5.81744 29.9124 6.12801 29.4187 6.32256 28.7357C6.43958 28.8404 6.56291 28.9461 6.68852 29.0602C7.85928 30.1228 9.17843 30.1689 10.3063 29.0585C10.399 28.967 10.4896 28.8808 10.5764 28.7973Z" fill="white"/>
<path d="M8.6077 31.2248C7.41716 31.2302 6.21968 30.8895 5.19727 30.2534C5.81512 29.9138 6.13362 29.4123 6.32286 28.7357C6.44024 28.8404 6.56291 28.9461 6.68852 29.0602C7.30342 29.6183 7.95984 29.8959 8.6077 29.8731V31.2248Z" fill="white"/>
<path d="M10.2002 21.4264C10.639 21.661 10.9979 22.0028 11.2344 22.5289C11.4835 23.0833 11.6002 23.8495 11.5205 24.9235L11.5166 24.9791C11.5041 25.0691 11.4916 25.1591 11.4766 25.2487L11.4336 25.5006L11.6357 25.3444C11.855 25.1748 12.105 25.1136 12.2607 25.1627C12.3327 25.1855 12.3868 25.2315 12.416 25.3102C12.4465 25.3928 12.452 25.5205 12.4033 25.7067L12.1172 26.5377C12.0815 26.6411 12.0605 26.6811 12.0352 26.7018C12.0144 26.7186 11.9731 26.7356 11.8555 26.7291C11.7693 26.7244 11.6763 26.6895 11.5771 26.6227L11.4043 26.5065L11.4219 26.7145C11.4707 27.3096 11.354 27.6947 11.1426 28.0182C10.9252 28.3506 10.609 28.6197 10.2354 28.9879C9.68635 29.5287 9.09885 29.7802 8.51367 29.775C7.92749 29.7698 7.32799 29.5065 6.75586 28.9869C6.40508 28.6684 6.09504 28.4293 5.86133 28.108C5.6329 27.794 5.47766 27.3999 5.46289 26.778L5.45996 26.6451L5.33301 26.6852C5.16724 26.737 5.03244 26.7392 4.9209 26.6744C4.8053 26.6072 4.71649 26.4684 4.6543 26.2926C4.59309 26.1194 4.56331 25.9262 4.55566 25.775C4.54953 25.653 4.55551 25.3109 4.57129 25.1842C4.60486 25.0915 4.64533 25.0391 4.68555 25.0094C4.72648 24.9792 4.77807 24.964 4.84863 24.9655C4.92134 24.967 5.00926 24.9858 5.11426 25.0182C5.21882 25.0505 5.33385 25.0941 5.46289 25.1422L5.57617 25.1842L5.58301 25.1881V25.1862L5.63281 25.2057L5.59766 25.0377C5.68813 24.0689 5.90736 23.4994 6.2002 23.15C6.49086 22.8033 6.86597 22.6595 7.30371 22.569C8.15618 22.3927 9.25855 22.4277 10.2002 21.4264Z" fill="#0668E1" stroke="white" stroke-width="0.2"/>
<path fill-rule="evenodd" clip-rule="evenodd" d="M3.58789 21.1178C5.84628 18.2689 8.44932 16.7193 10.4039 19.2537C12.7992 19.3822 13.6301 23.3721 11.6211 24.9287C11.7821 22.7616 11.1537 21.7896 10.182 21.3012C8.3326 23.3599 5.8636 21.1141 5.49847 25.0265L4.61213 24.5553C4.52411 23.4332 4.78158 21.4865 3.58789 21.1178Z" fill="white"/>
<path d="M25.6902 12.9122C25.7701 12.7995 25.7435 12.6435 25.6309 12.5636L23.7954 11.2623C23.6828 11.1824 23.5267 11.209 23.4469 11.3216C23.367 11.4342 23.3936 11.5903 23.5062 11.6701L25.1377 12.8269L23.9809 14.4584C23.9011 14.5711 23.9277 14.7271 24.0403 14.807C24.1529 14.8868 24.309 14.8603 24.3888 14.7476L25.6902 12.9122ZM15.291 18.843L15.5004 18.9797C15.5599 18.8885 15.6216 18.7961 15.6857 18.7027L15.4796 18.5612L15.2734 18.4198C15.207 18.5165 15.1432 18.6121 15.0817 18.7064L15.291 18.843ZM15.8785 18.0099L16.0772 18.1616C16.2078 17.9906 16.3468 17.8176 16.4952 17.6436L16.3049 17.4814L16.1147 17.3191C15.9601 17.5004 15.8155 17.6804 15.6798 17.8582L15.8785 18.0099ZM16.7603 16.9766L16.9412 17.1492C17.0904 16.9928 17.2479 16.8363 17.4144 16.6806L17.2435 16.498L17.0727 16.3155C16.8992 16.4778 16.735 16.6409 16.5794 16.804L16.7603 16.9766ZM17.7529 16.0476L17.9132 16.2395C18.0794 16.1007 18.2535 15.963 18.4358 15.8269L18.2864 15.6265L18.137 15.4261C17.9471 15.5677 17.7658 15.7111 17.5927 15.8558L17.7529 16.0476ZM18.8418 15.2352L18.9803 15.4433C19.161 15.3231 19.349 15.2047 19.5447 15.0885L19.4171 14.8735L19.2895 14.6586C19.0864 14.7791 18.8911 14.9021 18.7033 15.0271L18.8418 15.2352ZM20.0105 14.5409L20.1274 14.7619C20.3198 14.6602 20.519 14.5606 20.7251 14.4636L20.6187 14.2374L20.5123 14.0112C20.2991 14.1115 20.093 14.2145 19.8936 14.3199L20.0105 14.5409ZM21.2397 13.9619L21.336 14.1926C21.5376 14.1083 21.7454 14.0265 21.9596 13.9473L21.8728 13.7128L21.7861 13.4783C21.5655 13.5599 21.3513 13.6443 21.1433 13.7312L21.2397 13.9619ZM22.5145 13.4897L22.5921 13.7273C22.8001 13.6595 23.0137 13.594 23.2331 13.5312L23.1643 13.2909L23.0954 13.0505C22.8703 13.115 22.6509 13.1822 22.437 13.252L22.5145 13.4897ZM23.8223 13.1147L23.8828 13.3572C24.0956 13.3041 24.3134 13.2533 24.5364 13.2051L24.4836 12.9608L24.4308 12.7164C24.2027 12.7657 23.9797 12.8177 23.7617 12.8721L23.8223 13.1147ZM25.1494 12.8274L25.1949 13.0732C25.3048 13.0529 25.4159 13.0332 25.5282 13.014L25.4863 12.7676L25.4443 12.5211C25.3297 12.5406 25.2162 12.5608 25.104 12.5816L25.1494 12.8274Z" fill="white"/>
<path d="M13.3918 29.1152C13.312 29.2278 13.3385 29.3838 13.4512 29.4637L15.2866 30.7651C15.3993 30.8449 15.5553 30.8184 15.6352 30.7057C15.715 30.5931 15.6885 30.4371 15.5758 30.3572L13.9443 29.2004L15.1011 27.5689C15.1809 27.4563 15.1544 27.3002 15.0417 27.2204C14.9291 27.1405 14.7731 27.1671 14.6932 27.2797L13.3918 29.1152ZM23.791 23.1843L23.5817 23.0477C23.5221 23.1389 23.4604 23.2313 23.3963 23.3247L23.6025 23.4661L23.8086 23.6076C23.875 23.5108 23.9389 23.4152 24.0004 23.3209L23.791 23.1843ZM23.2035 24.0175L23.0048 23.8658C22.8743 24.0367 22.7353 24.2097 22.5869 24.3838L22.7771 24.546L22.9673 24.7082C23.1219 24.527 23.2665 24.3469 23.4022 24.1692L23.2035 24.0175ZM22.3217 25.0508L22.1409 24.8782C21.9916 25.0346 21.8341 25.191 21.6677 25.3468L21.8385 25.5293L22.0093 25.7119C22.1828 25.5495 22.347 25.3864 22.5026 25.2234L22.3217 25.0508ZM21.3291 25.9797L21.1688 25.7879C21.0026 25.9267 20.8286 26.0644 20.6462 26.2004L20.7956 26.4008L20.9451 26.6012C21.1349 26.4597 21.3162 26.3162 21.4894 26.1716L21.3291 25.9797ZM20.2402 26.7921L20.1017 26.584C19.9211 26.7042 19.7331 26.8227 19.5373 26.9388L19.665 27.1538L19.7926 27.3688C19.9957 27.2482 20.1909 27.1252 20.3787 27.0003L20.2402 26.7921ZM19.0715 27.4864L18.9546 27.2654C18.7622 27.3672 18.5631 27.4667 18.3569 27.5638L18.4633 27.79L18.5698 28.0162C18.783 27.9159 18.9891 27.8128 19.1884 27.7074L19.0715 27.4864ZM17.8424 28.0655L17.746 27.8348C17.5444 27.919 17.3366 28.0009 17.1225 28.0801L17.2092 28.3146L17.2959 28.549C17.5165 28.4674 17.7307 28.3831 17.9387 28.2961L17.8424 28.0655ZM16.5675 28.5377L16.49 28.3C16.2819 28.3679 16.0683 28.4333 15.8489 28.4962L15.9178 28.7365L15.9866 28.9768C16.2117 28.9124 16.4312 28.8451 16.645 28.7753L16.5675 28.5377ZM15.2598 28.9127L15.1992 28.6701C14.9864 28.7233 14.7686 28.774 14.5456 28.8222L14.5984 29.0666L14.6512 29.3109C14.8793 29.2616 15.1023 29.2097 15.3203 29.1552L15.2598 28.9127ZM13.9326 29.1999L13.8871 28.9541C13.7772 28.9745 13.6661 28.9942 13.5538 29.0133L13.5958 29.2598L13.6377 29.5062C13.7524 29.4867 13.8658 29.4665 13.9781 29.4458L13.9326 29.1999Z" fill="white"/>
</svg>
