<svg width="40" height="40" viewBox="0 0 40 40" fill="none" xmlns="http://www.w3.org/2000/svg">
<path d="M22.3375 37.9841C22.6442 36.8592 22.9528 35.766 23.2381 34.6654C23.3818 34.1137 23.4577 33.5423 23.618 32.9962C23.6718 32.8129 23.8793 32.6652 24.0378 32.5249C25.2442 31.4598 25.0505 31.904 24.8365 30.3292C24.3528 26.7655 23.8525 23.2037 23.3493 19.6427C23.3076 19.3463 23.3882 19.2453 23.6773 19.1724C24.9366 18.8544 26.066 18.2653 27.0955 17.4649C27.2715 17.3283 27.5365 17.2423 27.7589 17.2442C31.7617 17.2778 35.4087 20.4217 36.1991 24.5259C36.313 25.1188 36.3807 25.7303 36.3844 26.3335C36.4029 29.5428 36.3955 32.7531 36.3927 35.9633C36.3918 37.2136 35.6366 37.9906 34.4145 37.9916C30.4469 37.9953 26.4784 37.9925 22.5108 37.9916C22.4191 37.9916 22.3273 37.9832 22.3366 37.9841H22.3375ZM27.1242 27.6062C27.1103 28.3206 27.682 28.6788 28.2639 28.2898C29.0385 27.7717 29.7473 27.566 30.5303 28.2458C30.799 28.4796 31.1446 28.5572 31.4726 28.3197C31.7969 28.085 31.8405 27.7277 31.7274 27.393C31.4124 26.4607 31.5995 25.7182 32.4112 25.1328C32.6994 24.9252 32.8634 24.6129 32.7355 24.2314C32.6141 23.8685 32.3056 23.7142 31.9748 23.7264C30.975 23.7619 30.4321 23.2598 30.1689 22.3303C30.0716 21.9889 29.8326 21.7224 29.4314 21.7309C29.0311 21.7383 28.8115 22.017 28.7086 22.3555C28.4381 23.2532 27.9238 23.7918 26.9315 23.7152C26.8731 23.7105 26.811 23.7385 26.7508 23.7535C26.1087 23.9115 25.9104 24.4866 26.3385 24.9907C26.5794 25.274 26.8768 25.5097 27.101 25.8033C27.2243 25.9651 27.3123 26.2073 27.3021 26.4074C27.2808 26.8244 27.1835 27.2377 27.1242 27.6052V27.6062Z" fill="white"/>
<path d="M19.5476 19.299C19.2437 21.3469 18.9481 23.3424 18.6405 25.4146C17.4452 24.4664 16.2027 24.1859 14.8879 24.9798C13.5657 25.7784 13.3312 27.0904 13.4248 28.4678H6.43753C5.68515 22.3222 9.21262 18.2685 13.6833 17.3792C13.8492 17.3465 14.0206 17.3371 14.1865 17.3034C14.9138 17.1548 15.5263 17.2632 16.1452 17.7785C17.1061 18.5799 18.2819 19.0035 19.5467 19.2999L19.5476 19.299Z" fill="white"/>
<path d="M13.4341 30.6174C13.7705 30.0254 14.1568 29.455 14.4228 28.8322C14.5655 28.4984 14.5163 28.0748 14.5284 27.6914C14.5543 26.861 14.8749 26.2149 15.6356 25.8408C16.5205 25.406 17.5889 25.7258 18.1346 26.6235C18.6609 27.4894 18.8249 28.4442 18.6739 29.4513C18.6516 29.6009 18.6248 29.7496 18.5914 29.9497C19.3558 29.9497 20.0786 29.9469 20.8013 29.9497C22.3802 29.9563 23.1566 31.1438 22.546 32.6017C22.4895 32.7363 22.5145 32.9037 22.4775 33.0496C22.256 33.938 22.0281 34.8254 21.8011 35.7119C21.7603 35.8718 21.6852 36.0289 21.6741 36.1897C21.6093 37.1912 20.8699 37.9702 19.8868 37.9833C18.1587 38.0067 16.4297 38.0048 14.7017 37.9786C14.4116 37.9739 14.1179 37.8084 13.8372 37.6915C13.5935 37.5905 13.4008 37.5279 13.1812 37.7738C13.0663 37.9019 12.8337 37.9767 12.6521 37.9814C11.8043 38.002 10.9546 37.9945 10.1059 37.987C9.62589 37.9823 9.43409 37.7916 9.43316 37.3035C9.42853 34.9516 9.42853 32.5998 9.43316 30.248C9.43409 29.7655 9.6296 29.5803 10.1179 29.5766C10.9046 29.57 11.6921 29.5757 12.4788 29.5747C13.1737 29.5747 13.3053 29.7038 13.3229 30.4163C13.3248 30.4752 13.3322 30.5342 13.3377 30.594C13.3692 30.6015 13.4008 30.6099 13.4323 30.6174H13.4341ZM20.1073 35.4875C20.5743 35.4042 20.9255 35.2322 20.9653 34.8413C20.9968 34.5374 20.8143 34.212 20.7522 33.9875C20.9338 33.794 21.2433 33.6088 21.2961 33.3666C21.3563 33.0908 21.1867 32.7644 21.1071 32.4165C21.0441 32.4521 21.0802 32.425 21.121 32.4091C21.4981 32.2641 21.7168 31.9948 21.6408 31.5834C21.5639 31.1691 21.2284 31.0775 20.8634 31.0746C20.4464 31.0709 20.0295 31.0728 19.6134 31.0728C18.8027 31.0728 17.9919 31.0728 17.1589 31.0728C17.2914 30.5126 17.4008 30.0124 17.5296 29.5177C17.7056 28.8397 17.5981 28.187 17.36 27.5511C17.1478 26.9845 16.7151 26.6964 16.2815 26.7946C15.8376 26.8956 15.5995 27.2482 15.656 27.8943C15.7218 28.6462 15.5374 29.3045 15.1325 29.9245C14.912 30.262 14.7174 30.6174 14.5163 30.9671C14.2606 31.4122 14.0049 31.8471 13.5194 32.0977C13.4119 32.1528 13.335 32.3707 13.3322 32.5157C13.3155 33.4031 13.3238 34.2914 13.3238 35.1789C13.3238 35.5941 13.3238 36.0083 13.3238 36.3141C13.7918 36.5011 14.1661 36.6535 14.5432 36.7976C14.6414 36.835 14.7508 36.8621 14.8555 36.8621C16.4918 36.8668 18.1281 36.8826 19.7635 36.8471C20.0054 36.8415 20.3371 36.6367 20.4529 36.4263C20.5548 36.2412 20.4325 35.9139 20.3695 35.6595C20.351 35.5847 20.1972 35.5436 20.1054 35.4875H20.1073Z" fill="white"/>
<path d="M20.6658 19.4775H22.2197C22.7377 23.1946 23.2565 26.9173 23.7754 30.639C22.9795 28.9596 21.5174 28.7099 19.932 28.8389C19.5836 27.5821 19.5623 26.388 19.7902 25.1546C20.1145 23.3966 20.3267 21.617 20.588 19.8459C20.6056 19.7262 20.638 19.6075 20.6658 19.4766V19.4775Z" fill="white"/>
<path d="M5.93756 32.0985C5.39736 32.0985 4.85625 32.091 4.31605 32.1013C3.92504 32.1088 3.6378 31.9825 3.60352 31.5505C3.57572 31.1998 3.84628 30.9819 4.29289 30.9801C5.40478 30.9754 6.51667 30.9754 7.62763 30.9801C8.07238 30.9819 8.34479 31.2026 8.317 31.5514C8.28271 31.9844 7.99362 32.1088 7.60446 32.1031C7.04852 32.0947 6.49257 32.1013 5.93663 32.1013V32.0994L5.93756 32.0985Z" fill="white"/>
<path d="M5.95824 36.588C5.38932 36.588 4.82041 36.5852 4.25149 36.588C3.86974 36.5908 3.60938 36.4253 3.60938 36.026C3.60938 35.6239 3.87623 35.4659 4.25427 35.4668C5.3921 35.4687 6.52993 35.4696 7.66777 35.4668C8.04859 35.4659 8.31266 35.6314 8.31174 36.0279C8.31081 36.4244 8.04581 36.5908 7.66499 36.5889C7.09607 36.5861 6.52716 36.5889 5.95824 36.588Z" fill="white"/>
<path d="M7.05691 34.3428C6.82527 34.3428 6.5927 34.3568 6.36198 34.339C6.04324 34.3138 5.83476 34.1296 5.82828 33.8041C5.82179 33.4591 6.02101 33.244 6.36847 33.2309C6.83083 33.2141 7.29504 33.2159 7.7574 33.229C8.10487 33.2384 8.30964 33.4422 8.3115 33.7892C8.31335 34.1436 8.09097 34.3231 7.74999 34.3418C7.51928 34.3549 7.28671 34.3446 7.05506 34.3437L7.05691 34.3428Z" fill="white"/>
<path d="M29.4565 23.4316C29.6742 24.4201 30.2783 24.7689 31.2271 24.7371C30.4692 25.3215 30.1384 26.0004 30.6267 26.9991C30.1393 26.755 29.7919 26.4465 29.4426 26.4446C29.1044 26.4427 28.7643 26.755 28.3001 26.9935C28.7189 26.0275 28.4771 25.3224 27.6719 24.753C28.6096 24.7623 29.2267 24.4126 29.4555 23.4316H29.4565Z" fill="white"/>
<ellipse cx="21.6649" cy="9.94848" rx="7.87587" ry="7.94848" fill="white"/>
</svg>
