<svg width="40" height="40" viewBox="0 0 40 40" fill="none" xmlns="http://www.w3.org/2000/svg">
<circle cx="20.0038" cy="19.9999" r="6.2069" fill="white"/>
<path d="M21.5488 23.7237H18.6789V23.4919L19.4019 23.4314V19.1378L18.4453 19.0874V18.8757L20.8257 18.7447V23.4314L21.5488 23.4919V23.7237ZM20.9036 17.0515C20.9036 17.253 20.822 17.4277 20.6589 17.5756C20.5032 17.7234 20.3066 17.7973 20.0693 17.7973C19.832 17.7973 19.6318 17.7267 19.4687 17.5856C19.3129 17.4378 19.2351 17.2598 19.2351 17.0515C19.2351 16.8364 19.3167 16.655 19.4798 16.5072C19.6429 16.3527 19.8395 16.2754 20.0693 16.2754C20.2992 16.2754 20.4957 16.3527 20.6589 16.5072C20.822 16.6617 20.9036 16.8432 20.9036 17.0515Z" fill="#0668E1"/>
<path d="M20.263 2.0788C20.2145 2.04367 20.1595 2.01944 20.1018 2.00783C20.0441 1.99623 19.9851 1.99753 19.929 2.01165C19.873 2.02577 19.8212 2.05236 19.7774 2.08952C19.7336 2.12669 19.6989 2.17353 19.6757 2.22671L16.9318 8.04163C16.8065 8.3291 17.0521 8.65663 17.3633 8.61697L18.9782 8.43926L18.9707 9.58947C18.9664 10.2509 19.3437 10.6544 19.998 10.6876C20.6523 10.7207 21.0349 10.3557 21.0392 9.69427L21.0466 8.5482L22.6351 8.88411C22.9456 8.95526 23.1954 8.65281 23.0741 8.35294L20.4079 2.26378C20.3779 2.18985 20.3276 2.12556 20.263 2.0788Z" fill="white"/>
<path d="M19.737 37.9212C19.7855 37.9563 19.8405 37.9806 19.8982 37.9922C19.9559 38.0038 20.0149 38.0025 20.071 37.9883C20.127 37.9742 20.1788 37.9476 20.2226 37.9105C20.2664 37.8733 20.3011 37.8265 20.3243 37.7733L23.0682 31.9584C23.1935 31.6709 22.9479 31.3434 22.6367 31.383L21.0218 31.5607L21.0293 30.4105C21.0336 29.7491 20.6563 29.3456 20.002 29.3124C19.3477 29.2793 18.9651 29.6443 18.9608 30.3057L18.9534 31.4518L17.3649 31.1159C17.0544 31.0447 16.8046 31.3472 16.9259 31.6471L19.5921 37.7362C19.6221 37.8101 19.6724 37.8744 19.737 37.9212Z" fill="white"/>
<path d="M2.0788 19.739C2.04367 19.7874 2.01944 19.8424 2.00783 19.9002C1.99623 19.9579 1.99753 20.0169 2.01165 20.0729C2.02577 20.129 2.05236 20.1807 2.08952 20.2245C2.12669 20.2683 2.17353 20.303 2.22671 20.3263L8.04163 23.0701C8.3291 23.1954 8.65663 22.9498 8.61697 22.6386L8.43926 21.0237L9.58947 21.0313C10.2509 21.0356 10.6544 20.6582 10.6876 20.0039C10.7207 19.3497 10.3557 18.9671 9.69427 18.9628L8.5482 18.9553L8.88411 17.3669C8.95526 17.0564 8.65281 16.8065 8.35294 16.9279L2.26378 19.594C2.18985 19.6241 2.12556 19.6744 2.0788 19.739Z" fill="white"/>
<path d="M37.9212 19.739C37.9563 19.7874 37.9806 19.8424 37.9922 19.9002C38.0038 19.9579 38.0025 20.0169 37.9883 20.0729C37.9742 20.129 37.9476 20.1807 37.9105 20.2245C37.8733 20.2683 37.8265 20.303 37.7733 20.3263L31.9584 23.0701C31.6709 23.1954 31.3434 22.9498 31.383 22.6386L31.5607 21.0237L30.4105 21.0313C29.7491 21.0356 29.3456 20.6582 29.3124 20.0039C29.2793 19.3497 29.6443 18.9671 30.3057 18.9628L31.4518 18.9553L31.1159 17.3669C31.0447 17.0564 31.3472 16.8065 31.6471 16.9279L37.7362 19.594C37.8101 19.6241 37.8744 19.6744 37.9212 19.739Z" fill="white"/>
<path d="M29.9324 19.9994C29.9324 25.4842 25.4861 29.9304 20.0013 29.9304C14.5166 29.9304 10.0703 25.4842 10.0703 19.9994C10.0703 14.5146 14.5166 10.0684 20.0013 10.0684C25.4861 10.0684 29.9324 14.5146 29.9324 19.9994ZM12.9324 19.9994C12.9324 23.9035 16.0973 27.0683 20.0013 27.0683C23.9054 27.0683 27.0703 23.9035 27.0703 19.9994C27.0703 16.0953 23.9054 12.9304 20.0013 12.9304C16.0973 12.9304 12.9324 16.0953 12.9324 19.9994Z" fill="white"/>
</svg>
