<svg width="40" height="40" viewBox="0 0 40 40" fill="none" xmlns="http://www.w3.org/2000/svg">
<path d="M20.5955 2.00227C20.3595 2.00197 20.1257 2.04821 19.9075 2.13833C19.6894 2.22846 19.4911 2.36071 19.3241 2.52751C19.1571 2.69432 19.0246 2.89241 18.9342 3.11046C18.8438 3.32852 18.7973 3.56225 18.7973 3.7983C18.7976 3.8776 18.7822 3.95617 18.752 4.02949C18.7218 4.10281 18.6774 4.16943 18.6213 4.2255C18.5652 4.28158 18.4986 4.326 18.4253 4.3562C18.352 4.38641 18.2734 4.40181 18.1941 4.40151L14.5931 4.39924C14.5145 4.39924 14.4368 4.41474 14.3643 4.44486C14.2918 4.47497 14.226 4.51911 14.1705 4.57473C14.1151 4.63035 14.0712 4.69637 14.0414 4.76899C14.0116 4.84161 13.9964 4.91941 13.9967 4.99792V7.99584C13.9967 8.32466 14.2506 8.60358 14.5931 8.59905H26.598C26.9404 8.59905 27.1967 8.32692 27.1967 7.99584V4.99792C27.197 4.91922 27.1817 4.84123 27.1517 4.76846C27.1217 4.69569 27.0776 4.62957 27.022 4.57392C26.9663 4.51827 26.9002 4.47418 26.8275 4.4442C26.7547 4.41422 26.6767 4.39894 26.598 4.39924H22.997C22.9179 4.39954 22.8395 4.38422 22.7663 4.35415C22.6931 4.32408 22.6266 4.27987 22.5706 4.22403C22.5145 4.1682 22.4701 4.10185 22.4397 4.0288C22.4094 3.95574 22.3938 3.87741 22.3938 3.7983C22.3941 3.56206 22.3478 3.32808 22.2575 3.10977C22.1672 2.89145 22.0348 2.69309 21.8677 2.52604C21.7007 2.359 21.5023 2.22655 21.284 2.13628C21.0657 2.04601 20.8318 2.00197 20.5955 2.00227ZM20.5955 3.19962C20.6774 3.19459 20.7594 3.20636 20.8366 3.23423C20.9137 3.26209 20.9843 3.30546 21.0441 3.36165C21.1038 3.41784 21.1515 3.48567 21.184 3.56096C21.2166 3.63625 21.2334 3.71741 21.2334 3.79943C21.2334 3.88146 21.2166 3.96261 21.184 4.0379C21.1515 4.11319 21.1038 4.18102 21.0441 4.23722C20.9843 4.29341 20.9137 4.33677 20.8366 4.36464C20.7594 4.3925 20.6774 4.40428 20.5955 4.39924C20.4362 4.39924 20.2833 4.33593 20.1706 4.22323C20.0579 4.11053 19.9946 3.95768 19.9946 3.7983C19.9946 3.63892 20.0579 3.48607 20.1706 3.37337C20.2833 3.26067 20.4362 3.19962 20.5955 3.19962ZM11.0011 5.59886C9.35705 5.80523 7.99873 6.92774 7.99873 8.59905V30.8H9.20059V8.60132C9.20059 7.61486 9.98973 6.80075 10.9966 6.80075H12.7993V5.60113L11.0011 5.59886ZM28.3985 5.59886V6.80075H30.1968C31.1945 6.92548 31.9973 7.61259 31.9973 8.59905V32.9792C31.9995 34.6415 30.6752 36.1994 28.9949 36.1994H8.59739C8.3933 36.1994 8.19148 36.1767 7.99873 36.1314V37.4013C7.99873 37.746 8.27312 38 8.59966 38H32.5959C32.6747 38.0009 32.7529 37.9861 32.8259 37.9565C32.8989 37.9269 32.9653 37.8831 33.0213 37.8276C33.0772 37.7721 33.1215 37.706 33.1517 37.6332C33.1818 37.5604 33.1972 37.4823 33.1969 37.4036V8.59905C33.1978 8.20481 33.1208 7.81427 32.9703 7.44987C32.8199 7.08546 32.5989 6.75437 32.3202 6.4756C32.0414 6.19683 31.7103 5.97587 31.3459 5.82541C30.9815 5.67496 30.591 5.59797 30.1968 5.59886H28.3985ZM10.9943 7.99811C10.9155 7.9981 10.8375 8.01366 10.7647 8.04389C10.6919 8.07412 10.6258 8.11842 10.5702 8.17425C10.5146 8.23009 10.4705 8.29635 10.4406 8.36925C10.4106 8.44215 10.3953 8.52024 10.3956 8.59905V30.8H26.598C26.9268 30.8022 27.1944 31.0698 27.1967 31.3986L27.2012 32.9792C27.2012 34.0042 28.0062 34.9998 28.9926 34.9998C29.9813 34.9998 30.7977 34.002 30.7977 32.9815L30.7954 8.59905C30.7957 8.51986 30.7803 8.44139 30.7501 8.3682C30.7198 8.295 30.6754 8.22853 30.6193 8.17264C30.5632 8.11675 30.4966 8.07254 30.4232 8.04258C30.3499 8.01262 30.2714 7.9975 30.1922 7.99811H28.3962C28.3974 8.2347 28.3518 8.4692 28.2619 8.68804C28.1719 8.90689 28.0396 9.10576 27.8724 9.27317C27.7052 9.44058 27.5065 9.57321 27.2878 9.6634C27.069 9.7536 26.8346 9.79957 26.598 9.79867H14.5931C14.3569 9.79837 14.1231 9.75156 13.9051 9.66092C13.687 9.57027 13.4889 9.43756 13.3222 9.27036C13.1554 9.10316 13.0232 8.90475 12.9331 8.68646C12.843 8.46816 12.7968 8.23426 12.7971 7.99811H10.9943ZM12.7993 13.9985H15.7949C16.5954 13.9985 16.5954 15.2004 15.7949 15.2004H13.3957V18.806H17.5954V18.2028C17.6362 17.4046 18.7655 17.4091 18.7973 18.2028V19.4047C18.7973 19.4838 18.7817 19.5621 18.7513 19.6352C18.721 19.7083 18.6765 19.7746 18.6205 19.8304C18.5644 19.8863 18.4979 19.9305 18.4248 19.9606C18.3516 19.9906 18.2732 20.0059 18.1941 20.0057H12.7971C12.7182 20.0057 12.64 19.9901 12.5671 19.9599C12.4942 19.9297 12.428 19.8854 12.3722 19.8296C12.3164 19.7738 12.2721 19.7076 12.2419 19.6347C12.2117 19.5618 12.1962 19.4836 12.1962 19.4047V14.6017C12.1962 14.2683 12.466 13.9985 12.7993 13.9985ZM18.1827 14.604C18.303 14.6011 18.4213 14.6344 18.5224 14.6995C18.6235 14.7646 18.7028 14.8585 18.7499 14.9692C18.797 15.0798 18.8099 15.2021 18.7868 15.3201C18.7637 15.4381 18.7058 15.5465 18.6204 15.6312L16.2212 18.0327C16.1654 18.089 16.099 18.1336 16.0258 18.164C15.9526 18.1945 15.8742 18.2102 15.7949 18.2102C15.7157 18.2102 15.6372 18.1945 15.564 18.164C15.4909 18.1336 15.4244 18.089 15.3686 18.0327L14.169 16.8309C13.6021 16.2639 14.4525 15.4135 15.0194 15.9805L15.7949 16.756L17.77 14.7786C17.8793 14.6683 18.0276 14.6056 18.1827 14.604ZM21.1965 15.2004H25.9948C26.7953 15.2004 26.7953 16.4023 25.9948 16.4023H21.1965C20.396 16.4023 20.396 15.2004 21.1965 15.2004ZM28.3962 17.6041C29.2126 17.586 29.2126 18.8242 28.3962 18.806H21.1942C20.3778 18.8242 20.3778 17.586 21.1942 17.6041H28.3962ZM12.7993 22.4004H15.7949C16.5954 22.4004 16.5954 23.6022 15.7949 23.6022H13.3957V27.2079H17.5954V26.6047C17.6362 25.8065 18.7655 25.811 18.7973 26.6047V27.8066C18.7973 27.8857 18.7817 27.964 18.7513 28.0371C18.721 28.1101 18.6765 28.1765 18.6205 28.2323C18.5644 28.2882 18.4979 28.3324 18.4248 28.3624C18.3516 28.3925 18.2732 28.4078 18.1941 28.4075H12.7971C12.718 28.4075 12.6396 28.3919 12.5666 28.3616C12.4935 28.3312 12.4272 28.2868 12.3714 28.2307C12.3155 28.1747 12.2713 28.1082 12.2412 28.035C12.2112 27.9618 12.1959 27.8834 12.1962 27.8043V23.0036C12.1962 22.6702 12.466 22.3981 12.7993 22.4004ZM18.6204 24.0331L16.2212 26.4324C16.1654 26.4886 16.099 26.5332 16.0258 26.5636C15.9526 26.5941 15.8742 26.6098 15.7949 26.6098C15.7157 26.6098 15.6372 26.5941 15.564 26.5636C15.4909 26.5332 15.4244 26.4886 15.3686 26.4324L14.169 25.2305C13.6021 24.6635 14.4525 23.8131 15.0194 24.3801L15.7949 25.1556L17.77 23.1827C17.8828 23.0699 18.0357 23.0066 18.1952 23.0066C18.3547 23.0066 18.5076 23.0699 18.6204 23.1827C18.7332 23.2955 18.7965 23.4484 18.7965 23.6079C18.7965 23.7674 18.7332 23.9203 18.6204 24.0331ZM21.1965 23.5954H25.9948C26.7953 23.5954 26.7953 24.7973 25.9948 24.7973H21.1965C20.396 24.7973 20.396 23.5954 21.1965 23.5954ZM28.3962 25.9992C29.1786 26.0196 29.1786 27.183 28.3962 27.2011H21.1942C20.4119 27.183 20.4119 26.0196 21.1942 25.9992H28.3962ZM6.79688 32.0041V32.9815C6.79688 34.0088 7.61323 34.9998 8.59512 34.9998H26.6932C26.2478 34.4226 26.004 33.7151 25.9993 32.986L25.9948 32.0041H6.79688Z" fill="white"/>
</svg>
