<svg xmlns="http://www.w3.org/2000/svg" viewBox="0 0 446 660" xmlns:v="https://vecta.io/nano"><style><![CDATA[.AE{fill:#ffd578}.AF{fill:#ffa98f}.AG{fill:#061728}.AH{fill:#fff}.AI{stroke-miterlimit:10}.AJ{fill:#071a22}.AK{fill:none}.AL{fill:#0745b4}.AM{fill:#05387d}.AN{fill:#3886e8}.AO{stroke:#061728}.AP{stroke-linecap:round}]]></style><g fill="#1b1c17"><path d="M86 8.7v15.4c0 1.4-.4 2.4-1.1 3.1s-1.7 1.1-3.1 1.1c-.3 0-.6 0-1-.1-.4 0-.8-.1-1.2-.1-.4-.1-.7-.2-.9-.3l.4-2.4h1.4c1.4 0 2-.6 2-1.8v-15H86zm10.2 5.2c1.7 0 3 .2 4 .7a4.5 4.5 0 0 1 2.2 2.3c.4 1.1.7 2.5.7 4.2s-.2 3.2-.7 4.2a4.1 4.1 0 0 1-2.2 2.3c-1 .5-2.3.7-4 .7-1.6 0-3-.2-4-.7a4.9 4.9 0 0 1-2.2-2.3c-.4-1.1-.7-2.5-.7-4.2s.2-3.2.7-4.2c.4-1.1 1.2-1.8 2.2-2.3s2.3-.7 4-.7zm0 2.6c-.8 0-1.5.1-2 .4s-.8.7-1 1.4-.3 1.6-.3 2.8.1 2.2.3 2.8c.2.7.5 1.1 1 1.4s1.1.4 2 .4c.8 0 1.5-.1 2-.4s.8-.7 1-1.4.3-1.6.3-2.8-.1-2.2-.3-2.8c-.2-.7-.5-1.1-1-1.4s-1.2-.4-2-.4zm13.5-2.2V28h-3.4V14.3h3.4zm-.9-6c.7 0 1 .3 1 1v1.6c0 .7-.3 1-1 1h-1.5c-.7 0-1-.3-1-1V9.3c0-.7.3-1 1-1h1.5zm13.8 5.6a3.3 3.3 0 0 1 3.8 3.8V28H123v-9.3c0-.7-.1-1.3-.4-1.5-.3-.3-.7-.4-1.3-.4-.7 0-1.4.2-2.1.5a20.8 20.8 0 0 0-2.6 1.3l-.1-2c1-.8 2.1-1.5 3.1-1.9 1-.6 2-.8 3-.8zm-6.2.4l.3 2.7.3.4V28h-3.4V14.3h2.8zm24-4v13.5c0 .6.1 1 .4 1.2s.7.4 1.3.4h1.9l.4 2.4c-.3.1-.7.2-1.1.3s-.9.1-1.3.1-.8.1-1.1.1a3.7 3.7 0 0 1-2.8-1 3.7 3.7 0 0 1-1-2.8V10.3h3.3zm4.1 4v2.4h-9.9v-2.2l2.7-.1h7.2zm11.5-.4a3.3 3.3 0 0 1 3.8 3.8V28h-3.4v-9.3c0-.7-.1-1.3-.4-1.5-.2-.3-.7-.4-1.3-.4-.7 0-1.4.1-2.1.4a20.8 20.8 0 0 0-2.6 1.3l-.3-2c1-.9 2.1-1.5 3.1-2a9.5 9.5 0 0 1 3.2-.6zm-5.7-5.5v5c0 .7 0 1.3-.1 2-.1.6-.1 1.1-.3 1.5l.3.4V28H147V8.4h3.3zm19.4 5.5c2.2 0 3.8.4 4.8 1.2s1.5 1.9 1.5 3.4c0 1.3-.3 2.2-.9 2.9-.6.6-1.6 1-3 1h-7.8v-2.1h6.9c.6 0 1-.2 1.2-.5s.3-.7.3-1.2c0-.8-.2-1.3-.7-1.6-.4-.3-1.1-.4-2.1-.4-.9 0-1.6.1-2 .4-.5.2-.8.7-1 1.3a9.1 9.1 0 0 0-.3 2.7c0 1.3.1 2.2.4 2.9.2.7.6 1.2 1.2 1.4s1.3.4 2.2.4l2.4-.1 2.6-.2.3 2.2c-.5.2-1.1.4-1.7.5l-2 .3c-.7.1-1.3.1-2 .1-1.7 0-3-.2-4.1-.7a4.7 4.7 0 0 1-2.2-2.4c-.4-1.1-.7-2.4-.7-4.1 0-1.8.2-3.2.7-4.3a4.5 4.5 0 0 1 2.2-2.3c.9-.6 2.2-.8 3.8-.8zm19.5-5.3h3l3 .1a24.6 24.6 0 0 1 2.8.2l-.2 2.6h-7.6c-.5 0-.9.1-1.2.4-.2.3-.4.7-.4 1.2v10.5c0 .6.1 1 .4 1.2.3.3.7.4 1.2.4h7.6l.2 2.6-2.8.2h-3-3c-1.2 0-2.2-.3-2.9-1a3.7 3.7 0 0 1-1.1-2.7v-12a3.7 3.7 0 0 1 1.1-2.7 4.4 4.4 0 0 1 2.9-1zm-3.5 8h11v2.6h-11v-2.6zm24.2-7.9c.3 0 .6.1.8.3s.4.4.5.7L217 28h-3.6L209 13.1c-.1-.3-.1-.6-.2-.9s-.1-.6-.2-.9h-.8c-.1.3-.1.6-.2.9l-.3.9-4.4 14.9h-3.6l5.9-18.4c.1-.3.2-.5.4-.7s.5-.3.8-.3h3.5zm3.2 11v2.7h-9.9v-2.7h9.9zm12.1-11.4a30.2 30.2 0 0 1 3 .2c1.1.1 2.1.3 3.1.5l-.2 2.4c-.8 0-1.7 0-2.8-.1-1 0-2.1-.1-3-.1-.6 0-1.1 0-1.5.1-.4 0-.7.1-1 .3-.3.1-.5.4-.6.7a3.9 3.9 0 0 0-.2 1.3c0 .8.2 1.4.5 1.8.4.4.9.6 1.7.8l3.8 1.1c1.5.5 2.6 1.1 3.2 2s.9 2.1.9 3.5a7 7 0 0 1-.4 2.7c-.3.7-.7 1.3-1.2 1.7s-1.2.7-2.1.8a14.5 14.5 0 0 1-3.2.3c-.6 0-1.5 0-2.6-.1a32.6 32.6 0 0 1-3.8-.6l.2-2.5 2.8.1h1.9 1.5a9.5 9.5 0 0 0 2-.2c.5-.1.8-.3 1-.7s.3-.9.3-1.5a3.9 3.9 0 0 0-.2-1.3c-.1-.3-.4-.6-.7-.8s-.7-.3-1.2-.5l-3.9-1.2c-1.5-.4-2.5-1.1-3.1-2s-.9-2.1-.9-3.5a7 7 0 0 1 .4-2.7c.3-.7.7-1.2 1.2-1.6s1.2-.6 2.1-.8l3-.1zm24.3.4l-6.5 13h-3.2l-6.6-13h3.7l3.6 7.6c.2.4.3.7.4 1.1s.3.8.4 1.2h.2c.1-.4.2-.8.4-1.2.1-.4.3-.8.4-1.1l3.6-7.6h3.6zm-6.4 10.8V28h-3.5v-8.5h3.5zm21.2-11.1a13.7 13.7 0 0 1 3.9.5 3.8 3.8 0 0 1 2.2 1.7c.5.8.7 1.9.7 3.4 0 1-.1 1.8-.4 2.5-.2.7-.6 1.2-1.1 1.6s-1.2.6-2.1.8v.1c.3.1.6.2 1 .4s.7.5 1 .9.5.9.7 1.5l1.8 6h-3.7l-1.6-6c-.2-.7-.5-1.1-.8-1.4-.4-.3-.8-.4-1.5-.4h-3.1c-.9 0-1.6 0-2.2-.1h-1.5l.1-2.7h6.7c.8 0 1.5-.1 2-.3s.8-.5 1-1 .3-1.1.3-2a4.7 4.7 0 0 0-.3-1.9c-.2-.4-.6-.8-1-.9-.5-.2-1.1-.3-2-.3h-4.2l-2.4.1-.4-2.6c.7-.1 1.4-.1 2.1-.2.7 0 1.4-.1 2.2-.1.6.4 1.5.4 2.6.4zm-3.6.3V28h-3.4V8.7h3.4zm20 5.2c2.2 0 3.8.4 4.8 1.2s1.5 1.9 1.5 3.4c0 1.3-.3 2.2-.9 2.9-.6.6-1.6 1-3 1h-7.8v-2.1h6.9c.6 0 1-.2 1.2-.5s.3-.7.3-1.2c0-.8-.2-1.3-.7-1.6-.4-.3-1.1-.4-2.1-.4-.9 0-1.6.1-2 .4-.5.2-.8.7-1 1.3a9.1 9.1 0 0 0-.3 2.7c0 1.3.1 2.2.4 2.9.2.7.6 1.2 1.2 1.4s1.3.4 2.2.4l2.4-.1 2.6-.2.3 2.2c-.5.2-1.1.4-1.7.5l-2 .3c-.7.1-1.3.1-2 .1-1.7 0-3-.2-4.1-.7a4.7 4.7 0 0 1-2.2-2.4c-.4-1.1-.7-2.4-.7-4.1 0-1.8.2-3.2.7-4.3a4.5 4.5 0 0 1 2.2-2.3c.9-.6 2.2-.8 3.8-.8zm22.4.4l-4.7 12.9c-.1.2-.2.4-.4.6-.2.1-.4.2-.7.2h-3c-.3 0-.5-.1-.7-.2s-.4-.3-.4-.6l-4.7-12.9h3.6l2.9 9c.1.4.3.8.4 1.3l.3 1.2h.4c.1-.4.3-.8.4-1.2s.3-.8.4-1.2l2.9-9h3.3zm8.3-.4c1.7 0 3 .2 4 .7a4.5 4.5 0 0 1 2.2 2.3c.4 1.1.7 2.5.7 4.2s-.2 3.2-.7 4.2a4.1 4.1 0 0 1-2.2 2.3c-1 .5-2.3.7-4 .7-1.6 0-3-.2-4-.7a4.9 4.9 0 0 1-2.2-2.3c-.4-1.1-.7-2.5-.7-4.2s.2-3.2.7-4.2c.4-1.1 1.2-1.8 2.2-2.3s2.3-.7 4-.7zm0 2.6c-.8 0-1.5.1-2 .4s-.8.7-1 1.4-.3 1.6-.3 2.8.1 2.2.3 2.8c.2.7.5 1.1 1 1.4s1.1.4 2 .4c.8 0 1.5-.1 2-.4s.8-.7 1-1.4.3-1.6.3-2.8-.1-2.2-.3-2.8c-.2-.7-.5-1.1-1-1.4s-1.2-.4-2-.4zm13.4-8.1v15.5c0 .5.2.9.4 1.2.3.3.7.4 1.3.4h1.2l.4 2.4c-.2.1-.5.2-.9.3s-.7.1-1.1.1-.7.1-1 .1a4 4 0 0 1-2.7-.9c-.7-.6-1-1.5-1-2.7V8.4h3.4zm8.7 5.9v9.3c0 .7.1 1.2.4 1.5s.8.4 1.4.4c.7 0 1.3-.1 2-.4a20.3 20.3 0 0 0 2.4-1.3l.3 2c-1 .8-2.1 1.5-3 1.9-1 .4-2 .6-3 .6a3.3 3.3 0 0 1-3.8-3.8V14.3h3.3zm9.2 0V28H340l-.4-2.7-.3-.4V14.3h3.4zm8.4-4v13.5c0 .6.1 1 .4 1.2s.7.4 1.3.4h1.9l.4 2.4a16.4 16.4 0 0 1-1.1.3c-.4.1-.9.1-1.3.1s-.8.1-1.1.1a3.7 3.7 0 0 1-2.8-1 3.7 3.7 0 0 1-1-2.8V10.3h3.3zm4.1 4v2.4h-9.9v-2.2l2.7-.1h7.2zm5.9 0V28h-3.4V14.3h3.4zm-.9-6c.7 0 1 .3 1 1v1.6c0 .7-.3 1-1 1h-1.5c-.7 0-1-.3-1-1V9.3c0-.7.3-1 1-1h1.5zm11.1 5.6c1.7 0 3 .2 4 .7a4.5 4.5 0 0 1 2.2 2.3c.4 1.1.7 2.5.7 4.2s-.2 3.2-.7 4.2a4.1 4.1 0 0 1-2.2 2.3c-1 .5-2.3.7-4 .7-1.6 0-3-.2-4-.7a4.9 4.9 0 0 1-2.2-2.3c-.4-1.1-.7-2.5-.7-4.2s.2-3.2.7-4.2c.4-1.1 1.2-1.8 2.2-2.3s2.3-.7 4-.7zm0 2.6c-.8 0-1.5.1-2 .4s-.8.7-1 1.4-.3 1.6-.3 2.8.1 2.2.3 2.8c.2.7.5 1.1 1 1.4s1.1.4 2 .4c.8 0 1.5-.1 2-.4s.8-.7 1-1.4.3-1.6.3-2.8-.1-2.2-.3-2.8c-.2-.7-.5-1.1-1-1.4s-1.2-.4-2-.4zm19-2.6a3.3 3.3 0 0 1 3.8 3.8V28h-3.4v-9.3c0-.7-.1-1.3-.4-1.5-.3-.3-.7-.4-1.3-.4-.7 0-1.4.2-2.1.5a20.8 20.8 0 0 0-2.6 1.3l-.1-2c1-.8 2.1-1.5 3.1-1.9 1-.6 2-.8 3-.8zm-6.2.4l.3 2.7.3.4V28h-3.4V14.3h2.8z"/><path d="M10.9 524.6c1.7 0 3.1.2 4.2.6 1.2.4 2.1 1 2.8 1.9s1.2 2 1.6 3.5a27.6 27.6 0 0 1 .5 5.4 26.1 26.1 0 0 1-.5 5.4 7.1 7.1 0 0 1-1.6 3.5c-.7.9-1.6 1.5-2.8 1.9s-2.6.5-4.2.5-3.1 0-4.4-.1a46.1 46.1 0 0 1-3.9-.2l1.7-3.1 2.9.1h3.7c1.2 0 2.2-.2 2.9-.7s1.2-1.3 1.5-2.5.4-2.8.4-4.9-.1-3.7-.4-4.9-.8-2-1.5-2.5-1.7-.7-2.9-.7H7.3h-3l-1.8-2.9 3.8-.2 4.6-.1zm-4.4.3V547h-4v-22.1h4zm24.5 6c1.9 0 3.4.3 4.6.8s2 1.4 2.5 2.6a12.6 12.6 0 0 1 .8 4.8 12.6 12.6 0 0 1-.8 4.8c-.5 1.2-1.3 2.1-2.5 2.6-1.1.5-2.7.8-4.6.8s-3.4-.3-4.5-.8c-1.1-.6-2-1.4-2.5-2.6a12.6 12.6 0 0 1-.8-4.8 12.6 12.6 0 0 1 .8-4.8c.5-1.2 1.3-2.1 2.5-2.6 1.1-.5 2.6-.8 4.5-.8zm0 2.9c-.9 0-1.7.2-2.2.5s-.9.8-1.2 1.6c-.2.8-.4 1.8-.4 3.2s.1 2.5.4 3.2c.2.8.6 1.3 1.2 1.6a4.8 4.8 0 0 0 2.2.4 5 5 0 0 0 2.3-.4c.6-.3.9-.8 1.2-1.6.2-.8.4-1.8.4-3.2s-.1-2.5-.4-3.2c-.2-.8-.6-1.3-1.2-1.6a5.2 5.2 0 0 0-2.3-.5zm35.3-2.5L62.2 546c-.1.3-.3.5-.5.7-.3.2-.6.3-.9.3h-3.1c-.3 0-.7-.1-.9-.3-.3-.2-.4-.5-.5-.9l-2.1-9.6c-.1-.4-.2-.9-.2-1.3s-.1-.9-.2-1.3h-.4c-.1.4-.1.9-.2 1.3s-.1.9-.2 1.3l-2 9.6c-.1.4-.2.7-.5.9s-.6.3-.9.3h-3.1c-.3 0-.6-.1-.9-.3s-.4-.4-.5-.7l-4.2-14.7h3.9l2.6 10.8c.1.4.2.8.2 1.2a5 5 0 0 1 .2 1.2h.4l.3-1.2.3-1.2 2.1-9.6c.1-.3.2-.6.4-.8.3-.2.6-.4 1-.4H55c.3 0 .6.1.9.4.3.2.4.5.5.9l2.1 9.6c.1.4.1.8.2 1.2l.3 1.2h.4c.1-.4.2-.8.2-1.2.1-.4.1-.8.3-1.2l2.6-10.8h3.8zm13.2-.4c2.9 0 4.4 1.4 4.4 4.3V547H80v-10.6c0-.9-.1-1.4-.4-1.8-.3-.3-.8-.5-1.5-.5-.8 0-1.6.2-2.4.5a20.7 20.7 0 0 0-3 1.5l-.2-2.3a13.5 13.5 0 0 1 3.5-2.2 10.4 10.4 0 0 1 3.5-.7zm-7.2.4l.4 3.1.3.4V547h-3.9v-15.7h3.2zm19.7-6.7v17.7c0 .6.2 1.1.5 1.4s.8.4 1.5.4h1.4l.4 2.7a6.2 6.2 0 0 1-1 .3c-.4.1-.8.1-1.3.2-.4 0-.8.1-1.1.1a4.5 4.5 0 0 1-3.1-1.1c-.8-.7-1.2-1.7-1.2-3v-18.6H92zm13.3 6.3c1.9 0 3.4.3 4.6.8s2 1.4 2.5 2.6a12.6 12.6 0 0 1 .8 4.8 12.6 12.6 0 0 1-.8 4.8c-.5 1.2-1.3 2.1-2.5 2.6-1.1.5-2.7.8-4.6.8s-3.4-.3-4.5-.8c-1.1-.6-2-1.4-2.5-2.6a12.6 12.6 0 0 1-.8-4.8 12.6 12.6 0 0 1 .8-4.8c.5-1.2 1.3-2.1 2.5-2.6 1.1-.5 2.6-.8 4.5-.8zm0 2.9c-.9 0-1.7.2-2.2.5s-.9.8-1.2 1.6c-.2.8-.4 1.8-.4 3.2s.1 2.5.4 3.2c.2.8.6 1.3 1.2 1.6a4.8 4.8 0 0 0 2.2.4 5 5 0 0 0 2.3-.4c.6-.3.9-.8 1.2-1.6.2-.8.4-1.8.4-3.2s-.1-2.5-.4-3.2c-.2-.8-.6-1.3-1.2-1.6a4.9 4.9 0 0 0-2.3-.5zm19.4-2.9c1.3 0 2.3.2 3.2.5a3.7 3.7 0 0 1 2 1.7c.4.8.7 1.9.7 3.3V547h-3.1l-.5-3.4-.3-.4v-6.8c0-.8-.2-1.4-.6-1.8s-1.1-.6-2.2-.6l-3.1.1-3.7.3-.4-2.7 2.5-.4 2.8-.3a25.3 25.3 0 0 1 2.7-.1zm4.1 6.4v2.4h-7.2c-.6 0-1.1.2-1.4.5s-.4.8-.4 1.3v.9c0 .6.2 1.1.5 1.4s.9.5 1.6.5a6.8 6.8 0 0 0 1.9-.3c.7-.2 1.4-.6 2.1-1a9.5 9.5 0 0 0 1.9-1.6v2l-.9 1.2c-.4.4-.9.9-1.5 1.3s-1.2.8-2 1.1c-.7.3-1.6.4-2.5.4s-1.8-.2-2.5-.5-1.3-.8-1.8-1.5c-.4-.7-.6-1.5-.6-2.4v-1.7a3.7 3.7 0 0 1 1.2-2.9c.8-.7 2-1.1 3.4-1.1h8.2zm11.2-6.4c1.1 0 2.1.1 3.1.4a7.4 7.4 0 0 1 2.8 1.4l-.3 2-2.2-.6a7.8 7.8 0 0 0-2.2-.3c-.8 0-1.4.1-1.9.4-.4.3-.8.8-1 1.5a13.1 13.1 0 0 0-.3 3.3 13.3 13.3 0 0 0 .3 3.2c.2.7.5 1.2 1 1.5s1.1.4 1.8.4c.6 0 1.1-.1 1.5-.2s.9-.4 1.4-.7 1-.7 1.6-1.1l.3 2.2c-.7.8-1.6 1.5-2.7 2.1-1 .6-2.3.9-3.6.9-2 0-3.4-.7-4.3-2.1s-1.3-3.5-1.3-6.2c0-2.1.2-3.7.6-4.9s1.1-2 2-2.5c1-.4 2.1-.7 3.4-.7zm9.1-6.3V547h-3l-.4-2.8-.4-.3v-10.5l.2-.4c-.1-.6-.1-1.2-.2-1.9v-2-4.5h3.8zm19.9-.1l2.6.1a12.3 12.3 0 0 1 2 .2l1.9.4-.4 3c-.7 0-1.3-.1-1.9-.1s-1.2-.1-1.9-.1H169c-1.2 0-2.2.2-2.9.7s-1.2 1.3-1.5 2.5-.4 2.7-.4 4.8c0 2 .1 3.6.4 4.8s.8 2 1.5 2.5 1.7.7 2.9.7l3.6-.1c1-.1 1.9-.1 2.9-.3l.4 2.9c-1 .3-2 .5-3 .6l-3.8.2c-2.2 0-4-.4-5.3-1.1s-2.3-2-2.9-3.6c-.6-1.7-.9-3.9-.9-6.7s.3-5.1.9-6.7c.6-1.7 1.6-2.9 2.9-3.6s3-1.1 5.2-1.1zm17.1 6.4c1.9 0 3.4.3 4.6.8s2 1.4 2.5 2.6a12.6 12.6 0 0 1 .8 4.8 12.6 12.6 0 0 1-.8 4.8c-.5 1.2-1.3 2.1-2.5 2.6-1.1.5-2.7.8-4.6.8s-3.4-.3-4.5-.8c-1.1-.6-2-1.4-2.5-2.6a12.6 12.6 0 0 1-.8-4.8 12.6 12.6 0 0 1 .8-4.8c.5-1.2 1.3-2.1 2.5-2.6 1.1-.5 2.7-.8 4.5-.8zm0 2.9c-.9 0-1.7.2-2.2.5s-.9.8-1.2 1.6c-.2.8-.4 1.8-.4 3.2s.1 2.5.4 3.2c.2.8.6 1.3 1.2 1.6a4.8 4.8 0 0 0 2.2.4 5 5 0 0 0 2.3-.4c.6-.3.9-.8 1.2-1.6.2-.8.4-1.8.4-3.2s-.1-2.5-.4-3.2c-.2-.8-.6-1.3-1.2-1.6-.5-.3-1.3-.5-2.3-.5zm21.8-2.9c2.9 0 4.4 1.4 4.4 4.3V547h-3.9v-10.6c0-.9-.1-1.4-.4-1.8s-.8-.5-1.5-.5c-.8 0-1.6.2-2.4.5a20.7 20.7 0 0 0-3 1.5l-.2-2.3a13.5 13.5 0 0 1 3.5-2.2c1.2-.4 2.4-.7 3.5-.7zm-7.1.4l.4 3.1.3.4V547h-3.9v-15.7h3.2zm26.1-.4c2.9 0 4.4 1.4 4.4 4.3V547h-3.9v-10.6c0-.9-.1-1.4-.4-1.8-.3-.3-.8-.5-1.5-.5-.8 0-1.6.2-2.4.5a20.7 20.7 0 0 0-3 1.5l-.2-2.3a13.5 13.5 0 0 1 3.5-2.2c1.2-.4 2.4-.7 3.5-.7zm-7.2.4l.4 3.1.3.4V547h-3.9v-15.7h3.2zm22.8-.4c2.5 0 4.4.4 5.5 1.3s1.7 2.2 1.7 3.9c0 1.4-.3 2.5-1 3.3-.7.7-1.8 1.1-3.4 1.1h-9v-2.4h7.9c.7 0 1.2-.2 1.4-.6a3.2 3.2 0 0 0 .3-1.4c0-.9-.3-1.5-.8-1.8s-1.3-.5-2.4-.5c-1 0-1.8.1-2.3.4-.6.3-.9.8-1.2 1.5a12.4 12.4 0 0 0-.3 3.1c0 1.5.1 2.6.4 3.4a2.5 2.5 0 0 0 1.4 1.6c.6.3 1.5.4 2.6.4l2.7-.1c1-.1 2-.1 3-.3l.4 2.5-2 .6c-.7.1-1.5.3-2.3.3-.8.1-1.5.1-2.2.1-1.9 0-3.5-.3-4.6-.8-1.2-.6-2-1.5-2.5-2.7s-.8-2.8-.8-4.7a12.8 12.8 0 0 1 .8-4.9 4.9 4.9 0 0 1 2.5-2.6c.9-.4 2.4-.7 4.2-.7zm17.7 0c.5 0 1.1 0 1.8.1.6 0 1.3.1 2 .3.7.1 1.3.3 1.8.5l-.4 2.4c-.8 0-1.6-.1-2.4-.1h-2c-1.1 0-2 .1-2.6.4s-1.1.8-1.3 1.5c-.3.7-.4 1.7-.4 3.1s.1 2.4.4 3.1.7 1.2 1.3 1.5 1.5.4 2.6.4h1.2c.5 0 1.1-.1 1.7-.1s1.2-.1 1.8-.2l.4 2.5c-.8.3-1.8.6-2.8.7l-3 .2c-1.9 0-3.4-.3-4.5-.8a4.9 4.9 0 0 1-2.5-2.6c-.5-1.2-.7-2.8-.7-4.9a12.6 12.6 0 0 1 .8-4.8c.5-1.2 1.3-2.1 2.5-2.6 1-.3 2.5-.6 4.3-.6zm14.2-4.1v15.5c0 .6.1 1.1.4 1.4s.8.4 1.5.4h2.2l.4 2.7-1.3.3c-.5.1-1 .1-1.5.2-.5 0-.9.1-1.2.1-1.4 0-2.4-.4-3.2-1.1-.7-.7-1.1-1.8-1.1-3.2v-16.2h3.8zm4.6 4.5v2.7h-11.3v-2.5l3.1-.2h8.2zm14.5-6.4h3.4l3.5.1a32.3 32.3 0 0 1 3.2.2l-.2 3h-8.6c-.6 0-1 .1-1.3.4s-.4.8-.4 1.4v12c0 .6.1 1.1.4 1.4s.7.4 1.3.4h8.6l.2 3-3.2.2h-3.5-3.4c-1.4 0-2.5-.4-3.3-1.1-.8-.8-1.2-1.8-1.2-3.1V529c0-1.3.4-2.3 1.2-3 .9-.8 2-1.1 3.3-1.1zm-3.9 9.1h12.6v2.9h-12.6V534zm25.9-9.5l2.6.1a12.3 12.3 0 0 1 2 .2l1.9.4-.4 3c-.7 0-1.3-.1-1.9-.1s-1.2-.1-1.9-.1h-2.3c-1.2 0-2.2.2-2.9.7s-1.2 1.3-1.5 2.5-.4 2.7-.4 4.8c0 2 .1 3.6.4 4.8s.8 2 1.5 2.5 1.7.7 2.9.7l3.6-.1c1-.1 1.9-.1 2.9-.3l.4 2.9c-1 .3-2 .5-3 .6l-3.8.2c-2.2 0-4-.4-5.3-1.1s-2.3-2-2.9-3.6c-.6-1.7-.9-3.9-.9-6.7s.3-5.1.9-6.7c.6-1.7 1.6-2.9 2.9-3.6s3-1.1 5.2-1.1zm22.8-.5h1.4c.6 0 1.2.1 1.8.1s1.2.1 1.6.2l-.4 2.6h-3.1c-.9 0-1.5.2-1.9.5-.4.4-.5 1-.5 1.8V547h-3.9v-18.2a6.7 6.7 0 0 1 .5-2.6c.3-.7.8-1.2 1.6-1.6s1.7-.6 2.9-.6zm3.6 7.3v2.7h-11.3v-2.5l2.9-.2h8.4zm9.6-.4c1.9 0 3.4.3 4.6.8s2 1.4 2.5 2.6a12.6 12.6 0 0 1 .8 4.8 12.6 12.6 0 0 1-.8 4.8c-.5 1.2-1.3 2.1-2.5 2.6-1.1.5-2.7.8-4.6.8s-3.4-.3-4.5-.8c-1.1-.6-2-1.4-2.5-2.6a12.6 12.6 0 0 1-.8-4.8 12.6 12.6 0 0 1 .8-4.8c.5-1.2 1.3-2.1 2.5-2.6a11.7 11.7 0 0 1 4.5-.8zm0 2.9c-.9 0-1.7.2-2.2.5s-.9.8-1.2 1.6c-.2.8-.4 1.8-.4 3.2s.1 2.5.4 3.2c.2.8.6 1.3 1.2 1.6a4.8 4.8 0 0 0 2.2.4 5 5 0 0 0 2.3-.4c.6-.3.9-.8 1.2-1.6.2-.8.4-1.8.4-3.2s-.1-2.5-.4-3.2c-.2-.8-.6-1.3-1.2-1.6-.5-.3-1.3-.5-2.3-.5zm14.5-2.5l.5 3.1.4.4V547H363v-15.7h3zm7.7-.4l-.4 3.6h-1.1c-.8 0-1.7.1-2.5.4l-3.2 1.2-.3-2.3c1.1-.9 2.2-1.7 3.4-2.2a8.8 8.8 0 0 1 3.3-.8h.8zm13.8-6h3.3l3.3.1a30.3 30.3 0 0 1 3.1.2l-.2 2.9h-8.1c-.6 0-1.1.1-1.4.4s-.5.8-.5 1.4V547h-4v-17.9c0-1.3.4-2.4 1.2-3.1.8-.8 1.9-1.1 3.3-1.1zm-4 9.4h12.3v2.9h-12.3v-2.9zm19.3-3l.5 3.1.4.4V547h-3.9v-15.7h3zm7.7-.4l-.4 3.6H409c-.8 0-1.7.1-2.5.4l-3.2 1.2-.3-2.3c1.1-.9 2.2-1.7 3.4-2.2a8.8 8.8 0 0 1 3.3-.8h.8zm9.3 0c2.5 0 4.4.4 5.5 1.3s1.7 2.2 1.7 3.9c0 1.4-.3 2.5-1 3.3-.7.7-1.8 1.1-3.4 1.1h-9v-2.4h7.9c.7 0 1.2-.2 1.4-.6a3.2 3.2 0 0 0 .3-1.4c0-.9-.3-1.5-.8-1.8s-1.3-.5-2.4-.5c-1 0-1.8.1-2.3.4-.6.3-.9.8-1.2 1.5a12.4 12.4 0 0 0-.3 3.1c0 1.5.1 2.6.4 3.4a2.5 2.5 0 0 0 1.4 1.6c.6.3 1.5.4 2.6.4l2.7-.1c1-.1 2-.1 3-.3l.4 2.5-2 .6c-.7.1-1.5.3-2.3.3-.8.1-1.5.1-2.2.1-1.9 0-3.5-.3-4.6-.8-1.2-.6-2-1.5-2.5-2.7s-.8-2.8-.8-4.7a12.8 12.8 0 0 1 .8-4.9 4.9 4.9 0 0 1 2.5-2.6c.9-.4 2.4-.7 4.2-.7zm17.7 0c2.5 0 4.4.4 5.5 1.3s1.7 2.2 1.7 3.9c0 1.4-.3 2.5-1 3.3-.7.7-1.8 1.1-3.4 1.1h-9v-2.4h7.9c.7 0 1.2-.2 1.4-.6a3.2 3.2 0 0 0 .3-1.4c0-.9-.3-1.5-.8-1.8s-1.3-.5-2.4-.5c-1 0-1.8.1-2.3.4-.6.3-.9.8-1.2 1.5a12.4 12.4 0 0 0-.3 3.1c0 1.5.1 2.6.4 3.4a2.5 2.5 0 0 0 1.4 1.6c.6.3 1.5.4 2.6.4l2.7-.1c1-.1 2-.1 3-.3l.4 2.5-2 .6c-.7.1-1.5.3-2.3.3-.8.1-1.5.1-2.2.1-1.9 0-3.5-.3-4.6-.8-1.2-.6-2-1.5-2.5-2.7s-.8-2.8-.8-4.7a12.8 12.8 0 0 1 .8-4.9 4.9 4.9 0 0 1 2.5-2.6c.9-.4 2.3-.7 4.2-.7z"/></g><path d="M388.8 289.2H435s-2.3-3-4.8-3.4c0 0-4.9-14.6-13.2-14.7-7.7-.1-10.7 9-10.7 9s-3.6-4.1-6.9-2.2c-3.4 1.9-5.3 7.2-5.3 7.2s-3.9 2.1-5.3 4.1zM69.5 253.3H11s0-3.7 8.1-4.5c0 0 7.4-16.3 18.6-14.1 7 1.4 10.6 10.9 10.6 10.9s5.3-7.5 9.5-6.1c4.2 1.5 6.7 9.5 6.7 9.5s4.3 2.2 5 4.3zm138.9-82.7h46.2s-2.3-3-4.8-3.4c0 0-4.9-14.6-13.2-14.7-7.7-.1-10.7 9-10.7 9s-3.6-4.1-6.9-2.2c-3.4 1.9-5.3 7.2-5.3 7.2s-4 2-5.3 4.1z" fill="#e1f1ff"/><path d="M229.4 455c105 0 190.2-13.9 190.2-31s-85.1-31-190.2-31-190.1 13.9-190.1 31 85.1 31 190.1 31z" opacity=".07" enable-background="new"/><use href="#B" class="AF"/><path d="M269.2 396.4l.2-2.2 27.9.5c1.4 0 2.7-.7 3.5-1.8h.2l-.3 3.5c0 .1-.1.3-.2.3l-.1.1c-.6.6-1.4.9-2.3.9l-28.3-.5c-.3 0-.6-.4-.6-.8z" fill="#8da1b5"/><path d="M284.2 383.1l15.9 7.7c.7.3 1 1.1 1 1.9-.1 1.1-1.4 2-2.3 2l-29.3-.5 2-10.6c0 .1 4.7 3.7 12.7-.5z" class="AG"/><use href="#B" x="-47.3" class="AF"/><path d="M221.9 396.4l.2-2.2 27.9.4c1.4 0 2.7-.7 3.5-1.8h.2l-.3 3.5c0 .1-.1.3-.2.3l-.1.1c-.6.6-1.4.9-2.3.9l-28.3-.5c-.3.1-.6-.3-.6-.7z" fill="#8da1b5"/><path d="M236.9 383.1l15.9 7.7c.7.3 1 1.1 1 1.9-.1 1.1-1.4 2-2.3 2l-29.3-.5 2-10.6c0 .1 4.8 3.7 12.7-.5z" class="AG"/><path d="M300.3 257.9l-13.1 124h-9.8c-5.4-.7-8.8-2.3-8.8-2.3s-1-18.9.2-47.3l1-35.7s-6.8 12.8-14.9 36.1c-4.9 14-15.2 49.1-15.2 49.1s-6.6.4-9.9 0c-4.4-.5-8.7-2.5-8.7-2.5s6.3-35.2 18-83l12.4-48.1 48.8 9.7z" class="AL"/><g class="AN"><path d="M244.8 266.1c27.4 14.1 59.7 0 59.7 0l-.3-51.6s-47.3-9.3-48.3-5.2c-4.2 17.1-11.1 56.8-11.1 56.8z"/><path d="M248.3 205.1s1.8 8.8 14.2 15.4c5.1 2.7 15.1.7 15.1.7l.6-.1 20.8 4.1s3.9-7.9 5.2-8.8c10-7.3 8.7-18.2 8.7-18.2s-9.2-4.8-23.4-6.9c-1.3-.2.7 2.8.3 5.5 0 .2-.1.5-.1.7-.3 1.2-.9 2.3-2.1 3l-.6.3c-.8.4-1.9.5-3.2.4a8.8 8.8 0 0 1-1.7-.2c-.2 0-.4-.1-.6-.2-6.5-1.8-7.4-8.8-7.4-8.8s-16.7 1.6-25.8 13.1z"/></g><path d="M265.2 215l-7.3-17.2-.1-.1h-.1c-.1 0-6.4 4.1-13.5 10.6-6.6 6-15.2 15.5-19 26.1-3.1 8.6-4.8 16-5.6 20.6-.6 3.4-1 5.9-1.1 7.2a15 15 0 0 0-1.6 4.4c-.2 1.1-.3 2.4-.3 3.7-.1 2.2-.2 4.4-.9 5.8-1 2-.4 2.6-.1 2.8.3.1.6.1.9 0-.3.9.2 1.2.3 1.3.5.3 1.3 0 2.1-.8 0 .4.1 1.2.6 1.5.3.1.7 0 1.1-.3 1.2-1 2.9-5.2 3.6-7 0 .6-.2 1.4-.6 2.4-.4 1.2-.8 2.7-.3 3.3 0 .1.1.1.2.1.1.1.3.1.6 0 .9-.2 3.2-5.2 3.6-7.1 1.2-5.5 1.9-9.8 1.9-9.8 2.8-8.2 9.3-26.5 12.5-29.1l21.6-17.2c.7-.5 1-.8 1-.8h0c.2-.2.3-.3.4-.3s.1-.1.1-.1z" class="AF"/><path d="M236.4 212.6c-1.1 1-1 2.7 0 3.6 2.9 2.6 14.7 4.3 21 9.5 10.7 8.9 14.9-23.8 14.9-23.8l1.7-10c-14.1.2-31.8 15.4-37.6 20.7z" class="AN"/><path d="M275.5 251.3l.3-.1c-4.1-13.8 3.9-47.4 4-47.7l-.3-.1c-.1.3-8.1 34-4 47.9zm6.4-12.3l.3-.1c-2.4-5.6-1-35.4-1-35.7h-.3c-.1 1.2-1.4 30.2 1 35.8z" class="AH"/><path d="M280.8 204.4c7.2 0 13.1-3.7 13.1-8.3s-5.9-8.3-13.1-8.3-13.1 3.7-13.1 8.3 5.8 8.3 13.1 8.3z" class="AN"/><path d="M293.5 193.8a7.4 7.4 0 0 1-1.3 6.6l-.6.6c-.2.2-.4.4-.7.6-.5.3-.9.7-1.5.9l-1.6.7-.8.3-.4.1-.4.1-1.7.3-1.8.2-.9.1h-.9-.9c-.3 0-.6 0-.9-.1-1.2-.1-2.3-.4-3.5-.7-1.1-.3-2.2-.8-3.2-1.5 1.9 1.4 4.3 2.1 6.6 2.4.3 0 .6.1.9.1h.9.9l.9-.1c.6-.1 1.2-.1 1.8-.2l1.8-.3.4-.1.4-.1.9-.3a12.2 12.2 0 0 0 1.7-.7c.6-.2 1-.6 1.5-.9.3-.2.5-.4.7-.6s.5-.4.6-.7c.8-.9 1.2-2.1 1.4-3.3.1-1 0-2.2-.3-3.4zm-24.6-1c-.5.5-.9 1-1.2 1.7-.3.6-.5 1.3-.5 2 0 .4.1.7.2 1s.3.7.5.9c.2.3.4.5.7.8.3.2.6.4.8.6-.5-.5-1-.9-1.3-1.5s-.5-1.2-.5-1.8.1-1.3.4-1.9c.2-.7.5-1.2.9-1.8z" fill="#226cbc"/><g class="AF"><path d="M288.2 181.8l-10.3-11.9-4.7 11.3.8 2.3-1 8.3c3.7 6.5 13.6 5.7 15.2 1.8v-11.8z"/><path d="M292.6 163.4c2.8 4.3 3.9 14.1-.2 21.2-1.7 3-10.8 2.9-13.7.4-2.5-2.2-6.6-14.9-3.4-18.6 3.3-3.8 14.3-9.3 17.3-3z"/></g><path d="M279.4 167.6c-.6-.3-1.2-.6-1.7-1-2-1.3-3.9-3-5.1-5l-.3-.6c-.2.1-.5.2-.7.4-2.1 1.2-3.6 3.3-4 5.5-.3 1.9-.5 5 1.4 6.9.9.9 1.9 2 2.3 3.2l2.1 4.8 2.5-2.3c.9-.9 1.1-1.9 1.8-2.9 1.7-2.5 2.5-6 3-8.4l-1.3-.6z" class="AG"/><path d="M279.3 175.2c-.6-.8-1.4-1.6-2.4-1.5-.5 0-.9.3-1.2.7-1.6 1.8-1.2 4.9 1 6.2.9.6 2.1.7 2.7-.3l.2-4.5c0-.2-.2-.4-.3-.6z" class="AF"/><g class="AG"><path d="M288.4 186.8c-.1 0-6.7.7-10.1-2.7l.2-.2c3.3 3.2 9.8 2.6 9.8 2.6l.1.3z"/><use href="#C"/><path d="M285 173.2c.1-.1.2-.2.2-.4s0-.6-.1-.9h-1.2c-.2.4-.1 1 .2 1.3h.9z"/><use href="#D"/><path d="M290.8 163.2l3.7 4.4s-1.5-5.4-2.8-6.1c-1.4-.7-.9 1.7-.9 1.7z"/><use href="#E"/><path d="M274.5 158.1c-2.1.6-3 .9-4 1.6-.8.6-2.7 2.4-2.7 3.9 0 2.7 5.7 5.1 10.8 5 1 0 2.9-.4 5.6-1.2 6-1.8 12.6-5.2 11-12.2 0 0-.8 1.5-1.9 1.7 0 0 1.4-4.6-4.1-6.9.3.1-1.9 2.7-2.1 2.8-2.1 1.9-4.2 3.1-6.2 3.8s-2 .3-6.4 1.5z"/><use href="#F"/><path d="M290.3 167.9c0-.3.2-.5.5-.7.2-.2.6-.3.9-.3s.7 0 .9.2c.1.1.3.2.4.2l.3.3h-.4-.4-.7c-.5 0-.9.1-1.5.3z"/></g><path d="M269.7 296.9c-.2 0-.3-.2-.3-.3.8-6.1 6.5-11 6.8-11.2.1-.1.3-.1.4 0s.1.3 0 .4-5.9 5-6.6 10.9c0 .1-.2.2-.3.2z" fill="#073a77"/><path d="M289.5 180.8s-2.1.8-4-1" stroke-width="1.5" class="AI AK AO"/><use href="#G" class="AF"/><use href="#H" fill="#c4c4c4"/><path d="M149.8 400.4l-15.9 7.7c-.7.3-1 1.1-1 1.9.1 1.1 1.4 2 2.3 2l29.3-.5-2-10.6c.1.1-4.7 3.7-12.7-.5z" class="AG"/><use href="#G" x="47.6" y="-0.4" class="AF"/><path d="M212.4 413.3l-.2-2.2-27.9.5c-1.4 0-2.7-.7-3.5-1.8h-.2l.3 3.5c0 .1.1.3.2.3l.1.1c.6.6 1.4.9 2.3.9l28.3-.5c.3 0 .6-.4.6-.8z" fill="#c4c4c4"/><path d="M197.4 400l-15.9 7.7c-.7.3-1 1.1-1 1.9.1 1.1 1.4 2 2.3 2l29.3-.5-2-10.6c0 .1-4.8 3.7-12.7-.5z" class="AG"/><path d="M200.4 269.3s4 22.2 11.4 127.4c0 0-5.6 1.2-10.4 1.7-4.2.4-9 0-9 0l-14.6-100c-2.4 38-13 99.3-13 99.3s-2.2-.1-10.5.7c-1.6.2-6.6 0-6.6 0l3.9-127 48.8-2.1z" class="AM"/><g class="AL"><path d="M156.4 196.6c-8.3-.5-46.3 10.7-47.6 13-3.9 6.9 4 12.7 12.9 13.7 14 1.5 27.8-1.5 27.8-1.5s12.8-24.9 6.9-25.2z"/><path d="M173.6 194c-8.4-.5-30 5.9-28.1 17l5.9 36.3-3.5 40s22 4.8 58-3l-10.1-38.2s4-22.8 3.3-27.4c-2.8-19.3-4.5-23.4-25.5-24.7z"/></g><path d="M156.5 197.1l11.1 49.6 10.8-52.3c0 0-6.6-2.8-21.9 2.7z" class="AH"/><path d="M172.4 200.3l-1.4 1c-2.1 1.5-4.9 1.1-6.4-.9l-3.1-4.3c-1.5-2-1-5 1.1-6.5l1.4-1c2.1-1.5 4.9-1.1 6.4.9l3.1 4.3c1.4 2 .9 4.9-1.1 6.5zm28.6 50.6c-2.2.4-5.8 1.4-8 1.1-1.7-.1-8.2-.2-7.9 1.1.2 1.5 4.3 2.1 7.1 2.3a16.3 16.3 0 0 0-3.1 5.3c-.3 1.5.2 2.7 1.4 2.8-.1 1.6.4 2.3.9 2.5 1.3.6 2.3-.5 2.8-2.4.1 1.1 0 1.9.3 2.6.2.5.9 1.1 1.4 1.2s1.2-.7 1.4-1.4c.3-.9.5-2.1.5-2.8 0-.5 0-.2.2-.6.8 0 2.7-.3 3.1-.3 1.3-.1 2.5-1.8 3.2-3 2.6-4.2-1.3-8.8-3.3-8.4z" class="AF"/><path d="M190.5 263.8c-.2 0-.3-.1-.3-.2.5-3.6 3.4-6.1 3.5-6.3.1-.1.2-.1.3 0s.1.2 0 .3c0 0-2.9 2.6-3.4 6 0 .1 0 .1-.1.2zm3.8-.4c-.2 0-.3-.1-.3-.2.3-2.3 1.8-3.8 1.9-3.8.1-.1.2-.1.3 0s.1.2 0 .3c0 0-1.4 1.5-1.8 3.6.1 0 0 .1-.1.1z" fill="#1c1c1c"/><path d="M194.9 196.7c15.8 4.3 39.5 26.6 34.7 37.8-5.3 12.5-21.4 24.4-21.4 24.4s-9.8-4.1-11.5-8c0 0 16.2-17.1 16-18-.9-4.6-21.6-12.6-21.6-12.6l-9.9-25.2c0 0 7.5-.1 13.7 1.6z" class="AL"/><path d="M165.5 201.9l4.4-1.2s1.2 3-.2 3.7-4 1.4-5-.9.8-1.6.8-1.6z" class="AM"/><path d="M168.7 185.3c-1 .9-2.3 1-2.9.3s-.2-2.1.6-2.8c1-.9 2.3-1 2.9-.3.7.6.4 1.9-.6 2.8z" class="AH"/><defs><filter id="A" filterUnits="userSpaceOnUse" x="160.1" y="202.7" width="14.3" height="73.9"><feColorMatrix values="1 0 0 0 0  0 1 0 0 0  0 0 1 0 0  0 0 0 1 0"/></filter><path id="B" d="M273.2 376.7l-2.1 11.8 12-.9.4-11.6-10.3.7z"/><path id="C" d="M287.8 177.9v-.3l1-.1c.4 0 .8-.2 1-.5s.3-.7.2-1l-1.4-4 .3-.1 1.4 4c.2.4.1.9-.2 1.3s-.7.6-1.2.7h-1.1z"/><path id="D" d="M292.3 171.7c.1.3.1.7.2.9.1.4-.4.7-.9.6-.8-.2-.8-1.9.2-1.9.3 0 .4.2.5.4z"/><path id="E" d="M278.4 180.9c-1.5.2-2.8-1-2.8-1.1l.2-.2s1.6 1.6 3.1.9l.1.3c-.2 0-.4.1-.6.1z"/><path id="F" d="M282 170.7c.1-.3.4-.6.7-.8s.7-.3 1-.4c.8-.1 1.6.1 2 .7h-1c-.3 0-.6 0-.9.1l-1.8.4z"/><path id="G" d="M160.8 394l2.1 11.8-12-.9-.4-11.6 10.3.7z"/><path id="H" d="M164.8 413.7l-.2-2.2-27.9.5c-1.4 0-2.7-.7-3.5-1.8h-.2l.3 3.5c0 .1.1.3.2.3l.1.1c.6.6 1.4.9 2.3.9l28.3-.5c.4 0 .7-.4.6-.8z"/><path id="I" d="M154.2 180.3c0 .5.2 1 .5 1s.6-.4.6-.9-.2-1-.5-1-.6.4-.6.9z"/><path id="J" d="M89.5 291.6v-.2h-.2v.2h.2z"/><path id="K" d="M88.9 288.8v-.2h-.2v.2c.1.1.1.1.2 0z"/><path id="L" d="M88.9 288.2c-.1 0-.1 0-.2.1 0 .1 0 .1.1.1s.1 0 .2-.1c0 0-.1 0-.1-.1z"/><path id="M" d="M89.6 288.5c-.1 0-.1 0-.2.1 0 .1 0 .1.1.1s.1 0 .2-.1c0 0 0-.1-.1-.1z"/><path id="N" d="M89 289.7c-.1 0-.1 0-.2.1 0 .1 0 .1.1.1s.1 0 .2-.1l-.1-.1z"/><path id="O" d="M90.2 290.3c-.1 0-.1 0-.2.1 0 .1 0 .1.1.1s.1 0 .2-.1c0-.1-.1-.1-.1-.1z"/><path id="P" d="M88.8 291c-.1 0-.1 0-.2.1 0 .1 0 .1.1.1s.1 0 .2-.1c0 0-.1-.1-.1-.1z"/><path id="Q" d="M88.9 291.7c-.1 0-.1 0-.2.1 0 .1 0 .1.1.1s.1 0 .2-.1c-.1 0-.1-.1-.1-.1z"/><path id="R" d="M91.4 288.8c-.1 0-.1 0-.2.1 0 .1 0 .1.1.1s.1 0 .2-.1c0-.1 0-.1-.1-.1z"/><path id="S" d="M88.6 291.4c0 .1.1.1.2 0 .1 0 .1-.1 0-.2 0-.1-.1-.1-.2 0v.2z"/><path id="T" d="M89.6 290.3c0 .1.1.1.2 0 .1 0 .1-.1 0-.2 0-.1-.1-.1-.2 0 0 .1-.1.2 0 .2z"/><path id="U" d="M90 289.1c0 .1.1.1.2 0 .1 0 .1-.1 0-.2s-.1-.1-.2 0-.1.1 0 .2z"/><path id="V" d="M88.6 292.1c0 .1.1.1.2 0s.1-.1 0-.2c0-.1-.1-.1-.2 0v.2z"/><path id="W" d="M91.1 289.8c0-.1-.1-.1-.1-.1-.1 0-.1.1-.1.1 0 .1.1.1.1.1.1.1.1 0 .1-.1z"/><path id="X" d="M90.6 290.2c0-.1-.1-.1-.1-.1l-.1.1c0 .1.1.1.1.1s.1 0 .1-.1z"/><path id="Y" d="M90.6 289.6c0-.1-.1-.1-.1-.1-.1 0-.1.1-.1.1 0 .1.1.1.1.1.1 0 .1-.1.1-.1z"/><path id="Z" d="M89.9 289.7c0-.1-.1-.1-.1-.1-.1 0-.1.1-.1.1 0 .1.1.1.1.1s.1 0 .1-.1z"/><path id="a" d="M89.7 290.5c0-.1-.1-.1-.1-.1-.1 0-.1.1-.1.1 0 .1.1.1.1.1.1 0 .1 0 .1-.1z"/><path id="b" d="M89.5 290c0-.1-.1-.1-.1-.1-.1 0-.1.1-.1.1 0 .1.1.1.1.1 0 .1.1 0 .1-.1z"/><path id="c" d="M89.1 290.8c0-.1-.1-.1-.1-.1-.1 0-.1.1-.1.1 0 .1.1.1.1.1l.1-.1z"/><path id="d" d="M89.6 288.1c0-.1-.1-.1-.1-.1-.1 0-.1.1-.1.1 0 .1.1.1.1.1s.1-.1.1-.1z"/></defs><mask maskUnits="userSpaceOnUse" x="160.1" y="202.7" width="14.3" height="73.9" id="e"><path d="M157.2 201.2l10.3 45.8 9.3-45-19.6-.8z" filter="url(#A)" class="AH"/></mask><g mask="url(#e)" class="AM"><path d="M166.3 202.9s-9.2 42.4-5.3 63.6l7 10 6.3-10.4s-5.6-16.7-4.5-63.4l-3.5.2z"/></g><path d="M160.8 194.7s5.6.5 8.4-4.3c0 0-2.4 6.6-6.3 7.6 0 .1-1.9-2.4-2.1-3.3z" class="AJ"/><path d="M154.8 191.9c-2.1-4.6-1.4-10.1-.8-14.3.3-2.7 1.1-5 3.3-6.7 3.5-2.7 10-4.3 13.5-.5 3 3.2 3.5 7.7 2.6 11.8-.7 3.2-.9 6.1-3 8.6-2.4 2.8-6.4 4-9.6 3.9-2.2 0-5.2-1-6-2.8z" class="AF"/><path d="M163.6 176.5c-1.5-.4-3.2-.4-4.7-.1l-.1-.4a11.1 11.1 0 0 1 4.8.1v.4zm-10.2-.7v-.4c1.3-.2 2.5.4 3.6 1l-.2.3c-1.1-.5-2.2-1.1-3.4-.9zm3.8 9.5c-.3 0-.5 0-.7-.2-.3-.3-.3-.8-.3-1.1 0-.2.1-.5.1-.8.1-1.2.3-3.1.5-3.8l.3.1c-.2.7-.4 2.5-.5 3.8 0 .3-.1.6-.1.8 0 .3-.1.7.2.8.1.1.3.1.5.1.7 0 1.3-.2 2-.4l.1.3c-.7.2-1.4.4-2.1.4z"/><use href="#I"/><use href="#I" x="5.8" y="-0.6"/><path d="M148.8 173.6c0-.1-.1-.2-.1-.3-.6-1.8.1-4 1.7-4.8.7-.4.9-.4 1.7-.8 1.5-.9 2.2-2.8 3.6-3.9 2.6-2.1 5.8 0 8.6.3l4 .3c2.1.2 4.2.8 5.9 2 2.9 2.1 4.4 5.8 4.5 9.4s-2.4 9.5-7.5 14.1c.8-3.3 1.3-8.4 0-10.6-.1-.2.9-.3.7-.5-.2-.3-.5-.4-.8-.6-.9-.5-1.8-1-2.8-1.1-.8 0-1.7.3-2.5 0-1-.4-1.5-1.5-1.6-2.5-.1-.9-.1-2-.9-2.3-1.1-.4-1.9 1.3-3.1 1.3-.4 0-.8-.2-1.1-.3-.8-.3-1.7-.4-2.6-.2-.7.2-1.2.7-1.6 1.3-.5.9-1.1 1.2-2.1 1.5-1.8.6-3.2-.6-4-2.3z" class="AJ"/><path d="M169.5 180.3c.4-1.4 1.8-2.4 2.9-2.3 1.6.1 2.5 1.7 2.7 3.1.2 1.3 0 2.4-.7 3.6-.6 1.1-2 2.3-3.3 2.2-.9-.1-1.4-1.1-1.6-1.9" class="AF"/><path d="M169.5 180.3l-.3-.1h0c.1-.3.5-.9 1-1.4.7-.6 1.6-.9 2.7-.7l-.1.3c-2.1-.6-2.9 1.2-3.3 1.9h0zm2 2.4l-.2-.2 2-2 .2.2-2 2z"/><g fill="#183862"><path d="M151.6 180.6c-.1-1.8.9-3.3 2.2-3.3 1.3-.1 2.5 1.3 2.6 3.1s-.9 3.3-2.2 3.3c-1.4.1-2.5-1.3-2.6-3.1zm.2 0c.1 1.6 1.1 2.9 2.3 2.9 1.2-.1 2.1-1.4 2-3.1-.1-1.6-1.1-2.9-2.3-2.9-1.2.1-2.1 1.5-2 3.1zm6.4-.3c-.1-2 1-3.6 2.5-3.7s2.8 1.5 2.9 3.4c.1 2-1 3.6-2.5 3.7s-2.8-1.5-2.9-3.4zm.2 0c.1 1.8 1.3 3.3 2.6 3.2s2.4-1.6 2.3-3.5c-.1-1.8-1.3-3.3-2.6-3.2-1.4.1-2.4 1.6-2.3 3.5z"/><path d="M158.3 180.2l-2 .1v.2l2-.1v-.2zm11.1-.4s0 .1-.1.1l-5.9.2v-.2l6-.2c.1 0 .1.1 0 .1z"/></g><path d="M172.2 186.8c.2 0 .4-.1.4-.1l-.1-.2s-.6.1-1 0l-.1.2c.3.1.6.1.8.1z"/><path d="M157 187.7s1.7 1.1 3.9-.7" stroke="#000" class="AI AK"/><g fill="#6aa8e5"><path d="M167.6 201.4l-7.3-6-4.8 2 7.3 8.6 4.8-4.6z"/><path d="M167.5 201.3l7.1-7.9 5.8 1-7.8 11.8-5.1-4.9z"/></g><path d="M146.7 173.3s8-.6 8-.2c0 1.2-1.7 1-1.7 1l-6.3-.8z" fill="#f9947d"/><g class="AF"><path d="M153.4 174.1c-1.2-.3-2.6-.5-4-.7-2.5-.4-4.6.1-6.2.2-2.2.2-8.5 5.4-8.5 5.4s-6.6 5.6-6.7 6l5.5 5.4 6.6-7.9c.4.1.8.1 1.3 0 4.8-.8 6.9-7.6 9-7 2.1.5 6.1 1 6.7-.2-.1-.3-2.4-.8-3.7-1.2z"/><path d="M146.6 174.9h3.2c1 .1 2.7.5 3.8.9 1.2.3 2.1.8 2.1 1-.2 1.1-2.8.7-4.7.6l-3.9-.4-.5-2.1z"/><path d="M146.1 176.9l3.7.3c2.3.6 2.9 1.4 2.7 1.6-.8.8-3.4.2-4.1.1-1.6-.3-3.4.4-3.4.4l1.1-2.4z"/></g><path d="M133.1 178.5s-29 29.1-25.2 36.7c3.9 7.9 20.2-10.2 17.8-5.5-.9 1.8 14.2-24.4 14.4-24.8 0 0-.1-2.1-2.2-3.8-2.8-2.3-4.8-2.6-4.8-2.6z" class="AL"/><path d="M127.2 208.2c-.1 0-.1 0-.2-.1s-.1-.3 0-.4c2.3-2.1 2.8-5.6 2.8-5.6 0-.2.2-.3.3-.3.2 0 .3.2.3.3 0 .2-.5 3.8-3 6 0 .1-.1.2-.2.1z" class="AM"/><path d="M154.6 407.5l11.9-2-1 11.9-11.7.3.8-10.2z" class="AF"/><path d="M174.4 403.7l-2.2.2.2 27.9a4.2 4.2 0 0 1-1.9 3.5v.2l3.5-.3c.1 0 .3-.1.4-.2l.1-.1a3.1 3.1 0 0 0 .9-2.2l-.2-28.3c0-.4-.3-.8-.8-.7z" fill="#d1d1d1"/><path d="M160.9 418.5l7.5 16c.3.7 1.1 1 1.9 1 1.1-.1 2.1-1.3 2-2.3l-.2-29.2-10.6 1.9c.1-.1 3.7 4.7-.6 12.6z" class="AG"/><path d="M71.7 286.8c.7-6.6-3.3-12.5-9-13.1-5.7-.7-10.9 4.2-11.7 10.8-.7 6.6 3.3 12.5 9 13.1 5.8.7 11-4.2 11.7-10.8z" fill="#b4c2f7"/><path d="M117.2 360.1s-14.9 44-8.1 58.8 51.2 4.2 51.2 4.2-.6-8-2.6-17.8l-25.1-3.2s22-37.4 13-49.6c-6.7-8.9-27.7-2.9-28.4 7.6z" fill="#728cdd"/><path d="M61.8 307.1c1.3 4.5-6 7.7-6 7.7 6.9 17 10.2 35.7 19.5 36.4 10.8.7 23.5-27.3 23.5-27.3l-15-8.8-6.6 17.9s-6.1-5.4-9.7-12.4c-2.2-4.4-5.7-13.5-5.7-13.5z" class="AH"/><path d="M56 314.9c1.7 4.3 3.2 8.7 4.7 12.9 4.2 12.2 7.8 22.7 14.6 23.1h.4c10 0 21.9-24.9 22.9-27.1L84 315.2 77.4 333c0 .1-.1.1-.1.1h-.2c-.1-.1-6.2-5.5-9.7-12.4-1.7-3.3-4.2-9.5-5.3-12.2-.1 1.5-1 3-2.7 4.4-1.5 1.1-2.9 1.8-3.4 2z" class="AF"/><path d="M96.1 263.7s5.8-4 12.7.6 9.1 26.8-6.1 29.9-28.1-25.1-6.6-30.5z" class="AJ"/><path d="M109.1 310.5l-5.3 2.1c-1 .3-12.8-.7-14.6-3.1-2.7-3.9 3.9-6.8 6.3-7.7.4-.2.7-.6.6-1l-2.7-6.3c-.5-1.8 1.6-7.5 3.6-8l2-.6c2-.6 4.6 4.1 5.2 6l2 5.5c.1.5.6.8 1.2.8 1.7-.1 4.9.2 5 1.2.2 3.1-2.2 10.8-3.3 11.1z" class="AF"/><defs><filter id="f" filterUnits="userSpaceOnUse" x="88.5" y="289.6" width=".8" height="3.4"><feColorMatrix values="1 0 0 0 0  0 1 0 0 0  0 0 1 0 0  0 0 0 1 0"/></filter></defs><mask maskUnits="userSpaceOnUse" x="88.5" y="289.6" width=".8" height="3.4" id="g"><path d="M109.1 310.5l-5.3 2.1c-1 .3-12.8-.7-14.6-3.1-2.7-3.9 3.9-6.8 6.3-7.7.4-.2.7-.6.6-1l-2.7-6.3c-.5-1.8 1.6-7.5 3.6-8l2-.6c1.9-.6 4.6 4.1 5.2 6l2 5.5c.1.5.6.8 1.2.8 1.7-.1 4.9.2 5 1.2.2 3.1-2.2 10.8-3.3 11.1z" filter="url(#f)" class="AH"/></mask><g mask="url(#g)" class="AE"><path d="M88.7 292.8c-.1 0-.1.1-.1.1 0 .1.1.1.1.1.1 0 .1-.1.1-.1 0-.1-.1-.1-.1-.1zm-.1-3.2c-.1 0-.1.1-.1.1 0 .1.1.1.1.1.1 0 .1-.1.1-.1 0-.1 0-.1-.1-.1zm.5 1.9c-.1 0-.1.1-.1.1 0 .1.1.1.1.1.1 0 .1-.1.1-.1.1-.1 0-.1-.1-.1zm-.4-.6c-.1 0-.1.1-.1.1 0 .1.1.1.1.1.1 0 .1-.1.1-.1s0-.1-.1-.1z"/></g><defs><filter id="h" filterUnits="userSpaceOnUse" x="88.6" y="287.9" width="3" height="5.7"><feColorMatrix values="1 0 0 0 0  0 1 0 0 0  0 0 1 0 0  0 0 0 1 0"/></filter></defs><mask maskUnits="userSpaceOnUse" x="88.6" y="287.9" width="3" height="5.7" id="i"><path d="M109.1 310.5l-5.3 2.1c-1 .3-12.8-.7-14.6-3.1-2.7-3.9 3.9-6.8 6.3-7.7.4-.2.7-.6.6-1l-2.7-6.3c-.5-1.8 1.6-7.5 3.6-8l2-.6c1.9-.6 4.6 4.1 5.2 6l2 5.5c.1.5.6.8 1.2.8 1.7-.1 4.9.2 5 1.2.2 3.1-2.2 10.8-3.3 11.1z" filter="url(#h)" class="AH"/></mask><g mask="url(#i)" class="AE"><use href="#J"/><path d="M88.8 291.4v-.2h-.2v.2c.1.1.2.1.2 0z"/><use href="#J" x="-0.1" y="-0.5"/><path d="M88.9 292.1v-.2c0-.1-.1 0-.2 0v.2c0 .1.1.1.2 0z"/><use href="#J" x="-0.7" y="-0.9"/><use href="#J" x="-0.6" y="-1.6"/><use href="#J" x="-0.7" y="-2.1"/><use href="#J" x="1.1" y="-1.4"/><use href="#J" x="0.5" y="-1.5"/><use href="#J" x="1.4" y="-2.1"/><use href="#J" x="0.5" y="-0.8"/><use href="#J" x="0.4" y="-2.3"/><path d="M89.4 290.4v-.2h-.2v.2c.1.1.2.1.2 0zm-.2-.7v-.2H89v.2h.2z"/><use href="#J" y="-2.6"/><path d="M88.9 288.1v-.2h-.2v.2c0 .1.1.1.2 0z"/><use href="#K"/><use href="#J" x="0.2" y="-3.5"/><use href="#J" x="2" y="0.1"/><use href="#K" x="1.6" y="3.8"/><use href="#J" x="1.2" y="-0.6"/><use href="#K" x="0.1" y="4.1"/><use href="#J" x="0.9" y="0.3"/><use href="#J" x="0.1" y="1.9"/><path d="M89.7 292.3v-.2h-.2v.2c0 .1.1 0 .2 0z"/></g><defs><filter id="j" filterUnits="userSpaceOnUse" x="88.5" y="289.8" width=".6" height="2.2"><feColorMatrix values="1 0 0 0 0  0 1 0 0 0  0 0 1 0 0  0 0 0 1 0"/></filter></defs><mask maskUnits="userSpaceOnUse" x="88.5" y="289.8" width=".6" height="2.2" id="k"><path d="M109.1 310.5l-5.3 2.1c-1 .3-12.8-.7-14.6-3.1-2.7-3.9 3.9-6.8 6.3-7.7.4-.2.7-.6.6-1l-2.7-6.3c-.5-1.8 1.6-7.5 3.6-8l2-.6c1.9-.6 4.6 4.1 5.2 6l2 5.5c.1.5.6.8 1.2.8 1.7-.1 4.9.2 5 1.2.2 3.1-2.2 10.8-3.3 11.1z" filter="url(#j)" class="AH"/></mask><g mask="url(#k)" class="AE"><path d="M88.9 289.8c-.1 0-.1 0-.1.1s0 .1.1.1.1 0 .1-.1c.1-.1 0-.1-.1-.1zm-.1 2c-.1 0-.1 0-.1.1s0 .1.1.1.1 0 .1-.1l-.1-.1zm-.2-.7c-.1 0-.1 0-.1.1s0 .1.1.1.1 0 .1-.1c0 0 0-.1-.1-.1z"/></g><defs><filter id="l" filterUnits="userSpaceOnUse" x="88.6" y="286.9" width="2.9" height="5"><feColorMatrix values="1 0 0 0 0  0 1 0 0 0  0 0 1 0 0  0 0 0 1 0"/></filter></defs><mask maskUnits="userSpaceOnUse" x="88.6" y="286.9" width="2.9" height="5" id="m"><path d="M109.1 310.5l-5.3 2.1c-1 .3-12.8-.7-14.6-3.1-2.7-3.9 3.9-6.8 6.3-7.7.4-.2.7-.6.6-1l-2.7-6.3c-.5-1.8 1.6-7.5 3.6-8l2-.6c1.9-.6 4.6 4.1 5.2 6l2 5.5c.1.5.6.8 1.2.8 1.7-.1 4.9.2 5 1.2.2 3.1-2.2 10.8-3.3 11.1z" filter="url(#l)" class="AH"/></mask><g mask="url(#m)" class="AE"><use href="#L"/><use href="#L" x="0.1" y="0.6"/><use href="#M"/><use href="#L" x="0.7" y="0.9"/><use href="#N"/><use href="#N" x="0.4" y="0.3"/><use href="#M" x="-0.1" y="2.1"/><use href="#M" x="-0.7" y="1.8"/><use href="#O"/><use href="#P"/><use href="#M" y="3"/><use href="#Q"/><use href="#M" x="1"/><use href="#M" x="1.1" y="0.6"/><use href="#P" x="1.4" y="-2.2"/><use href="#R"/><use href="#M" x="0.4" y="1"/><use href="#M" x="1.1" y="2.2"/><use href="#R" x="-0.7" y="1.2"/><use href="#O" x="-0.7" y="-3.4"/><use href="#Q" x="1.5" y="-3.7"/><use href="#O" x="-1.4" y="-3"/><use href="#M" x="1" y="-1.3"/><use href="#M" x="-0.2" y="-0.8"/></g><defs><filter id="n" filterUnits="userSpaceOnUse" x="88.4" y="288.9" width="2.2" height="4.2"><feColorMatrix values="1 0 0 0 0  0 1 0 0 0  0 0 1 0 0  0 0 0 1 0"/></filter></defs><mask maskUnits="userSpaceOnUse" x="88.4" y="288.9" width="2.2" height="4.2" id="o"><path d="M109.1 310.5l-5.3 2.1c-1 .3-12.8-.7-14.6-3.1-2.7-3.9 3.9-6.8 6.3-7.7.4-.2.7-.6.6-1l-2.7-6.3c-.5-1.8 1.6-7.5 3.6-8l2-.6c1.9-.6 4.6 4.1 5.2 6l2 5.5c.1.5.6.8 1.2.8 1.7-.1 4.9.2 5 1.2.2 3.1-2.2 10.8-3.3 11.1z" filter="url(#n)" class="AH"/></mask><g mask="url(#o)" class="AE"><use href="#S"/><use href="#S" x="-0.2" y="-0.8"/><use href="#S" x="0.4" y="-1.1"/><use href="#S" x="0.7" y="-1.7"/><use href="#T"/><path d="M90 290.8c0 .1.1.1.2 0 .1 0 .1-.1 0-.2 0-.1-.1-.1-.2 0 0 .1-.1.1 0 .2z"/><use href="#S" x="0.5" y="-2.3"/><use href="#U"/><use href="#T" x="-0.2" y="1.9"/><use href="#S" x="1.8" y="0.4"/><use href="#V"/><use href="#V" x="0.6" y="0.9"/><path d="M89.2 291.7c0 .1.1.1.2 0 .1 0 .1-.1 0-.2 0-.1-.1-.1-.2 0-.1 0-.1.1 0 .2z"/><use href="#U" x="-0.8" y="1.8"/></g><defs><filter id="p" filterUnits="userSpaceOnUse" x="88.5" y="287.4" width="4.2" height="5.2"><feColorMatrix values="1 0 0 0 0  0 1 0 0 0  0 0 1 0 0  0 0 0 1 0"/></filter></defs><mask maskUnits="userSpaceOnUse" x="88.5" y="287.4" width="4.2" height="5.2" id="q"><path d="M109.1 310.5l-5.3 2.1c-1 .3-12.8-.7-14.6-3.1-2.7-3.9 3.9-6.8 6.3-7.7.4-.2.7-.6.6-1l-2.7-6.3c-.5-1.8 1.6-7.5 3.6-8l2-.6c1.9-.6 4.6 4.1 5.2 6l2 5.5c.1.5.6.8 1.2.8 1.7-.1 4.9.2 5 1.2.2 3.1-2.2 10.8-3.3 11.1z" filter="url(#p)" class="AH"/></mask><g mask="url(#q)" class="AE"><use href="#W"/><use href="#X"/><use href="#Y"/><path d="M91.1 290.6c0-.1-.1-.1-.1-.1-.1 0-.1.1-.1.1 0 .1.1.1.1.1.1 0 .2 0 .1-.1z"/><use href="#Z"/><use href="#Z" x="0.6" y="1.1"/><use href="#a"/><use href="#Y" x="-1.2" y="-0.3"/><use href="#Z" x="-1" y="-0.1"/><use href="#a" x="-0.8" y="-1.5"/><use href="#b"/><use href="#b" x="-0.7" y="0.2"/><use href="#W" x="-1.6" y="1.2"/><use href="#a" x="-0.7" y="0.9"/><use href="#c"/><use href="#Z" x="-0.3" y="2.1"/><use href="#c" x="2.4" y="0.7"/><use href="#W" x="-0.2" y="2"/><use href="#a" x="1.3" y="0.7"/><use href="#Y" x="0.9" y="2.7"/><use href="#Z" x="0.4" y="1.7"/><path d="M89.4 292.5c0-.1-.1-.1-.1-.1l-.1.1c0 .1.1.1.1.1.1 0 .1-.1.1-.1z"/><use href="#Y" x="-0.5" y="2.6"/><use href="#c" x="1.7" y="-2.6"/><use href="#a" x="0.5" y="-2"/><use href="#Z" x="0.5" y="-2.2"/><use href="#a" x="1.1" y="-1.6"/><use href="#d"/><use href="#b" x="0.7" y="-0.9"/><use href="#c" x="0.3" y="-1.9"/><use href="#a" x="-0.7" y="-2.3"/><use href="#X" x="2" y="-1.8"/><use href="#d" x="3.1" y="1.7"/><use href="#d" x="1.9" y="0.5"/><use href="#Z" x="2" y="1.3"/><use href="#a" x="2.3" y="-1.2"/><path d="M92.7 290.9c0-.1-.1-.1-.1-.1l-.1.1c0 .1.1.1.1.1.1.1.1 0 .1-.1z"/><use href="#a" x="2.1" y="-0.4"/></g><g class="AL"><path d="M152.2 354.5c-37.2 26.4-51.7 4-51.7 4s-.1-.1-.1-.2c-2.2-20.7-12.8-35-12.8-35s46.5-9.9 48.9-6.6c11.6 16.3 15.7 37.8 15.7 37.8z"/><path d="M141.3 327.5c2.2 5.7-34.2 6-47.3 2.3-10.7-3-14.3-11.3-14.3-11.3s1.8-8.6 14.1-16.2c1.2-.7 0 2.9 1.2 5.2l.3.6c.7 1 1.6 1.9 3 2.2a1.7 1.7 0 0 0 .7.1c1 .1 2.1-.1 3.5-.6.6-.2 1.2-.5 1.7-.7l.6-.3c6.4-3.7 5.9-10.6 5.9-10.6s1.9-.4 5-.7h.1c8.4-.7 16.1 4.3 19 12.2l6.5 17.8z"/></g><path d="M106.6 285.6c-.1 10.4-9 11.9-14.2 10s-6.4-13.7-4.1-19.3c2.8-6.7 7.7-10.7 12.9-8.7 5.2 1.9 5.5 10.8 5.4 18z" class="AF"/><g class="AJ"><path d="M96 265.3s-1.6 9.2 10.9 20.4c0 0 3.1-5 2.7-11.7-.5-6.7-13.6-8.7-13.6-8.7z"/><path d="M99.5 269.8s-7.7 5.6-11.6 5.1c0 0 2.6-5.9 6.1-7.6s4.2-1.2 4.2-1.2l1.3 3.7z"/></g><path d="M106.4 285.4c-1.2.7-2.7-.6-3.2-1.4-.6-.8-.3-3.1.7-3.7 1.2-.7 2.6-.2 3.4 1.2.6.8.3 3.2-.9 3.9z" class="AF"/><path d="M61 298.9c-.4 0-.9 0-1.3-.1-6.3-.8-10.8-7.4-9.9-14.7.5-3.8 2.4-7.3 5.2-9.5a11 11 0 0 1 7.9-2.3c6.3.8 10.8 7.4 9.9 14.7-.5 3.8-2.4 7.3-5.2 9.5-1.9 1.6-4.2 2.4-6.6 2.4zm-9.5-14.5c-.8 6.4 3 12.1 8.4 12.8 2.3.3 4.7-.4 6.7-1.9 2.5-1.9 4.1-5 4.6-8.4.8-6.4-3-12.1-8.4-12.8-2.3-.3-4.7.4-6.7 1.9-2.5 1.9-4.1 5-4.6 8.4z" class="AG"/><use href="#G" x="-53.7" y="22.6" class="AF"/><use href="#H" x="-53.7" y="22.6" fill="#d1d1d1"/><path d="M96.1 423l-15.9 7.7c-.7.3-1 1.1-1 1.9.1 1.1 1.4 2 2.3 2l29.3-.5-2-10.6c.1 0-4.7 3.6-12.7-.5zM60.2 297.5l-.5-.1c-1.1-.1-2.1.6-2.2 1.7l-2.9 22.8c-.1 1.1.6 2.1 1.7 2.2l.5.1c1.1.1 2.1-.6 2.2-1.7l2.9-22.8c.2-1.1-.6-2.1-1.7-2.2z" class="AG"/><path d="M152.1 354.2s-53.3-6.2-67.4 2.1c-14 8.3 6.9 65.3 6.9 65.3s2.5-.3 19.5-1.4l-2.6-38.4s30 4 39.3-4.1c8.4-7.2 4.3-23.5 4.3-23.5z" fill="#8fa2ef"/><path d="M124.7 345.5c-2.2.1-5.9.6-8 0-1.7-.3-8-1.3-8 .1.1 1.5 4 2.7 6.7 3.3-1.4 1.3-3.2 3.6-3.7 5-.5 1.5-.1 2.8 1.1 3.1-.3 1.6.1 2.4.6 2.7 1.2.8 2.4-.2 3-2 0 1.1-.2 1.9 0 2.7.2.5.8 1.2 1.3 1.4s1.3-.6 1.6-1.3c.4-.9.7-2 .8-2.7.1-.5 0-.2.3-.6a36.5 36.5 0 0 0 3.1.1c1.3 0 2.6-1.5 3.6-2.7.5-.6-.4-9.3-2.4-9.1z" class="AF"/><path d="M112.9 357.1c-.1.1-.1.1 0 0-.2 0-.3-.1-.2-.3.9-3.6 4.1-5.8 4.2-5.9s.2 0 .3.1 0 .2-.1.3c0 0-3.2 2.2-4.1 5.6 0 .2-.1.2-.1.2zm3.8.2c-.1 0-.1 0 0 0-.2 0-.3-.1-.2-.3.6-2.3 2.2-3.6 2.3-3.6.1-.1.2-.1.3 0s.1.2 0 .3c0 0-1.6 1.3-2.2 3.4-.1.2-.2.2-.2.2z" class="AJ"/><path d="M121.8 346.1s11.3-6.8 16.4-15c1.1-1.8-16.6-17.4-16.6-17.4l4.2-5.7 5.6-5.2s26 15.7 22.6 28.6c-3.6 13.7-26.6 22.9-26.6 22.9l-5.6-8.2z" class="AF"/><path d="M138.2 331.3h-.2c-.1-.1-.1-.2-.1-.3 1.8-3 4.4-4.1 4.5-4.1s.2 0 .3.1c0 .1 0 .2-.1.3 0 0-2.5 1-4.3 4h-.1zm-14.5 26.1a6.7 6.7 0 0 1-3.1-.2c-.1 0-.2-.2-.2-.3s.1-.2.3-.2c1.8.5 3.3.4 4.6-.4 2.2-1.4 2.7-4.5 2.7-4.5 0-.1.1-.2.2-.2s.2.1.2.3c0 .1-.6 3.3-2.9 4.8-.5.3-1.1.6-1.8.7z" class="AJ"/><path d="M111.4 311.6s-1-14.2 6.6-14.2c14.9 0 20.9 9.1 20.9 9.1s-5.5 11.5-13.2 12.9l-14.3-7.8z" class="AL"/><g class="AF"><path d="M63.4 313.2s2-3.4.3-6.6c-1.8-3.1-1.8-5.7-3.4-5.4s2.4 6.4-1.6 9.3l4.7 2.7zm-7.4 2.7c1.1-.2 2.9-.9 3.8-2s0-2.3-2.2-1.5l-3 1.1c-1.3.9-.4 2.7 1.4 2.4z"/><path d="M55.3 313.9c1.4.2 4 0 5.6-1s1.1-2.8-2-2.7c-1.4.1-3.4 0-4.2.3-2 .5-1.8 3.1.6 3.4z"/><path d="M54.9 311.1c1.4.2 4 0 5.6-1s1.1-2.8-2-2.7c-1.4.1-3.4 0-4.2.3-1.9.6-1.7 3.1.6 3.4z"/><path d="M54.4 308.2c1.2.1 3.4 0 4.7-.8s1-2.4-1.7-2.3c-1.2 0-2.9 0-3.5.2-1.6.5-1.5 2.6.5 2.9z"/></g><path d="M80.7 339.9c-.1 0-.2-.1-.2-.2.1-3.5-3.4-6.7-3.4-6.7-.1-.1-.1-.2 0-.3s.2-.1.3 0 3.7 3.3 3.6 7c-.1.2-.2.2-.3.2zm27.8 42.2c-.1 0-.3-.1-.3-.2-1.2-5.5-7.7-8.1-7.8-8.1-.2-.1-.2-.2-.2-.4.1-.2.2-.2.4-.2.1 0 1.7.7 3.6 2.1 2.5 1.8 4 4.1 4.6 6.5 0 .1-.1.3-.3.3zm18.1 21.7c-.1 0-.2-.1-.3-.2s0-.3.1-.4 3.2-1.7 6.1-1.3c.2 0 .3.2.3.3 0 .2-.2.3-.3.3a11 11 0 0 0-5.8 1.3h-.1z" class="AJ"/><path d="M107.3 284.4s-.9 1.9-2.8.9" stroke="#071a22" class="AI AK"/><path d="M94.1 296.1s4.3 1.1 7.5-1.8c0 0-2.1 4.1-6.7 3.8l-.8-2zm18.1-23.4a7.8 7.8 0 1 0 0-15.6 7.8 7.8 0 1 0 0 15.6z" class="AJ"/><path d="M94 286.5v-.3l-.9.1c-.4 0-.7-.1-1-.3s-.4-.6-.3-.9l.6-3.9h-.3l-.6 3.9c-.1.4.1.8.4 1.1s.8.4 1.2.4l.9-.1zm-5.1-4.8c-.1.3 0 .6 0 .9 0 .4.5.5.9.4.7-.3.4-1.9-.5-1.6-.3 0-.4.1-.4.3z" class="AG"/><path d="M91.7 289l5.3-1.6s0 3.1-2.1 3.7c-2.3.6-3.2-2.1-3.2-2.1z" class="AH"/><path d="M97.9 279.5c-.2-.3-.5-.5-.8-.6s-.7-.2-1-.2c-.7 0-1.4.4-1.7.9.3-.1.6-.1.9-.2.3 0 .5-.1.8-.1a11 11 0 0 0 1.8.2zm-7.6-1.6c-.1-.3-.3-.5-.5-.6-.3-.1-.6-.2-.9-.2s-.6.1-.8.3l-.3.3c-.1.1-.1.2-.2.4.2 0 .3-.1.4-.1s.2-.1.3-.1c.2-.1.4-.1.6-.1a6.6 6.6 0 0 1 1.4.1zm4.9 3.7s1.5.8 2.3-.4l-2.3.4z" class="AG"/><g stroke="#f4f4f4" stroke-width="2" class="AI AK"><path d="M88.4 285.3c1.8 0 3.3-1.5 3.3-3.3s-1.5-3.3-3.3-3.3-3.3 1.5-3.3 3.3 1.5 3.3 3.3 3.3zm8.2-.9c1.8 0 3.3-1.5 3.3-3.3s-1.5-3.3-3.3-3.3-3.3 1.5-3.3 3.3c0 1.9 1.5 3.3 3.3 3.3z"/><path d="M91.8 282l1.6-.1"/><path d="M99.9 281.4l3.2-.3" class="AP"/></g><path d="M272.6 408.8l-12-1.2 1.8 11.9 11.7-.4-1.5-10.3z" class="AF"/><path d="M252.6 406.2l2.2.1 1.4 27.8a4.3 4.3 0 0 0 2.1 3.3l.1.2-3.5-.1c-.1 0-.3-.1-.4-.1l-.1-.1c-.6-.6-1-1.4-1.1-2.2l-1.5-28.2c.1-.4.4-.7.8-.7z" fill="#aaa"/><path d="M267 420.2l-6.6 16.4c-.3.7-1 1.1-1.9 1.1-1.1 0-2.1-1.2-2.2-2.2l-1.5-29.2 10.7 1.3c.1-.1-3.2 4.9 1.5 12.6z" class="AG"/><path d="M351.2 416.9l-1.7 11.9 11.9-1.3v-11.6l-10.2 1z" class="AF"/><path d="M347.9 436.7l.1-2.2 27.9-.5a4 4 0 0 0 3.4-2h.2l-.2 3.5c0 .1-.1.3-.2.4l-.1.1c-.6.6-1.4 1-2.2 1l-28.3.5c-.4-.1-.7-.4-.6-.8z" fill="#aaa"/><path d="M362.4 422.9l16.2 7.1c.7.3 1.1 1.1 1 1.9-.1 1.1-1.3 2.1-2.3 2.1l-29.3.5 1.7-10.6s4.9 3.4 12.7-1zm1.6-142.7c3.2 0 5.8-3.3 5.8-7.4s-2.6-7.4-5.8-7.4-5.8 3.3-5.8 7.4 2.6 7.4 5.8 7.4z" class="AG"/><path d="M355.2 278.3s14.4 26.2 4.1 35.2c-7.9 6.9-34.3-7.6-34.3-7.6l1.4-13.1 23.1 6-1.1-20.4 6.8-.1z" class="AF"/><path d="M351.6 305.3s-2.1-3.8-2.2-6.5l2.2 6.5z" class="AH"/><path d="M351.9 305.6c-.1 0-.2 0-.3-.1-.1-.2-2.1-3.9-2.2-6.6 0-.1.1-.2.2-.2s.2.1.2.2c.1 2.6 2.2 6.4 2.2 6.4 0 .1 0 .3-.1.3zm11.5-25.4l-11.1-2.4v-10.3l11.1-2.1v14.8z" class="AG"/><path d="M317 361.3s43.1-13.7 57.2-5.4c14 8.3-5.7 63.3-5.7 63.3s-6.2 3.8-23 .6l6.7-38.7s-36 12.7-45.2.3c-6.7-8.9-.6-20.6 10-20.1z" fill="#06376d"/><defs><filter id="r" filterUnits="userSpaceOnUse" x="351.8" y="372.5" width="4.7" height="8.9"><feColorMatrix values="1 0 0 0 0  0 1 0 0 0  0 0 1 0 0  0 0 0 1 0"/></filter></defs><mask maskUnits="userSpaceOnUse" x="351.8" y="372.5" width="4.7" height="8.9" id="s"><path d="M317 361.3s43.1-13.7 57.2-5.4c14 8.3-5.7 63.3-5.7 63.3s-6.2 3.8-23 .6l6.7-38.7s-36 12.7-45.2.3c-6.7-8.9-.6-20.6 10-20.1z" filter="url(#r)" class="AH"/></mask><g mask="url(#s)" class="AG"><path d="M352.1 381.4c-.2 0-.3-.2-.3-.3.6-5.1 4-8.4 4.2-8.5.1-.1.3-.1.4 0s.1.3 0 .4c0 0-3.4 3.3-4 8.1 0 .2-.1.3-.3.3z"/></g><path d="M319.2 363.6s17.1 51.5 10.3 66.3-60-2.5-60-2.5-2.5-11.6 2.1-21.7l31.5 3.5s-21.3-40.9-12.3-53c6.7-9.1 27.8-3.1 28.4 7.4z" class="AM"/><defs><filter id="t" filterUnits="userSpaceOnUse" x="302.9" y="408.8" width="9.7" height="7.4"><feColorMatrix values="1 0 0 0 0  0 1 0 0 0  0 0 1 0 0  0 0 0 1 0"/></filter></defs><mask maskUnits="userSpaceOnUse" x="302.9" y="408.8" width="9.7" height="7.4" id="u"><path d="M319.2 363.6s17.1 51.5 10.3 66.3-60-2.5-60-2.5-2.5-11.6 2.1-21.7l31.5 3.5s-21.3-40.9-12.3-53c6.7-9.1 27.7-3.1 28.4 7.4z" filter="url(#t)" class="AH"/></mask><g mask="url(#u)" class="AG"><path d="M312.3 416.2c-.1 0-.2-.1-.3-.2 0-.1-2.1-5.9-8.8-6.6-.2 0-.3-.2-.3-.3 0-.2.2-.3.3-.3a10.9 10.9 0 0 1 9.3 7c.1.2 0 .4-.2.4z"/></g><path d="M346.1 298s-30.7-24.3-55.7-1.2c-10.1 9.4-1.6 80.2-1.6 80.2 38.5 5.3 52.7-21.8 52.7-21.8s-3.1-22.9-2-44.4c2.8-2.1 6-6 6.6-12.8z" fill="#8ba5ed"/><g class="AF"><path d="M321.1 279l-10.3-11.9-3.9 11.4.8 2.3-.1 6.8c0 1.2.4 2.5 1.3 3.4 3.1 3.4 7.8 3.5 10.5 1.8 1.1-.7 1.7-2 1.7-3.4V279z"/><path d="M325.4 260.5c2.8 4.3 4.9 16.4-.3 21.2-3.3 2.9-10.7 2.9-13.5.4-2.5-2.2-6.6-14.9-3.4-18.6s14.3-9.2 17.2-3z"/></g><g class="AG"><use href="#C" x="32.8" y="97.1"/><path d="M325.2 268.8c.1.3.1.7.2.9.1.4-.4.7-.9.6-.8-.2-.8-1.9.2-1.9.2.1.4.2.5.4z"/><use href="#D" x="26.1" y="97.7"/><use href="#F" x="33" y="95.3"/><path d="M323.2 265.1c0-.3.2-.5.5-.7.2-.2.6-.3.9-.3s.7 0 .9.2c.1.1.3.2.4.2l.3.3h-.4-.4-.7a4 4 0 0 0-1.5.3zm-9.8-6s3.2 3.6.9 5.4-4.3-.7-4.3-.7 5.2 4.7 2.1 7.2-6.3-3.4-6.3-3.4l.5-6 7.1-2.5z"/><path d="M313.2 261.7s7.6 5.9 14.7-.8c0 0 6.2-6-3.6-8.9 0 0-2.8-1-5.4-.2 0 0 3.7-1.7 1.2-3.4s-6.9-.3-10.7 3.4c0 0 1.3-3.7-2.1-3.4s-6.6 3.3-6.2 8.8c0 0-.8-1.4-2.1-1.1-1.3.2-.4 1.9.8 2.3 0 0-3.2-.9-3.3.5s2.9 1 2.9 1-5.5 8.8 3.6 16c0 0-3.2 4.6 3.5 2.4 0 0 .5 3.5 2.8.5 0 0-.8-.8-.4-5 .1-2.2 4.3-12.1 4.3-12.1z"/></g><path d="M312.1 272.4c-.6-.8-1.4-1.6-2.4-1.5-.5 0-.9.3-1.2.7-1.6 1.8-1.2 4.9 1 6.2.9.6 2.1.7 2.7-.3l.2-4.5c0-.2-.1-.4-.3-.6z" class="AF"/><g class="AG"><use href="#E" x="32.9" y="97.2"/><path d="M321.1 283.5s-5.3 1.3-8.6-1.6c0 0 2.9 6.6 8.6 5.7v-4.1z"/></g><g class="AI AK AO"><path d="M322.2 278.3s-2.9.4-5.1-1.3"/><path d="M317.7 276.4s-.9.3-.9 1.2" stroke-width="1.5"/></g><g class="AG"><path d="M350 280.9l-30.2-6.3c-2 0-3.7-1.7-3.7-3.8s1.7-3.8 3.7-3.8l30.8-2.3c2 0 5.6 4 5.6 6.1s-4.2 10.1-6.2 10.1z"/><path d="M350.4 280.9c3.5 0 6.4-3.6 6.4-8.1s-2.9-8.1-6.4-8.1-6.4 3.6-6.4 8.1 2.8 8.1 6.4 8.1z"/></g><path d="M350.4 280c3.1 0 5.5-3.2 5.5-7.1s-2.5-7.1-5.5-7.1c-3.1 0-5.5 3.2-5.5 7.1-.1 3.9 2.4 7.1 5.5 7.1zm13.6-.6c2.8 0 5.1-2.9 5.1-6.5s-2.3-6.5-5.1-6.5-5.1 2.9-5.1 6.5c.1 3.6 2.3 6.5 5.1 6.5z" fill="#589bed"/><g class="AF"><path d="M342.4 285.1s-4.3 38.6-18.6 44.1c-11 4.2-30.6-16.4-30.6-16.4l7.6-13.4 18.6 12.5s12.1-17.3 14.7-23.7c.6-1.5 0-2.7 0-2.7l8.3-.4z"/><path d="M330.3 278.6c-.3-2.1-.3-4.3.8-4.1.7.1 1.3 2.8 2.1 3.9-.1-1.8 0-3.6.3-5.2.3-1.7 1.5-3.8 2.7-4 1.6-.3.4 2.7.4 2.7 1.3-3.4 5.6-4.2 2.8-.7 2.1-2.2 4-1.4 3-.2a7 7 0 0 0-.8 1s1.3-1 1.7-.2-.4 1.3-.8 3.6c-.9 4.7 2.5 2.9 0 9.8l-5.9 1.2-2.1-.5-.6-.4h-.1c-.5-.8-1-1.6-1.6-2.3-1.2-1.5-1.7-2.8-1.9-4.6z"/><path d="M340.3 275.8c.1-1.7.2-2.9 1.7-4.3 1.6-1.5-.4-2.7-2.5-.4l.8 4.7zm-7 4.4s-.4-2.5.1-6.9c.2-2 2-3.9 2.7-4 .9-.1 1 .9.4 2.8-.7 1.9-.7 3.8-.7 3.8l-2.5 4.3z"/></g><path d="M333.3 280.5c-.1 0-.2-.1-.3-.2 0-.1-.4-2.5.1-7 .2-2.1 2.1-4.1 2.9-4.2.5-.1.7.1.9.3.4.5.3 1.4-.2 2.9-.6 1.9-.7 3.7-.7 3.7 0 .2-.1.3-.3.3s-.3-.1-.3-.3c0-.1 0-2 .7-3.9.5-1.4.5-2.2.3-2.4 0 0-.1-.1-.3-.1-.5.1-2.2 1.8-2.4 3.7-.5 4.4-.1 6.8-.1 6.9-.1.1-.2.3-.3.3z" fill="#111"/><path d="M338 275.4s-.5-2.1 1.2-4.1c2.8-3.4-1.6-2.6-2.8.7l1.6 3.4z" class="AF"/><path d="M338 275.7c-.1 0-.2-.1-.3-.2 0-.1-.5-2.2 1.3-4.4.8-1 .9-1.5.8-1.7 0-.1-.2-.1-.3-.1-.8.1-2.3 1.1-2.9 2.7-.1.1-.2.2-.3.2-.1-.1-.2-.2-.2-.3.7-1.9 2.4-3 3.4-3.1.5 0 .7.2.8.4.2.5-.1 1.2-.9 2.3-1.6 1.9-1.2 3.9-1.2 3.9.1.1 0 .3-.2.3h0z" fill="#111"/><path d="M342.4 285.3c2.5-6.9-.6-5.1 0-9.8.3-2.2 1.3-2.7.8-3.6-.4-.8-1.9.3-1.9.3l1.1 13.1zm-8.2.4s-.7-1.1-1.9-2.6a9.1 9.1 0 0 1-2-4.5c-.3-2.1-.3-4.3.8-4.1.8.1 1.2 2.9 2 3.8l1.1 7.4z" class="AF"/><path d="M333.3 280.4c-.1 0-.2-.1-.2-.2l-.2-2.1c0-.1.1-.2.2-.2s.2.1.2.2l.2 2.1c-.1.1-.1.2-.2.2z" fill="#111"/><path d="M319.5 318.2c-.1 0-.2-.1-.2-.1-1.4-2.4-.2-5.9-.1-6.1.1-.1.2-.2.3-.2s.2.2.2.3c0 0-1.2 3.4.1 5.6.1.1 0 .3-.1.4s-.1.1-.2.1z" class="AG"/><path d="M301.9 323.5s-17.7-16.5-9.9-23.9 20.7 6.2 20.7 6.2-2.1 6.6-10.8 17.7z" fill="#8ba5ed"/><path d="M329.4 265.8l-.6.5h11.4c-4.4-4.2-9.2-1.6-10.8-.5z" class="AG"/><g class="AI AK"><path d="M103.5,310.8l4.6,10.8" stroke="#f9f9f9" stroke-width="2"/><path d="M294 293.7c-5.7 3.3-7.2 10-7.7 16.3-1 11.5-1.3 27.8.9 47.5" stroke="#0c0c0c" stroke-width=".75"/><path d="M218.6 273.4s-.4 2.5-1.9 5.2m4.3-5.1s-.6 4-2.1 6" stroke="#080435" stroke-width=".25" class="AP"/></g><path d="M306.8 217.3s21.7 6.1 24.8-1.8c5.4-13.7-9-35.8-9-35.8l-9-1.8 1.1 23.7c-.4 0-7.8-1.5-7.8-1.5l-.1 17.2h0z" class="AF"/><path d="M317.5 207.4c0 .1-.1.1-.2.1-.1.1-.3 0-.4-.1l-.2-.2a7.6 7.6 0 0 1-2.3-5.5c0-.2.1-.3.3-.3s.3.1.3.3c.1 3.1 1.5 4.5 2.2 5.2.2.2.3.3.3.4 0 0 0 0 0 .1z" fill="#31313c"/><path d="M348 188.2h-.2l-17.2-3.6-37.3-7.7c-1.9-.4-3.2-2-2.9-3.7.1-.8.6-1.4 1.3-1.9.7-.4 1.5-.7 2.5-.6l37.5 3.6 17 1.6-.7 12.1v.2z" fill="#b3c3f6"/><path d="M347.9 189c-.1.1-.2.1-.3.2l-22.6-4.6c-1.5-2.1-2.1-4.5-1.7-6.9a9.4 9.4 0 0 1 2.9-5.1l24.1 2.7-2.4 13.7z" fill="#8aa5ee"/><path d="M354.8 183.2c.7-3.9-1.6-7.5-5.2-8.1s-7 2-7.7 5.8 1.6 7.5 5.2 8.1c3.6.7 7.1-1.9 7.7-5.8z" class="AG"/><path d="M353.6 183c.6-3.1-1.3-6-4.2-6.5-2.8-.5-5.6 1.6-6.2 4.7s1.3 6 4.2 6.5 5.6-1.6 6.2-4.7z" fill="#589cf0"/><g class="AF"><path d="M320.1 170.1c.1.9-.1 2.6-.9 3.6-.7 1-2 .6-1.9-1.5.1-.9.1-2.2.3-2.7.6-1.2 2.4-.9 2.5.6z"/><path d="M318.1 170c.5 1.1.9 3.4.4 4.9s-2.2 1.6-2.9-1c-.3-1.2-.8-2.8-.7-3.5.1-1.8 2.4-2.2 3.2-.4z"/><path d="M315.5 170.4c.5 1.1.9 3.4.4 4.9s-2.2 1.6-2.9-1c-.3-1.2-.8-2.8-.7-3.5.1-1.9 2.5-2.3 3.2-.4z"/><path d="M312.8 170.7c.4 1 .8 2.8.4 4.1s-1.9 1.4-2.4-.9c-.2-1-.6-2.4-.6-3 0-1.4 2-1.8 2.6-.2z"/></g><path d="M300.3 217.3l8.9 1.7c1.4.3 2.8-.8 2.9-2.2l1.2-16.1c.1-1.2-.7-2.3-1.9-2.6l-13.4-3.3 2.3 22.5zm-43.4 7l-8.2 6.5c-1 .8-2.5.6-3.3-.4l-10.3-14c-.8-1-.6-2.4.4-3.2l11.3-9.2 10.1 20.3z" class="AN"/><g stroke-width=".75" class="AI AK"><path d="M167.9 248.6l13-22.3-2.5-3.8h4.3l-1.4-22.3m-13.9 48.4l-11-21.3 3-2-5-2-.3-23.9" stroke="#0a1726"/><path d="M291.2 311.8s5.2 9.9 10.8 13.1l3.2-4.1" class="AO"/></g><path d="M19.8 57.2a9.6 9.6 0 0 1 3.2.4c.8.3 1.4.8 1.8 1.5s.6 1.7.6 2.9c0 .9-.1 1.6-.3 2.2s-.5 1.1-1 1.4c-.4.3-1 .6-1.8.6v.1a3 3 0 0 1 .8.4c.3.2.5.5.8.8.2.3.4.7.5 1.2l1.6 5.2h-2.5L22 68.8c-.2-.6-.5-1-.8-1.3s-.8-.4-1.3-.4h-2.6-1.8-1.2l.1-1.9h5.5c.8 0 1.4-.1 1.8-.3s.8-.5 1-.9.3-1 .3-1.8-.1-1.4-.3-1.8-.5-.7-1-.9a4.5 4.5 0 0 0-1.8-.3h-3.5-2l-.4-1.8c.6-.1 1.2-.1 1.7-.1h1.8c.7-.1 1.5-.1 2.3-.1zm-3.4.2V74H14V57.4h2.4zM33.6 62c1.8 0 3.1.3 3.9 1 .8.6 1.2 1.6 1.2 2.9 0 1.1-.2 1.9-.7 2.4-.5.6-1.2.9-2.3.9H29v-1.7h6.2c.5 0 .9-.2 1-.5.2-.3.2-.7.2-1.2 0-.7-.2-1.2-.6-1.5s-1.1-.5-2.1-.5c-.8 0-1.5.1-1.9.4-.5.2-.8.7-1 1.2-.2.6-.3 1.4-.3 2.5 0 1.2.1 2.1.3 2.8.2.6.6 1.1 1.1 1.3a5.6 5.6 0 0 0 2.1.4c.6 0 1.3 0 2-.1l2.1-.2.2 1.5c-.3.2-.7.3-1.3.4a8.8 8.8 0 0 1-1.7.2c-.6 0-1.1.1-1.6.1-1.4 0-2.5-.2-3.3-.6s-1.4-1.1-1.8-2a9 9 0 0 1-.6-3.6c0-1.5.2-2.8.6-3.6a3.7 3.7 0 0 1 1.8-1.9 7.6 7.6 0 0 1 3.2-.6zm13.1 0h1.2c.4 0 .9.1 1.4.2s.9.2 1.3.4l-.3 1.5c-.6 0-1.1-.1-1.7-.1h-1.5c-.9 0-1.6.1-2.1.4-.5.2-.9.7-1.1 1.3s-.3 1.5-.3 2.5c0 1.1.1 1.9.3 2.6.2.6.6 1.1 1.1 1.3a5.6 5.6 0 0 0 2.1.4h.9c.3 0 .8 0 1.2-.1.4 0 .9-.1 1.3-.1l.2 1.5c-.6.2-1.2.4-2 .5l-2.1.2c-1.4 0-2.5-.2-3.3-.6a3.7 3.7 0 0 1-1.8-1.9 9 9 0 0 1-.6-3.6 9 9 0 0 1 .6-3.6 3.7 3.7 0 0 1 1.8-1.9c1-.7 2.1-.9 3.4-.9zm8.6.3l.3 2.3.2.3V74h-2.3V62.3h1.8zM61 62l-.2 2.2H60c-.7 0-1.3.1-2 .4l-2.5 1.1-.2-1.4c.8-.7 1.7-1.2 2.6-1.6s1.7-.6 2.5-.6h.6zm4.5.3v8.1c0 .7.1 1.2.4 1.5s.7.4 1.4.4c.6 0 1.2-.1 1.8-.4l2.3-1.3.3 1.5c-.9.7-1.8 1.3-2.6 1.6-.8.4-1.7.6-2.6.6-2.1 0-3.2-1.1-3.2-3.2v-8.8h2.2zm7.9 0V74h-1.9l-.2-2.2-.2-.4v-9.1h2.3zm6 0V74h-2.3V62.3h2.3zm-.6-5c.5 0 .7.2.7.7v1.4c0 .5-.2.7-.7.7h-1.1c-.5 0-.7-.2-.7-.7V58c0-.5.2-.7.7-.7h1.1zm7.5 1.6v11.8c0 .5.1.9.3 1.2.2.2.6.3 1.2.3h1.7l.3 1.7c-.3.1-.6.1-.9.2-.3 0-.7.1-1 .1h-.8a3.2 3.2 0 0 1-2.3-.8c-.5-.5-.8-1.3-.8-2.4V58.9h2.3zm3.7 3.4V64h-8.1v-1.6l2.3-.1H90zm7.3-.3c1.8 0 3.1.3 3.9 1 .8.6 1.2 1.6 1.2 2.9 0 1.1-.2 1.9-.7 2.4-.5.6-1.2.9-2.3.9h-6.8v-1.7h6.2c.5 0 .9-.2 1-.5.2-.3.2-.7.2-1.2 0-.7-.2-1.2-.6-1.5s-1.1-.5-2.1-.5c-.8 0-1.5.1-1.9.4-.5.2-.8.7-1 1.2-.2.6-.3 1.4-.3 2.5 0 1.2.1 2.1.3 2.8.2.6.6 1.1 1.1 1.3a5.6 5.6 0 0 0 2.1.4c.6 0 1.3 0 2-.1l2.1-.2.2 1.5c-.4.2-.8.3-1.4.4a8.8 8.8 0 0 1-1.7.2c-.6 0-1.1.1-1.6.1-1.4 0-2.5-.2-3.3-.6s-1.4-1.1-1.8-2a9 9 0 0 1-.6-3.6c0-1.5.2-2.8.6-3.6a3.7 3.7 0 0 1 1.8-1.9c1.1-.4 2.1-.6 3.4-.6zm9.8.3l.3 2.3.2.3V74h-2.3V62.3h1.8zm5.8-.3l-.2 2.2h-.7c-.7 0-1.3.1-2 .4l-2.5 1.1-.2-1.4c.8-.7 1.7-1.2 2.6-1.6s1.7-.6 2.5-.6h.5zm6.2 0h1.7c.6 0 1.2.1 1.8.1s1.1.1 1.6.2L124 64c-.8 0-1.5-.1-2.3-.1h-2.2-1.7c-.4 0-.7.2-.9.4s-.3.5-.3 1c0 .6.1.9.4 1.1s.7.3 1.3.5l3.3.8a4.2 4.2 0 0 1 2.1 1.1 3.4 3.4 0 0 1 .7 2.2c0 1-.2 1.7-.6 2.2s-.9.8-1.7 1-1.7.3-2.9.3h-1.9c-.8 0-1.8-.1-2.8-.3l.2-1.6h1.2 1.4 1.5c.9 0 1.5 0 2-.1s.8-.2 1-.4.3-.6.3-1c0-.5-.2-.9-.5-1.1s-.8-.4-1.3-.5l-3.3-.8a9.1 9.1 0 0 1-1.6-.6c-.4-.3-.7-.6-.8-1.1-.2-.4-.2-1-.2-1.6 0-.9.2-1.6.5-2 .3-.5.8-.8 1.5-1a7 7 0 0 1 2.7-.4zM318 57.2h1.8a5.9 5.9 0 0 1 1.4.2l1.3.3-.2 1.8c-.5 0-.9-.1-1.3-.1s-.9-.1-1.3-.1H318c-1 0-1.8.2-2.4.6s-1 1.1-1.3 2a17.6 17.6 0 0 0-.4 3.8c0 1.6.1 2.9.4 3.9.3.9.7 1.6 1.3 2s1.4.6 2.4.6h2.6a14.9 14.9 0 0 0 2.1-.2l.2 1.8c-.7.2-1.4.4-2.2.4-.7.1-1.7.1-2.8.1a8.7 8.7 0 0 1-3.9-.8 4.8 4.8 0 0 1-2.1-2.7c-.4-1.2-.6-2.9-.6-5s.2-3.8.6-5a4.8 4.8 0 0 1 2.1-2.7c1.1-.7 2.4-.9 4-.9zm13.2 4.8c.9 0 1.6.1 2.3.4.6.2 1.1.6 1.4 1.2a4.9 4.9 0 0 1 .5 2.3V74h-1.8l-.4-2.5-.1-.3v-5.3c0-.7-.2-1.2-.5-1.5s-.9-.5-1.8-.5l-2.3.1-2.7.2-.2-1.7 1.8-.3 2-.2c.6-.1 1.2 0 1.8 0zm3.1 4.8v1.6h-5.5c-.5 0-.9.2-1.2.4-.2.3-.3.6-.3 1.1v.7c0 .6.1 1 .4 1.3s.7.4 1.3.4c.4 0 .9-.1 1.5-.2.6-.2 1.1-.4 1.7-.8a6.4 6.4 0 0 0 1.5-1.3v1.5c-.2.2-.4.5-.7.8s-.7.6-1.2.9c-.4.3-1 .5-1.5.7s-1.1.3-1.8.3-1.3-.1-1.9-.4c-.5-.3-.9-.6-1.2-1.1s-.5-1.1-.5-1.8v-1.3c0-.9.3-1.6.9-2.1s1.4-.8 2.4-.8h6.1zm11.8-4.8c2.1 0 3.2 1.1 3.2 3.2V74H347v-8.1c0-.7-.1-1.2-.4-1.5-.2-.3-.6-.4-1.2-.4-.7 0-1.4.2-2.1.5s-1.5.8-2.5 1.3l-.1-1.6a13.4 13.4 0 0 1 2.7-1.7c.9-.4 1.9-.5 2.7-.5zm-5.4.3l.2 2.3.2.3V74h-2.3V62.3h1.9zm16.1-.3c.8 0 1.6.1 2.3.3a5.1 5.1 0 0 1 2.1 1l-.1 1.3-1.9-.5c-.5-.1-1.1-.2-1.8-.2a3.8 3.8 0 0 0-1.6.3c-.4.2-.7.6-.9 1.2a8.8 8.8 0 0 0-.3 2.6 8.8 8.8 0 0 0 .3 2.6c.2.6.5 1 .8 1.3.4.2.9.4 1.5.4a4.3 4.3 0 0 0 1.2-.2c.4-.1.8-.3 1.2-.6l1.4-1 .2 1.5a11.6 11.6 0 0 1-2.1 1.6c-.8.4-1.7.6-2.7.6-1.5 0-2.5-.5-3.2-1.6-.6-1.1-1-2.6-1-4.6 0-1.5.2-2.7.5-3.6s.8-1.5 1.5-1.9a7.1 7.1 0 0 1 2.6-.5zm6.3-4.8V74h-1.8l-.3-2.1-.2-.2v-8l.1-.4c-.1-.4-.1-.9-.1-1.3v-1.4-3.5h2.3zm6 5.1V74h-2.3V62.3h2.3zm-.6-5c.5 0 .7.2.7.7v1.4c0 .5-.2.7-.7.7h-1.1c-.5 0-.7-.2-.7-.7V58c0-.5.2-.7.7-.7h1.1zm8.2 4.7c.8 0 1.6.1 2.3.3a5.1 5.1 0 0 1 2.1 1l-.1 1.3-1.9-.5c-.5-.1-1.1-.2-1.8-.2a3.8 3.8 0 0 0-1.6.3c-.4.2-.7.6-.9 1.2a8.8 8.8 0 0 0-.3 2.6 8.8 8.8 0 0 0 .3 2.6c.2.6.5 1 .8 1.3.4.2.9.4 1.5.4a4.3 4.3 0 0 0 1.2-.2c.4-.1.8-.3 1.2-.6l1.4-1 .2 1.5a11.6 11.6 0 0 1-2.1 1.6c-.8.4-1.7.6-2.7.6-1.5 0-2.5-.5-3.2-1.6-.6-1.1-1-2.6-1-4.6 0-1.5.2-2.7.5-3.6s.8-1.5 1.5-1.9a7.1 7.1 0 0 1 2.6-.5zm6.3-4.8V74h-1.8l-.3-2.1-.2-.2v-8l.1-.4c-.1-.4-.1-.9-.1-1.3v-1.4-3.5h2.3zm9.3 4.8c.9 0 1.6.1 2.3.4.6.2 1.1.6 1.4 1.2a4.9 4.9 0 0 1 .5 2.3V74h-1.8l-.4-2.5-.1-.3v-5.3c0-.7-.2-1.2-.5-1.5s-.9-.5-1.8-.5l-2.3.1-2.7.2-.2-1.7 1.8-.3 2-.2h1.8zm3 4.8v1.6h-5.5c-.5 0-.9.2-1.2.4-.2.3-.3.6-.3 1.1v.7c0 .6.1 1 .4 1.3s.7.4 1.3.4c.4 0 .9-.1 1.5-.2.6-.2 1.1-.4 1.7-.8a6.4 6.4 0 0 0 1.5-1.3v1.5c-.2.2-.4.5-.7.8s-.7.6-1.2.9c-.4.3-1 .5-1.5.7s-1.1.3-1.8.3-1.3-.1-1.9-.4c-.5-.3-.9-.6-1.2-1.1s-.5-1.1-.5-1.8v-1.3c0-.9.3-1.6.9-2.1s1.4-.8 2.4-.8h6.1zm7.8-7.9v11.8c0 .5.1.9.3 1.2.2.2.6.3 1.2.3h1.7l.3 1.7c-.3.1-.6.1-.9.2-.3 0-.7.1-1 .1h-.8a3.2 3.2 0 0 1-2.3-.8c-.5-.5-.8-1.3-.8-2.4V58.9h2.3zm3.7 3.4V64h-8.1v-1.6l2.3-.1h5.8zm7.3-.3c1.8 0 3.1.3 3.9 1 .8.6 1.2 1.6 1.2 2.9 0 1.1-.2 1.9-.7 2.4-.5.6-1.2.9-2.3.9h-6.8v-1.7h6.2c.5 0 .9-.2 1-.5.2-.3.2-.7.2-1.2 0-.7-.2-1.2-.6-1.5s-1.1-.5-2.1-.5c-.8 0-1.5.1-1.9.4-.5.2-.8.7-1 1.2-.2.6-.3 1.4-.3 2.5 0 1.2.1 2.1.3 2.8.2.6.6 1.1 1.1 1.3a5.6 5.6 0 0 0 2.1.4c.6 0 1.3 0 2-.1l2.1-.2.2 1.5c-.4.2-.8.3-1.4.4a8.8 8.8 0 0 1-1.7.2c-.6 0-1.1.1-1.6.1-1.4 0-2.5-.2-3.3-.6s-1.4-1.1-1.8-2a9 9 0 0 1-.6-3.6c0-1.5.2-2.8.6-3.6a3.7 3.7 0 0 1 1.8-1.9c1.1-.4 2.1-.6 3.4-.6zm12.1 0h1.7c.6 0 1.2.1 1.8.1s1.1.1 1.6.2L431 64c-.8 0-1.5-.1-2.3-.1h-2.2-1.7c-.4 0-.7.2-.9.4s-.3.5-.3 1c0 .6.1.9.4 1.1s.7.3 1.3.5l3.3.8a4.2 4.2 0 0 1 2.1 1.1 3.4 3.4 0 0 1 .7 2.2c0 1-.2 1.7-.6 2.2s-.9.8-1.7 1-1.7.3-2.9.3h-1.9c-.8 0-1.8-.1-2.8-.3l.2-1.6h1.2 1.4 1.5c.9 0 1.5 0 2-.1s.8-.2 1-.4.3-.6.3-1c0-.5-.2-.9-.5-1.1s-.8-.4-1.3-.5l-3.3-.8a9.1 9.1 0 0 1-1.6-.6c-.4-.3-.7-.6-.8-1.1-.2-.4-.2-1-.2-1.6 0-.9.2-1.6.5-2 .3-.5.8-.8 1.5-1 .8-.3 1.7-.4 2.8-.4z" fill="#1b1c17"/><path d="M343.4 660H102.6a9.5 9.5 0 0 1-9.6-9.4v-56.2a9.5 9.5 0 0 1 9.6-9.4h240.7a9.5 9.5 0 0 1 9.6 9.4v56.2c.1 5.2-4.2 9.4-9.5 9.4z"/><path d="M343.4 586.5c4.5 0 8.1 3.5 8.1 7.9v56.2c0 4.3-3.6 7.9-8.1 7.9H102.6c-4.5 0-8.1-3.5-8.1-7.9v-56.2c0-4.3 3.6-7.9 8.1-7.9h240.8zm0-1.5H102.6a9.5 9.5 0 0 0-9.6 9.4v56.2a9.5 9.5 0 0 0 9.6 9.4h240.7a9.5 9.5 0 0 0 9.6-9.4v-56.2c.1-5.2-4.2-9.4-9.5-9.4z" fill="#a6a6a6"/><g class="AH"><path d="M184.3 604.2c0 1.6-.5 2.8-1.4 3.8a5.8 5.8 0 0 1-4.3 1.7c-1.7 0-3.1-.6-4.2-1.7-1.2-1.1-1.8-2.5-1.8-4.2s.6-3.1 1.8-4.2 2.6-1.7 4.2-1.7c.8 0 1.6.2 2.4.5s1.4.7 1.8 1.3l-1 1c-.8-.9-1.8-1.3-3.2-1.3a4.7 4.7 0 0 0-3.2 1.2c-.9.8-1.3 1.9-1.3 3.2s.4 2.4 1.3 3.3c.9.8 1.9 1.2 3.2 1.2s2.4-.4 3.2-1.3a3.5 3.5 0 0 0 1-2.3h-4.2v-1.4h5.6c.1.3.1.6.1.9zm8.9-4.7h-5.3v3.6h4.7v1.4h-4.7v3.6h5.3v1.4h-6.7v-11.2h6.7v1.2zm6.3 9.9H198v-9.9h-3.2v-1.4h7.9v1.4h-3.2v9.9zm8.9 0v-11.2h1.5v11.2h-1.5zm8.1 0H215v-9.9h-3.2v-1.4h7.9v1.4h-3.2v9.9zm18.3-1.5c-1.1 1.1-2.5 1.7-4.2 1.7s-3.1-.6-4.2-1.7-1.7-2.5-1.7-4.2a5.9 5.9 0 0 1 1.7-4.2c1.1-1.1 2.5-1.7 4.2-1.7s3.1.6 4.2 1.7 1.7 2.5 1.7 4.2-.6 3.1-1.7 4.2zm-7.4-.9c.9.8 1.9 1.3 3.1 1.3a4 4 0 0 0 3.1-1.3c.9-.8 1.3-1.9 1.3-3.2s-.4-2.4-1.3-3.2a4.4 4.4 0 0 0-3.1-1.3 4 4 0 0 0-3.1 1.3c-.9.8-1.3 1.9-1.3 3.2s.4 2.3 1.3 3.2zm11.2 2.4v-11.2h1.8l5.6 8.7h.1l-.1-2.2v-6.6h1.5v11.2h-1.6l-5.9-9.2h0l.1 2.2v7h-1.5z" stroke="#fff" stroke-width=".16" class="AI"/><path d="M224.2 625.8a8 8 0 0 0-8.2 8 8 8 0 0 0 8.2 8 8 8 0 0 0 8.2-8c.1-4.7-3.6-8-8.2-8zm0 12.8c-2.5 0-4.6-2-4.6-4.8 0-2.9 2.1-4.8 4.6-4.8s4.6 2 4.6 4.8c.1 2.8-2.1 4.8-4.6 4.8zm-17.9-12.8a8 8 0 0 0-8.2 8 8 8 0 0 0 8.2 8 8 8 0 0 0 8.2-8c0-4.7-3.7-8-8.2-8zm0 12.8c-2.5 0-4.6-2-4.6-4.8 0-2.9 2.1-4.8 4.6-4.8s4.6 2 4.6 4.8-2.1 4.8-4.6 4.8zM185 628.2v3.4h8.3c-.2 1.9-.9 3.3-1.9 4.3a8.5 8.5 0 0 1-6.4 2.5c-5.1 0-9.1-4-9.1-9s4-9 9.1-9a9.3 9.3 0 0 1 6.3 2.4l2.5-2.4c-2.1-1.9-4.8-3.4-8.7-3.4-7 0-12.9 5.6-12.9 12.4s5.9 12.4 12.9 12.4c3.8 0 6.6-1.2 8.9-3.5 2.3-2.2 3-5.4 3-7.9a12.5 12.5 0 0 0-.2-2.1H185zm87.2 2.7c-.7-1.8-2.8-5.1-7-5.1s-7.7 3.2-7.7 8a7.9 7.9 0 0 0 8.1 8c3.8 0 5.9-2.2 6.8-3.5l-2.8-1.8a4.7 4.7 0 0 1-4 2.2 4.3 4.3 0 0 1-4-2.4l11-4.4-.4-1zm-11.2 2.6a4.5 4.5 0 0 1 4.3-4.7c1.4 0 2.6.7 3 1.7l-7.3 3zm-8.9 7.7h3.6v-23.4h-3.6v23.4zm-5.9-13.6h-.1c-.8-.9-2.4-1.8-4.3-1.8a8.1 8.1 0 0 0-7.9 8 8 8 0 0 0 7.9 7.9c2 0 3.5-.9 4.3-1.8h.1v1.1c0 3-1.7 4.7-4.4 4.7a4.4 4.4 0 0 1-4.1-2.8l-3.1 1.3c.9 2.1 3.3 4.7 7.3 4.7 4.2 0 7.8-2.4 7.8-8.3v-14.3h-3.4v1.3zm-4.1 11c-2.5 0-4.6-2-4.6-4.8s2.1-4.9 4.6-4.9c2.4 0 4.4 2.1 4.4 4.9s-1.9 4.8-4.4 4.8zm47-20.8h-8.6v23.4h3.6v-8.9h5c4 0 7.9-2.8 7.9-7.3 0-4.4-3.9-7.2-7.9-7.2zm.1 11.3H284v-8h5.1a4.1 4.1 0 0 1 4.2 4c.1 1.8-1.5 4-4.1 4zm22.2-3.4c-2.6 0-5.3 1.1-6.4 3.6l3.2 1.3c.7-1.3 1.9-1.7 3.3-1.7 1.9 0 3.8 1.1 3.8 3v.2c-.7-.4-2-.9-3.8-.9-3.4 0-6.9 1.8-6.9 5.3 0 3.1 2.8 5.2 6 5.2 2.4 0 3.8-1.1 4.6-2.3h.1v1.8h3.5v-9c-.1-4.1-3.3-6.5-7.4-6.5zm-.5 12.9c-1.2 0-2.8-.6-2.8-2 0-1.8 2-2.5 3.8-2.5 1.6 0 2.3.3 3.3.8a4.4 4.4 0 0 1-4.3 3.7zm20.4-12.3l-4.1 10.2h-.1l-4.3-10.2h-3.9l6.4 14.2-3.7 7.9h3.8l9.9-22.1h-4zm-32.4 14.9h3.6v-23.4h-3.6v23.4z"/></g><linearGradient id="v" gradientUnits="userSpaceOnUse" x1="134.72" y1="643.93" x2="103.27" y2="611.62"><stop offset="0" stop-color="#00a0ff"/><stop offset=".01" stop-color="#00a1ff"/><stop offset=".26" stop-color="#00beff"/><stop offset=".51" stop-color="#00d2ff"/><stop offset=".76" stop-color="#00dfff"/><stop offset="1" stop-color="#00e3ff"/></linearGradient><path d="M113.1 599.1c-.6.6-.9 1.5-.9 2.6v41.5c0 1.2.3 2.1.9 2.6l.1.1 23.9-23.2v-.5L113.2 599l-.1.1z" fill="url(#v)"/><linearGradient id="w" gradientUnits="userSpaceOnUse" x1="158.16" y1="622.5" x2="111.56" y2="622.5"><stop offset="0" stop-color="#ffe000"/><stop offset=".41" stop-color="#ffbd00"/><stop offset=".78" stop-color="orange"/><stop offset="1" stop-color="#ff9c00"/></linearGradient><path d="M145.1 630.5l-7.9-7.7v-.5l8-7.7.2.1 9.4 5.2c2.7 1.5 2.7 3.9 0 5.4l-9.4 5.2h-.3z" fill="url(#w)"/><linearGradient id="x" gradientUnits="userSpaceOnUse" x1="124.86" y1="633.73" x2="82.21" y2="589.91"><stop offset="0" stop-color="#ff3a44"/><stop offset="1" stop-color="#c31162"/></linearGradient><path d="M145.2 630.4l-8.1-7.9-24 23.4c.9.9 2.3 1 4 .1l28.1-15.6z" fill="url(#x)"/><linearGradient id="y" gradientUnits="userSpaceOnUse" x1="92.01" y1="645.02" x2="111.06" y2="625.46"><stop offset="0" stop-color="#32a071"/><stop offset=".07" stop-color="#2da771"/><stop offset=".48" stop-color="#15cf74"/><stop offset=".8" stop-color="#06e775"/><stop offset="1" stop-color="#00f076"/></linearGradient><path d="M145.2 614.6L117.1 599c-1.7-.9-3.1-.8-4 .1l24 23.4 8.1-7.9z" fill="url(#y)"/></svg>