<svg xmlns="http://www.w3.org/2000/svg" width="600" height="600" fill="none" xmlns:v="https://vecta.io/nano"><style><![CDATA[.B{fill:#ffa98f}.C{fill:#fff}.D{fill:#0745b4}.E{fill:#030d11}.F{fill:#071a22}.G{fill:#061728}.H{fill:#8aa5ee}.I{fill:#05387d}.J{fill:#0568e0}.K{fill:#b8dfff}.L{fill:#3886e8}.M{stroke:#0668e1}.N{stroke-width:2}.O{fill:#084684}.P{fill:#fcfcfc}.Q{fill:#0b457f}.R{fill:#032d5f}.S{stroke-miterlimit:10}]]></style><path d="M345.56 481.57l86.08-49.23v-21.29l-83.13 47.41-2.95 23.11z" class="D"/><path d="M348.51 373.31l-80.02 46.32 80 38.86 82.32-47.29-82.29-37.9z" class="H"/><path d="M268.53 419.61v24.13c0 2.83 1.59 5.4 4.1 6.63l65.49 31.99c4.81 2.35 10.4-1.2 10.4-6.63v-17.26l-79.99-38.86z" class="J"/><path d="M338.76 477.81a1.7 1.7 0 0 1-.75-.17l-64.66-30.66c-.9-.42-1.28-1.5-.86-2.4s1.47-1.29 2.37-.87l64.66 30.66c.9.42 1.28 1.5.86 2.4-.31.66-.95 1.05-1.62 1.05z" class="O"/><path d="M330.21 473.8a1.7 1.7 0 0 1-.75-.17l-56.1-26.65c-.9-.42-1.28-1.5-.86-2.4s1.47-1.29 2.37-.87l56.1 26.65c.9.42 1.28 1.5.86 2.4a1.8 1.8 0 0 1-1.62 1.05z" class="K"/><path d="M289.54 432.83l-.06 12.19-3.03-1.32.06-12.19 3.03 1.32zm3.51 6.06l-.01 2.39-3.66-1.6.01-2.38 3.66 1.59zm2.89-3.27l-.06 12.19-3.04-1.33.06-12.19 3.04 1.33zm4.29 5.74l1.27.64c.46.25.91.54 1.34.88l-.14 1.39-1.17-.53-1.34-.6-.42-.16c-.11-.04-.2-.06-.27-.05-.06 0-.11.03-.14.09-.03.05-.04.13-.04.25 0 .19.05.36.15.5.11.14.3.32.56.54l1.39 1.18c.61.52 1.03 1.03 1.26 1.52.24.49.36 1.03.36 1.64a3.2 3.2 0 0 1-.16 1.09c-.1.27-.27.45-.5.53-.23.08-.53.09-.9.01-.37-.07-.83-.23-1.38-.47l-1.12-.55a14.4 14.4 0 0 1-1.65-1.02l.13-1.51 1.15.54.88.41.6.26.56.21c.13.02.22.01.27-.04.05-.06.08-.16.08-.3 0-.13-.02-.25-.05-.34s-.1-.19-.19-.29c-.09-.09-.21-.2-.36-.32l-1.49-1.3a5.4 5.4 0 0 1-1.25-1.5c-.24-.48-.36-1.02-.36-1.61 0-.47.06-.84.17-1.09s.28-.42.5-.49c.23-.07.54-.06.91.03a7.8 7.8 0 0 1 1.35.47zm6.32 5.04l.69.34a7.9 7.9 0 0 1 .76.46 4.8 4.8 0 0 1 .68.53l-.2 1.25-.88-.38-.73-.33c-.27-.12-.49-.18-.65-.17-.16 0-.27.09-.34.26s-.1.44-.1.81c0 .36.03.66.09.89a1.2 1.2 0 0 0 .33.56c.16.14.38.27.65.39l.45.2.6.24.65.23.18 1.43c-.31.03-.67-.01-1.06-.12a7.7 7.7 0 0 1-1.18-.41c-.68-.3-1.22-.63-1.63-1.01a3.3 3.3 0 0 1-.88-1.37c-.18-.54-.26-1.18-.26-1.93 0-.76.1-1.33.28-1.7a1 1 0 0 1 .9-.58c.41-.03.96.11 1.65.41zm5.65 2.46a6.1 6.1 0 0 1 1.7 1.05c.43.38.73.84.92 1.38.19.53.28 1.18.27 1.94 0 .76-.1 1.32-.29 1.69-.19.36-.5.55-.93.57a4.3 4.3 0 0 1-1.7-.45 6.3 6.3 0 0 1-1.7-1.04c-.43-.39-.73-.85-.92-1.37-.18-.53-.28-1.18-.27-1.93a3.9 3.9 0 0 1 .29-1.7 1 1 0 0 1 .93-.58 4.1 4.1 0 0 1 1.7.44zm-.01 1.5c-.22-.1-.4-.13-.52-.1-.12.04-.2.16-.25.36s-.08.53-.08.97c0 .43.02.77.07 1.03s.13.44.25.58c.12.13.3.25.52.34s.4.13.52.11c.12-.03.21-.15.25-.36.05-.21.08-.53.08-.96 0-.44-.02-.79-.07-1.04-.04-.25-.12-.44-.25-.58s-.3-.26-.52-.36zm5.34.99l.23 1.29.19.24-.02 4.54-1.97-.86.03-5.87 1.54.67zm2.62.98l-.18 1.9-.52-.23a4.7 4.7 0 0 0-.71-.24c-.26-.07-.59-.13-.99-.19l-.11-1.22a2.4 2.4 0 0 1 2.22-.15l.3.13zm3.27 1.43c.97.42 1.66.9 2.07 1.42s.61 1.13.61 1.81c0 .55-.13.88-.42 1.01s-.78.04-1.5-.27l-2.95-1.28v-1.08l2.39 1.04c.25.11.4.14.47.09.07-.05.11-.17.11-.38-.01-.23-.06-.41-.17-.54s-.3-.25-.56-.36c-.25-.12-.45-.17-.59-.16-.13.01-.22.12-.27.31s-.08.5-.08.93.02.76.08 1.02c.06.26.17.47.33.63.17.17.4.31.69.44l.91.37 1.2.42.18 1.38c-.23.03-.49.01-.77-.04a6.2 6.2 0 0 1-.86-.22l-.89-.34c-.72-.31-1.3-.68-1.73-1.09s-.75-.88-.94-1.42c-.19-.54-.28-1.15-.27-1.84 0-.77.1-1.34.3-1.72s.51-.56.94-.57c.44-.02 1 .13 1.7.43z" class="P"/><path d="M427.86 522.92l87.75-50.54v-21.29l-83.12 47.41-4.62 24.42z" class="D"/><path d="M432.48 413.34l-80.17 46.29 80.17 38.93 82.29-47.32-82.29-37.9z" fill="#bed0fc"/><path d="M352.5 459.64v24.13c0 2.83 1.59 5.4 4.1 6.63l65.49 31.99c4.81 2.35 10.4-1.2 10.4-6.62V498.5l-79.99-38.86z" class="J"/><path d="M423.59 517.89a1.7 1.7 0 0 1-.75-.17l-64.66-30.66c-.89-.42-1.28-1.5-.86-2.41s1.47-1.29 2.37-.87l64.66 30.66c.89.42 1.28 1.5.86 2.4-.31.66-.95 1.05-1.62 1.05z" class="O"/><path d="M399.78 506.51a1.7 1.7 0 0 1-.75-.17l-40.84-19.27c-.89-.42-1.28-1.5-.86-2.4s1.47-1.29 2.37-.87l40.84 19.27c.89.42 1.28 1.5.86 2.4-.31.66-.95 1.05-1.62 1.05z" class="K"/><path d="M378 475.11l-.06 12.19-3.03-1.32.06-12.19 3.03 1.32zm3.51 6.06l-.01 2.39-3.66-1.6.01-2.38 3.66 1.59zm2.89-3.27l-.06 12.19-3.04-1.33.06-12.19 3.04 1.33zm4.29 5.74l1.27.64c.46.25.91.54 1.34.88l-.14 1.39-1.17-.53-1.34-.6-.42-.16c-.11-.04-.2-.06-.27-.05-.07 0-.11.03-.14.09-.03.05-.04.13-.04.25 0 .19.05.36.15.5a3.6 3.6 0 0 0 .56.54l1.39 1.18c.61.52 1.03 1.03 1.26 1.52.24.49.36 1.03.36 1.64a3.2 3.2 0 0 1-.16 1.09c-.1.27-.27.45-.5.53-.23.08-.53.09-.9.01-.37-.07-.83-.23-1.38-.47l-1.12-.55a14.4 14.4 0 0 1-1.65-1.02l.13-1.51 1.15.54.88.41.6.26.56.21c.13.02.22.01.27-.04.05-.06.08-.16.08-.3 0-.13-.02-.25-.05-.34s-.1-.19-.19-.29c-.09-.09-.21-.2-.36-.32l-1.49-1.3a5.4 5.4 0 0 1-1.25-1.5c-.24-.48-.36-1.01-.36-1.61 0-.47.06-.84.17-1.09s.28-.42.5-.49c.23-.07.54-.06.91.03a7.7 7.7 0 0 1 1.35.47zm6.32 5.04l.69.34a7.9 7.9 0 0 1 .76.46 4.8 4.8 0 0 1 .68.53l-.2 1.25-.88-.38-.73-.33c-.27-.12-.49-.18-.65-.17-.16 0-.27.09-.34.26s-.1.44-.1.81c0 .36.03.66.09.89a1.2 1.2 0 0 0 .33.56c.16.14.38.27.65.39l.45.2.6.24.65.22.18 1.43c-.31.03-.67-.01-1.06-.12a7.8 7.8 0 0 1-1.18-.41c-.68-.3-1.22-.63-1.63-1.01a3.3 3.3 0 0 1-.88-1.37c-.18-.54-.27-1.18-.26-1.93 0-.76.1-1.33.28-1.7a1 1 0 0 1 .9-.58c.41-.03.96.11 1.65.41zm5.65 2.46c.71.31 1.27.66 1.7 1.05.43.38.73.84.92 1.38.19.53.28 1.18.27 1.94 0 .76-.1 1.32-.29 1.69-.19.36-.5.55-.93.57a4.3 4.3 0 0 1-1.7-.45 6.3 6.3 0 0 1-1.7-1.04c-.43-.39-.73-.85-.92-1.37-.19-.53-.28-1.17-.27-1.93a3.9 3.9 0 0 1 .29-1.7 1 1 0 0 1 .93-.58 4.1 4.1 0 0 1 1.7.44zm-.01 1.5c-.22-.1-.4-.13-.52-.1-.12.04-.2.16-.25.36s-.08.53-.08.97c0 .43.02.78.07 1.03s.13.44.25.58c.12.13.3.25.52.34s.4.13.52.11c.12-.03.21-.16.25-.36.05-.21.08-.53.08-.96 0-.44-.02-.79-.07-1.04-.04-.25-.12-.44-.25-.58s-.3-.26-.52-.36zm5.34.99l.23 1.29.19.24-.02 4.54-1.97-.86.03-5.87 1.54.67zm2.62.98l-.18 1.9-.52-.23a4.7 4.7 0 0 0-.71-.24c-.26-.07-.59-.13-.99-.19l-.11-1.22a2.4 2.4 0 0 1 2.22-.15l.3.13zm3.27 1.43c.97.42 1.66.9 2.07 1.42s.61 1.13.61 1.81c0 .55-.13.88-.42 1.01s-.78.04-1.5-.27l-2.95-1.28v-1.08l2.4 1.04c.25.11.4.14.47.09.07-.05.11-.17.11-.38-.01-.23-.06-.41-.17-.54s-.3-.25-.56-.36c-.25-.12-.45-.17-.59-.16-.13.01-.22.12-.27.31s-.08.5-.08.93.02.76.08 1.02c.06.26.18.47.33.63.17.17.4.31.69.44l.91.37 1.2.42.18 1.38c-.23.03-.49.01-.77-.04a6.2 6.2 0 0 1-.86-.22l-.89-.34c-.72-.31-1.3-.68-1.73-1.09s-.74-.88-.94-1.42c-.19-.54-.28-1.15-.27-1.84 0-.77.1-1.34.3-1.72s.51-.56.94-.57c.44-.02 1 .13 1.7.43z" class="P"/><path d="M512.25 562.8L600 512.26v-21.29l-83.12 47.41-4.62 24.42z" class="D"/><path d="M516.88 453.22l-79.98 46.39 80.4 38.77 81.87-47.26-82.28-37.9z" class="H"/><path d="M436.89 499.52v24.13c0 2.83 1.59 5.4 4.1 6.63l65.49 31.99c4.81 2.35 10.4-1.2 10.4-6.63v-17.26l-79.98-38.86z" class="J"/><path d="M507.76 557.5c-.25 0-.51-.05-.75-.17l-64.66-30.66c-.9-.42-1.28-1.5-.86-2.4s1.47-1.29 2.37-.87l64.66 30.66c.9.42 1.28 1.5.86 2.4-.31.66-.95 1.05-1.62 1.05z" class="O"/><path d="M460.96 535.28a1.7 1.7 0 0 1-.75-.17l-17.86-8.43c-.9-.42-1.28-1.5-.86-2.4s1.47-1.29 2.37-.87l17.86 8.43c.9.42 1.28 1.5.86 2.4-.31.66-.95 1.05-1.62 1.05z" class="K"/><path d="M460.72 514.13l-.06 12.19-3.03-1.32.06-12.19 3.03 1.32zm3.51 6.06l-.01 2.38-3.66-1.6.01-2.38 3.66 1.6zm2.89-3.27l-.06 12.19-3.04-1.33.06-12.19 3.05 1.33zm4.29 5.74l1.27.63a9.4 9.4 0 0 1 1.34.88l-.14 1.38-1.17-.53-1.34-.6-.42-.16c-.11-.04-.2-.06-.27-.05-.07 0-.11.03-.14.09-.03.05-.04.13-.05.25 0 .19.05.36.15.5.11.14.3.32.56.54l1.4 1.18a5 5 0 0 1 1.26 1.52c.24.49.36 1.03.36 1.64 0 .46-.06.82-.16 1.09s-.27.45-.5.53c-.23.08-.53.09-.9.01-.37-.07-.83-.23-1.38-.47l-1.12-.54c-.48-.25-1.03-.59-1.65-1.03l.13-1.51 1.15.54.88.41.6.26.56.21c.13.03.22.01.27-.03.05-.06.08-.16.08-.3 0-.13-.02-.25-.05-.34s-.1-.19-.19-.29c-.09-.09-.2-.2-.36-.32l-1.49-1.3a5.4 5.4 0 0 1-1.25-1.51c-.24-.48-.36-1.01-.36-1.61 0-.47.06-.84.17-1.09s.28-.42.5-.49c.23-.07.54-.06.91.03.38.09.83.24 1.36.47zm6.32 5.04l.69.34a7.8 7.8 0 0 1 .76.46c.25.17.48.34.68.53l-.2 1.25-.88-.38-.73-.33c-.27-.12-.49-.17-.65-.16-.16 0-.27.09-.34.25s-.1.44-.1.81c0 .36.03.66.09.89a1.2 1.2 0 0 0 .33.56c.16.14.38.27.65.39l.46.2.6.24.65.22.18 1.43c-.31.03-.67-.01-1.06-.12a7.6 7.6 0 0 1-1.18-.41 5.9 5.9 0 0 1-1.63-1.01 3.3 3.3 0 0 1-.88-1.37c-.18-.54-.27-1.18-.26-1.93 0-.76.1-1.33.28-1.7a1 1 0 0 1 .9-.58c.41-.02.96.11 1.65.41zm5.65 2.46a6.1 6.1 0 0 1 1.7 1.05c.43.38.73.84.92 1.38a5.8 5.8 0 0 1 .27 1.94c0 .76-.1 1.32-.29 1.69-.19.36-.5.55-.92.57-.43.01-1-.14-1.7-.45a6.3 6.3 0 0 1-1.7-1.04c-.43-.39-.73-.85-.92-1.37a5.8 5.8 0 0 1-.27-1.93 3.9 3.9 0 0 1 .29-1.7c.19-.37.5-.57.93-.58a4.1 4.1 0 0 1 1.7.43zm-.01 1.5c-.22-.1-.4-.13-.52-.1-.12.04-.2.16-.25.36s-.08.53-.08.97a5.4 5.4 0 0 0 .07 1.03c.05.25.13.45.25.58.12.13.3.25.52.35s.4.13.52.11c.12-.03.21-.15.25-.36.05-.21.08-.53.08-.96 0-.44-.02-.79-.07-1.04-.04-.25-.12-.44-.25-.58s-.3-.26-.52-.36zm5.34.99l.23 1.29.19.24-.02 4.54-1.97-.86.03-5.87 1.54.67zm2.62.98l-.18 1.9-.52-.23a4.6 4.6 0 0 0-.72-.24 11.3 11.3 0 0 0-.99-.19l-.11-1.22c.36-.21.73-.33 1.11-.35.38-.02.75.04 1.11.2l.3.13zm3.27 1.42c.97.42 1.66.9 2.07 1.42s.61 1.13.61 1.81c0 .55-.13.88-.42 1.01s-.78.04-1.5-.27l-2.95-1.28v-1.08l2.39 1.04c.25.11.4.13.47.09.07-.05.11-.17.11-.38-.01-.23-.06-.41-.17-.54s-.3-.25-.56-.36c-.25-.12-.45-.17-.59-.16-.13.01-.22.12-.27.31s-.08.5-.08.92.02.76.08 1.02c.06.26.18.47.33.63.17.17.4.31.69.44l.91.37 1.2.42.18 1.38c-.23.02-.49.01-.77-.04-.27-.05-.56-.12-.86-.22l-.89-.34c-.72-.31-1.3-.68-1.73-1.09s-.75-.88-.94-1.42c-.19-.54-.28-1.15-.27-1.84 0-.77.1-1.34.3-1.72s.51-.56.94-.57c.43-.02 1 .13 1.7.43z" class="P"/><g class="E"><path opacity=".1" d="M435.5 470.95c16.28 0 29.47-6.73 29.47-15.03s-13.19-15.03-29.47-15.03-29.47 6.73-29.47 15.03 13.2 15.03 29.47 15.03z"/><use href="#E" opacity=".1"/></g><g fill="#31373f"><path d="M7.34 407.2l124.02 68.18a39.1 39.1 0 0 0 38.54-.6l268.22-159.61c10.21-5.98 8.4-18.7-2.23-23.91l-127.36-67.3c-12.6-6.18-27.4-5.62-39.52 1.47L7.01 384.3c-8.77 5.13-8.58 18.03.33 22.91z"/><path d="M.05 384.7L0 396.27c-.02 4.06 2.14 7.81 5.62 9.81l7.14 4.08 1.36-25.09-14.07-.38zm445.33-95.39l-.03 16.68a7.3 7.3 0 0 1-2.56 5.54l-3.75 3.18-.13-22.81 6.47-2.6z"/></g><path d="M6.85 396.52l121.62 66.38a39.1 39.1 0 0 0 38.54-.6l271.15-159.05c10.21-5.98 9.65-21.12-.97-26.31l-124.32-60.89c-12.6-6.18-27.4-5.63-39.52 1.47L6.51 373.62c-8.77 5.13-8.58 18.03.33 22.91z" fill="#1b1f25"/><path d="M34.23 365.45l156.4 78.87 238.13-142.67c8.38-5.02 8.02-17.44-.63-21.95l-104.27-52.86c-19.27-10.05-42.28-9.31-60.89 1.94L34.23 365.45z" class="K"/><path d="M57.44 366.51l123.37 64.44a18.4 18.4 0 0 0 17.57-.28l14.24-8.02a6.3 6.3 0 0 0-.16-10.99L88.97 346.9a13.6 13.6 0 0 0-13 .21L57.3 357.66c-3.44 1.94-3.36 7 .14 8.84zm208.64-122.26l124.68 61.78a18.4 18.4 0 0 0 17.56-.66l14.07-8.32a6.3 6.3 0 0 0-.39-10.98l-124.82-62.09a13.6 13.6 0 0 0-12.99.49l-18.44 10.96c-3.41 2.03-3.22 7.08.32 8.84z" fill="#589bed"/><path d="M283.4 233.13l2.47-1.73.7.35.51.27c.45.27.74.5.87.73.16.3.04.61-.4.91s-.93.45-1.48.41a4.9 4.9 0 0 1-1.92-.59l-.74-.35zm5.73-1.98l-.8-.43-3.17-1.57-9.15 6.39 2.3 1.14 3.51-2.45 1.22.61-.92 3.74 2.56 1.27.79-4.37c.88.16 1.71.18 2.48.06a4.6 4.6 0 0 0 1.96-.74c.91-.64 1.26-1.3 1-1.96-.19-.53-.79-1.09-1.77-1.66zm1.5 9.93c-.48-.28-.68-.59-.61-.93.08-.39.47-.82 1.16-1.29.71-.49 1.35-.79 1.96-.9s1.22-.01 1.83.28l.18.1c.48.28.69.59.62.92-.08.38-.47.81-1.16 1.28a5.1 5.1 0 0 1-1.97.9c-.61.12-1.22.02-1.83-.27a1.5 1.5 0 0 1-.18-.09zm6.31-3.68l-.41-.22a7.5 7.5 0 0 0-3.94-.81 7.3 7.3 0 0 0-3.73 1.34 3.9 3.9 0 0 0-1.44 1.59c-.23.55-.17 1.07.15 1.58a3.5 3.5 0 0 0 1.27 1.14l.41.22a7.6 7.6 0 0 0 3.94.8 7.3 7.3 0 0 0 3.74-1.34c.73-.51 1.21-1.05 1.43-1.59s.16-1.06-.14-1.57c-.25-.42-.68-.8-1.27-1.14zm9.58 4.74l-.53-.28c-1.31-.65-2.64-.93-3.96-.84a7.3 7.3 0 0 0-3.78 1.39c-2.23 1.56-2.3 2.94-.21 4.15l.5.27c.57.28 1.09.49 1.53.62a7.1 7.1 0 0 0 1.52.27l1.63-1.14a8.7 8.7 0 0 1-1.57-.23 6.5 6.5 0 0 1-1.36-.49l-.18-.09c-.99-.57-.83-1.3.46-2.21 1.41-.98 2.71-1.18 3.88-.61l.25.14a4 4 0 0 1 .56.4 8.2 8.2 0 0 1 .7.7l2.14-.7a5.1 5.1 0 0 0-1.57-1.33zm8.6 1.11l-2.26-1.12-9.75 6.8 2.27 1.13 2.18-1.52 1.63.02-.44 3.17 2.62 1.29.46-4.5 6.33-.49-2.55-1.27-4.46.34-2.05.25-.02-.01 1.7-1.06 4.34-3.04zm7.87 7.03c-.16-.1-.34-.19-.53-.28a7.5 7.5 0 0 0-2.94-.84 3.6 3.6 0 0 0-2.3.58c-.36.26-.61.5-.72.74s-.12.5-.01.79a4.4 4.4 0 0 0 .78 1.13l.66.82c.14.22.24.38.24.5s-.05.23-.21.34c-.4.28-1.01.22-1.84-.19-.1-.04-.2-.1-.31-.16a7.6 7.6 0 0 1-.91-.64 6.6 6.6 0 0 1-1-.99l-1.57 1.1a4.9 4.9 0 0 0 .9.8c.17.13.38.27.62.4l.81.43c1.19.58 2.25.89 3.22.92s1.81-.2 2.52-.71c.34-.25.58-.5.68-.73a1 1 0 0 0 0-.79 4.3 4.3 0 0 0-.81-1.14 6.2 6.2 0 0 1-.86-1.09c-.09-.19-.06-.35.12-.47.31-.21.8-.16 1.47.17l.26.15c.26.16.5.32.7.5.27.25.53.52.81.84l2.05-.62a6.7 6.7 0 0 0-1.84-1.54zm8.12 2.37l-1.45-.72-2.13.71-1.89-.17-.8.57 1.09.53-3.37 2.36c-.77.54-1.14 1.05-1.11 1.52.02.4.36.8 1.03 1.18a6 6 0 0 0 .36.19 8.9 8.9 0 0 0 2.41.81l1.42-.99c-.71-.18-1.25-.36-1.65-.55-.05-.02-.09-.05-.13-.06-.22-.13-.35-.27-.4-.42-.05-.18.05-.36.33-.55l3.37-2.36 2.32 1.15 1.43-1-2.32-1.15 1.48-1.05zm-.41 8.39c-.57-.33-.62-.67-.13-1.01.38-.27.81-.38 1.32-.35.51.04 1.09.2 1.77.52l.9.41-.58.4c-.42.29-.91.46-1.48.48a3.1 3.1 0 0 1-1.63-.36c-.07-.05-.13-.07-.18-.1zm7.09-3.47l-.53-.28a11.8 11.8 0 0 0-3.81-1.13l-.53 1.27c1.23.21 2.18.48 2.84.81l.19.1c.69.39.7.83.04 1.28l-.3.21-1.48-.69c-1.28-.59-2.41-.91-3.37-.97-.97-.05-1.83.17-2.58.69-.71.5-1.02.99-.95 1.49.06.43.41.82 1.01 1.18a4.8 4.8 0 0 0 .31.17 6.5 6.5 0 0 0 1.81.61c.56.09 1.23.09 2.02 0l.06.03-.52.88 1.58.78 4.66-3.26c.83-.58 1.16-1.16.98-1.74-.16-.47-.63-.94-1.43-1.4zm5.7 5.25l2.47-1.73.7.35.48.26c.46.27.76.51.89.75.17.3.05.61-.39.91s-.93.45-1.48.42-1.19-.23-1.92-.59l-.75-.38zm5.73-1.98l-.81-.43-3.17-1.56-9.15 6.39 2.3 1.14 3.51-2.45 1.23.61-.92 3.74 2.56 1.26.8-4.36a7.8 7.8 0 0 0 2.48.06 4.6 4.6 0 0 0 1.96-.74c.93-.64 1.26-1.29 1-1.96-.21-.54-.81-1.09-1.79-1.67zm2.87 7.18a3.5 3.5 0 0 1 1.56-.53 2.9 2.9 0 0 1 1.52.28l.16.08c.37.22.57.47.59.74.03.32-.19.64-.65.98l-3.18-1.56zm4.87-.95c-.13-.08-.29-.17-.45-.24a7.2 7.2 0 0 0-3.85-.75 7.5 7.5 0 0 0-3.76 1.38c-1.14.8-1.65 1.6-1.5 2.41.11.7.68 1.34 1.69 1.93l.51.28a11.3 11.3 0 0 0 1.77.72 10.1 10.1 0 0 0 1.65.37l1.47-1.04a13.2 13.2 0 0 1-1.81-.4 9.8 9.8 0 0 1-1.56-.6l-.24-.13c-.49-.28-.75-.6-.8-.94-.06-.39.18-.78.7-1.17l5.36 2.64.93-.64c.99-.7 1.45-1.4 1.36-2.12-.09-.61-.58-1.18-1.47-1.7zm9.22 4.55a5.9 5.9 0 0 0-.53-.29c-1.31-.65-2.64-.93-3.96-.83a7.4 7.4 0 0 0-3.79 1.38c-2.23 1.56-2.3 2.94-.21 4.16l.5.27c.57.28 1.09.49 1.53.62a7.8 7.8 0 0 0 1.52.27l1.63-1.14a9.7 9.7 0 0 1-1.57-.23 6.5 6.5 0 0 1-1.36-.5l-.18-.09c-.99-.57-.83-1.3.46-2.21 1.41-.98 2.7-1.18 3.88-.61l.25.14c.21.12.39.26.56.39.23.2.46.44.7.7l2.15-.7a4.8 4.8 0 0 0-1.57-1.33zm8.77 4.32l-.41-.22a4.9 4.9 0 0 0-1.79-.46 6.4 6.4 0 0 0-2 .15l-.11-.05.84-.98-1.71-.84-7 4.88 2.26 1.12 3.57-2.49c.56-.39 1.2-.6 1.93-.62.72-.02 1.43.15 2.15.5l.27.15.34.23 1.96-1.16-.31-.2zm9.35 4.77l-2.27-1.12-3.29 2.3c-.82.58-1.56.92-2.2 1.03s-1.27.01-1.91-.3l-.15-.08c-.35-.21-.51-.44-.48-.68.04-.28.32-.6.81-.95l4.09-2.85-2.27-1.12-4.56 3.19c-.82.58-1.21 1.14-1.15 1.7.05.48.44.93 1.16 1.35l.38.2a6.1 6.1 0 0 0 1.79.57 5.1 5.1 0 0 0 1.79-.02l.12.06-.59.78 1.74.85 6.98-4.9zm4.65 2.29l-2.26-1.12-7 4.88 2.26 1.12 7-4.88zm1.8-2.37c-.05-.04-.12-.06-.19-.1-.81-.4-1.55-.39-2.16.05-.57.4-.54.79.09 1.16l.2.11c.41.2.8.3 1.17.28.37-.01.71-.12 1-.33.58-.4.54-.79-.1-1.17zm4.57 3.75l-1.46-.72-2.13.71-1.88-.17-.81.57 1.09.53-3.37 2.36c-.77.54-1.15 1.05-1.12 1.52.03.4.36.79 1.01 1.18l.39.21c.82.4 1.62.68 2.4.81l1.42-.99c-.7-.17-1.25-.36-1.64-.55-.05-.02-.09-.05-.13-.07-.23-.13-.35-.27-.4-.42-.05-.17.05-.36.34-.55l3.38-2.36 2.32 1.15 1.43-1-2.32-1.15 1.47-1.05zm1.74 5.86a3.5 3.5 0 0 1 1.57-.53 2.8 2.8 0 0 1 1.51.29c.05.03.12.05.16.09.38.22.57.47.6.75.03.32-.19.64-.65.97l-3.19-1.57zm4.88-.96l-.45-.24a7.2 7.2 0 0 0-3.85-.75 7.5 7.5 0 0 0-3.75 1.39c-1.15.8-1.65 1.6-1.51 2.4.11.7.68 1.34 1.69 1.93l.51.28a11.6 11.6 0 0 0 1.78.73c.52.16 1.08.28 1.64.37l1.48-1.03a13.4 13.4 0 0 1-1.82-.4 10.3 10.3 0 0 1-1.56-.61l-.24-.13c-.49-.28-.75-.6-.8-.93-.06-.39.17-.78.7-1.17l5.36 2.64.92-.65c1-.69 1.46-1.39 1.36-2.12-.09-.63-.57-1.2-1.46-1.72zm10.13 5l-.39-.21a4.8 4.8 0 0 0-1.79-.46 6.6 6.6 0 0 0-1.99.15l-.11-.06.83-.99-1.71-.84-6.99 4.89 2.26 1.12 3.56-2.49a3.4 3.4 0 0 1 1.93-.62 4.4 4.4 0 0 1 2.15.51l.29.16c.13.07.24.15.32.22l1.96-1.17-.33-.21z" class="C"/><path d="M64.42 414.98l42.92 24.26c3.12 1.76 6.96 1.61 9.93-.39l14-9.42c2.76-1.85 2.54-6.03-.38-7.59l-41.91-22.29a15.7 15.7 0 0 0-14.96.1l-9.55 5.24a5.8 5.8 0 0 0-.06 10.08z" stroke="#e8e8e8" class="S"/><path opacity=".1" d="M178.27 372.15c21.91 0 39.67-9.06 39.67-20.24s-17.76-20.23-39.67-20.23-39.67 9.06-39.67 20.23 17.76 20.24 39.67 20.24zm105.04-55.62c21.91 0 39.67-9.06 39.67-20.24s-17.76-20.24-39.67-20.24-39.67 9.06-39.67 20.24 17.76 20.24 39.67 20.24z" class="E"/><path d="M241.93 197.13s-1.1.83-1.41 1.22c-.3.39-.32 1.09-.8 2.42-.48 1.34-2.86 4.82-4.35 5.45-1.49.64-4.15-2.78-3.09-5.22s5.69-8.59 5.69-8.59" fill="#f98e75"/><g class="D"><path d="M261.8 148.72s11.88 3.28 12.41 5.48c.36 1.46-1.18 13.95-5.12 23.4a132.8 132.8 0 0 1-10.61-5.42c.7-5.45 3.83-22.88 3.83-22.88"/><path d="M269.83 160.87l-9.07-2.88c.61-10.1 2.34-18.04 3.42-22.16.76-2.91 2.08-5.65 4.04-7.92 1.96-2.29 4.72-4.36 7.89-3.45 6.33 1.79-6.27 36.41-6.27 36.41z"/></g><path d="M226.6 203.64s.86-.97 1.04-1.59.29-1.53 1.03-2.48c.74-.94 2.88-4.66 3.3-4.41s.86 1.33.52 2.77c-.34 1.44-.92 2.39-.95 2.75-.02.37 2.43.42 3.93-.07.82-.28 4.34-1.72 4.96-2.39.57-.01-.81 3.78-1.5 5.2-.5 1.02-3.89 4.58-3.89 4.58" class="B"/><path d="M170.34 336.84s.29 1.25-.11 2.51a8.2 8.2 0 0 1-1.92 3.07 15.4 15.4 0 0 1-3.09 2.6 27.4 27.4 0 0 0-2.59 1.84c-.75.72-1.85 2.44-1.85 2.44v.51s-1.06 1.33-2.57 2.05a6.4 6.4 0 0 1-4.74.28c-1.8-.54-2.15-2.41-2.21-2.79-.06-.38 0-1.78 0-1.78" fill="#f2f2f2"/><path d="M158.8 338.74s3.62-1.18 5.66-2.65c2.81-2.05 4.87-1.52 5.56-.31.72 1.24 1 5.32-4.99 8.87-2.35 1.39-3.4 2.56-4.13 3.71a7.8 7.8 0 0 1-2.81 2.57c-1.01.51-2.12.62-3.12.54-4.1-.34-4.96-4.55-2.96-7.74s6.8-4.98 6.8-4.98z" class="F"/><path d="M203.6 358.69v.16c0 .66-.2 1.32-.62 1.83-1.88 2.24-6.33 3.18-7.25 3.36-.05.02-.11.02-.16.03l-6.55.68c-1.53.17-2.44.43-2.44.43v.28a21.2 21.2 0 0 1-3.46.59h-.02c-1.33.05-2.93-.16-3.75-.84-.25-.23-.85-.92-1.03-1.77v-.08l.02-.67v-.31l3.28-.23 1.64-.12 1.5-.09 1.39-.09 17.45-3.14z" fill="#f2f2f2"/><path d="M189.37 355.18s3.16 1.19 5.45 1.19 6.75-.06 7.89.75c.57.4.9.9.9 1.45-.01 3.11-7.24 4.98-11.58 5.33s-4.57.29-6.63.63c-2.05.35-4.2.51-5.49-.14-2.24-1.13-2.4-4.56-1.02-6.82 1.37-2.25 10.5-2.41 10.5-2.41z" class="F"/><path d="M179.95 352.33l-.21 4.08c-.05.62-.37 1.18-.27 1.73.15.88 2.2 1.76 5.01 1.45s5.1-1.9 5.62-2.77-.27-1.14-.4-1.51c-.21-.58 0-5.73-.38-3.98m-36.73-10.72l-.15 3.13s-.42.73-.26 1.35c.2.85 2.57 2.49 5.82.74 3.64-1.95 3.24-4.84 3.27-5 .19-1.31-.53-.07-.53-1.12" class="B"/><path d="M201.38 287.02c-1.16 10.48-4.85 28.22-6.12 37.14l-3.75 29.44s-1.31 2.1-6.06 2.74c-4.68.63-6.65-2.24-6.65-2.24s-1.56-28.55-1.23-33.74c.33-5.21 1.83-14.77 1.61-19.88-.14-3.67-.11-12.4-1.89-20.1a26.6 26.6 0 0 1-.79 2.19c-2.71 6.2-7.83 19.54-9.26 24.59-1.37 4.92-4.9 33.89-4.9 33.89-.21.44-.7.96-1.45 1.5a12.5 12.5 0 0 1-3.69 1.69c-4.26 1.21-5.74-1.27-5.74-1.27-.51-3.02.24-36.21 1.31-41.94a182.5 182.5 0 0 0 2.49-19.83c.33-5.43 1.98-17.61 1.33-24.69-.25-2.67.04-5.07.53-7 .76-3.21 1.99-5.19 1.99-5.19s40.92 2.27 42.29 8.57a47.4 47.4 0 0 1 .85 6.1c.72 8.6.06 19.7-.86 28.03z" class="D"/><path d="M188.03 169.61a10.2 10.2 0 0 1-2.87 1.24l-.18.05c-.07.02-.15.05-.23.07l-.78.28c-.3.15-.51.32-.6.56-.37.98 0 6.81 0 6.81l-1.82-.63-11.03-3.85s.15-3 0-5.76-.37-17.51 3.25-20.05c3.62-2.55 14.03-.98 15.2.44l1.06 6.44c.71 4.19.06 13.04-2.01 14.41z" class="B"/><path d="M182.22 172.32a5.8 5.8 0 0 1 1.77-1.06c-.3.15-.51.32-.6.56-.37.98 0 6.81 0 6.81l-1.82-.63c-.14-1.86-.28-4.86.64-5.68z" fill="#f1bf9c"/><path d="M181.58 142.38s-4.91-.19-8.15.94c-6.61 2.32-8.14 8.31-7.84 12.49.3 4.24 2.61 7.23 3.19 8.64.59 1.39.64 3.89 1.09 4.69s7.89 2.05 8.68 1.55a10.6 10.6 0 0 0 2.89-4.5c.14-1.19-.05-4.14.24-5.19.3-1.05 1.62-2.4 2.36-2.25s1.18 1.45 1.47 2.74.93 1.29 1.23 1c.3-.3.14-3.54.34-4.54s.59-1.25.49-4.19.78-2.16 2.15-3.84c7.52-7-8.14-7.54-8.14-7.54z" class="G"/><path d="M195.44 215.9v.01l.57 1.18 3.46 6.07.02.01 1.59 1.91c3.38 3.17 7.97 2.38 10.08.01v.01s16.11-15.2 17.76-15.36c1.67-.16 1.61-.28 3.44-.55 1.82-.27 2.68-1.18 2.68-1.18s-3.42-4.86-3.95-7.83c-1.36.88-3.87 3.02-5.54 4.01l-15.94 9.06-1.27-3.05c-.01.04-2.06 4.06-6.33 5.67-4.01 1.56-6.3.2-6.56.05z" class="B"/><path d="M208.71 211.11c-.99 1.06-2.89 2.87-5.23 4.09 3.26-1.86 4.84-4.96 4.86-5l.37.91z" fill="#f4ccb0"/><path d="M177.29 280.39l-.8 2.2c-2.7 6.2-7.83 19.53-9.25 24.59-1.38 4.93-4.9 33.9-4.9 33.9-.2.43-.7.96-1.44 1.49.59-6.96 2.86-29.51 3.73-33.33 1.07-4.7 1.52-6.52 2.89-9.67 1.37-3.17 7.91-18.55 4.16-26.04a42.8 42.8 0 0 1-3.88-11.99c1.33 6.19 7.09 11.23 7.09 11.23l2.4 7.63z" fill="#064093"/><path d="M156.29 252.74c2.49 2.06 20.98 14.3 30.51 14.78.05 0 .11 0 .15.01.65.04 1.27.04 1.87.01 6.42-.29 8.94-4.55 9.94-8.07 0 0 .71-3.22 1.08-3.36.3 0 2.43 6.79 2.66 7.82.49 2.22.33-5.75.04-10.62v-.02c-.16-4.09-.58-10.04-1.61-15.04-1.88-8.96-1.43-15.06-1.43-15.06v-.02l-.02-.02c-.2-.35-2.55-4.3-3.47-6.07-.19-.37-.38-.76-.58-1.17v-.01l.04.01c.01.02.04.02.05.05.02 0 .05.01.1.04.06.04.14.06.24.12.08.05.19.1.31.13.88.31 2.5.64 4.81-.02.33-.08.69-.19 1.04-.34a10.9 10.9 0 0 1 .79-.31c.23-.11.45-.22.67-.36 2.35-1.22 4.24-3.04 5.23-4.09l.8-.91c-2.32-6.77-5.42-12.75-7.17-16.04-2.81-5.22-8.6-8.94-15.83-12.31v-.01c1.62-3.85-.62-7.36-4.54-8.66a71 71 0 0 0-10.07-2.44c-2.82-.49-5.19.83-5.19 3.73-6.03-2.33-9.64.65-11.53 2.53-6.12 6.05-3.51 20.24 2.32 30.5 4.7 8.28 4.62 13.66 2.76 20.96-3.35 13.09-6.91 21.85-3.98 24.28z" class="L"/><path d="M200.16 233.98c-.32-1.67-1.66-5.49-3.8-10.4-2.79-6.4-5.57-11.7-7.83-18.17l5.13 9.33 1.77 1.18s.02.02.04.06c.17.39.35.76.54 1.12.91 1.75 3.25 5.71 3.47 6.07l.02.02c-.01.01-.33 4.23.66 10.79z" fill="#2776cc"/><path d="M174.45 143.41c-2 .54-2.85.84-3.75 1.5-.76.54-2.53 2.3-2.54 3.76-.01 2.58 5.36 4.84 10.16 4.82.91 0 2.69-.39 5.22-1.16 5.59-1.69 11.8-4.93 10.32-11.66 0 0-.8 1.4-1.79 1.61 0 0 1.31-4.38-3.87-6.62.28.12-1.81 2.59-1.94 2.71-2.01 1.78-3.96 2.99-5.84 3.64-1.8.63-1.79.28-5.96 1.41z" class="G"/><path d="M237.85 192.06l-4 3.28c-.8.52-2.01 2-2.62 2.96s-2.63 4.45-2.46 4.77 1.56.73 2.99-.7 1.67-1.2 1.67-1.2 1.35.24 3.7-2.03c2.35-2.28 3.27-4.57 3.27-4.57" fill="#f98e75"/><path d="M259.13 169.46c-3.94 3.71-9.78 9.18-14.48 14.3-4.89 5.33-8.3 8.01-8.3 8.01l5.7 6.86 14.87-10.7 9.81-7.52" class="D"/><path d="M264.07 295.14c2.5.04 9.97-3.1 14.26-5.82h.01v-.01a8.9 8.9 0 0 0 .57-.38 15 15 0 0 0 1-.73c.31-.23.58-.46.8-.68.33-.33.55-.62.67-.89-.04-1.34-.12-2.62-.3-3.79a11.1 11.1 0 0 0-1.11-3.8l-.53-4.94-.17-1.61h-11.11l.24 3.25.31 3.9s-.12.19-.38.56c-.84 1.17-3.28 4.14-8.49 7.82-2.01 1.41-2.18 7.11 4.22 7.11z" class="F"/><path d="M267.54 191.9l-2.81 36.54c.62 19.55 2.65 28.06 3.45 50.61.16 4.56 14.03 6.46 13.7 2.97.93-15.1 1.61-33.85-.5-47.33 2.93-10.65 4.94-27.06 5-37.09l-18.83-5.71z" class="I"/><path d="M287.43 312.85c2.5.03 9.97-3.1 14.26-5.82v-.01a5.4 5.4 0 0 0 .58-.39 11.9 11.9 0 0 0 1-.73 6.5 6.5 0 0 0 .53-.42l.28-.27c.33-.32.56-.62.67-.89-.03-1.34-.11-2.62-.3-3.79-.01-.05-.01-.1-.02-.15a11 11 0 0 0-1.09-3.66l-.52-4.93-.17-1.61h-11.11l.24 3.25.31 3.9s-.12.2-.38.57c-.06.09-.13.18-.22.29-1 1.33-3.45 4.11-8.27 7.53-2.02 1.4-2.18 7.11 4.23 7.11z" class="F"/><path d="M278.49 209.36l4.89 33.85c3.84 19.77 5.23 28.66 7.67 53.57l.05.45c.04.33.17.66.38.97 1.4 1.94 6.15 3.51 9.7 3.29 1.33-.08 2.5-.43 3.27-1.11.24-.21.43-.45.56-.73a2.7 2.7 0 0 0 .34-1.39c-.21-5.13-.23-27.88-.96-35.2-.05-.47-.08-.96-.14-1.44l-.24-2.03c0-.18-.04-.35-.05-.5-.02-.23-.06-.43-.08-.66-.17-1.44-.38-2.89-.63-4.35-.07-.37-.12-.74-.19-1.11 0-.04-.02-.05-.02-.08-.07-.38-.14-.78-.23-1.16-.07-.4-.14-.78-.23-1.17-.08-.37-.15-.74-.25-1.11-.1-.47-.21-.92-.33-1.35-.34-1.33-.72-2.6-1.15-3.79 1.75-10.24 2.02-21.62 1.23-31.26l-.15-1.77c1.88-5.82 1.9-12.11.36-19.41l-5.06-1.27-15.08-3.79-13.93-3.5-.53-.14c-.68 14.35-.22 19.97 10.79 26.15z" class="I"/><path d="M302.25 190.58a77.7 77.7 0 0 1 .02 4.58c-10.68 7.63-32.74-1.65-34.72-8.88.05-1.5-.19-2.97.02-4.94 6.56 9.07 26.69 13.82 34.68 9.24z" class="F"/><path d="M274.18 191.94c1.09.94 2.61 1.51 4.41 2.21v-2.82c-1.67-.68-3.15-1.27-4.41-2.21v2.82z" class="D"/><path d="M267.51 182.67c5.63 7.87 25.26 15.33 34.76 8.25 1.97-1.48 1.38-3.31 1.96-7.69l1.28-12.88c1.37-15.32 1.67-25.1 1.47-30.16v-.02c-.02-.96.12-1.27.06-1.9-3.86-4.62-10.78-9.94-16.35-13.54-7.56-3.46-6.67-3.44-10.68-3-9.26 1.04-14.34 58.37-12.5 60.95z" fill="#f6f6f6"/><path d="M281.44 206.43c.1 3.77 2.4 7.19 5.92 8.49a16.6 16.6 0 0 0 4.23.99 24 24 0 0 0 7.75-.45 32.5 32.5 0 0 0 2.75-.69 51.4 51.4 0 0 0 5.88-2.16l-.68-52.66-.05-4.49-.22-17.19c-3.02-4.15-8.4-8.21-13.18-11.53-5.8 8.04-8.96 22.26-10.79 37.31l-.91 22.78-.7 19.59zm.68-81.48c-4.17 10.9-8.21 19.54-9.18 33.74l-2.89 36.93c.04 3.27 0 9-5.33 6.38l-2.51-1.43 4.03-56.72c1.79-16.62 5.42-23.01 15.88-18.9z" class="D"/><path d="M279.88 134.87c-2.97 7.29-5.5 32.71-6.89 41.58l2.3 4.53 3.13-2.93c-.03-8.21 1.93-33.93 3.49-42.49l2.99-4.44-4.62-1.68-.39 5.42z" class="I"/><path d="M295.4 127.57c1.48 3.59-6.9 9.2-10.93 9.2-1.06-1.59-1.07-4-2.03-5.85-1.33.93-2.83 2.4-4.48 3.57-1.48-11.75 11.83-15.59 14.81-10.74.6.95 2.2 2.78 2.62 3.81z" fill="#6aa8e5"/><path d="M283.75 163.89l-.3-.13 9.84-23.37-4.27-3.51 4.72.53c1.58-3.66 2.25-6.53 2.12-9.01l.32-.02c.14 2.56-.56 5.51-2.19 9.27l-.05.11-.12-.02-3.76-.42 3.61 2.97-.05.11-9.88 23.49zm-11.44-2.68c-.9-11.08-.96-20.96-.18-29.37l.02-.18 3.04.48-2.66-2.09.08-.13 6.8-10.34.11.03 3.13.76-.07.32-3.02-.73-6.6 10.03 3.39 2.67-3.92-.6c-.75 8.36-.69 18.17.2 29.15l-.33.02z" fill="#1d1d1b"/><path d="M279.74 128.91c-.03-.06-.05-.14-.06-.2l-.33-4.28-.35-6.28 12.88-3.28.9 8.3c1.53 8.32-11.61 9.93-13.04 5.73z" class="B"/><path d="M279.74 128.91c-.03-.06-.04-.14-.06-.2l-.76-10.46 10.63-2.63c.65 5.27-4.56 14.64-9.81 13.3z" fill="#ef947f"/><path d="M299.34 215.46l2.75-.69c1.89-.55 3.85-1.28 5.88-2.16l-.68-52.66-.05-4.49-11.2-5.26 6.25 26.07c2.11 14.88 2.48 28.75-2.95 39.18z" fill="#073266"/><path d="M274.43 103.29s-1.65 5.91-1.41 11.63c.24 5.73.4 7.03 2.41 8.41s3.96 1.84 8.06.12 6.8-5.26 6.8-5.26.46.44 2.05-.82c2.47-1.97 3.08-3.07 3.65-6.27s.5-7.35-1.21-11.97-9.46-4.66-13.19-3.51c-3.73 1.16-5.86 4.23-7.15 7.67z" class="B"/><path d="M297.2 99.97c-.03-3.07-3.04-6.1-7.75-6.93 0 0-6-1.52-9.75 1.54-.23.19-.44.36-.65.53-.28 1.24-.48 2.5.26 3.57.64.94 1.85 1.7 2.88 2.1.9.36 1.92.44 2.72 1.03.69.5 1.11 1.32 1.18 2.17.07 1-.32 1.79-.81 2.63-.34.59-.71 1.17-1.08 1.74.4 2.49 2.13 3.11 2.93 3.76.86.72.55 3.75.55 3.75l1.26.09s.46-2.84 1.16-4.2c.7-1.34 3.22-2.02 4.16.29.77 1.89-.61 3.76-1.67 5.09 0 0 2.1 1.09 4.32-8.03.01 0 5.22-5.13.28-9.15z" class="F"/><path d="M313.99 159.9s2.6 12.05 2.6 14.09-6.65 5.57-10.46 4.63c-1.5-.85-6.55-12.81-6.55-12.81" fill="#ffd1a4"/><path d="M310.11 150.3l-.44-3.29.44 3.29zm-1.21-8.45l.04.26.02.02-.06-.28z" fill="#ea6157"/><path d="M308.96 142.16v-.03c-.01-.09-.05-.19-.05-.28l.05.26c-.01-.05-.05-.11-.07-.15a19.3 19.3 0 0 0-.79-1.78l-1.18-2.24-.32-.5c-1.29-.34-2.59-.59-3.93-.62l.05.06c-3.93.13-9.62 2.86-9.59 8.42.01 5.38 8.5 26.43 10.9 32.72 0 0 3.4 2.3 7.41.5 5.23-2.34 6.09-5.79 6.09-5.79a1259.2 1259.2 0 0 0-8.58-30.56z" class="D"/><g class="B"><path d="M307.12 207.05s.14 3.72-.35 4.32-2.02 3.57-2.14 4c-.14.42-.51 2.4-.65 2.78-.14.39.79.98 1.43.17.4-.5.65-1.41.93-2.05s1.15-2.64 1.38-2.28.17 3.06.22 3.74a21.8 21.8 0 0 1-.65 3.7c-.22.88-1.48 4.57-.98 4.77s.93.15 1.58-.84c0 0 1.03.53 1.64-.68 0 0 .92.31 1.49-1.28 0 0 .66-.34.91-.91s2.17-5.36 2.16-7.34-.62-3.27-.52-4.67l.15-7.04-6.61 3.59z"/><path d="M316.58 173.99c.68 1.33-.31 14.32-2.02 24.43-1.7 10.11-1.83 11.8-1.83 11.8l-5.27.03s-.42-8.65-.95-13.98c-.55-5.46-1.18-17.61-1.18-17.61"/></g><path d="M304.04 178.01l1.88 32.34 8.23-.83 3.39-36.79-13.5 5.28z" class="D"/><path d="M283.46 109.16a10.4 10.4 0 0 0-4.38-1.01l-.04-.37c1.51.01 3.08.37 4.53 1.05l-.12.33zm-9.64-1.29l-.15-.36c1.16-.39 2.36-.02 3.42.3l-.06.36c-1-.31-2.15-.66-3.21-.3zm.54 3.58c-.07.5.12.96.41 1.06.3.09.59-.24.66-.73s-.12-.96-.41-1.06c-.29-.08-.59.24-.66.73zm5.45.55c-.07.5.12.96.41 1.06.3.09.59-.24.66-.73s-.12-.96-.41-1.05c-.3-.08-.59.25-.66.73z" fill="#1b1c17"/><path d="M292.2 102.2l1.12-3.17a12.8 12.8 0 0 0-4.69-1.84l-3.9-.61c-2.7-.49-5.7-2.86-8.37-1.05-1.44.98-2.25 2.81-3.83 3.51l-1.69.69c-1.66.72-2.55 2.83-2.09 4.63l.09.3c.58 1.71 1.82 3.03 3.64 2.7 1.06-.19 1.66-.48 2.22-1.33.39-.59.97-1.05 1.66-1.18.83-.17 1.72.03 2.5.38.35.17.7.37 1.07.4 1.14.06 2.08-1.57 3.11-1.07.76.38.69 1.49.69 2.36 0 1.05.39 2.21 1.31 2.65.75.36 1.63.14 2.45.25.61.08 1.17.36 1.7.68.78-2.83 2.01-5.53 3.01-8.3z" class="F"/><g fill="#183862"><path d="M272.11 110.86c.27-1.64 1.45-2.69 2.62-2.35s1.91 1.95 1.63 3.6-1.45 2.69-2.62 2.35c-1.18-.35-1.91-1.96-1.63-3.6zm.22.06c-.25 1.51.4 3 1.46 3.3 1.05.31 2.12-.67 2.37-2.18s-.4-3-1.46-3.3c-1.06-.31-2.13.67-2.37 2.18zm5.86.71c.45-1.83 1.87-2.92 3.17-2.42s1.98 2.39 1.53 4.22-1.87 2.92-3.17 2.42-1.98-2.39-1.53-4.22zm.2.07c-.43 1.72.2 3.48 1.38 3.93s2.5-.58 2.92-2.29-.2-3.48-1.38-3.93-2.5.58-2.92 2.29z"/><path d="M276.28 111.99l1.89.28.01-.21-1.9-.28v.21zm13.62.23c-.02.04-.03.07-.05.12l-6.91.74.04-.25 6.99-.73-.07.11z"/></g><path d="M291.28 114.19l-.29-.15c.1-.2.97-1.95 1.94-1.77l-.06.32c-.03-.01-.05-.01-.08-.01-.59 0-1.29 1.15-1.51 1.61z" class="F"/><g fill="#1b1c17"><path d="M277.98 119.43c-1 0-1.74-.55-1.77-.57l.19-.27c.08.06 2.13 1.55 3.89-.86l.26.19c-.62.85-1.36 1.35-2.17 1.47-.14.03-.27.04-.4.04z"/><path d="M279.9 117.46c.39.19.73.44 1.02.76a3.5 3.5 0 0 1-1.02-.76z"/></g><path d="M270.25 171.77c.62 3.31-.91 8.25-3.41 8.73s-5.56-1.69-6.17-5 .91-6.39 3.42-6.86 5.55-.18 6.16 3.14z" class="D"/><g stroke-width=".25" class="S"><path d="M263.58 181.31s1.35-21.79 2.09-26.96" stroke="#1d1d1b"/><path d="M277.1 112.31s-.61 4.49-.08 4.49 1.48-.84 1.48-.84" stroke="#1b1c17"/></g><path d="M153.32 191.8s5.28 33.62 3.51 40.99c-1.23 5.17-2.05 12.34-2.43 16.19-.16 1.64.62 3.24 1.99 4.11l8.38 5.31 16.9-30.96-6.28-27.75-22.08-7.89z" class="L"/><path d="M164.98 175.97l6.56 2.52 6.62 2.31a18.1 18.1 0 0 1-3.48-.61c-1.15-.28-2.26-.69-3.37-1.1-2.18-.86-4.32-1.87-6.32-3.13z" fill="#58a3f4"/><path d="M92.76 361.75l-3.09-1.54-4.81 3.35-5.79-2.89 4.81-3.34-3.09-1.55-12.3 8.53 3.1 1.55 5.3-3.69 5.79 2.89-5.3 3.68 3.09 1.54 12.29-8.53zm-3.65 10.91c-.54-.32-.77-.67-.69-1.06.1-.44.54-.93 1.34-1.48a5.8 5.8 0 0 1 2.23-1.01c.69-.12 1.39-.01 2.08.34l.24.13c.53.31.75.66.67 1.03-.09.43-.52.92-1.32 1.47s-1.54.89-2.25 1.02a3.3 3.3 0 0 1-2.1-.32l-.2-.12zm7.26-4.14l-.5-.27a8.6 8.6 0 0 0-4.51-.94 8.4 8.4 0 0 0-4.26 1.5c-.84.59-1.38 1.18-1.64 1.81-.24.62-.2 1.23.16 1.81a3.9 3.9 0 0 0 1.42 1.28l.5.27a8.7 8.7 0 0 0 4.51.94 8.4 8.4 0 0 0 4.28-1.51 4.3 4.3 0 0 0 1.63-1.8c.25-.62.2-1.22-.17-1.8a4 4 0 0 0-1.42-1.29zm12.1 6.03l-.47-.25a7.2 7.2 0 0 0-2.03-.66 6 6 0 0 0-2.06.01l-.15-.07.67-.88-1.97-.99-7.99 5.55 2.59 1.29 3.75-2.61a6.5 6.5 0 0 1 2.51-1.17 3.5 3.5 0 0 1 2.18.36l.18.1c.41.24.59.5.54.78-.04.32-.35.69-.93 1.08l-4.66 3.24 2.6 1.29 5.2-3.62c.95-.65 1.38-1.3 1.32-1.94-.05-.53-.49-1.05-1.29-1.52zm4.45 6.06a4.1 4.1 0 0 1 1.78-.6 3.3 3.3 0 0 1 1.74.34l.19.1c.43.25.65.53.68.85.03.36-.22.74-.74 1.12l-3.65-1.82zm5.57-1.06c-.16-.1-.34-.19-.53-.28a8.4 8.4 0 0 0-4.41-.88 8.5 8.5 0 0 0-4.3 1.56c-1.3.9-1.87 1.82-1.73 2.74.13.79.77 1.52 1.9 2.19l.62.34c.74.38 1.42.65 2.03.84s1.24.33 1.87.43l1.69-1.17a17.5 17.5 0 0 1-2.08-.47 11.8 11.8 0 0 1-1.78-.71l-.3-.16c-.55-.32-.85-.68-.9-1.06-.06-.44.2-.89.8-1.33l6.13 3.06 1.06-.73c1.13-.79 1.65-1.6 1.54-2.41-.06-.71-.62-1.36-1.62-1.95zm9.7 4.84a8.5 8.5 0 0 0-.66-.36 8.5 8.5 0 0 0-3.37-.98c-1.05-.05-1.93.16-2.63.65-.42.29-.69.57-.81.85-.14.27-.14.57-.01.9a4.9 4.9 0 0 0 .9 1.3l.75.94a1.8 1.8 0 0 1 .29.58c.01.14-.06.27-.23.39-.46.32-1.15.25-2.1-.22l-.37-.2a8.3 8.3 0 0 1-1.02-.72c-.47-.39-.86-.77-1.15-1.15l-1.79 1.25a5.7 5.7 0 0 0 1.02.92l.68.44.98.52c1.36.67 2.58 1.03 3.68 1.06a4.6 4.6 0 0 0 2.89-.8c.4-.27.66-.55.78-.83s.12-.58-.01-.91a4.5 4.5 0 0 0-.92-1.3 6.9 6.9 0 0 1-.98-1.25c-.1-.22-.06-.4.14-.54.34-.24.91-.17 1.67.21l.37.2c.28.17.52.35.74.54.31.28.61.61.91.95l2.35-.7a8.6 8.6 0 0 0-2.09-1.73zm19.05 4.53l-11.04-5.51-2.17 1.5 3.97 1.98-10.12 7.02 3.1 1.55 10.11-7.03 3.97 1.98 2.17-1.5zm-5.99 9.92c-.64-.38-.68-.76-.12-1.15.42-.29.93-.43 1.51-.38.58.04 1.25.24 2.02.61l1.04.48-.66.46a3.2 3.2 0 0 1-1.7.53c-.64.03-1.28-.12-1.87-.41-.08-.06-.15-.09-.22-.13zm8.17-3.88l-.65-.35c-1.33-.67-2.79-1.1-4.35-1.31l-.62 1.45c1.42.25 2.5.55 3.26.93l.22.12c.78.46.8.95.05 1.47l-.34.24-1.69-.79c-1.47-.68-2.75-1.06-3.86-1.13a4.5 4.5 0 0 0-2.93.77c-.81.56-1.18 1.13-1.1 1.69.07.49.45.93 1.13 1.33l.37.2a7.4 7.4 0 0 0 2.08.71c.64.1 1.41.1 2.31 0l.07.04-.59 1.01 1.82.91 5.32-3.7c.95-.66 1.32-1.33 1.1-1.99-.18-.54-.71-1.07-1.59-1.6zm11.53 2.18l-2.6-1.29-11.12 7.73 2.6 1.29 11.12-7.73zm-1.38 6.72a4.1 4.1 0 0 1 1.78-.6 3.2 3.2 0 0 1 1.74.34l.21.11c.42.25.64.53.67.84.03.37-.22.73-.75 1.12l-3.65-1.82zm5.57-1.06c-.16-.1-.34-.19-.52-.28a8.4 8.4 0 0 0-4.41-.88c-1.53.11-2.95.63-4.3 1.56-1.3.9-1.87 1.82-1.73 2.73.14.79.76 1.52 1.9 2.19a6.6 6.6 0 0 0 .63.34l2.03.85a12.9 12.9 0 0 0 1.88.43l1.68-1.18c-.77-.13-1.47-.28-2.08-.47a11.7 11.7 0 0 1-1.77-.71l-.3-.16c-.55-.32-.85-.68-.91-1.06-.05-.45.21-.89.8-1.33l6.13 3.06 1.06-.74c1.13-.79 1.65-1.6 1.54-2.41-.06-.72-.61-1.36-1.62-1.95zm11.71 5.85l-.47-.26c-.64-.32-1.32-.54-2.02-.66a6.1 6.1 0 0 0-2.08.01l-.13-.07.67-.88-1.98-.99-7.99 5.55 2.59 1.29 3.75-2.61a6.5 6.5 0 0 1 2.51-1.17 3.5 3.5 0 0 1 2.19.37l.18.1c.41.24.59.5.55.78-.06.32-.35.68-.93 1.08l-4.66 3.24 2.59 1.29 5.21-3.62c.94-.66 1.39-1.3 1.32-1.94-.05-.55-.48-1.06-1.29-1.53zm10.01 3.12l-1.66-.83-2.43.8-2.16-.2-.92.64 1.24.62-3.85 2.68c-.88.62-1.3 1.18-1.28 1.73.03.46.42.91 1.15 1.34l.46.25a10.2 10.2 0 0 0 2.75.94l1.62-1.13c-.81-.2-1.43-.41-1.89-.64l-.14-.07c-.25-.15-.41-.31-.46-.49-.05-.2.07-.41.37-.63l3.85-2.67 2.66 1.32 1.64-1.14-2.66-1.32 1.71-1.18zm171.96-7.08s-.18.93.07 1.87a6.3 6.3 0 0 0 1.21 2.29c.52.69 1.37 1.51 1.96 1.94a14.8 14.8 0 0 1 1.64 1.38c.48.54 1.17 1.83 1.17 1.83v.39a5.5 5.5 0 0 0 1.63 1.52c.72.39 1.71.67 3 .2 1.14-.4 1.37-1.8 1.4-2.08s0-1.33 0-1.33" class="C"/><path d="M366.14 406.11s-2.29-.87-3.58-1.98c-1.78-1.52-3.09-1.14-3.53-.23-.45.93-.63 3.96 3.17 6.62a7.6 7.6 0 0 1 2.62 2.77 5.4 5.4 0 0 0 1.78 1.92c.64.38 1.34.47 1.98.4 2.6-.26 3.14-3.4 1.87-5.77-1.26-2.39-4.31-3.73-4.31-3.73z" class="G"/><path d="M337.74 421.01v.11a2.4 2.4 0 0 0 .39 1.36c1.2 1.67 4.01 2.37 4.6 2.51.03.01.07.02.1.02 1.59.29 3.38.41 4.15.5a9.2 9.2 0 0 1 1.55.32v.21a11.4 11.4 0 0 0 2.19.44h.01c.84.04 1.85-.11 2.37-.63.16-.17.54-.68.65-1.32v-.06l-.01-.5v-.23l-2.07-.17-1.03-.08-.95-.07-.88-.07-11.07-2.32z" class="C"/><path d="M346.75 418.38s-2.01.89-3.46.89-4.28-.05-5 .56c-.36.3-.57.67-.57 1.08.01 2.32 4.59 3.73 7.35 3.98l4.21.48c1.3.26 2.66.39 3.48-.1 1.42-.83 1.52-3.4.65-5.09s-6.66-1.8-6.66-1.8z" class="G"/><path d="M352.73 416.25l.14 3.05c.03.46.24.87.17 1.29-.09.66-1.39 1.31-3.18 1.08-1.78-.24-3.24-1.42-3.56-2.06-.33-.65.17-.85.25-1.12.14-.43 0-4.28.24-2.97m23.29-8.02l.1 2.34s.26.54.17 1.01c-.13.63-1.63 1.85-3.69.56-2.31-1.45-2.05-3.61-2.07-3.73-.13-.98.34-.06.34-.83" class="B"/><path d="M339.15 367.51c.73 7.82 3.08 21.06 3.88 27.71l2.38 21.97s.83 1.57 3.84 2.05c2.97.48 4.22-1.67 4.22-1.67s.99-21.31.78-25.18c-.21-3.89-1.16-11.02-1.02-14.83.09-2.74.06-9.25 1.19-15 .16.61.33 1.16.5 1.63 1.72 4.63 4.97 14.58 5.87 18.35.87 3.67 3.1 25.29 3.1 25.29.14.33.44.73.91 1.12.58.48 1.38.94 2.34 1.26 2.7.9 3.65-.94 3.65-.94.32-2.26-.15-27.02-.83-31.29a157 157 0 0 1-1.57-14.79c-.21-4.06-1.26-13.14-.84-18.43a18.2 18.2 0 0 0-.33-5.23c-.48-2.4-1.27-3.87-1.27-3.87s-25.94 1.69-26.81 6.4c-.25 1.34-.43 2.88-.53 4.55-.45 6.41-.04 14.7.55 20.91z" class="I"/><path d="M354.42 362.57l.51 1.64a243.5 243.5 0 0 1 5.86 18.35c.88 3.68 3.11 25.3 3.11 25.3.13.32.44.72.91 1.11-.37-5.19-1.81-22.03-2.36-24.87-.68-3.5-.96-4.86-1.83-7.22-.86-2.37-5.01-13.84-2.63-19.44 1.55-3.66 2.2-7.05 2.46-8.96-.84 4.62-4.5 8.39-4.5 8.39l-1.54 5.7z" fill="#043060"/><path d="M304.45 304.83c-.06.21-.03.43.11.61l10.96 14.22c.25.31.67.41.98.22l17.98-11.47c.25-.16.31-.53.1-.81l-11.4-14.78c-.22-.29-.6-.38-.88-.2l-16.92 10.79.06.22-.71.36-.27.84z" class="Q"/><path d="M335.13 308l-17.98 11.46c-.31.19-.73.1-.98-.22l-11.34-14.71c-.22-.28-.17-.66.1-.83l18.02-11.49c.27-.17.66-.09.88.19l11.4 14.79c.21.27.16.65-.1.81z" class="R"/><path d="M334.19 307.88l-16.87 10.76c-.29.18-.69.09-.91-.2l-10.64-13.8c-.2-.27-.16-.62.09-.78l16.9-10.78c.25-.17.62-.08.82.18l10.7 13.88c.2.25.15.6-.09.75z" class="H"/><path d="M307.63 304.85l.45.6 8.14-5.18-.46-.6-8.12 5.18zm.9 1.17l.46.6 8.13-5.19-.46-.59-8.13 5.18zm.91 1.18l.45.59 8.13-5.17-.45-.6-8.13 5.18zm.9 1.16l.46.6 10.95-6.96-.45-.6-10.96 6.96zm.91 1.19l.45.6 10.95-6.98-.46-.6-10.94 6.97zm5.42-1.71l.46.6 6.43-4.1-.45-.59-6.43 4.09zm-3.62 4.05l.46.6 10.95-6.97-.46-.6-10.95 6.97zm.91 1.18l.46.59 10.95-6.98-.46-.59-10.95 6.98zm.91 1.17l.44.6 10.96-6.97-.45-.6-10.95 6.96zm.89 1.17l.46.6 10.96-6.98-.46-.6-10.96 6.97zm.91 1.17l.45.59 10.96-6.97-.46-.59-10.95 6.97zm2.69-19.2l4.16 5.4c.04.05.1.05.15.03l3.46-2.2c.05-.04.07-.12.03-.17l-4.16-5.4c-.04-.05-.1-.06-.15-.03l-3.46 2.2c-.06.05-.07.13-.03.17zm-2.71 1.98l2.22 2.87c.04.06.12.06.17.03l1.8-1.15c.06-.04.08-.13.04-.19l-2.22-2.87c-.04-.05-.12-.06-.17-.03l-1.8 1.15c-.06.05-.08.13-.04.19z" class="C"/><path d="M316.92 315.25s-.66-.74-.81-1.22c-.14-.48-.23-1.18-.8-1.91-.58-.73-2.22-3.6-2.55-3.4s-.66 1.03-.4 2.14.71 1.83.73 2.12-1.36.14-2.51-.25c-.63-.21-2.28-2.64-2.75-3.16-.43-.01-.14 3.84.12 4.86.22.84 2.45 4.19 2.45 4.19" class="B"/><path d="M342.31 271.89s-1.01 3.82 1.5 6.2c2.51 2.39 1.41-5.2 1.41-5.2" fill="#300e70"/><g class="B"><path d="M357.73 300.17l-8.69-1.02-1.31.46s.54-4.83.14-8.48c-.03-.25-.42-.56-.92-.86-2.29-1.37-3.86-3.74-4.02-6.43l-.02-3.75.44-6.78c.86-1.03 8.71-.05 11.33 1.8 2.62 1.84 2.46 12.52 2.35 14.52s0 6.75 0 6.75l.7 3.8zm-22.27 8.52s-.76-.47-1.19-.51-1.07 0-1.79-.39-3.49-1.38-3.37-1.71.78-.76 1.79-.72 1.71.33 1.96.3-.11-1.23-.63-2.19c-.29-.53-2.48-3.41-3-3.74-.08-.39 3.1 1.05 4.05 1.1.77.05 4.04 1.49 4.04 1.49"/><path d="M352.54 323.95c2.29-2.24 3.1-3.34.16-6.15h.01s-13.36-10.09-13.67-11.21c-.33-1.13-.17-1.35-.6-2.57-.41-1.22-1.14-1.69-1.14-1.69s-2.81 2.98-4.73 3.74l3.4 3.29c.9 1.06 6.11 7.62 9.01 11.05"/></g><path d="M363.88 325.3c-.42 5.95 2.58 11.81 2.58 11.81s-6.39 5.09-16.45 6.44c-7.44 1.01-12.15-1.95-12.15-1.95s1.18-5.97 1.66-10.86a30.4 30.4 0 0 0 .2-4.23c-.09-1.92-.58-5.53-1.03-9.29-.62-5.11-1.16-10.53-.51-12.53 1.12-3.48 9.58-8.92 9.58-8.92s10.14.7 9.91-2.25c0 0 5.49-.83 8.02.38 2.52 1.19 2.94 8.22 2.16 14.11-.74 5.9-3.56 11.3-3.97 17.27z" class="C"/><path d="M347.74 311.4s-1.57 7.67-3.72 13.95c0 0-.85.06-2.07 0l-2.42 5.39c.16-1.62.25-3.09.2-4.23-.09-1.92-.58-5.53-1.03-9.29l.4-1.36 8.64-4.46z" fill="#eaeaea"/><path d="M342.44 320.76s-3.9 7.91-5.46 10.32c-1.94 3.01-2.96 4.15-6.61 1.46v.01s-13.7-12.76-14.98-12.88c-1.29-.13-1.49.08-2.91-.13-1.4-.2-2.06-.92-2.06-.92s2.64-3.75 3.05-6.04c1.04.68 2.99 2.33 4.27 3.09 1.33.79 9.51 5.21 13.82 7.73.34-.81 1.76-5.05 2.06-5.8.02.03 8.62 3.28 8.82 3.16z" class="B"/><path d="M338.19 304.7l-5.61 14.1s4.76 5 9.94 5c0 0 5.42-10.33 5.72-15.01" class="C"/><path d="M357.66 291.8l.49 1.67s0 1.72-1.88 2.49c-3.21 1.3-7.99.62-9.14.27l.71-2.26c-.01-.01 6.56.96 9.83-2.17z" fill="#eaeaea"/><g class="G"><path d="M362.8 276.32c-.81-5.73-5.07-10.64-14.57-9.03-1.99.34-6.39 2.09-5.94 5.73a3.7 3.7 0 0 0 .52 1.54c-.55 2.02-.62 5.87 5.63 8.98-.11 1.12.59 1.32.83 3.27.38 3.04 3.28 5.01 7.14 4.43 3.05-.45 7.84-4.62 6.4-14.91zm-14.59 10.58s.68 6.54-2.12 9.67c0 0 .76 1.84 6.76.18"/><path d="M361.92 273.08s2.22 4.78 1.47 13.38c-.33 3.75-2.57 7.1-5.94 8.67-1.87.86-4.25 1.7-7.14 2.19 0 0-2.62-9.48-2.56-16.67"/></g><path d="M523.93 481.19s-.19.95.07 1.91.71 1.63 1.24 2.33c.52.7 1.39 1.54 1.99 1.96a15.5 15.5 0 0 1 1.66 1.39 13.2 13.2 0 0 1 1.19 1.85v.39s.69 1.01 1.65 1.55c.72.4 1.74.68 3.06.2 1.16-.41 1.38-1.84 1.43-2.12.04-.28 0-1.35 0-1.35" fill="#939393"/><path d="M531.38 482.64s-2.33-.89-3.65-2.02c-1.81-1.55-3.14-1.16-3.59-.24-.46.94-.64 4.04 3.22 6.73 1.52 1.06 2.19 1.95 2.66 2.82.36.67 1.05 1.49 1.82 1.95.65.39 1.37.48 2.01.41 2.64-.26 3.19-3.45 1.91-5.87s-4.38-3.78-4.38-3.78z" class="E"/><path d="M502.49 497.78v.12c0 .5.13 1 .4 1.39 1.21 1.7 4.08 2.41 4.68 2.55.04.01.07.02.11.02 1.62.3 3.44.41 4.23.51.99.13 1.57.33 1.57.33v.21c.31.09 1.34.38 2.24.44h.01c.86.04 1.89-.12 2.42-.64.16-.18.55-.7.66-1.35v-.06-.51-.24l-2.11-.17-1.05-.09-.97-.07-.9-.07-11.27-2.35z" fill="#939393"/><path d="M511.66 495.11s-2.04.91-3.51.91-4.35-.05-5.09.57c-.37.31-.58.68-.58 1.1.01 2.36 4.67 3.79 7.47 4.05l4.28.49c1.33.27 2.71.38 3.55-.1 1.45-.85 1.55-3.46.66-5.18-.9-1.72-6.79-1.84-6.79-1.84z" class="E"/><path d="M517.74 492.95l.13 3.1c.03.47.24.89.18 1.31-.1.67-1.42 1.34-3.23 1.1s-3.29-1.44-3.62-2.1.17-.86.26-1.14c.14-.44 0-4.35.25-3.02m23.68-8.15l.1 2.38s.27.55.17 1.03c-.13.64-1.66 1.88-3.75.57-2.35-1.48-2.09-3.67-2.11-3.79-.13-.99.34-.06.34-.85" class="B"/><path d="M503.92 443.37c.75 7.96 3.13 21.42 3.94 28.19l2.43 22.35s.84 1.6 3.91 2.08c3.01.48 4.29-1.7 4.29-1.7s1-21.68.8-25.61c-.21-3.95-1.18-11.21-1.04-15.09.1-2.78.06-9.41 1.22-15.25a21.2 21.2 0 0 0 .51 1.66c1.75 4.71 5.05 14.83 5.97 18.66.89 3.74 3.16 25.72 3.16 25.72.14.33.45.73.93 1.14a7.7 7.7 0 0 0 2.38 1.29c2.74.92 3.71-.96 3.71-.96.33-2.29-.15-27.48-.85-31.83a159.8 159.8 0 0 1-1.6-15.05c-.21-4.13-1.28-13.37-.85-18.74.16-2.03-.03-3.85-.33-5.31-.49-2.44-1.29-3.95-1.29-3.95s-26.38 1.72-27.27 6.51c-.25 1.37-.43 2.94-.54 4.63-.49 6.52-.06 14.95.53 21.26z" class="E"/><path d="M519.46 438.34a20.7 20.7 0 0 0 .52 1.67 245.2 245.2 0 0 1 5.96 18.67c.89 3.74 3.17 25.73 3.17 25.73.13.32.45.73.93 1.13-.38-5.28-1.85-22.4-2.41-25.3a39.3 39.3 0 0 0-1.86-7.34c-.88-2.4-5.09-14.08-2.68-19.78 1.58-3.73 2.24-7.18 2.51-9.1-.86 4.7-4.57 8.52-4.57 8.52l-1.56 5.8z" fill="#010405"/><path d="M468.63 379.61c-.06.21-.03.44.11.62l11.15 14.47c.25.32.69.42 1 .22l13.77-9.02c.26-.17.31-.54.1-.82l-11.6-15.04c-.23-.29-.62-.39-.89-.2l-12.69 8.33.06.22-.73.36-.27.86z" class="Q"/><path d="M495.32 385.49l-13.77 9.01c-.31.2-.74.1-1-.22l-11.54-14.97c-.22-.28-.17-.68.1-.85l13.81-9.04c.28-.17.67-.09.9.2l11.6 15.05c.21.28.16.64-.1.82z" class="R"/><path d="M494.38 385.36l-12.64 8.3c-.29.18-.7.09-.93-.21l-10.82-14.04c-.21-.27-.16-.63.09-.8l12.68-8.31c.26-.17.63-.08.83.18l10.88 14.11c.19.26.15.62-.09.77z" class="H"/><path d="M471.87 379.63l.46.61 8.27-5.27-.46-.61-8.27 5.27zm.92 1.19l.47.61 8.27-5.27-.47-.6-8.27 5.27zm.92 1.19l.47.61 8.27-5.27-.46-.61-8.28 5.27zm.92 1.2l.46.6 11.14-7.08-.46-.6-11.14 7.08zm.93 1.19l.46.61 11.14-7.09-.47-.61-11.13 7.08zm5.5-1.74l.47.61 6.54-4.17-.47-.6-6.54 4.16zm-3.67 4.12l.46.61 11.14-7.08-.46-.61-11.14 7.08zm.92 1.21l.47.6 11.14-7.09-.47-.6-11.14 7.09zm.92 1.19l.46.61 11.15-7.09-.47-.6-11.14 7.09zm.91 1.19l.46.6 11.15-7.09-.46-.61-11.15 7.09zm.92 1.2l.46.6 11.15-7.09-.47-.6-11.14 7.09zm-.02-17.53l2.25 2.93c.04.06.12.06.17.03l1.83-1.17c.06-.05.08-.13.04-.19l-2.25-2.93c-.05-.06-.12-.06-.17-.03l-1.83 1.17c-.06.05-.08.14-.04.19z" class="C"/><g class="B"><path d="M481.32 390.21s-.67-.76-.81-1.25-.23-1.2-.81-1.94-2.25-3.65-2.59-3.46c-.34.2-.67 1.05-.41 2.17s.72 1.87.74 2.16-1.38.14-2.55-.26c-.64-.22-2.32-2.69-2.8-3.21-.44-.01-.14 3.9.12 4.95.22.86 2.49 4.27 2.49 4.27m48.14-18.76l-8.85-1.04-1.33.47s.55-4.91.14-8.63c-.03-.25-.42-.57-.94-.87-2.33-1.39-3.93-3.81-4.08-6.54l-.02-3.82.44-6.9c.87-1.05 8.87-.05 11.52 1.83 2.67 1.86 2.5 12.73 2.4 14.76a137 137 0 0 0 0 6.87l.72 3.87z"/><path d="M498.32 388.79s-.79-.41-1.23-.42-1.06.08-1.81-.26-3.58-1.12-3.49-1.45c.09-.34.72-.82 1.73-.84 1.01-.03 1.74.2 1.98.16s-.2-1.22-.79-2.15c-.33-.5-2.66-3.26-3-3.76-.11-.39 2.88.86 3.84 1.06.76.16 4.14 1.18 4.14 1.18"/><path d="M516.46 402.73c2.12-2.4 2.86-3.56-.28-6.14h.01s-14.04-9.08-14.45-10.17c-.41-1.1-.27-1.33-.78-2.51-.5-1.18-1.26-1.6-1.26-1.6s-2.59 3.18-4.45 4.07c.82.76 2.68 2.08 3.63 3.04.98.98 6.64 7.14 9.78 10.35"/></g><path d="M529.08 400.43c-.43 6.06 2.62 12.01 2.62 12.01s-6.5 5.18-16.73 6.55c-7.56 1.03-12.36-1.99-12.36-1.99s1.19-6.07 1.69-11.05a31.5 31.5 0 0 0 .2-4.3c-.09-1.95-.59-5.62-1.05-9.44-.62-5.19-1.18-10.71-.52-12.74 1.14-3.54 9.75-9.07 9.75-9.07s10.32.71 10.08-2.29c0 0 5.58-.84 8.15.39 2.57 1.21 3 8.36 2.21 14.36-.77 5.99-3.63 11.49-4.05 17.56z" class="L"/><path d="M512.67 386.29s-1.6 7.8-3.78 14.2c0 0-.86.06-2.11 0l-2.46 5.48a31.5 31.5 0 0 0 .2-4.3c-.09-1.95-.59-5.62-1.05-9.44l.41-1.38 8.8-4.55z" fill="#1f72cc"/><path d="M507.27 395.81s-3.97 8.05-5.56 10.51c-1.98 3.06-3.01 4.22-6.73 1.49v.01s-13.94-12.98-15.23-13.1c-1.31-.13-1.52.08-2.95-.13s-2.1-.94-2.1-.94 2.69-3.81 3.1-6.14c1.06.69 3.04 2.37 4.34 3.15 1.35.8 9.67 5.3 14.06 7.86.35-.82 1.79-5.13 2.1-5.9a149.4 149.4 0 0 0 8.97 3.2z" class="B"/><path d="M502.95 379.48l-5.71 14.33s4.84 5.09 10.12 5.09c0 0 5.51-10.51 5.82-15.28" class="L"/><path d="M522.75 366.35l.5 1.7s0 1.75-1.92 2.52c-3.27 1.32-8.12.63-9.3.28l.72-2.3c.01 0 6.69.99 10.01-2.2z" fill="#5699d1"/><g class="G"><path d="M527.99 350.6c-.82-5.83-5.16-10.83-14.82-9.19-2.03.35-6.5 2.13-6.04 5.83.08.65.27 1.16.52 1.57 2.36.06 3.66.88 5.25 9.36-.11 1.14 1.07 1.11 1.32 3.09.39 3.09 3.33 5.09 7.27 4.5 3.1-.46 7.98-4.7 6.5-15.17z"/><path d="M528.2 353.38s3 26.38 2.24 35.13a10.7 10.7 0 0 1-6.04 8.82l-.35.15c-5.02 2.04-10.49-1.76-10.63-7.24l-.74-35.23m-3.23-12.19s-4.66 2.65-4.11 7.19l7.84.44-3.73-7.63z"/></g><path d="M394.57 317.55c-.08.22-.06.47.07.66l10.77 16.13c.24.36.7.5 1.03.3l12.02-6.64c.29-.16.36-.55.16-.85l-11.2-16.77c-.22-.33-.62-.45-.93-.29l-10.82 5.99.05.24-.8.33-.35.9z" class="Q"/><path d="M419.19 327.62l-12.01 6.63c-.34.18-.8.06-1.03-.31l-11.15-16.69c-.21-.32-.13-.72.16-.89l12.05-6.66c.31-.17.71-.05.93.27l11.2 16.79c.2.31.13.71-.16.86z" class="R"/><path d="M418.2 327.41l-10.77 5.96c-.33.17-.74.05-.97-.29L396 317.41c-.2-.29-.13-.68.15-.83l10.8-5.98c.29-.16.67-.05.87.26l10.51 15.75c.19.29.13.66-.14.82z" class="H"/><g class="C"><path d="M397.99 317.79l.45.68 5.82-3.17-.45-.67-5.82 3.16zm.89 1.33l.45.68 5.82-3.17-.45-.68-5.82 3.17zm1.78 2.66l.44.67 8.98-4.88-.44-.67-8.99 4.88zm.89 1.34l.44.68 8.98-4.89-.44-.67-8.99 4.88zm10.83-3.99l.45.67-5.83 3-.45-.67 5.83-3zm-9.05 6.66l.45.67 8.99-4.88-.45-.67-8.98 4.88z"/><use href="#F"/><path d="M405.11 328.45l.44.68 8.99-4.89-.45-.67-8.98 4.88z"/><use href="#F" x="1.77" y="2.66"/><path d="M406.88 331.11l.44.67 8.99-4.88-.45-.67-8.98 4.88z"/></g><g class="B"><path d="M404.34 332.05s-.21-.97-.1-1.45.38-1.13.23-2.04c-.14-.91-.18-4.19-.56-4.19-.38 0-1.06.56-1.38 1.64-.31 1.09-.26 1.94-.39 2.19-.12.25-1.77-.64-2.59-1.54-.44-.5-1.3-2.75-1.47-3.42-.37-.22-1.47 3-1.75 4.02-.23.83.76 4.49.76 4.49"/><path d="M412.48 352.07c-.21-1.04-.21-2.09-.29-3.14l-.26-3.46c-.01-.27.13-.42.32-.48l-7.42-12.16c-.74-1.29-1.62-3.68-2.2-4.77-1.46 1.77-5.53 3.7-5.53 3.7s.23.94 1.34 1.81c1.1.87 1.39.8 2.43 1.54s6.71 18.49 6.71 18.49v-.01a5.5 5.5 0 0 0 6.71 3.84c.01 0 .02-.01.03-.01-.62-1.79-1.47-3.5-1.85-5.35z"/></g><path d="M440.87 441.99s-.22.95.08 1.92c.31.96.84 1.64 1.47 2.34a12.1 12.1 0 0 0 2.36 1.98 18.8 18.8 0 0 1 1.97 1.4 13.7 13.7 0 0 1 1.4 1.86v.39a6.3 6.3 0 0 0 1.96 1.56 4.9 4.9 0 0 0 3.62.21c1.38-.41 1.64-1.84 1.68-2.13s0-1.36 0-1.36" fill="#f4f4f4"/><path d="M449.68 443.45s-2.76-.89-4.32-2.03c-2.14-1.56-3.71-1.17-4.24-.24-.54.94-.76 4.06 3.81 6.76 1.8 1.06 2.6 1.95 3.15 2.83a6 6 0 0 0 2.15 1.96 4.4 4.4 0 0 0 2.38.41c3.13-.26 3.78-3.47 2.26-5.9-1.53-2.43-5.19-3.8-5.19-3.8z" class="E"/><path d="M415.49 458.68v.12a2.2 2.2 0 0 0 .47 1.39c1.44 1.71 4.83 2.42 5.53 2.56.04.01.08.02.13.02 1.92.3 4.06.42 5 .52 1.17.13 1.86.33 1.86.33v.21c.36.09 1.58.39 2.64.45h.01c1.01.04 2.24-.12 2.86-.64a2.8 2.8 0 0 0 .79-1.35v-.06l-.01-.51v-.24l-2.5-.17-1.25-.09-1.14-.07-1.06-.07-13.33-2.39z" fill="#f4f4f4"/><path d="M426.34 455.99s-2.42.91-4.16.91-5.15-.05-6.02.58c-.43.31-.69.69-.68 1.11.01 2.37 5.53 3.81 8.84 4.07l5.06.49c1.57.27 3.2.39 4.19-.11 1.71-.86 1.83-3.48.78-5.2-1.04-1.73-8.01-1.85-8.01-1.85z" class="E"/><path d="M433.54 453.81l.16 3.12c.04.47.28.9.21 1.32-.12.67-1.67 1.35-3.82 1.1-2.14-.24-3.9-1.45-4.29-2.11s.21-.87.31-1.15c.16-.44 0-4.38.29-3.04m28.02-8.18l.12 2.4s.32.55.2 1.03c-.15.65-1.96 1.89-4.44.57-2.78-1.49-2.47-3.69-2.49-3.82-.14-1 .41-.06.41-.85" class="B"/><path d="M417.18 403.97c.89 7.99 3.7 21.53 4.67 28.34l2.87 22.46s1 1.6 4.62 2.09c3.56.49 5.08-1.71 5.08-1.71l.94-25.75c-.25-3.97-1.39-11.28-1.22-15.17.12-2.8.08-9.46 1.44-15.33a16.4 16.4 0 0 0 .61 1.67c2.06 4.74 5.97 14.91 7.07 18.77 1.05 3.75 3.74 25.86 3.74 25.86.16.33.53.73 1.1 1.14a9.8 9.8 0 0 0 2.81 1.29c3.25.92 4.39-.96 4.39-.96.39-2.3-.19-27.63-1-32a138.1 138.1 0 0 1-1.9-15.13c-.25-4.15-1.51-13.44-1.01-18.84.19-2.04-.04-3.87-.4-5.35-.58-2.45-1.52-3.96-1.52-3.96s-31.23 1.73-32.27 6.54c-.3 1.37-.52 2.95-.65 4.65-.55 6.57-.05 15.05.65 21.39z" class="I"/><path d="M426.91 317.06c.85.35 1.66.44 2.33.5 0 0 .05 0 .14.01.05 0 .12.01.18.02l.62.1c.25.06.43.16.52.33.43.68 1 5.09 1 5.09l1.27-.75 7.69-4.54-.85-4.31c-.29-2.09-2.29-13.16-5.37-14.52-3.08-1.37-10.64 1.39-11.31 2.63l.15 4.98c.08 3.23 1.87 9.75 3.62 10.47z" class="B"/><path d="M431.67 318.2c-.47-.28-1.02-.44-1.48-.52.24.06.43.17.52.33.43.68 1 5.09 1 5.09l1.27-.75c-.16-1.4-.49-3.67-1.3-4.15z" fill="#fc927a"/><path d="M427.75 295.69s3.65-.89 6.24-.52c5.29.74 7.31 4.99 7.7 8.17.4 3.22-.89 5.81-1.13 6.95-.24 1.14.09 3.01-.13 3.67s-5.6 2.72-6.27 2.47a8 8 0 0 1-2.81-2.93c-.29-.87-.57-3.11-.94-3.85-.37-.74-1.56-1.55-2.1-1.32-.53.22-.67 1.26-.71 2.28-.03 1.02-.51 1.11-.78.94-.26-.18-.63-2.62-.92-3.35-.29-.72-.62-.84-.99-3.06s-.9-1.5-2.17-2.56c-6.64-4.11 5-6.87 5-6.87z" class="G"/><path d="M416.7 349.69c-3.26-1.23-4.82-4.3-4.83-4.33l-.97 2.32c-.01-.01-.03-.02-.04-.02.48.74-.84 1.95-.35 2.68.56.83-.33 1.94.33 2.69 1.19 1.35 2.06 3.18 3.42 4.36 2.32-.1 4.34-2.14 4.34-2.14l.02-.01 2.64-4.63.43-.9v-.01c-.19.12-1.94 1.16-5-.01z" class="B"/><path d="M411.58 346.05c.76.81 2.2 2.19 3.99 3.13a10.3 10.3 0 0 1-3.71-3.82l-.28.69z" fill="#f4ccb0"/><path d="M435.56 398.92c.2.63.41 1.19.61 1.68 2.05 4.74 5.97 14.9 7.06 18.76 1.06 3.76 3.75 25.87 3.75 25.87.15.32.53.73 1.1 1.14-.44-5.31-2.18-22.52-2.85-25.43-.81-3.59-1.16-4.97-2.21-7.38-1.04-2.42-6.03-14.15-3.18-19.88 1.86-3.75 2.65-7.21 2.96-9.16-1.02 4.72-5.41 8.57-5.41 8.57l-1.83 5.83z" fill="#033368"/><g class="B"><path d="M422.24 330.78s-.76-.47-1.2-.51-1.07 0-1.79-.39-3.49-1.38-3.37-1.71.78-.76 1.79-.72 1.71.33 1.96.3c.24-.03-.43-1.07-1-2.01-.32-.54-2.32-3.27-2.65-3.92-.08-.38 3.1 1.05 4.05 1.1.77.04 4.04 1.49 4.04 1.49"/><path d="M439.33 346.03c2.29-2.24 3.1-3.34.16-6.15h.01s-13.36-10.09-13.67-11.21c-.33-1.13-.17-1.35-.6-2.57-.41-1.22-1.14-1.69-1.14-1.69s-2.81 2.98-4.73 3.74l3.4 3.3c.9 1.06 6.11 7.62 9.01 11.05"/></g><path d="M416.32 386.35c-.37 1.7-.25-4.38-.03-8.1v-.02c.13-3.13.44-7.66 1.23-11.47 1.44-6.84 1.09-11.49 1.09-11.49v-.02l.02-.02 2.64-4.62.44-.89v-.01l-.04.01c-.01.02-.03.02-.04.04-.02 0-.05.01-.07.03-.05.03-.11.05-.19.09-.06.04-.15.07-.24.1-.67.24-1.91.49-3.67-.02a5.5 5.5 0 0 1-.79-.26c-.2-.08-.4-.16-.61-.24-.17-.08-.34-.16-.52-.28-1.79-.94-3.24-2.31-3.99-3.13l-.62-.7c1.77-5.17 4.14-9.73 5.47-12.24 2.14-3.98 6.57-6.82 12.09-9.4l.98-.57v-2.39c5.59-3.52 10.92-3.75 12.29-3.88l.67 1.7c4.6-1.78 8.53-.01 9.98 1.42 4.67 4.62 2.68 15.45-1.76 23.28-3.58 6.31-3.52 10.42-2.1 16 2.53 9.97 5.26 16.67 3.02 18.53-1.9 1.58-16.02 10.91-23.28 11.28-.05 0-.08 0-.12.01-.5.03-.97.03-1.43.01-4.89-.22-9.93-.04-10.68-2.72" class="D"/><path d="M418.12 363.49c.25-1.28 1.27-4.19 2.9-7.94 2.13-4.88 4.25-8.93 5.97-13.87l-3.92 7.12-1.36.9s-.01.01-.03.04a17.8 17.8 0 0 1-.42.85 133.1 133.1 0 0 1-2.64 4.63l-.01.01c0 .03.24 3.26-.51 8.26z" fill="#07459e"/><use href="#E" x="-170.13" y="-77.17" opacity=".1" class="E"/><path d="M476.69 133.36c26.25 0 47.53-21.57 47.53-48.18S502.94 37 476.69 37s-47.53 21.57-47.53 48.18 21.28 48.18 47.53 48.18z" class="J"/><path d="M486.62 50.95s.54 5.2 2.71 7.36 7.36 2.71 7.36 2.71-5.19.55-7.36 2.71-2.71 7.36-2.71 7.36-.55-5.2-2.71-7.36-7.36-2.71-7.36-2.71 5.2-.55 7.36-2.71 2.71-7.36 2.71-7.36zm-19.6 22.82a1.8 1.8 0 0 1 1.17.41c.35.25.59.61.71 1.08l7.09 24.21h-5.53l-5-18.92-.28-1.23-.25-1.27h-.96l-.25 1.27a10.3 10.3 0 0 1-.28 1.23l-5 18.92h-5.53L460 75.26c.12-.47.34-.83.67-1.08.35-.27.76-.41 1.2-.41h5.14zm3.76 14.64v4.25h-12.69V88.4h12.69zm12.12-10.76v21.54h6.39V77.65h-6.39z" class="C"/><circle cx="455" cy="250" r="25" fill="url(#A)" class="M N"/><g class="C"><path d="M452.38 252.32c-4.16-.82-7.81-2.54-11.23-4.77-1.9-1.24-.88-3.15-.83-4.72.05-1.5 1.56-1.46 2.77-1.45h3.54c1.56-.01 3.47.54 3.02-2.28-.16-1 .95-1.06 1.74-1.07l7.08-.02c1.45-.03 2.31.44 2.08 2.02-.17 1.25.5 1.41 1.52 1.38 1.89-.05 3.78-.02 5.67-.01 1.42.01 2.05.7 2.21 2.15.28 2.49-.39 4.16-2.87 5.33-2.98 1.39-5.92 2.8-9.32 3.5.25-2.23-.78-2.97-2.98-2.94-2.14.03-2.47 1.16-2.39 2.9zm2.66-11.03h2.57c.6.01 1.08-.05 1.02-.85-.04-.54-.21-.89-.81-.89h-5.62c-.59 0-.78.38-.8.91-.03.6.25.83.82.82l2.81.01zm-14.85 8.15c3.82 2.24 7.4 3.94 11.3 4.83.84.19 1.01.57.95 1.27-.17 1.98 1.11 2.07 2.58 2.06 1.43-.01 2.78 0 2.65-2.01-.03-.52-.15-1.08.65-1.27a37.5 37.5 0 0 0 11.58-4.83l.01 10.35c.01 1.47-.66 2.16-2.12 2.16h-25.47c-1.45 0-2.14-.7-2.13-2.16l-.01-10.4zm13.46 4.13c.71-.85-.77-2.45 1.34-2.49 2.25-.05 1.12 1.62 1.17 2.47.04.79.92 2.31-1.15 2.27-2.14-.04-.5-1.7-1.36-2.25z"/><path d="M455.58 255.86h-.9c-.59 0-1.06-.48-1.06-1.05v-2.66c0-.59.48-1.05 1.06-1.05h.9c.59 0 1.06.48 1.06 1.05v2.66c0 .58-.48 1.05-1.06 1.05z"/></g><path d="M548.58 283.14c-13.83 0-25 10.93-25 24.37s11.17 24.37 25 24.37 25-10.93 25-24.37-11.17-24.37-25-24.37z" fill="url(#B)" class="M N"/><path d="M549.01 297.1c1.87 0 3.75-.16 5.59.03 4.2.44 7.64 3.96 8.26 8.25l1.08 7.64a5.2 5.2 0 0 1-3.46 5.72c-2.36.79-4.87-.29-6.03-2.61l-1.6-3.27c-.16-.35-.35-.5-.75-.49h-6.25c-.34 0-.53.09-.69.42a153.9 153.9 0 0 1-1.62 3.32c-1.16 2.31-3.66 3.4-6.02 2.63-2.38-.78-3.84-3.19-3.48-5.76l1.06-7.54c.67-4.75 4.71-8.39 9.39-8.44h4.51v.1zm-3.24 6.5h-2.15v-2.14h-2.14v2.18h-2.09v2.18h2.11v2.15h2.12v-2.16c.62 0 1.19.01 1.77-.01.13-.01.35-.14.35-.22.05-.65.03-1.29.03-1.98zm12.53 2.57c.78-.01 1.41-.67 1.41-1.46 0-.81-.68-1.48-1.46-1.47s-1.4.69-1.38 1.49c.01.82.65 1.45 1.43 1.44zm-2.89 2.93c.78.01 1.42-.64 1.43-1.44.01-.82-.63-1.48-1.44-1.48-.79 0-1.41.65-1.4 1.45 0 .8.64 1.47 1.41 1.47zm1.42-7.34c-.02-.81-.65-1.44-1.43-1.44-.79.01-1.42.66-1.41 1.45.01.83.66 1.47 1.46 1.46s1.4-.67 1.38-1.48zm-5.67 2.92c-.02.83.61 1.49 1.42 1.5.76.01 1.38-.62 1.41-1.39.03-.83-.58-1.49-1.4-1.51-.77-.04-1.42.61-1.43 1.41z" class="C"/><circle cx="30" cy="30" r="29" transform="matrix(-1 0 0 1 158.836 74.1348)" fill="url(#C)" class="M N"/><path d="M138.97 97.04v12.24l-.02.34c-.04.98-.08 2.32-1.32 4-1.6 2.18-4.68 4.27-9.14 6.22-4.48-1.94-7.55-4.04-9.14-6.22a6.5 6.5 0 0 1-1.32-4c0-.12-.01-.23-.02-.34V97.04h10.47 10.49zm2.02-1.98h-12.5H116v14.27c.11 2.02-.42 7.28 12.5 12.67 12.92-5.38 12.38-10.64 12.5-12.67V95.06h-.01zm-6.65 19h-3.36v-5.74H126v5.74h-3.38v-13.73H126v5.45h4.98v-5.45h3.36v13.73zm-2.26-24.22L128.49 86l-3.58 3.84-3.61-1.4v4.99h7.19 7.21v-4.99l-3.61 1.4z" class="C"/><circle cx="30" cy="30" r="29" transform="matrix(-1 0 0 1 275.387 27.1349)" fill="url(#D)" class="M N"/><path d="M255.98 50.05v12.24l-.02.34c-.04.98-.09 2.32-1.32 4-1.6 2.18-4.67 4.27-9.14 6.22-4.48-1.95-7.55-4.04-9.14-6.22a6.5 6.5 0 0 1-1.32-4 3.7 3.7 0 0 0-.02-.34V50.05h10.47 10.49zm2.02-1.99h-12.5H233v14.27c.11 2.02-.42 7.28 12.5 12.67 12.92-5.38 12.38-10.64 12.5-12.67V48.06zm-12.48 13.78h-1.75v4.66h-3.24V53.33h5.29c1.59 0 2.84.35 3.73 1.04a3.5 3.5 0 0 1 1.34 2.93 4.3 4.3 0 0 1-.56 2.28c-.37.6-.97 1.09-1.78 1.47l2.8 5.31v.14h-3.47l-2.37-4.66zm-1.75-2.44h2.05c.61 0 1.08-.16 1.39-.48.31-.31.47-.76.47-1.33s-.16-1.01-.47-1.34-.77-.49-1.38-.49h-2.05v3.63h-.01zm5.33-16.56L245.51 39l-3.59 3.84-3.61-1.4v4.99h7.19 7.22v-4.99l-3.61 1.4z" class="C"/><defs><radialGradient id="A" cx="0" cy="0" r="1" gradientTransform="translate(455 250) rotate(-90) scale(56)" href="#G"><stop stop-color="#0668e1"/><stop offset="1" stop-color="#3991ff"/></radialGradient><radialGradient id="B" cx="0" cy="0" r="1" gradientTransform="translate(548.584 307.504) rotate(-89.5817) scale(57.0054 58.4309)" href="#G"><stop stop-color="#0668e1"/><stop offset="1" stop-color="#3991ff"/></radialGradient><radialGradient id="C" cx="0" cy="0" r="1" gradientTransform="translate(30 30) rotate(-89.1991) scale(95.6441)" href="#G"><stop stop-color="#0668e1"/><stop offset="1" stop-color="#3991ff"/></radialGradient><radialGradient id="D" cx="0" cy="0" r="1" gradientTransform="translate(30 30) rotate(-89.6598) scale(65.136)" href="#G"><stop stop-color="#0668e1"/><stop offset="1" stop-color="#3991ff"/></radialGradient><path id="E" d="M521.06 510.09c16.28 0 29.47-6.73 29.47-15.03s-13.19-15.03-29.47-15.03-29.47 6.73-29.47 15.03 13.19 15.03 29.47 15.03z"/><path id="F" d="M404.21 327.12l.45.68 8.99-4.89-.45-.67-8.99 4.88z"/><linearGradient id="G" gradientUnits="userSpaceOnUse"/></defs></svg>