<svg xmlns="http://www.w3.org/2000/svg" width="600" height="624" fill="none" xmlns:v="https://vecta.io/nano"><style><![CDATA[.B{fill:#fff}.C{fill:#c1d9f7}]]></style><path d="M267.21 551.12c139.51 0 252.6-110.23 252.6-246.21s-113.09-246.2-252.6-246.2-252.6 110.23-252.6 246.2 113.09 246.21 252.6 246.21z" class="C"/><g fill="#0668e1"><path d="M435.32 525.24c-1.21 0-2.39-.56-3.16-1.6a3.9 3.9 0 0 1 .83-5.5c69.12-51.09 108.75-128.8 108.75-213.22 0-2.18 1.77-3.94 3.93-3.94s3.93 1.77 3.93 3.94a266.9 266.9 0 0 1-30.48 124.56 279.8 279.8 0 0 1-81.46 94.99 3.9 3.9 0 0 1-2.34.77zm108.9-244.13c-2 0-3.71-1.51-3.91-3.54a249.8 249.8 0 0 0-21.27-79.3c-.88-1.98 0-4.32 1.98-5.2 2-.88 4.32 0 5.2 1.98a257.4 257.4 0 0 1 21.91 81.69 3.9 3.9 0 0 1-3.51 4.32c-.14.03-.28.04-.41.04zM49.46 471.47a3.9 3.9 0 0 1-3.02-1.41 271.8 271.8 0 0 1-43.49-72.54c-.81-2.02.17-4.31 2.18-5.12 2.02-.81 4.3.17 5.12 2.18A264.4 264.4 0 0 0 52.47 465c1.4 1.67 1.18 4.15-.48 5.54-.73.63-1.62.93-2.52.93zM362.15 55.06c-.51 0-1.03-.1-1.52-.31-2.77-1.17-4.36-2.31-5.77-3.31-1.34-.96-2.39-1.71-4.58-2.47-2.05-.71-3.14-2.96-2.41-5.02.71-2.05 2.96-3.14 5.02-2.41a23.4 23.4 0 0 1 6.53 3.48c1.24.88 2.29 1.64 4.28 2.47 2.01.84 2.95 3.15 2.1 5.16-.64 1.51-2.1 2.41-3.63 2.41zm-34.07-11.67a4.1 4.1 0 0 1-1.03-.13 254.5 254.5 0 0 0-46.18-8.03c-2.17-.19-3.78-2.08-3.61-4.25.19-2.17 2.08-3.76 4.25-3.61a260.8 260.8 0 0 1 47.58 8.27c2.09.57 3.35 2.72 2.78 4.82-.46 1.75-2.05 2.92-3.79 2.92zM242 512c118.19 0 214-95.81 214-214S360.19 84 242 84 28 179.81 28 298s95.81 214 214 214z"/><path d="M167.41 476l-39.91 132.41c-5.49 14.3 5.02 20.33 17.36 11.36L358 476H167.41z"/></g><g class="C"><use href="#BF"/><path d="M323.78 135.82c-.64-.37-1.45-.14-1.82.49l-2.1 3.63c-.37.64-.14 1.45.49 1.82.64.37 1.45.14 1.82-.48l2.1-3.63c.37-.63.16-1.45-.49-1.83zm3.3 2.54l1.08 4.05c.19.71.93 1.14 1.64.94.36-.1.64-.33.81-.63s.23-.66.13-1.01l-1.08-4.05c-.19-.71-.93-1.14-1.64-.94-.71.18-1.14.93-.94 1.64zm-11.59-14.62c-.37.64-.14 1.45.49 1.82l3.63 2.1c.64.37 1.45.14 1.82-.48.37-.64.14-1.45-.49-1.82l-3.63-2.1c-.63-.38-1.45-.16-1.82.48z"/><use href="#BG"/><use href="#BH"/><path d="M330.93 119.75l-2.1 3.64c-.37.64-.14 1.45.48 1.83.64.37 1.45.14 1.82-.48l2.09-3.64c.37-.64.14-1.45-.48-1.82-.64-.37-1.45-.16-1.82.48zm.73 14.12c-.37.64-.14 1.45.49 1.82l3.63 2.09c.64.37 1.45.14 1.82-.48.37-.64.14-1.45-.48-1.82l-3.63-2.09c-.64-.37-1.47-.14-1.83.48z"/><use href="#BF" x="-252.3" y="232.35"/><path d="M71.47 368.17c-.64-.37-1.45-.14-1.82.48l-2.1 3.63c-.37.64-.14 1.45.48 1.82.64.37 1.45.14 1.82-.49l2.1-3.63c.37-.63.16-1.45-.48-1.82zm3.31 2.53l1.08 4.05c.19.71.93 1.14 1.64.94.36-.1.64-.33.81-.63s.23-.66.13-1.01L77.36 370c-.19-.71-.93-1.14-1.64-.94-.71.19-1.14.93-.94 1.64zm-11.59-14.61c-.37.64-.14 1.45.48 1.82l3.63 2.1c.64.37 1.45.14 1.82-.49.37-.64.14-1.45-.48-1.82L65 355.6c-.63-.38-1.45-.16-1.82.49z"/><use href="#BG" x="-252.31" y="232.35"/><use href="#BH" x="-252.31" y="232.35"/><path d="M78.63 352.1l-2.1 3.63c-.37.64-.14 1.45.48 1.82.64.37 1.45.14 1.82-.48l2.1-3.63c.37-.64.14-1.45-.48-1.82-.64-.37-1.45-.16-1.82.49zm.73 14.11c-.37.64-.14 1.45.48 1.82l3.63 2.1c.64.37 1.45.14 1.82-.49.37-.64.14-1.45-.48-1.82l-3.63-2.1c-.64-.37-1.47-.14-1.82.49z"/></g><mask id="A" maskUnits="userSpaceOnUse" x="207" y="0" width="7" height="7"><path d="M210.3 6.53c1.8 0 3.26-1.46 3.26-3.26S212.1 0 210.3 0s-3.26 1.46-3.26 3.26 1.46 3.26 3.26 3.26z" class="B"/></mask><g mask="url(#A)" class="B"><path d="M213.56 0h-6.53v6.53h6.53V0z"/></g><mask id="B" maskUnits="userSpaceOnUse" x="207" y="16" width="7" height="7"><path d="M210.3 22.54c1.8 0 3.26-1.46 3.26-3.26s-1.46-3.26-3.26-3.26-3.26 1.46-3.26 3.26 1.46 3.26 3.26 3.26z" class="B"/></mask><g mask="url(#B)" class="B"><use href="#BI"/></g><mask id="C" maskUnits="userSpaceOnUse" x="207" y="32" width="7" height="7"><path d="M210.3 32.02c-1.81 0-3.26 1.47-3.26 3.26 0 1.81 1.47 3.26 3.26 3.26s3.26-1.47 3.26-3.26c0-1.81-1.47-3.26-3.26-3.26z" class="B"/></mask><g mask="url(#C)" class="B"><use href="#BI" y="16.01"/></g><mask id="D" maskUnits="userSpaceOnUse" x="207" y="48" width="7" height="7"><path d="M210.3 48.02c-1.81 0-3.26 1.47-3.26 3.26 0 1.81 1.47 3.26 3.26 3.26s3.26-1.47 3.26-3.26c0-1.81-1.47-3.26-3.26-3.26z" class="B"/></mask><g mask="url(#D)" class="B"><use href="#BI" y="32.01"/></g><mask id="E" maskUnits="userSpaceOnUse" x="207" y="64" width="7" height="7"><path d="M210.3 70.56c1.8 0 3.26-1.46 3.26-3.26s-1.46-3.26-3.26-3.26-3.26 1.46-3.26 3.26 1.46 3.26 3.26 3.26z" class="B"/></mask><g mask="url(#E)" class="B"><use href="#BI" y="48.01"/></g><mask id="F" maskUnits="userSpaceOnUse" x="207" y="80" width="7" height="7"><path d="M210.3 86.55c1.8 0 3.26-1.46 3.26-3.26s-1.46-3.26-3.26-3.26-3.26 1.46-3.26 3.26 1.46 3.26 3.26 3.26z" class="B"/></mask><g mask="url(#F)" class="B"><use href="#BI" y="64.01"/></g><mask id="G" maskUnits="userSpaceOnUse" x="207" y="96" width="7" height="7"><path d="M210.3 96.03c-1.81 0-3.26 1.47-3.26 3.26 0 1.81 1.47 3.26 3.26 3.26s3.26-1.47 3.26-3.26-1.47-3.26-3.26-3.26z" class="B"/></mask><g mask="url(#G)" class="B"><use href="#BI" y="80.02"/></g><mask id="H" maskUnits="userSpaceOnUse" x="207" y="112" width="7" height="7"><path d="M210.3 112.04c-1.81 0-3.26 1.47-3.26 3.26 0 1.81 1.47 3.27 3.26 3.27s3.26-1.47 3.26-3.27-1.47-3.26-3.26-3.26z" class="B"/></mask><g mask="url(#H)" class="B"><use href="#BI" y="96.03"/></g><mask id="I" maskUnits="userSpaceOnUse" x="207" y="128" width="7" height="7"><path d="M210.3 134.57c1.8 0 3.26-1.46 3.26-3.26s-1.46-3.26-3.26-3.26-3.26 1.46-3.26 3.26 1.46 3.26 3.26 3.26z" class="B"/></mask><g mask="url(#I)" class="B"><use href="#BI" y="112.04"/></g><mask id="J" maskUnits="userSpaceOnUse" x="207" y="144" width="7" height="7"><path d="M210.3 150.58c1.8 0 3.26-1.46 3.26-3.26s-1.46-3.26-3.26-3.26-3.26 1.46-3.26 3.26 1.46 3.26 3.26 3.26z" class="B"/></mask><g mask="url(#J)" class="B"><use href="#BI" y="128.05"/></g><mask id="K" maskUnits="userSpaceOnUse" x="191" y="16" width="8" height="7"><path d="M194.82 22.54c1.8 0 3.26-1.46 3.26-3.26s-1.46-3.26-3.26-3.26-3.26 1.46-3.26 3.26 1.46 3.26 3.26 3.26z" class="B"/></mask><g mask="url(#K)" class="B"><use href="#BI" x="-15.48"/></g><mask id="L" maskUnits="userSpaceOnUse" x="191" y="32" width="8" height="7"><path d="M194.82 32.02c-1.81 0-3.26 1.47-3.26 3.26 0 1.81 1.47 3.26 3.26 3.26 1.81 0 3.26-1.47 3.26-3.26 0-1.81-1.47-3.26-3.26-3.26z" class="B"/></mask><g mask="url(#L)" class="B"><use href="#BI" x="-15.48" y="16.01"/></g><mask id="M" maskUnits="userSpaceOnUse" x="191" y="48" width="8" height="7"><path d="M194.82 48.02c-1.81 0-3.26 1.47-3.26 3.26 0 1.81 1.47 3.26 3.26 3.26 1.81 0 3.26-1.47 3.26-3.26 0-1.81-1.47-3.26-3.26-3.26z" class="B"/></mask><g mask="url(#M)" class="B"><use href="#BI" x="-15.48" y="32.01"/></g><mask id="N" maskUnits="userSpaceOnUse" x="191" y="64" width="8" height="7"><path d="M194.82 70.56c1.8 0 3.26-1.46 3.26-3.26s-1.46-3.26-3.26-3.26-3.26 1.46-3.26 3.26 1.46 3.26 3.26 3.26z" class="B"/></mask><g mask="url(#N)" class="B"><use href="#BI" x="-15.48" y="48.01"/></g><mask id="O" maskUnits="userSpaceOnUse" x="191" y="80" width="8" height="7"><path d="M194.82 86.55c1.8 0 3.26-1.46 3.26-3.26s-1.46-3.26-3.26-3.26-3.26 1.46-3.26 3.26 1.46 3.26 3.26 3.26z" class="B"/></mask><g mask="url(#O)" class="B"><use href="#BI" x="-15.48" y="64.01"/></g><mask id="P" maskUnits="userSpaceOnUse" x="191" y="96" width="8" height="7"><path d="M194.82 96.03c-1.81 0-3.26 1.47-3.26 3.26 0 1.81 1.47 3.26 3.26 3.26 1.81 0 3.26-1.47 3.26-3.26s-1.47-3.26-3.26-3.26z" class="B"/></mask><g mask="url(#P)" class="B"><use href="#BI" x="-15.48" y="80.02"/></g><mask id="Q" maskUnits="userSpaceOnUse" x="191" y="112" width="8" height="7"><path d="M194.82 112.04c-1.81 0-3.26 1.47-3.26 3.26 0 1.81 1.47 3.27 3.26 3.27 1.81 0 3.26-1.47 3.26-3.27s-1.47-3.26-3.26-3.26z" class="B"/></mask><g mask="url(#Q)" class="B"><use href="#BI" x="-15.48" y="96.03"/></g><mask id="R" maskUnits="userSpaceOnUse" x="191" y="128" width="8" height="7"><path d="M194.82 134.57c1.8 0 3.26-1.46 3.26-3.26s-1.46-3.26-3.26-3.26-3.26 1.46-3.26 3.26 1.46 3.26 3.26 3.26z" class="B"/></mask><g mask="url(#R)" class="B"><use href="#BI" x="-15.48" y="112.04"/></g><mask id="S" maskUnits="userSpaceOnUse" x="191" y="144" width="8" height="7"><path d="M194.82 150.58c1.8 0 3.26-1.46 3.26-3.26s-1.46-3.26-3.26-3.26-3.26 1.46-3.26 3.26 1.46 3.26 3.26 3.26z" class="B"/></mask><g mask="url(#S)" class="B"><use href="#BI" x="-15.48" y="128.05"/></g><mask id="T" maskUnits="userSpaceOnUse" x="176" y="32" width="7" height="7"><path d="M179.34 32.02c-1.81 0-3.26 1.47-3.26 3.26 0 1.81 1.47 3.26 3.26 3.26 1.81 0 3.26-1.47 3.26-3.26 0-1.81-1.47-3.26-3.26-3.26z" class="B"/></mask><g mask="url(#T)" class="B"><use href="#BI" x="-30.97" y="16.01"/></g><mask id="U" maskUnits="userSpaceOnUse" x="176" y="48" width="7" height="7"><path d="M179.34 48.02c-1.81 0-3.26 1.47-3.26 3.26 0 1.81 1.47 3.26 3.26 3.26 1.81 0 3.26-1.47 3.26-3.26 0-1.81-1.47-3.26-3.26-3.26z" class="B"/></mask><g mask="url(#U)" class="B"><use href="#BI" x="-30.97" y="32.01"/></g><mask id="V" maskUnits="userSpaceOnUse" x="176" y="64" width="7" height="7"><path d="M179.34 64.02c-1.81 0-3.26 1.47-3.26 3.26 0 1.81 1.47 3.26 3.26 3.26 1.81 0 3.26-1.47 3.26-3.26s-1.47-3.26-3.26-3.26z" class="B"/></mask><g mask="url(#V)" class="B"><use href="#BI" x="-30.97" y="48.01"/></g><mask id="W" maskUnits="userSpaceOnUse" x="176" y="80" width="7" height="7"><path d="M179.34 80.03c-1.81 0-3.26 1.47-3.26 3.26s1.47 3.26 3.26 3.26c1.81 0 3.26-1.47 3.26-3.26s-1.47-3.26-3.26-3.26z" class="B"/></mask><g mask="url(#W)" class="B"><use href="#BI" x="-30.97" y="64.02"/></g><mask id="X" maskUnits="userSpaceOnUse" x="176" y="96" width="7" height="7"><path d="M179.34 96.03c-1.81 0-3.26 1.47-3.26 3.26 0 1.81 1.47 3.26 3.26 3.26 1.81 0 3.26-1.47 3.26-3.26s-1.47-3.26-3.26-3.26z" class="B"/></mask><g mask="url(#X)" class="B"><use href="#BI" x="-30.97" y="80.02"/></g><mask id="Y" maskUnits="userSpaceOnUse" x="176" y="112" width="7" height="7"><path d="M179.34 112.04c-1.81 0-3.26 1.47-3.26 3.26 0 1.81 1.47 3.27 3.26 3.27 1.81 0 3.26-1.47 3.26-3.27s-1.47-3.26-3.26-3.26z" class="B"/></mask><g mask="url(#Y)" class="B"><use href="#BI" x="-30.97" y="96.03"/></g><mask id="Z" maskUnits="userSpaceOnUse" x="176" y="128" width="7" height="7"><path d="M179.34 128.05c-1.81 0-3.26 1.47-3.26 3.26 0 1.81 1.47 3.26 3.26 3.26 1.81 0 3.26-1.47 3.26-3.26s-1.47-3.26-3.26-3.26z" class="B"/></mask><g mask="url(#Z)" class="B"><use href="#BI" x="-30.97" y="112.04"/></g><mask id="a" maskUnits="userSpaceOnUse" x="176" y="144" width="7" height="7"><path d="M179.34 144.06c-1.81 0-3.26 1.47-3.26 3.26 0 1.81 1.47 3.26 3.26 3.26 1.81 0 3.26-1.47 3.26-3.26 0-1.81-1.47-3.26-3.26-3.26z" class="B"/></mask><g mask="url(#a)" class="B"><path d="M176.06 150.57l2.02.02h-2.02v-.02z"/></g><mask id="b" maskUnits="userSpaceOnUse" x="176" y="144" width="7" height="7"><path d="M179.34 144.06c-1.81 0-3.26 1.47-3.26 3.26 0 1.81 1.47 3.26 3.26 3.26 1.81 0 3.26-1.47 3.26-3.26 0-1.81-1.47-3.26-3.26-3.26z" class="B"/></mask><g mask="url(#b)" class="B"><path d="M178.09 150.58l-2.02-.01v-6.51h6.54v6.53h-4.52z"/></g><mask id="c" maskUnits="userSpaceOnUse" x="160" y="48" width="8" height="7"><path d="M163.84 48.02c-1.81 0-3.26 1.47-3.26 3.26 0 1.81 1.47 3.26 3.26 3.26s3.26-1.47 3.26-3.26c.01-1.81-1.45-3.26-3.26-3.26z" class="B"/></mask><g mask="url(#c)" class="B"><use href="#BI" x="-46.45" y="32.01"/></g><mask id="d" maskUnits="userSpaceOnUse" x="160" y="64" width="8" height="7"><path d="M163.84 70.56c1.8 0 3.26-1.46 3.26-3.26s-1.46-3.26-3.26-3.26-3.26 1.46-3.26 3.26 1.46 3.26 3.26 3.26z" class="B"/></mask><g mask="url(#d)" class="B"><use href="#BI" x="-46.45" y="48.01"/></g><mask id="e" maskUnits="userSpaceOnUse" x="160" y="80" width="8" height="7"><path d="M163.84 86.55c1.8 0 3.26-1.46 3.26-3.26s-1.46-3.26-3.26-3.26-3.26 1.46-3.26 3.26 1.46 3.26 3.26 3.26z" class="B"/></mask><g mask="url(#e)" class="B"><use href="#BI" x="-46.45" y="64.01"/></g><mask id="f" maskUnits="userSpaceOnUse" x="160" y="96" width="8" height="7"><path d="M163.84 96.03c-1.81 0-3.26 1.47-3.26 3.26 0 1.81 1.47 3.26 3.26 3.26s3.26-1.47 3.26-3.26c.01-1.8-1.45-3.26-3.26-3.26z" class="B"/></mask><g mask="url(#f)" class="B"><use href="#BI" x="-46.45" y="80.02"/></g><mask id="g" maskUnits="userSpaceOnUse" x="160" y="112" width="8" height="7"><path d="M163.84 112.04c-1.81 0-3.26 1.47-3.26 3.26 0 1.81 1.47 3.27 3.26 3.27s3.26-1.47 3.26-3.27c.01-1.8-1.45-3.26-3.26-3.26z" class="B"/></mask><g mask="url(#g)" class="B"><use href="#BI" x="-46.45" y="96.03"/></g><mask id="h" maskUnits="userSpaceOnUse" x="160" y="128" width="8" height="7"><path d="M163.84 134.57c1.8 0 3.26-1.46 3.26-3.26s-1.46-3.26-3.26-3.26-3.26 1.46-3.26 3.26 1.46 3.26 3.26 3.26z" class="B"/></mask><g mask="url(#h)" class="B"><use href="#BI" x="-46.45" y="112.04"/></g><mask id="i" maskUnits="userSpaceOnUse" x="160" y="144" width="8" height="7"><path d="M163.84 150.58c1.8 0 3.26-1.46 3.26-3.26s-1.46-3.26-3.26-3.26-3.26 1.46-3.26 3.26 1.46 3.26 3.26 3.26z" class="B"/></mask><g mask="url(#i)" class="B"><path d="M160.58 150.43l6.54.06v.1h-6.54v-.16z"/></g><mask id="j" maskUnits="userSpaceOnUse" x="160" y="144" width="8" height="7"><path d="M163.84 150.58c1.8 0 3.26-1.46 3.26-3.26s-1.46-3.26-3.26-3.26-3.26 1.46-3.26 3.26 1.46 3.26 3.26 3.26z" class="B"/></mask><g mask="url(#j)" class="B"><path d="M167.12 150.48l-6.54-.06v-6.37h6.54v6.43z"/></g><mask id="k" maskUnits="userSpaceOnUse" x="145" y="64" width="7" height="7"><path d="M148.36 70.56c1.8 0 3.26-1.46 3.26-3.26s-1.46-3.26-3.26-3.26-3.26 1.46-3.26 3.26 1.46 3.26 3.26 3.26z" class="B"/></mask><g mask="url(#k)" class="B"><use href="#BI" x="-61.93" y="48.01"/></g><mask id="l" maskUnits="userSpaceOnUse" x="145" y="80" width="7" height="7"><path d="M148.36 86.55c1.8 0 3.26-1.46 3.26-3.26s-1.46-3.26-3.26-3.26-3.26 1.46-3.26 3.26 1.46 3.26 3.26 3.26z" class="B"/></mask><g mask="url(#l)" class="B"><use href="#BI" x="-61.93" y="64.01"/></g><mask id="m" maskUnits="userSpaceOnUse" x="145" y="96" width="7" height="7"><path d="M148.36 96.03c-1.81 0-3.26 1.47-3.26 3.26 0 1.81 1.47 3.26 3.26 3.26s3.26-1.47 3.26-3.26-1.45-3.26-3.26-3.26z" class="B"/></mask><g mask="url(#m)" class="B"><use href="#BI" x="-61.93" y="80.02"/></g><mask id="n" maskUnits="userSpaceOnUse" x="145" y="112" width="7" height="7"><path d="M148.36 112.04c-1.81 0-3.26 1.47-3.26 3.26 0 1.81 1.47 3.27 3.26 3.27s3.26-1.47 3.26-3.27-1.45-3.26-3.26-3.26z" class="B"/></mask><g mask="url(#n)" class="B"><use href="#BI" x="-61.93" y="96.03"/></g><mask id="o" maskUnits="userSpaceOnUse" x="145" y="128" width="7" height="7"><path d="M148.36 134.57c1.8 0 3.26-1.46 3.26-3.26s-1.46-3.26-3.26-3.26-3.26 1.46-3.26 3.26 1.46 3.26 3.26 3.26z" class="B"/></mask><g mask="url(#o)" class="B"><use href="#BI" x="-61.93" y="112.04"/></g><mask id="p" maskUnits="userSpaceOnUse" x="145" y="144" width="7" height="7"><path d="M148.36 150.58c1.8 0 3.26-1.46 3.26-3.26s-1.46-3.26-3.26-3.26-3.26 1.46-3.26 3.26 1.46 3.26 3.26 3.26z" class="B"/></mask><g mask="url(#p)" class="B"><path d="M145.1 150.29l6.53.06v.24h-6.53v-.3z"/></g><mask id="q" maskUnits="userSpaceOnUse" x="145" y="144" width="7" height="7"><path d="M148.36 150.58c1.8 0 3.26-1.46 3.26-3.26s-1.46-3.26-3.26-3.26-3.26 1.46-3.26 3.26 1.46 3.26 3.26 3.26z" class="B"/></mask><g mask="url(#q)" class="B"><path d="M151.63 150.34l-6.53-.06v-6.23h6.53v6.29z"/></g><mask id="r" maskUnits="userSpaceOnUse" x="129" y="64" width="8" height="7"><path d="M132.88 64.02c-1.81 0-3.26 1.47-3.26 3.26 0 1.81 1.47 3.26 3.26 3.26 1.81 0 3.26-1.47 3.26-3.26s-1.45-3.26-3.26-3.26z" class="B"/></mask><g mask="url(#r)" class="B"><use href="#BI" x="-77.41" y="48.01"/></g><mask id="s" maskUnits="userSpaceOnUse" x="129" y="80" width="8" height="7"><path d="M132.88 80.02c-1.81 0-3.26 1.47-3.26 3.26s1.47 3.26 3.26 3.26c1.81 0 3.26-1.47 3.26-3.26s-1.45-3.26-3.26-3.26z" class="B"/></mask><g mask="url(#s)" class="B"><use href="#BI" x="-77.41" y="64.01"/></g><mask id="t" maskUnits="userSpaceOnUse" x="129" y="96" width="8" height="7"><path d="M132.88 96.03c-1.81 0-3.26 1.47-3.26 3.26 0 1.81 1.47 3.26 3.26 3.26 1.81 0 3.26-1.47 3.26-3.26s-1.45-3.26-3.26-3.26z" class="B"/></mask><g mask="url(#t)" class="B"><use href="#BI" x="-77.41" y="80.02"/></g><mask id="u" maskUnits="userSpaceOnUse" x="129" y="112" width="8" height="7"><path d="M132.88 112.04c-1.81 0-3.26 1.47-3.26 3.26 0 1.81 1.47 3.27 3.26 3.27 1.81 0 3.26-1.47 3.26-3.27s-1.45-3.26-3.26-3.26z" class="B"/></mask><g mask="url(#u)" class="B"><use href="#BI" x="-77.41" y="96.03"/></g><mask id="v" maskUnits="userSpaceOnUse" x="129" y="128" width="8" height="7"><path d="M132.88 128.05c-1.81 0-3.26 1.47-3.26 3.26 0 1.81 1.47 3.26 3.26 3.26 1.81 0 3.26-1.47 3.26-3.26s-1.45-3.26-3.26-3.26z" class="B"/></mask><g mask="url(#v)" class="B"><use href="#BI" x="-77.41" y="112.04"/></g><mask id="w" maskUnits="userSpaceOnUse" x="129" y="144" width="8" height="7"><path d="M132.88 144.06c-1.81 0-3.26 1.47-3.26 3.26 0 1.81 1.47 3.26 3.26 3.26 1.81 0 3.26-1.47 3.26-3.26 0-1.81-1.45-3.26-3.26-3.26z" class="B"/></mask><g mask="url(#w)" class="B"><path d="M129.62 150.16l6.53.06v.37h-6.53v-.43z"/></g><mask id="x" maskUnits="userSpaceOnUse" x="129" y="144" width="8" height="7"><path d="M132.88 144.06c-1.81 0-3.26 1.47-3.26 3.26 0 1.81 1.47 3.26 3.26 3.26 1.81 0 3.26-1.47 3.26-3.26 0-1.81-1.45-3.26-3.26-3.26z" class="B"/></mask><g mask="url(#x)" class="B"><path d="M136.15 150.21l-6.53-.06v-6.1h6.53v6.16z"/></g><mask id="y" maskUnits="userSpaceOnUse" x="114" y="64" width="7" height="7"><path d="M117.41 70.56c1.8 0 3.26-1.46 3.26-3.26s-1.46-3.26-3.26-3.26-3.26 1.46-3.26 3.26 1.46 3.26 3.26 3.26z" class="B"/></mask><g mask="url(#y)" class="B"><use href="#BI" x="-92.89" y="48.01"/></g><mask id="z" maskUnits="userSpaceOnUse" x="114" y="80" width="7" height="7"><path d="M117.41 86.56c1.8 0 3.26-1.46 3.26-3.26s-1.46-3.26-3.26-3.26-3.26 1.46-3.26 3.26 1.46 3.26 3.26 3.26z" class="B"/></mask><g mask="url(#z)" class="B"><use href="#BI" x="-92.89" y="64.02"/></g><mask id="AA" maskUnits="userSpaceOnUse" x="114" y="96" width="7" height="7"><path d="M117.41 96.03c-1.81 0-3.26 1.47-3.26 3.26 0 1.81 1.47 3.26 3.26 3.26 1.81 0 3.26-1.47 3.26-3.26s-1.45-3.26-3.26-3.26z" class="B"/></mask><g mask="url(#AA)" class="B"><use href="#BI" x="-92.89" y="80.02"/></g><mask id="AB" maskUnits="userSpaceOnUse" x="114" y="112" width="7" height="7"><path d="M117.41 112.04c-1.81 0-3.26 1.47-3.26 3.26 0 1.81 1.47 3.27 3.26 3.27 1.81 0 3.26-1.47 3.26-3.27s-1.45-3.26-3.26-3.26z" class="B"/></mask><g mask="url(#AB)" class="B"><use href="#BI" x="-92.89" y="96.03"/></g><mask id="AC" maskUnits="userSpaceOnUse" x="114" y="128" width="7" height="7"><path d="M117.41 134.57c1.8 0 3.26-1.46 3.26-3.26s-1.46-3.26-3.26-3.26-3.26 1.46-3.26 3.26 1.46 3.26 3.26 3.26z" class="B"/></mask><g mask="url(#AC)" class="B"><use href="#BI" x="-92.89" y="112.04"/></g><mask id="AD" maskUnits="userSpaceOnUse" x="114" y="144" width="7" height="7"><path d="M117.41 150.58c1.8 0 3.26-1.46 3.26-3.26s-1.46-3.26-3.26-3.26-3.26 1.46-3.26 3.26 1.46 3.26 3.26 3.26z" class="B"/></mask><g mask="url(#AD)" class="B"><path d="M114.14 150.01l6.53.06v.51h-6.53v-.57z"/></g><mask id="AE" maskUnits="userSpaceOnUse" x="114" y="144" width="7" height="7"><path d="M117.41 150.58c1.8 0 3.26-1.46 3.26-3.26s-1.46-3.26-3.26-3.26-3.26 1.46-3.26 3.26 1.46 3.26 3.26 3.26z" class="B"/></mask><g mask="url(#AE)" class="B"><path d="M120.67 150.07l-6.53-.06v-5.96h6.53v6.01z"/></g><mask id="AF" maskUnits="userSpaceOnUse" x="232" y="428" width="7" height="8"><path d="M235.3 435.03c1.8 0 3.26-1.46 3.26-3.27s-1.46-3.26-3.26-3.26-3.26 1.46-3.26 3.26 1.46 3.27 3.26 3.27z" class="B"/></mask><g mask="url(#AF)" class="B"><use href="#BI" x="24.99" y="412.49"/></g><mask id="AG" maskUnits="userSpaceOnUse" x="248" y="428" width="7" height="8"><path d="M251.29 428.5c-1.81 0-3.27 1.47-3.27 3.26s1.47 3.27 3.27 3.27 3.26-1.47 3.26-3.27-1.45-3.26-3.26-3.26z" class="B"/></mask><g mask="url(#AG)" class="B"><use href="#BI" x="41" y="412.49"/></g><mask id="AH" maskUnits="userSpaceOnUse" x="264" y="428" width="7" height="8"><path d="M267.31 428.5c-1.81 0-3.26 1.47-3.26 3.26s1.47 3.27 3.26 3.27c1.81 0 3.26-1.47 3.26-3.27s-1.45-3.26-3.26-3.26z" class="B"/></mask><g mask="url(#AH)" class="B"><use href="#BI" x="57.01" y="412.49"/></g><mask id="AI" maskUnits="userSpaceOnUse" x="280" y="428" width="7" height="8"><path d="M283.31 435.03c1.8 0 3.26-1.46 3.26-3.27s-1.46-3.26-3.26-3.26-3.26 1.46-3.26 3.26 1.46 3.27 3.26 3.27z" class="B"/></mask><g mask="url(#AI)" class="B"><use href="#BI" x="73.02" y="412.49"/></g><mask id="AJ" maskUnits="userSpaceOnUse" x="296" y="428" width="7" height="8"><path d="M299.32 435.03c1.8 0 3.26-1.46 3.26-3.27s-1.46-3.26-3.26-3.26-3.26 1.46-3.26 3.26 1.46 3.27 3.26 3.27z" class="B"/></mask><g mask="url(#AJ)" class="B"><use href="#BI" x="89.02" y="412.49"/></g><mask id="AK" maskUnits="userSpaceOnUse" x="312" y="428" width="7" height="8"><path d="M315.33 435.03c1.8 0 3.26-1.46 3.26-3.27s-1.46-3.26-3.26-3.26-3.26 1.46-3.26 3.26 1.46 3.27 3.26 3.27z" class="B"/></mask><g mask="url(#AK)" class="B"><use href="#BI" x="105.03" y="412.49"/></g><mask id="AL" maskUnits="userSpaceOnUse" x="328" y="428" width="7" height="8"><path d="M331.33 428.5c-1.81 0-3.27 1.47-3.27 3.26s1.47 3.27 3.27 3.27c1.81 0 3.26-1.47 3.26-3.27s-1.47-3.26-3.26-3.26z" class="B"/></mask><g mask="url(#AL)" class="B"><use href="#BI" x="121.04" y="412.49"/></g><mask id="AM" maskUnits="userSpaceOnUse" x="344" y="428" width="7" height="8"><path d="M347.34 435.03c1.8 0 3.26-1.46 3.26-3.27s-1.46-3.26-3.26-3.26-3.26 1.46-3.26 3.26 1.46 3.27 3.26 3.27z" class="B"/></mask><g mask="url(#AM)" class="B"><use href="#BI" x="137.04" y="412.49"/></g><mask id="AN" maskUnits="userSpaceOnUse" x="360" y="428" width="7" height="8"><path d="M363.35 435.03c1.8 0 3.26-1.46 3.26-3.27s-1.46-3.26-3.26-3.26-3.26 1.46-3.26 3.26 1.46 3.27 3.26 3.27z" class="B"/></mask><g mask="url(#AN)" class="B"><use href="#BI" x="153.04" y="412.49"/></g><mask id="AO" maskUnits="userSpaceOnUse" x="376" y="428" width="7" height="8"><path d="M379.35 435.03c1.81 0 3.26-1.47 3.26-3.27s-1.47-3.26-3.26-3.26c-1.81 0-3.26 1.47-3.26 3.26s1.47 3.27 3.26 3.27z" class="B"/></mask><g mask="url(#AO)" class="B"><use href="#BI" x="169.05" y="412.49"/></g><mask id="AP" maskUnits="userSpaceOnUse" x="248" y="443" width="7" height="8"><path d="M251.29 443.98c-1.81 0-3.27 1.47-3.27 3.27 0 1.81 1.47 3.26 3.27 3.26s3.26-1.47 3.26-3.26c.01-1.8-1.45-3.27-3.26-3.27z" class="B"/></mask><g mask="url(#AP)" class="B"><use href="#BI" x="41" y="427.97"/></g><mask id="AQ" maskUnits="userSpaceOnUse" x="264" y="443" width="7" height="8"><path d="M267.31 443.98c-1.81 0-3.26 1.47-3.26 3.27 0 1.81 1.47 3.26 3.26 3.26 1.81 0 3.26-1.47 3.26-3.26s-1.45-3.27-3.26-3.27z" class="B"/></mask><g mask="url(#AQ)" class="B"><use href="#BI" x="57.01" y="427.97"/></g><mask id="AR" maskUnits="userSpaceOnUse" x="280" y="443" width="7" height="8"><path d="M283.31 443.98c-1.81 0-3.26 1.47-3.26 3.27 0 1.81 1.47 3.26 3.26 3.26 1.81 0 3.26-1.47 3.26-3.26s-1.45-3.27-3.26-3.27z" class="B"/></mask><g mask="url(#AR)" class="B"><use href="#BI" x="73.02" y="427.97"/></g><mask id="AS" maskUnits="userSpaceOnUse" x="296" y="443" width="7" height="8"><path d="M299.32 443.98c-1.81 0-3.26 1.47-3.26 3.27 0 1.81 1.47 3.26 3.26 3.26s3.26-1.47 3.26-3.26-1.45-3.27-3.26-3.27z" class="B"/></mask><g mask="url(#AS)" class="B"><use href="#BI" x="89.02" y="427.97"/></g><mask id="AT" maskUnits="userSpaceOnUse" x="312" y="443" width="7" height="8"><path d="M315.33 443.98c-1.81 0-3.26 1.47-3.26 3.27 0 1.81 1.47 3.26 3.26 3.26 1.81 0 3.26-1.47 3.26-3.26s-1.47-3.27-3.26-3.27z" class="B"/></mask><g mask="url(#AT)" class="B"><use href="#BI" x="105.03" y="427.97"/></g><mask id="AU" maskUnits="userSpaceOnUse" x="328" y="443" width="7" height="8"><path d="M331.33 443.98c-1.81 0-3.27 1.47-3.27 3.27 0 1.81 1.47 3.26 3.27 3.26 1.81 0 3.26-1.47 3.26-3.26s-1.47-3.27-3.26-3.27z" class="B"/></mask><g mask="url(#AU)" class="B"><use href="#BI" x="121.04" y="427.97"/></g><mask id="AV" maskUnits="userSpaceOnUse" x="344" y="443" width="7" height="8"><path d="M347.34 443.98c-1.81 0-3.26 1.47-3.26 3.27 0 1.81 1.47 3.26 3.26 3.26 1.81 0 3.26-1.47 3.26-3.26s-1.47-3.27-3.26-3.27z" class="B"/></mask><g mask="url(#AV)" class="B"><use href="#BI" x="137.04" y="427.97"/></g><mask id="AW" maskUnits="userSpaceOnUse" x="360" y="443" width="7" height="8"><path d="M363.35 443.98c-1.81 0-3.26 1.47-3.26 3.27 0 1.81 1.47 3.26 3.26 3.26 1.81 0 3.26-1.47 3.26-3.26s-1.47-3.27-3.26-3.27z" class="B"/></mask><g mask="url(#AW)" class="B"><use href="#BI" x="153.04" y="427.97"/></g><mask id="AX" maskUnits="userSpaceOnUse" x="376" y="443" width="7" height="8"><path d="M379.35 443.98c-1.81 0-3.26 1.47-3.26 3.27 0 1.81 1.47 3.26 3.26 3.26 1.81 0 3.26-1.47 3.26-3.26.01-1.8-1.45-3.27-3.26-3.27z" class="B"/></mask><g mask="url(#AX)" class="B"><use href="#BI" x="169.05" y="427.97"/></g><mask id="AY" maskUnits="userSpaceOnUse" x="280" y="459" width="7" height="7"><path d="M283.31 465.99c1.8 0 3.26-1.46 3.26-3.26s-1.46-3.26-3.26-3.26-3.26 1.46-3.26 3.26 1.46 3.26 3.26 3.26z" class="B"/></mask><g mask="url(#AY)" class="B"><use href="#BI" x="73.02" y="443.46"/></g><mask id="AZ" maskUnits="userSpaceOnUse" x="296" y="459" width="7" height="7"><path d="M299.32 465.99c1.8 0 3.26-1.46 3.26-3.26s-1.46-3.26-3.26-3.26-3.26 1.46-3.26 3.26 1.46 3.26 3.26 3.26z" class="B"/></mask><g mask="url(#AZ)" class="B"><use href="#BI" x="89.02" y="443.46"/></g><mask id="Aa" maskUnits="userSpaceOnUse" x="312" y="459" width="7" height="7"><path d="M315.33 465.99c1.8 0 3.26-1.46 3.26-3.26s-1.46-3.26-3.26-3.26-3.26 1.46-3.26 3.26 1.46 3.26 3.26 3.26z" class="B"/></mask><g mask="url(#Aa)" class="B"><use href="#BI" x="105.03" y="443.46"/></g><mask id="Ab" maskUnits="userSpaceOnUse" x="328" y="459" width="7" height="7"><path d="M331.33 459.47c-1.81 0-3.27 1.47-3.27 3.26 0 1.81 1.47 3.26 3.27 3.26 1.81 0 3.26-1.47 3.26-3.26s-1.47-3.26-3.26-3.26z" class="B"/></mask><g mask="url(#Ab)" class="B"><use href="#BI" x="121.04" y="443.46"/></g><mask id="Ac" maskUnits="userSpaceOnUse" x="344" y="459" width="7" height="7"><path d="M347.34 465.99c1.8 0 3.26-1.46 3.26-3.26s-1.46-3.26-3.26-3.26-3.26 1.46-3.26 3.26 1.46 3.26 3.26 3.26z" class="B"/></mask><g mask="url(#Ac)" class="B"><use href="#BI" x="137.04" y="443.46"/></g><mask id="Ad" maskUnits="userSpaceOnUse" x="360" y="459" width="7" height="7"><path d="M363.35 465.99c1.8 0 3.26-1.46 3.26-3.26s-1.46-3.26-3.26-3.26-3.26 1.46-3.26 3.26 1.46 3.26 3.26 3.26z" class="B"/></mask><g mask="url(#Ad)" class="B"><use href="#BI" x="153.04" y="443.46"/></g><mask id="Ae" maskUnits="userSpaceOnUse" x="376" y="459" width="7" height="7"><path d="M379.35 459.47c-1.81 0-3.26 1.47-3.26 3.26 0 1.81 1.47 3.26 3.26 3.26 1.81 0 3.26-1.47 3.26-3.26.01-1.8-1.45-3.26-3.26-3.26z" class="B"/></mask><g mask="url(#Ae)" class="B"><use href="#BI" x="169.05" y="443.46"/></g><mask id="Af" maskUnits="userSpaceOnUse" x="280" y="474" width="7" height="8"><path d="M283.31 481.47c1.8 0 3.26-1.46 3.26-3.26s-1.46-3.26-3.26-3.26-3.26 1.46-3.26 3.26 1.46 3.26 3.26 3.26z" class="B"/></mask><g mask="url(#Af)" class="B"><use href="#BI" x="73.02" y="458.94"/></g><mask id="Ag" maskUnits="userSpaceOnUse" x="296" y="474" width="7" height="8"><path d="M299.32 481.47c1.8 0 3.26-1.46 3.26-3.26s-1.46-3.26-3.26-3.26-3.26 1.46-3.26 3.26 1.46 3.26 3.26 3.26z" class="B"/></mask><g mask="url(#Ag)" class="B"><use href="#BI" x="89.02" y="458.94"/></g><mask id="Ah" maskUnits="userSpaceOnUse" x="312" y="474" width="7" height="8"><path d="M315.33 481.47c1.8 0 3.26-1.46 3.26-3.26s-1.46-3.26-3.26-3.26-3.26 1.46-3.26 3.26 1.46 3.26 3.26 3.26z" class="B"/></mask><g mask="url(#Ah)" class="B"><use href="#BI" x="105.03" y="458.94"/></g><mask id="Ai" maskUnits="userSpaceOnUse" x="328" y="474" width="7" height="8"><path d="M331.33 474.95c-1.81 0-3.27 1.47-3.27 3.26 0 1.81 1.47 3.26 3.27 3.26 1.81 0 3.26-1.47 3.26-3.26s-1.47-3.26-3.26-3.26z" class="B"/></mask><g mask="url(#Ai)" class="B"><use href="#BI" x="121.04" y="458.94"/></g><mask id="Aj" maskUnits="userSpaceOnUse" x="344" y="474" width="7" height="8"><path d="M347.34 481.47c1.8 0 3.26-1.46 3.26-3.26s-1.46-3.26-3.26-3.26-3.26 1.46-3.26 3.26 1.46 3.26 3.26 3.26z" class="B"/></mask><g mask="url(#Aj)" class="B"><use href="#BI" x="137.04" y="458.94"/></g><mask id="Ak" maskUnits="userSpaceOnUse" x="360" y="474" width="7" height="8"><path d="M363.35 481.47c1.8 0 3.26-1.46 3.26-3.26s-1.46-3.26-3.26-3.26-3.26 1.46-3.26 3.26 1.46 3.26 3.26 3.26z" class="B"/></mask><g mask="url(#Ak)" class="B"><use href="#BI" x="153.04" y="458.94"/></g><mask id="Al" maskUnits="userSpaceOnUse" x="376" y="474" width="7" height="8"><path d="M379.35 474.95c-1.81 0-3.26 1.47-3.26 3.26 0 1.81 1.47 3.26 3.26 3.26 1.81 0 3.26-1.47 3.26-3.26.01-1.8-1.45-3.26-3.26-3.26z" class="B"/></mask><g mask="url(#Al)" class="B"><use href="#BI" x="169.05" y="458.94"/></g><mask id="Am" maskUnits="userSpaceOnUse" x="296" y="490" width="7" height="7"><path d="M299.32 490.43c-1.81 0-3.26 1.47-3.26 3.26 0 1.81 1.47 3.26 3.26 3.26s3.26-1.47 3.26-3.26-1.45-3.26-3.26-3.26z" class="B"/></mask><g mask="url(#Am)" class="B"><use href="#BI" x="89.02" y="474.42"/></g><mask id="An" maskUnits="userSpaceOnUse" x="312" y="490" width="7" height="7"><path d="M315.33 490.43c-1.81 0-3.26 1.47-3.26 3.26 0 1.81 1.47 3.26 3.26 3.26 1.81 0 3.26-1.47 3.26-3.26s-1.47-3.26-3.26-3.26z" class="B"/></mask><g mask="url(#An)" class="B"><use href="#BI" x="105.03" y="474.42"/></g><mask id="Ao" maskUnits="userSpaceOnUse" x="328" y="490" width="7" height="7"><path d="M331.33 490.43c-1.81 0-3.27 1.47-3.27 3.26 0 1.81 1.47 3.26 3.27 3.26 1.81 0 3.26-1.47 3.26-3.26s-1.47-3.26-3.26-3.26z" class="B"/></mask><g mask="url(#Ao)" class="B"><use href="#BI" x="121.04" y="474.42"/></g><mask id="Ap" maskUnits="userSpaceOnUse" x="344" y="490" width="7" height="7"><path d="M347.34 490.43c-1.81 0-3.26 1.47-3.26 3.26 0 1.81 1.47 3.26 3.26 3.26 1.81 0 3.26-1.47 3.26-3.26s-1.47-3.26-3.26-3.26z" class="B"/></mask><g mask="url(#Ap)" class="B"><use href="#BI" x="137.04" y="474.42"/></g><mask id="Aq" maskUnits="userSpaceOnUse" x="360" y="490" width="7" height="7"><path d="M363.35 490.43c-1.81 0-3.26 1.47-3.26 3.26 0 1.81 1.47 3.26 3.26 3.26 1.81 0 3.26-1.47 3.26-3.26s-1.47-3.26-3.26-3.26z" class="B"/></mask><g mask="url(#Aq)" class="B"><use href="#BI" x="153.04" y="474.42"/></g><mask id="Ar" maskUnits="userSpaceOnUse" x="376" y="490" width="7" height="7"><path d="M379.35 490.43c-1.81 0-3.26 1.47-3.26 3.26 0 1.81 1.47 3.26 3.26 3.26 1.81 0 3.26-1.47 3.26-3.26.01-1.8-1.45-3.26-3.26-3.26z" class="B"/></mask><g mask="url(#Ar)" class="B"><use href="#BI" x="169.05" y="474.42"/></g><mask id="As" maskUnits="userSpaceOnUse" x="296" y="505" width="7" height="8"><path d="M299.32 512.45c1.8 0 3.26-1.46 3.26-3.26s-1.46-3.26-3.26-3.26-3.26 1.46-3.26 3.26 1.46 3.26 3.26 3.26z" class="B"/></mask><g mask="url(#As)" class="B"><use href="#BI" x="89.02" y="489.9"/></g><mask id="At" maskUnits="userSpaceOnUse" x="312" y="505" width="7" height="8"><path d="M315.33 512.45c1.8 0 3.26-1.46 3.26-3.26s-1.46-3.26-3.26-3.26-3.26 1.46-3.26 3.26 1.46 3.26 3.26 3.26z" class="B"/></mask><g mask="url(#At)" class="B"><use href="#BI" x="105.03" y="489.9"/></g><mask id="Au" maskUnits="userSpaceOnUse" x="328" y="505" width="7" height="8"><path d="M331.33 505.91c-1.81 0-3.27 1.47-3.27 3.26s1.47 3.26 3.27 3.26c1.81 0 3.26-1.47 3.26-3.26s-1.47-3.26-3.26-3.26z" class="B"/></mask><g mask="url(#Au)" class="B"><use href="#BI" x="121.04" y="489.9"/></g><mask id="Av" maskUnits="userSpaceOnUse" x="344" y="505" width="7" height="8"><path d="M347.34 512.45c1.8 0 3.26-1.46 3.26-3.26s-1.46-3.26-3.26-3.26-3.26 1.46-3.26 3.26 1.46 3.26 3.26 3.26z" class="B"/></mask><g mask="url(#Av)" class="B"><use href="#BI" x="137.04" y="489.9"/></g><mask id="Aw" maskUnits="userSpaceOnUse" x="360" y="505" width="7" height="8"><path d="M363.35 512.45c1.8 0 3.26-1.46 3.26-3.26s-1.46-3.26-3.26-3.26-3.26 1.46-3.26 3.26 1.46 3.26 3.26 3.26z" class="B"/></mask><g mask="url(#Aw)" class="B"><use href="#BI" x="153.04" y="489.9"/></g><mask id="Ax" maskUnits="userSpaceOnUse" x="376" y="505" width="7" height="8"><path d="M379.35 505.91c-1.81 0-3.26 1.47-3.26 3.26s1.47 3.26 3.26 3.26c1.81 0 3.26-1.47 3.26-3.26s-1.45-3.26-3.26-3.26z" class="B"/></mask><g mask="url(#Ax)" class="B"><use href="#BI" x="169.05" y="489.9"/></g><mask id="Ay" maskUnits="userSpaceOnUse" x="296" y="521" width="7" height="7"><path d="M299.32 527.93c1.8 0 3.26-1.46 3.26-3.26s-1.46-3.26-3.26-3.26-3.26 1.46-3.26 3.26 1.46 3.26 3.26 3.26z" class="B"/></mask><g mask="url(#Ay)" class="B"><use href="#BI" x="89.02" y="505.39"/></g><mask id="Az" maskUnits="userSpaceOnUse" x="312" y="521" width="7" height="7"><path d="M315.33 527.93c1.8 0 3.26-1.46 3.26-3.26s-1.46-3.26-3.26-3.26-3.26 1.46-3.26 3.26 1.46 3.26 3.26 3.26z" class="B"/></mask><g mask="url(#Az)" class="B"><use href="#BI" x="105.03" y="505.39"/></g><mask id="BA" maskUnits="userSpaceOnUse" x="328" y="521" width="7" height="7"><path d="M331.33 521.4c-1.81 0-3.27 1.47-3.27 3.26 0 1.81 1.47 3.26 3.27 3.26 1.81 0 3.26-1.47 3.26-3.26 0-1.81-1.47-3.26-3.26-3.26z" class="B"/></mask><g mask="url(#BA)" class="B"><use href="#BI" x="121.04" y="505.39"/></g><mask id="BB" maskUnits="userSpaceOnUse" x="344" y="521" width="7" height="7"><path d="M347.34 527.93c1.8 0 3.26-1.46 3.26-3.26s-1.46-3.26-3.26-3.26-3.26 1.46-3.26 3.26 1.46 3.26 3.26 3.26z" class="B"/></mask><g mask="url(#BB)" class="B"><use href="#BI" x="137.04" y="505.39"/></g><mask id="BC" maskUnits="userSpaceOnUse" x="360" y="521" width="7" height="7"><path d="M363.35 527.93c1.8 0 3.26-1.46 3.26-3.26s-1.46-3.26-3.26-3.26-3.26 1.46-3.26 3.26 1.46 3.26 3.26 3.26z" class="B"/></mask><g mask="url(#BC)" class="B"><use href="#BI" x="153.04" y="505.39"/></g><mask id="BD" maskUnits="userSpaceOnUse" x="376" y="521" width="7" height="7"><path d="M379.35 521.4c-1.81 0-3.26 1.47-3.26 3.26 0 1.81 1.47 3.26 3.26 3.26 1.81 0 3.26-1.47 3.26-3.26.01-1.81-1.45-3.26-3.26-3.26z" class="B"/></mask><g mask="url(#BD)" class="B"><use href="#BI" x="169.05" y="505.39"/></g><path d="M84.8 181.94H5.09A5.1 5.1 0 0 1 0 176.85a5.1 5.1 0 0 1 5.09-5.09h79.73a5.1 5.1 0 0 1 5.09 5.09 5.1 5.1 0 0 1-5.1 5.09zm0 30.81H5.09A5.1 5.1 0 0 1 0 207.66a5.1 5.1 0 0 1 5.09-5.09h79.73a5.1 5.1 0 0 1 5.09 5.09 5.1 5.1 0 0 1-5.1 5.09zm-21.14 31.58H5.09A5.1 5.1 0 0 1 0 239.25a5.1 5.1 0 0 1 5.09-5.09h58.57a5.1 5.1 0 0 1 5.09 5.09 5.1 5.1 0 0 1-5.09 5.09zm21.14 0h-.94a5.1 5.1 0 0 1-5.09-5.09 5.1 5.1 0 0 1 5.09-5.09h.94a5.1 5.1 0 0 1 5.09 5.09 5.1 5.1 0 0 1-5.09 5.09zm416.55 177.35c-13.11 0-24.34-4.1-33.44-12.15-9.48-8.43-14.51-19.73-14.51-32.71s5.03-24.27 14.51-32.7c1.4-1.24 2.86-2.39 4.36-3.47h-11.83v-15.91c0-18.83 2.19-33.63 6.74-45.27 4.74-12.12 12.44-22.71 22.94-31.5 7.48-6.27 13.11-11.9 16.73-16.77 2.32-3.12 3.44-6.27 3.44-9.93 0-9.96-2-9.96-6.36-9.96-2.42 0-3.4.64-4.45 1.88-1.81 2.16-2.83 5.73-2.96 10.56l-.41 15.49h-89.43l.16-16.07c.29-27.36 9.32-49.25 26.85-65.03C450.76 142.79 474.4 135 503.92 135c29.17 0 52.52 7.19 69.42 21.38 17.69 14.86 26.66 35.85 26.66 62.36 0 11.87-2.45 22.91-7.25 32.8-4.55 9.39-11.74 18.9-21.38 28.25l-19.95 18.58c-3.69 3.53-6.3 7.16-7.64 10.59-1.05 2.7-2.32 7.7-2.54 16.23l-.41 15.49h-10.4a49.2 49.2 0 0 1 4.36 3.44 42.6 42.6 0 0 1 14.51 32.7c0 12.98-5.03 24.27-14.51 32.71-9.1 8.05-20.33 12.15-33.44 12.15z" class="C"/><path d="M476.34 324.74c0-16.67 1.88-29.84 5.66-39.48 3.75-9.64 9.86-18.01 18.32-25.1s14.86-13.55 19.28-19.44c4.39-5.89 6.59-12.34 6.59-19.44 0-17.24-7.41-25.87-22.27-25.87-6.84 0-12.38 2.51-16.61 7.54s-6.46 11.8-6.68 20.39h-57.9c.22-22.84 7.41-40.63 21.57-53.35s34.01-19.09 59.59-19.09c25.45 0 45.18 5.89 59.17 17.63 14 11.77 20.96 28.5 20.96 50.17 0 9.48-1.88 18.1-5.66 25.86-3.75 7.76-9.83 15.72-18.17 23.8l-19.69 18.32c-5.6 5.38-9.48 10.88-11.64 16.54s-3.37 12.82-3.6 21.51h-48.93zm-7.03 52.08c0-8.46 3.05-15.4 9.16-20.81s13.74-8.15 22.88-8.15 16.77 2.71 22.87 8.15a26.6 26.6 0 0 1 9.16 20.81c0 8.46-3.05 15.4-9.16 20.81-6.11 5.44-13.74 8.14-22.87 8.14s-16.77-2.7-22.87-8.14a26.6 26.6 0 0 1-9.16-20.81z" fill="#0668e1"/><path d="M129.68 249.4l-5.6 26.56c-.08.29-.24.55-.48.76-.24.19-.55.28-.92.28h-4c-.35 0-.65-.09-.92-.28-.24-.21-.39-.48-.44-.8L113 255.16l-.32-1.56-.32-1.56h-.84l-.32 1.56-.28 1.56-4.28 20.76c-.08.32-.25.59-.52.8-.24.19-.53.28-.88.28h-4.04c-.35 0-.65-.09-.92-.28-.24-.21-.39-.47-.44-.76l-5.6-26.56h3.72l4.32 21.52.28 1.64.28 1.76h.92l.32-1.76.32-1.64 4.28-20.36c.05-.35.2-.63.44-.84.27-.21.57-.32.92-.32h3.84c.35 0 .64.11.88.32s.4.49.48.84l4.28 20.36.32 1.72c.11.56.19 1.12.24 1.68h1l.24-1.68.28-1.68 4.36-21.56h3.72zm16.21 7.64c3.52 0 5.28 1.79 5.28 5.36V277h-3.44v-13.64c0-1.31-.21-2.2-.64-2.68-.4-.51-1.11-.76-2.12-.76-1.2 0-2.4.28-3.6.84s-2.63 1.37-4.28 2.44l-.16-2.44c1.52-1.15 3.03-2.05 4.52-2.72a10.8 10.8 0 0 1 4.44-1zm-8.44-8.04l.04 7.72c0 .88-.04 1.71-.12 2.48a13.6 13.6 0 0 1-.28 2.04l.36.6V277h-3.4v-28h3.4zm29.04 8.04c1.44 0 2.65.2 3.64.6 1.01.37 1.77 1.01 2.28 1.92s.76 2.15.76 3.72V277h-2.68l-.52-4.24-.24-.44v-9.04c0-1.2-.28-2.05-.84-2.56-.53-.53-1.57-.8-3.12-.8l-3.84.16-4.52.36-.32-2.52 2.96-.44 3.32-.32 3.12-.12zm5.08 7.96l-.04 2.56-9.32.04c-.93.03-1.59.28-1.96.76-.37.45-.56 1.09-.56 1.92v1.24c0 1.01.24 1.76.72 2.24.48.45 1.25.68 2.32.68.75 0 1.59-.13 2.52-.4.96-.29 1.92-.73 2.88-1.32s1.84-1.33 2.64-2.24V273a11.3 11.3 0 0 1-1.28 1.32c-.53.48-1.19.96-1.96 1.44-.75.45-1.59.84-2.52 1.16-.91.29-1.89.44-2.96.44-1.15 0-2.16-.2-3.04-.6a5 5 0 0 1-2.08-1.84c-.48-.83-.72-1.83-.72-3v-2.12c0-1.52.47-2.69 1.4-3.52.96-.85 2.29-1.28 4-1.28h9.96zm12.55-13.24v19.88c0 .93.2 1.6.6 2s1.08.6 2.04.6h2.96l.4 2.6a14.7 14.7 0 0 1-1.48.28l-1.64.16-1.28.08c-1.63 0-2.87-.45-3.72-1.36s-1.28-2.21-1.28-3.92v-20.32h3.4zm6.2 5.76v2.68h-13.12v-2.48l3.84-.2h9.28zm16.58 0V277h-3.36v-19.48h3.36zm-.88-8.28c.69 0 1.04.35 1.04 1.04v2.28c0 .69-.35 1.04-1.04 1.04h-1.6c-.69 0-1.04-.35-1.04-1.04v-2.28c0-.69.35-1.04 1.04-1.04h1.6zm13.76 7.8l2.72.08 2.84.2 2.64.32-.28 2.48-3.72-.12-3.68-.08c-1.2-.03-2.15 0-2.84.08s-1.2.29-1.52.64c-.29.35-.44.93-.44 1.76 0 1.01.24 1.68.72 2a6.5 6.5 0 0 0 2.12.8l5.68 1.28c1.55.37 2.68.95 3.4 1.72.75.77 1.12 1.99 1.12 3.64 0 1.6-.31 2.8-.92 3.6-.59.8-1.49 1.33-2.72 1.6a22.6 22.6 0 0 1-4.68.4c-.69 0-1.73-.03-3.12-.08a37.8 37.8 0 0 1-4.52-.48l.24-2.48 2.04.12 2.24.04h2.44a22.9 22.9 0 0 0 3.44-.2c.83-.13 1.41-.39 1.76-.76.35-.4.52-.99.52-1.76 0-.96-.28-1.6-.84-1.92a8.3 8.3 0 0 0-2.24-.8l-5.6-1.28c-1.07-.27-1.92-.61-2.56-1.04-.64-.45-1.11-1.03-1.4-1.72-.29-.72-.44-1.61-.44-2.68 0-1.52.27-2.67.8-3.44s1.36-1.29 2.48-1.56 2.56-.39 4.32-.36zM114.7 309.07l5.31.19c1.49.08 2.86.24 4.1.45s2.52.51 3.84.9l-.77 7.17-3.9-.19-3.78-.06-4.8-.06c-2.18 0-3.88.43-5.12 1.28-1.19.85-2.05 2.35-2.56 4.48-.51 2.09-.77 4.99-.77 8.7s.26 6.63.77 8.77c.51 2.09 1.36 3.56 2.56 4.42 1.24.85 2.94 1.28 5.12 1.28l7.42-.13 5.95-.45.83 7.17c-2.05.64-4.14 1.09-6.27 1.34-2.13.3-4.78.45-7.94.45-4.56 0-8.23-.72-11.01-2.18-2.73-1.49-4.71-3.9-5.95-7.23-1.19-3.33-1.79-7.81-1.79-13.44s.6-10.11 1.79-13.44c1.24-3.33 3.22-5.72 5.95-7.17 2.77-1.49 6.44-2.24 11.01-2.24zm34.81 12.48c3.97 0 7.15.56 9.54 1.66 2.39 1.07 4.1 2.82 5.12 5.25 1.07 2.43 1.6 5.7 1.6 9.79 0 4.01-.53 7.23-1.6 9.66-1.02 2.43-2.73 4.18-5.12 5.25s-5.57 1.6-9.54 1.6c-3.92 0-7.1-.53-9.54-1.6a9.9 9.9 0 0 1-5.18-5.25c-1.07-2.43-1.6-5.65-1.6-9.66 0-4.1.53-7.36 1.6-9.79a9.9 9.9 0 0 1 5.18-5.25c2.43-1.11 5.61-1.66 9.54-1.66zm0 6.91c-1.62 0-2.9.28-3.84.83s-1.6 1.54-1.98 2.94-.58 3.41-.58 6.02a23.8 23.8 0 0 0 .58 5.95c.38 1.41 1.04 2.39 1.98 2.94.94.51 2.22.77 3.84.77s2.9-.26 3.84-.77c.94-.56 1.6-1.54 1.98-2.94a23.8 23.8 0 0 0 .58-5.95c0-2.6-.19-4.61-.58-6.02s-1.05-2.39-1.98-2.94-2.22-.83-3.84-.83zm44.73-6.91c5.97 0 8.96 2.92 8.96 8.77V354h-9.47v-20.74c0-1.41-.26-2.37-.77-2.88-.51-.56-1.39-.83-2.62-.83a11.8 11.8 0 0 0-4.22.83c-1.45.51-3.24 1.32-5.38 2.43l-.45-5.31a28.1 28.1 0 0 1 6.91-4.42 17.8 17.8 0 0 1 7.04-1.54zm-14.4.83l1.09 6.27.77.83V354h-9.47v-31.62h7.62zm52.84-.83c5.97 0 8.96 2.92 8.96 8.77V354h-9.47v-20.74c0-1.41-.26-2.37-.77-2.88-.51-.56-1.39-.83-2.62-.83a11.8 11.8 0 0 0-4.22.83c-1.45.51-3.24 1.32-5.38 2.43l-.45-5.31a28.1 28.1 0 0 1 6.91-4.42 17.8 17.8 0 0 1 7.04-1.54zm-14.4.83l1.09 6.27.77.83V354h-9.47v-31.62h7.62zm45.8-.83c5.33 0 9.15.92 11.46 2.75 2.35 1.79 3.52 4.48 3.52 8.06.04 2.9-.68 5.08-2.18 6.53-1.49 1.41-4.07 2.11-7.74 2.11h-17.66v-5.31h15.04c1.45 0 2.37-.3 2.75-.9.43-.64.64-1.51.64-2.62-.04-1.49-.49-2.52-1.34-3.07-.81-.6-2.2-.9-4.16-.9-1.75 0-3.12.23-4.1.7a4 4 0 0 0-2.05 2.69 21.9 21.9 0 0 0-.58 5.76c0 2.64.24 4.69.7 6.14.47 1.41 1.26 2.39 2.37 2.94 1.15.56 2.73.83 4.74.83 1.45 0 3.24-.04 5.38-.13a112.3 112.3 0 0 0 6.53-.58l.9 5.82c-1.24.6-2.64 1.07-4.22 1.41s-3.2.58-4.86.7a47 47 0 0 1-4.8.26c-4.01 0-7.25-.58-9.73-1.73a11 11 0 0 1-5.31-5.44c-1.07-2.43-1.6-5.55-1.6-9.34 0-4.14.55-7.42 1.66-9.86s2.86-4.18 5.25-5.25 5.53-1.6 9.41-1.6zm35.87 0c1.15 0 2.41.06 3.78.19 1.37.08 2.73.28 4.1.58 1.41.26 2.69.64 3.84 1.15l-1.02 5.95-4.93-.13c-1.54-.04-2.92-.06-4.16-.06-1.92 0-3.44.26-4.54.77s-1.92 1.43-2.43 2.75c-.47 1.28-.7 3.07-.7 5.38 0 2.35.23 4.18.7 5.5.51 1.32 1.32 2.24 2.43 2.75s2.62.77 4.54.77a67.5 67.5 0 0 0 2.62-.06l3.46-.13a49.9 49.9 0 0 0 3.65-.38l.9 6.02c-1.71.77-3.65 1.32-5.82 1.66a41.7 41.7 0 0 1-6.46.51c-3.92 0-7.06-.53-9.41-1.6-2.3-1.11-3.97-2.88-4.99-5.31s-1.54-5.68-1.54-9.73.51-7.3 1.54-9.73c1.07-2.43 2.77-4.18 5.12-5.25s5.46-1.6 9.34-1.6zm30.19-7.94v30.27c0 1.15.26 1.98.77 2.5.55.47 1.45.7 2.69.7h4.1l1.02 6.4c-.77.26-1.71.47-2.82.64a29.7 29.7 0 0 1-3.33.45c-1.11.13-2.05.19-2.82.19-2.86 0-5.1-.77-6.72-2.3-1.58-1.54-2.37-3.69-2.37-6.46l-.06-32.38h9.54zm8.83 8.77v6.21h-23.87v-5.89l6.14-.32h17.73zm28.54-12.74l7.23.06c2.43 0 4.82.04 7.17.13s4.54.24 6.59.45l-.45 7.1h-16.96c-1.07 0-1.88.28-2.43.83-.51.56-.77 1.37-.77 2.43v22.53c0 1.07.26 1.88.77 2.43.56.56 1.37.83 2.43.83h16.96l.45 7.1-6.59.45-7.17.13-7.23.06c-2.82 0-5.1-.81-6.85-2.43-1.71-1.66-2.56-3.82-2.56-6.46v-26.75c0-2.69.85-4.84 2.56-6.46 1.75-1.62 4.03-2.43 6.85-2.43zm-8.26 17.92h26.43v6.91h-26.43v-6.91zm53.01-18.5a61.9 61.9 0 0 1 5.31.19 36.5 36.5 0 0 1 4.1.45c1.24.21 2.52.51 3.84.9l-.77 7.17-3.9-.19c-1.15-.04-2.41-.06-3.78-.06-1.32-.04-2.92-.06-4.8-.06-2.18 0-3.88.43-5.12 1.28-1.19.85-2.05 2.35-2.56 4.48-.51 2.09-.77 4.99-.77 8.7s.26 6.63.77 8.77c.51 2.09 1.37 3.56 2.56 4.42 1.24.85 2.94 1.28 5.12 1.28 2.94 0 5.42-.04 7.42-.13a90.8 90.8 0 0 0 5.95-.45l.83 7.17c-2.05.64-4.14 1.09-6.27 1.34-2.13.3-4.78.45-7.94.45-4.57 0-8.24-.72-11.01-2.18-2.73-1.49-4.71-3.9-5.95-7.23-1.19-3.33-1.79-7.81-1.79-13.44s.6-10.11 1.79-13.44c1.24-3.33 3.22-5.72 5.95-7.17 2.77-1.49 6.44-2.24 11.01-2.24z" class="B"/><defs ><path id="BF" d="M315.28 132.08c-.71.19-1.14.93-.94 1.64.19.71.93 1.14 1.64.94l4.05-1.08c.36-.1.64-.33.81-.63s.23-.66.13-1.01c-.19-.71-.93-1.14-1.64-.94l-4.05 1.08z"/><path id="BG" d="M325.49 123.64c.17-.3.23-.66.13-1.01l-1.08-4.05c-.19-.71-.93-1.14-1.64-.94-.71.19-1.14.93-.94 1.64l1.08 4.05c.19.71.93 1.14 1.64.94.36-.1.64-.33.81-.63z"/><path id="BH" d="M333.09 127.46c-.36.1-.64.33-.81.63s-.23.66-.13 1.01c.19.71.93 1.14 1.64.94l4.05-1.08c.71-.19 1.14-.93.94-1.64-.19-.71-.93-1.14-1.64-.94l-4.05 1.08z"/><path id="BI" d="M213.56 16.01h-6.53v6.53h6.53v-6.53z"/></defs></svg>