<svg xmlns="http://www.w3.org/2000/svg" width="60" height="60" fill="none" xmlns:v="https://vecta.io/nano"><style><![CDATA[.B{fill:#1a81ff}.C{fill:#107bff}]]></style><mask id="A" maskUnits="userSpaceOnUse" x="38" y="0" width="19" height="9"><path d="M42.28.67l14.54 7.71c-1.05-.56-2.3-.79-3.63-.61L38.65.06c1.33-.18 2.58.05 3.63.61z" fill="#fff"/></mask><g mask="url(#A)" class="C"><path d="M53.18 7.78L38.65.06c.82-.11 1.61-.07 2.34.12l14.54 7.71c-.73-.18-1.52-.23-2.34-.12z"/><path d="M55.52 7.89L40.98.17c.38.09.74.23 1.08.39l14.54 7.71c-.34-.16-.7-.29-1.08-.39z"/><path d="M56.6 8.28L42.06.56l.21.11 14.54 7.71-.21-.11z"/></g><mask id="B" maskUnits="userSpaceOnUse" x="17" y="35" width="16" height="9"><path d="M17.28 35.81l.33.17 14.54 7.71-.33-.17-14.54-7.71z" fill="#fff"/></mask><g mask="url(#B)"><path d="M31.82 43.53l-14.54-7.71.33.17 14.54 7.71-.33-.17z" fill="#258fb2"/><path d="M32.15 43.69l-14.54-7.71.38.17c.43.18.87.33 1.32.45l14.54 7.71c-.45-.11-.89-.26-1.32-.45l-.38-.17z" fill="#2692b6"/></g><mask id="C" maskUnits="userSpaceOnUse" x="0" y="45" width="18" height="15"><path d="M17.71 59.33L3.18 51.62a6.2 6.2 0 0 1-3.17-5.62l14.54 7.71c-.01 2.54 1.27 4.61 3.17 5.63z" fill="#fff"/></mask><g mask="url(#C)" class="B"><path d="M17.71 59.33L3.18 51.62a6.2 6.2 0 0 1-3.17-5.62l14.54 7.71c-.01 2.54 1.27 4.61 3.17 5.63z"/></g><path d="M53.2 7.77c3.75-.51 6.81 2.29 6.8 6.24l-.06 33.47c-.01 3.94-3.08 7.59-6.83 8.11l-31.78 4.36c-3.74.51-6.8-2.29-6.8-6.24l.06-33.47c.01-3.94 3.08-7.59 6.82-8.1L53.2 7.77z" fill="#0668e1"/><path d="M21.41 12.14L6.88 4.42 38.66.06 53.2 7.78l-31.78 4.36z" class="C"/><path d="M14.54 53.7L0 45.98.06 12.52l14.54 7.71-.06 33.47z" fill="#1e83ff"/><mask id="D" maskUnits="userSpaceOnUse" x="0" y="4" width="22" height="17"><path d="M14.6 20.25L.06 12.53c.01-3.94 3.08-7.59 6.82-8.1l14.54 7.71c-3.74.51-6.82 4.16-6.82 8.1z" fill="#fff"/></mask><g mask="url(#D)" class="B"><path d="M14.6 20.25L.06 12.54a8 8 0 0 1 .52-2.8l14.54 7.71a8 8 0 0 0-.52 2.8z"/><path d="M15.12 17.45L.59 9.73a8.6 8.6 0 0 1 .52-1.12l14.54 7.71a8.6 8.6 0 0 0-.52 1.12z"/><path d="M15.64 16.32L1.1 8.61a8.8 8.8 0 0 1 .56-.88l14.54 7.71c-.2.28-.39.58-.56.88z"/><path d="M16.19 15.44L1.66 7.73a8.8 8.8 0 0 1 .62-.76l14.54 7.71a8.6 8.6 0 0 0-.62.76z"/><path d="M16.81 14.68L2.28 6.96a8.5 8.5 0 0 1 .7-.69l14.54 7.71c-.24.22-.48.45-.7.69z"/><path d="M17.52 13.98L2.99 6.26c.26-.23.54-.44.83-.64l14.54 7.71a8.2 8.2 0 0 0-.83.64z"/><path d="M18.34 13.34L3.81 5.63a7.8 7.8 0 0 1 1.11-.62l14.54 7.71a7.8 7.8 0 0 0-1.11.62z"/><path d="M19.45 12.72L4.92 5.01c.63-.29 1.29-.49 1.97-.58l14.54 7.71c-.69.09-1.35.29-1.97.58z"/></g><path d="M29.75 27.47l2.18-.28 2.18-.26 2.01-.14-.1 2.2-5.16.71c-.32.04-.57.16-.74.36-.15.18-.23.44-.22.78l.12 6.92c.01.33.09.57.25.71.17.15.42.2.74.15l5.16-.71.18 2.16-2 .39-2.18.34-2.18.32c-.86.12-1.56-.04-2.1-.46-.53-.43-.81-1.05-.83-1.86l-.15-8.21a3 3 0 0 1 .76-2.09c.52-.57 1.21-.92 2.07-1.03zm-2.43 5.85l8.04-1.1.04 2.12-8.04 1.1-.04-2.12zm16.05-7.89l1.62-.16c.45-.04.87-.05 1.25-.03l1.17.1-.19 2.25-1.19.1-1.15.12-1.46.18c-.66.09-1.18.3-1.55.63-.36.31-.61.8-.75 1.46a12.4 12.4 0 0 0-.19 2.72c.02 1.14.11 2.03.28 2.66.17.62.43 1.04.8 1.25.38.21.9.27 1.56.18l2.26-.35 1.81-.39.29 2.17a11.6 11.6 0 0 1-1.9.67c-.65.18-1.45.34-2.41.47-1.39.19-2.5.12-3.34-.21-.84-.34-1.46-1-1.85-1.97-.38-.97-.59-2.32-.62-4.05s.13-3.13.47-4.2a4.6 4.6 0 0 1 1.77-2.45c.82-.57 1.93-.95 3.32-1.14z" fill="#fff"/></svg>