<svg width="760" height="600" viewBox="0 0 760 600" fill="none" xmlns="http://www.w3.org/2000/svg">
<path d="M363.56 589.795C340.86 589.795 322.458 571.392 322.458 548.691C322.458 525.99 340.86 507.587 363.56 507.587C386.26 507.587 404.662 525.99 404.662 548.691C404.662 571.392 386.26 589.795 363.56 589.795Z" fill="#E3F2FF"/>
<path d="M526.185 542.879C441.798 542.879 373.388 474.467 373.388 390.076C373.388 305.685 441.798 237.273 526.185 237.273C610.571 237.273 678.98 305.685 678.98 390.076C678.98 474.467 610.571 542.879 526.185 542.879Z" fill="#F0F9FF"/>
<path d="M206.862 561.638C156.342 561.638 115.387 520.681 115.387 470.159C115.387 419.637 156.342 378.681 206.862 378.681C257.381 378.681 298.336 419.637 298.336 470.159C298.336 520.681 257.381 561.638 206.862 561.638Z" fill="#F0F9FF"/>
<path d="M275.888 277.487C203.532 277.487 144.876 218.828 144.876 146.469C144.876 74.1099 203.532 15.4512 275.888 15.4512C348.244 15.4512 406.9 74.1099 406.9 146.469C406.9 218.828 348.244 277.487 275.888 277.487Z" fill="#F0F9FF"/>
<path d="M118.191 279.939H0.000831604C0.000831604 279.939 5.88068 272.29 12.3542 271.33C12.3542 271.33 24.9474 233.812 46.0463 233.549C65.661 233.298 73.516 256.625 73.516 256.625C73.516 256.625 82.6041 246.166 91.2811 250.95C99.9582 255.734 104.879 269.424 104.879 269.424C104.879 269.424 114.652 274.676 118.191 279.939Z" fill="#E1F1FF"/>
<path d="M426.585 175.685H576.047C576.047 175.685 576.047 166.128 555.45 164.267C555.45 164.267 536.646 122.524 507.955 128.13C490.076 131.624 480.942 156.161 480.942 156.161C480.942 156.161 467.435 136.853 456.635 140.587C445.834 144.321 439.418 164.884 439.418 164.884C439.418 164.884 428.274 170.284 426.585 175.685Z" fill="#E1F1FF"/>
<path d="M658.376 79.1022H760C760 79.1022 750.41 70.1736 746.151 70.1736C741.892 70.1736 729.448 40.2022 713.555 41.4809C697.651 42.7597 689.214 65.0699 689.214 65.0699C689.214 65.0699 669.896 59.0185 658.376 79.1022Z" fill="#E1F1FF"/>
<path d="M637.606 378.351H724.514C724.514 378.351 720.198 372.722 715.426 372.026C715.426 372.026 706.166 344.44 690.65 344.246C676.23 344.064 670.453 361.213 670.453 361.213C670.453 361.213 663.774 353.517 657.392 357.034C651.01 360.551 647.391 370.621 647.391 370.621C647.391 370.621 640.209 374.48 637.606 378.351Z" fill="#E1F1FF"/>
<path d="M138.174 46.3921H19.9833C19.9833 46.3921 25.8631 38.7422 32.3366 37.7831C32.3366 37.7831 44.9298 0.264621 66.0287 0.00201423C85.6434 -0.249175 93.4984 23.0772 93.4984 23.0772C93.4984 23.0772 102.586 12.6186 111.264 17.4026C119.941 22.1866 124.861 35.8764 124.861 35.8764C124.861 35.8764 134.623 41.1285 138.174 46.3921Z" fill="#E1F1FF"/>
<path d="M387.866 30.2603C394.796 30.2603 401.863 30.2945 409.056 30.3516C416.249 30.4201 423.305 30.5685 430.246 30.8197C437.176 31.0709 443.684 31.5162 449.735 32.1442L448.411 53.1413H398.267C395.116 53.1413 392.752 53.9291 391.177 55.5048C389.601 57.0804 388.813 59.5124 388.813 62.7892V129.389C388.813 132.54 389.601 134.938 391.177 136.582C392.752 138.226 395.116 139.037 398.267 139.037H448.411L449.735 160.045C443.684 160.547 437.188 160.924 430.246 161.175C423.305 161.427 416.249 161.587 409.056 161.644C401.863 161.701 394.796 161.735 387.866 161.735C379.543 161.735 372.829 159.337 367.714 154.542C362.611 149.746 359.985 143.444 359.859 135.623V56.5666C359.985 48.6199 362.6 42.2488 367.714 37.4534C372.818 32.658 379.543 30.2603 387.866 30.2603ZM363.262 83.2497H441.401V103.687H363.262V83.2497Z" fill="#0668E1"/>
<path d="M423.251 174.478C425.648 174.478 427.761 175.14 429.587 176.464C431.414 177.789 432.647 179.65 433.275 182.047L471.112 305.039H441.598L414.916 208.913C414.414 206.892 413.9 204.78 413.398 202.576C412.895 200.373 412.45 198.261 412.073 196.24H406.97C406.593 198.261 406.182 200.373 405.737 202.576C405.292 204.78 404.755 206.904 404.127 208.913L377.445 305.039H347.932L385.768 182.047C386.396 179.65 387.629 177.789 389.456 176.464C391.283 175.14 393.395 174.478 395.792 174.478H423.251ZM443.299 248.841V270.409H375.561V248.841H443.299Z" fill="#0668E1"/>
<path d="M425.829 323.558C432.006 325.339 438.639 327.611 445.718 330.374C452.797 333.137 459.51 336.483 465.858 340.422L458.699 358.439C453.436 356.658 447.248 354.683 440.135 352.49C433.022 350.31 426.012 348.22 419.093 346.233C415.702 345.252 412.791 344.544 410.348 344.11C407.916 343.676 405.861 343.607 404.205 343.916C402.538 344.224 401.168 345.103 400.095 346.576C399.01 348.037 398.074 350.161 397.275 352.947C396.053 357.194 396.156 360.574 397.606 363.086C399.045 365.598 401.967 368.35 406.363 371.318L428.284 386.104C437.361 392.395 443.001 399.017 445.204 405.948C447.408 412.879 447.145 421.076 444.417 430.53C442.35 437.678 439.793 443.375 436.733 447.611C433.673 451.847 429.94 454.781 425.533 456.391C421.125 458.013 415.782 458.538 409.514 457.978C403.246 457.419 395.802 455.9 387.205 453.411C383.083 452.224 377.284 450.26 369.805 447.508C362.327 444.757 354.05 440.898 344.984 435.919L352.28 416.761C359.518 418.976 365.718 420.928 370.879 422.618C376.039 424.308 380.48 425.712 384.225 426.865C387.959 428.007 391.224 428.977 394.021 429.788C398.988 431.215 402.927 432.026 405.826 432.209C408.726 432.391 410.987 431.729 412.597 430.222C414.207 428.715 415.508 426.271 416.49 422.88C417.358 419.855 417.655 417.377 417.358 415.447C417.061 413.529 416.159 411.76 414.652 410.138C413.145 408.517 411.067 406.873 408.395 405.183L385.458 389.118C376.736 382.93 371.232 376.422 368.938 369.583C366.643 362.755 366.86 354.603 369.577 345.149C371.643 338.001 374.212 332.372 377.295 328.273C380.378 324.175 384.1 321.411 388.45 319.973C392.799 318.534 398.051 318.18 404.217 318.911C410.382 319.63 417.586 321.183 425.829 323.558Z" fill="#0668E1"/>
<path d="M463.358 463.323L419.276 552.256H392.035L347.953 463.323H377.843L399.787 511.38C400.917 513.904 401.865 516.621 402.63 519.521C403.383 522.421 404.08 525.196 404.708 527.845H406.603C407.357 525.196 408.122 522.421 408.875 519.521C409.629 516.621 410.508 513.915 411.524 511.38L433.468 463.323H463.358ZM420.03 534.844V593.884H391.27V534.844H420.03Z" fill="#0668E1"/>
<g opacity="0.85">
<path d="M143.801 525.194C144.988 514.69 145.879 504.106 145.034 493.567C144.189 482.938 141.301 470.504 135.398 461.484C131.996 456.277 120.179 444.14 118.535 457.956C117.724 464.783 120.795 470.983 123.056 477.217C125.225 483.2 128.239 488.955 130.135 495.017C133.16 504.7 135.249 514.667 138.595 524.247" fill="#B3C3F6"/>
<path d="M138.775 544.387C130.292 530.047 121.33 515.98 110.153 504.243C100.836 494.458 89.3162 485.46 76.3805 480.562C67.6578 477.263 42.814 470.366 39.1948 483.953C36.272 494.937 48.3742 502.952 56.469 507.485C68.046 513.97 80.525 518.663 91.9764 525.468C105.198 533.323 117.459 542.732 131.035 550.039" fill="#B3C3F6"/>
<path d="M133.002 512.417C128.389 499.069 123.88 486.008 116.493 473.962C111.572 465.935 102.781 451.857 91.9801 451.184C85.0042 450.75 85.4037 461.448 86.4998 465.935C88.2808 473.163 92.6993 479.614 97.5859 485.106C109.323 498.304 119.655 510.316 129.737 524.805" fill="#B3C3F6"/>
<path d="M134.317 529.793C134.362 529.793 134.408 529.782 134.454 529.77C134.648 529.69 134.75 529.473 134.682 529.268C118.378 486.337 95.5096 460.499 95.2812 460.248C95.1328 460.088 94.8931 460.077 94.7332 460.214C94.5734 460.351 94.562 460.602 94.699 460.762C94.9273 461.013 117.705 486.76 133.951 529.542C134.008 529.702 134.157 529.793 134.317 529.793Z" fill="white"/>
<path d="M140.103 551.738C140.195 551.738 140.286 551.704 140.355 551.647C140.514 551.51 140.537 551.259 140.389 551.099C91.2379 494.673 55.5707 488.073 55.2167 488.005C55.0112 487.97 54.8057 488.108 54.7714 488.324C54.7372 488.53 54.8742 488.735 55.0912 488.77C55.4451 488.827 90.8725 495.415 139.818 551.601C139.886 551.693 139.989 551.738 140.103 551.738Z" fill="white"/>
<path d="M142.49 533.369C142.49 533.369 142.502 533.369 142.513 533.369C142.73 533.358 142.89 533.175 142.878 532.97C140.549 481.156 125.079 460.753 124.931 460.547C124.805 460.376 124.554 460.353 124.394 460.479C124.223 460.604 124.2 460.856 124.325 461.016C124.485 461.21 139.796 481.465 142.113 532.993C142.113 533.21 142.285 533.369 142.49 533.369Z" fill="white"/>
<path d="M78.3937 540.744C46.2201 544.591 20.6342 576.743 19.7779 597.98H136.998C136.998 567.758 113.97 536.473 78.3937 540.744Z" fill="#B3CDE0"/>
<path d="M78.3937 540.744C46.2201 544.591 20.6342 576.743 19.7779 597.98H136.998C136.998 567.758 113.97 536.473 78.3937 540.744Z" fill="#B3C3F6"/>
<mask id="mask0_10802_147557" style="mask-type:luminance" maskUnits="userSpaceOnUse" x="19" y="540" width="118" height="58">
<path d="M136.998 597.979H19.7779C20.6342 576.742 46.2201 544.59 78.3937 540.742C80.5972 540.48 82.755 540.354 84.8558 540.354C116.733 540.354 136.998 569.629 136.998 597.979Z" fill="white"/>
</mask>
<g mask="url(#mask0_10802_147557)">
<path d="M81.2946 603.688C81.5001 603.688 81.6714 603.528 81.6828 603.323L85.9643 536.187C85.9757 535.97 85.8158 535.787 85.5989 535.776C85.3477 535.753 85.1993 535.924 85.1879 536.141L80.9065 603.277C80.8951 603.494 81.0549 603.677 81.2718 603.688C81.2718 603.688 81.2832 603.688 81.2946 603.688Z" fill="white"/>
</g>
<mask id="mask1_10802_147557" style="mask-type:luminance" maskUnits="userSpaceOnUse" x="19" y="540" width="118" height="58">
<path d="M136.998 597.979H19.7779C20.6342 576.742 46.2201 544.59 78.3937 540.742C80.5972 540.48 82.755 540.354 84.8558 540.354C116.733 540.354 136.998 569.629 136.998 597.979Z" fill="white"/>
</mask>
<g mask="url(#mask1_10802_147557)">
<path d="M84.022 560.883C84.0791 560.883 84.1477 560.872 84.2048 560.838C84.3988 560.735 84.4673 560.506 84.3645 560.312L73.0387 538.573C72.936 538.379 72.7076 538.311 72.5135 538.413C72.3194 538.516 72.251 538.744 72.3537 538.938L83.6795 560.678C83.748 560.815 83.8736 560.883 84.022 560.883Z" fill="white"/>
</g>
<mask id="mask2_10802_147557" style="mask-type:luminance" maskUnits="userSpaceOnUse" x="19" y="540" width="118" height="58">
<path d="M136.998 597.979H19.7779C20.6342 576.742 46.2201 544.59 78.3937 540.742C80.5972 540.48 82.755 540.354 84.8558 540.354C116.733 540.354 136.998 569.629 136.998 597.979Z" fill="white"/>
</mask>
<g mask="url(#mask2_10802_147557)">
<path d="M96.8568 602.134C96.9938 602.134 97.1195 602.065 97.188 601.94L125.229 553.711C125.331 553.529 125.274 553.289 125.092 553.186C124.909 553.083 124.669 553.141 124.566 553.323L96.5258 601.552C96.423 601.734 96.4801 601.974 96.6628 602.077C96.7199 602.122 96.7883 602.134 96.8568 602.134Z" fill="white"/>
</g>
<mask id="mask3_10802_147557" style="mask-type:luminance" maskUnits="userSpaceOnUse" x="19" y="540" width="118" height="58">
<path d="M136.998 597.979H19.7779C20.6342 576.742 46.2201 544.59 78.3937 540.742C80.5972 540.48 82.755 540.354 84.8558 540.354C116.733 540.354 136.998 569.629 136.998 597.979Z" fill="white"/>
</mask>
<g mask="url(#mask3_10802_147557)">
<path d="M107.429 583.947C107.441 583.947 107.452 583.947 107.464 583.947C107.681 583.924 107.829 583.741 107.818 583.524L103.992 541.211C103.97 540.994 103.787 540.845 103.57 540.857C103.353 540.879 103.204 541.062 103.216 541.279L107.041 583.593C107.064 583.798 107.235 583.947 107.429 583.947Z" fill="white"/>
</g>
<mask id="mask4_10802_147557" style="mask-type:luminance" maskUnits="userSpaceOnUse" x="19" y="540" width="118" height="58">
<path d="M136.998 597.979H19.7779C20.6342 576.742 46.2201 544.59 78.3937 540.742C80.5972 540.48 82.755 540.354 84.8558 540.354C116.733 540.354 136.998 569.629 136.998 597.979Z" fill="white"/>
</mask>
<g mask="url(#mask4_10802_147557)">
<path d="M106.081 605.434C106.172 605.434 106.252 605.4 106.332 605.343L135.708 580.806C135.868 580.669 135.891 580.43 135.754 580.258C135.617 580.099 135.377 580.076 135.206 580.213L105.829 604.749C105.67 604.886 105.647 605.126 105.784 605.297C105.864 605.377 105.966 605.434 106.081 605.434Z" fill="white"/>
</g>
<mask id="mask5_10802_147557" style="mask-type:luminance" maskUnits="userSpaceOnUse" x="19" y="540" width="118" height="58">
<path d="M136.998 597.979H19.7779C20.6342 576.742 46.2201 544.59 78.3937 540.742C80.5972 540.48 82.755 540.354 84.8558 540.354C116.733 540.354 136.998 569.629 136.998 597.979Z" fill="white"/>
</mask>
<g mask="url(#mask5_10802_147557)">
<path d="M124.544 590.01C124.555 590.01 124.578 590.01 124.589 590.01L137.285 588.377C137.502 588.354 137.65 588.16 137.616 587.943C137.593 587.726 137.388 587.578 137.182 587.612L124.486 589.245C124.27 589.268 124.121 589.462 124.155 589.679C124.19 589.873 124.361 590.01 124.544 590.01Z" fill="white"/>
</g>
<mask id="mask6_10802_147557" style="mask-type:luminance" maskUnits="userSpaceOnUse" x="19" y="540" width="118" height="58">
<path d="M136.998 597.979H19.7779C20.6342 576.742 46.2201 544.59 78.3937 540.742C80.5972 540.48 82.755 540.354 84.8558 540.354C116.733 540.354 136.998 569.629 136.998 597.979Z" fill="white"/>
</mask>
<g mask="url(#mask6_10802_147557)">
<path d="M78.0636 601.178C78.1435 601.178 78.2235 601.155 78.2805 601.109C78.4518 600.984 78.4974 600.744 78.3718 600.573L43.4353 550.974C43.3097 550.803 43.0699 550.757 42.8987 550.883C42.7274 551.008 42.6818 551.248 42.8074 551.419L77.7439 601.018C77.8238 601.121 77.938 601.178 78.0636 601.178Z" fill="white"/>
</g>
<mask id="mask7_10802_147557" style="mask-type:luminance" maskUnits="userSpaceOnUse" x="19" y="540" width="118" height="58">
<path d="M136.998 597.979H19.7779C20.6342 576.742 46.2201 544.59 78.3937 540.742C80.5972 540.48 82.755 540.354 84.8558 540.354C116.733 540.354 136.998 569.629 136.998 597.979Z" fill="white"/>
</mask>
<g mask="url(#mask7_10802_147557)">
<path d="M57.8668 572.494C58.0495 572.494 58.2207 572.357 58.2435 572.174L63.153 542.637C63.1872 542.431 63.0502 542.226 62.8333 542.191C62.6277 542.157 62.4222 542.294 62.388 542.511L57.4786 572.049C57.4443 572.254 57.5814 572.46 57.7983 572.494C57.8211 572.494 57.844 572.494 57.8668 572.494Z" fill="white"/>
</g>
<mask id="mask8_10802_147557" style="mask-type:luminance" maskUnits="userSpaceOnUse" x="19" y="540" width="118" height="58">
<path d="M136.998 597.979H19.7779C20.6342 576.742 46.2201 544.59 78.3937 540.742C80.5972 540.48 82.755 540.354 84.8558 540.354C116.733 540.354 136.998 569.629 136.998 597.979Z" fill="white"/>
</mask>
<g mask="url(#mask8_10802_147557)">
<path d="M59.4091 602.136C59.5347 602.136 59.6603 602.079 59.7288 601.965C59.843 601.782 59.7972 601.542 59.6146 601.428L21.4926 576.423C21.3099 576.309 21.0702 576.355 20.956 576.538C20.8419 576.72 20.8875 576.96 21.0702 577.074L59.1921 602.079C59.2606 602.125 59.3291 602.136 59.4091 602.136Z" fill="white"/>
</g>
<mask id="mask9_10802_147557" style="mask-type:luminance" maskUnits="userSpaceOnUse" x="19" y="540" width="118" height="58">
<path d="M136.998 597.979H19.7779C20.6342 576.742 46.2201 544.59 78.3937 540.742C80.5972 540.48 82.755 540.354 84.8558 540.354C116.733 540.354 136.998 569.629 136.998 597.979Z" fill="white"/>
</mask>
<g mask="url(#mask9_10802_147557)">
<path d="M63.7804 580.897C63.9288 580.897 64.0658 580.818 64.1343 580.669C64.2256 580.475 64.1343 580.247 63.9402 580.155L29.8257 564.799C29.6316 564.707 29.4033 564.799 29.3119 564.993C29.2206 565.187 29.3119 565.415 29.506 565.506L63.6205 580.863C63.6662 580.886 63.7233 580.897 63.7804 580.897Z" fill="white"/>
</g>
<mask id="mask10_10802_147557" style="mask-type:luminance" maskUnits="userSpaceOnUse" x="19" y="540" width="118" height="58">
<path d="M136.998 597.979H19.7779C20.6342 576.742 46.2201 544.59 78.3937 540.742C80.5972 540.48 82.755 540.354 84.8558 540.354C116.733 540.354 136.998 569.629 136.998 597.979Z" fill="white"/>
</mask>
<g mask="url(#mask10_10802_147557)">
<path d="M15.2575 590.011C15.2803 590.011 15.3031 590.011 15.3146 590.011L36.0368 586.78C36.2423 586.746 36.3907 586.552 36.3564 586.335C36.3222 586.118 36.128 585.981 35.9111 586.015L15.189 589.246C14.9835 589.281 14.835 589.475 14.8693 589.692C14.9035 589.874 15.0748 590.011 15.2575 590.011Z" fill="white"/>
</g>
<path d="M187.768 488.908C126.47 496.249 77.7183 557.505 76.0856 597.97H299.451C299.451 540.402 255.586 480.79 187.768 488.908Z" fill="#668FA3"/>
<path d="M187.768 488.908C126.47 496.249 77.7183 557.505 76.0856 597.97H299.451C299.451 540.402 255.586 480.79 187.768 488.908Z" fill="#8AA5EE"/>
<mask id="mask11_10802_147557" style="mask-type:luminance" maskUnits="userSpaceOnUse" x="76" y="488" width="224" height="110">
<path d="M299.451 597.983H76.0856C77.7183 557.518 126.47 496.262 187.768 488.921C191.97 488.418 196.069 488.179 200.088 488.179C260.85 488.167 299.451 543.977 299.451 597.983Z" fill="white"/>
</mask>
<g mask="url(#mask11_10802_147557)">
<path d="M193.305 608.508C193.511 608.508 193.682 608.348 193.693 608.143L201.845 480.219C201.857 480.002 201.697 479.82 201.48 479.808C201.24 479.797 201.08 479.957 201.069 480.174L192.917 608.097C192.905 608.314 193.065 608.497 193.282 608.508C193.294 608.508 193.294 608.508 193.305 608.508Z" fill="white"/>
</g>
<mask id="mask12_10802_147557" style="mask-type:luminance" maskUnits="userSpaceOnUse" x="76" y="488" width="224" height="110">
<path d="M299.451 597.983H76.0856C77.7183 557.518 126.47 496.262 187.768 488.921C191.97 488.418 196.069 488.179 200.088 488.179C260.85 488.167 299.451 543.977 299.451 597.983Z" fill="white"/>
</mask>
<g mask="url(#mask12_10802_147557)">
<path d="M197.381 543.464C197.472 543.464 197.552 543.43 197.632 543.373C197.792 543.235 197.815 542.996 197.689 542.824L156.165 492.587C156.028 492.427 155.788 492.404 155.617 492.53C155.457 492.667 155.434 492.906 155.56 493.078L197.084 543.315C197.152 543.418 197.267 543.464 197.381 543.464Z" fill="white"/>
</g>
<mask id="mask13_10802_147557" style="mask-type:luminance" maskUnits="userSpaceOnUse" x="76" y="488" width="224" height="110">
<path d="M299.451 597.983H76.0856C77.7183 557.518 126.47 496.262 187.768 488.921C191.97 488.418 196.069 488.179 200.088 488.179C260.85 488.167 299.451 543.977 299.451 597.983Z" fill="white"/>
</mask>
<g mask="url(#mask13_10802_147557)">
<path d="M222.969 605.564C223.106 605.564 223.231 605.495 223.3 605.369L276.721 513.457C276.823 513.274 276.766 513.035 276.584 512.932C276.401 512.829 276.161 512.886 276.059 513.069L222.638 604.981C222.535 605.164 222.592 605.404 222.775 605.506C222.832 605.541 222.9 605.564 222.969 605.564Z" fill="white"/>
</g>
<mask id="mask14_10802_147557" style="mask-type:luminance" maskUnits="userSpaceOnUse" x="76" y="488" width="224" height="110">
<path d="M299.451 597.983H76.0856C77.7183 557.518 126.47 496.262 187.768 488.921C191.97 488.418 196.069 488.179 200.088 488.179C260.85 488.167 299.451 543.977 299.451 597.983Z" fill="white"/>
</mask>
<g mask="url(#mask14_10802_147557)">
<path d="M243.107 570.911C243.119 570.911 243.13 570.911 243.142 570.911C243.358 570.888 243.507 570.705 243.495 570.488L236.2 489.857C236.177 489.64 235.994 489.491 235.777 489.503C235.561 489.526 235.412 489.708 235.424 489.925L242.719 570.557C242.742 570.762 242.902 570.911 243.107 570.911Z" fill="white"/>
</g>
<mask id="mask15_10802_147557" style="mask-type:luminance" maskUnits="userSpaceOnUse" x="76" y="488" width="224" height="110">
<path d="M299.451 597.983H76.0856C77.7183 557.518 126.47 496.262 187.768 488.921C191.97 488.418 196.069 488.179 200.088 488.179C260.85 488.167 299.451 543.977 299.451 597.983Z" fill="white"/>
</mask>
<g mask="url(#mask15_10802_147557)">
<path d="M240.537 611.83C240.629 611.83 240.709 611.796 240.789 611.739L296.778 564.984C296.938 564.847 296.961 564.607 296.824 564.436C296.687 564.276 296.447 564.253 296.276 564.39L240.286 611.145C240.126 611.282 240.104 611.522 240.241 611.693C240.321 611.785 240.435 611.83 240.537 611.83Z" fill="white"/>
</g>
<mask id="mask16_10802_147557" style="mask-type:luminance" maskUnits="userSpaceOnUse" x="76" y="488" width="224" height="110">
<path d="M299.451 597.983H76.0856C77.7183 557.518 126.47 496.262 187.768 488.921C191.97 488.418 196.069 488.179 200.088 488.179C260.85 488.167 299.451 543.977 299.451 597.983Z" fill="white"/>
</mask>
<g mask="url(#mask16_10802_147557)">
<path d="M275.724 582.455C275.736 582.455 275.758 582.455 275.77 582.455L299.963 579.338C300.18 579.315 300.328 579.121 300.294 578.904C300.271 578.687 300.066 578.539 299.86 578.573L275.667 581.69C275.45 581.713 275.302 581.907 275.336 582.124C275.37 582.307 275.53 582.455 275.724 582.455Z" fill="white"/>
</g>
<mask id="mask17_10802_147557" style="mask-type:luminance" maskUnits="userSpaceOnUse" x="76" y="488" width="224" height="110">
<path d="M299.451 597.983H76.0856C77.7183 557.518 126.47 496.262 187.768 488.921C191.97 488.418 196.069 488.179 200.088 488.179C260.85 488.167 299.451 543.977 299.451 597.983Z" fill="white"/>
</mask>
<g mask="url(#mask17_10802_147557)">
<path d="M198.545 526.267C198.671 526.267 198.808 526.198 198.876 526.073L226.095 480.402C226.209 480.219 226.14 479.979 225.958 479.877C225.775 479.762 225.535 479.831 225.432 480.014L198.214 525.684C198.1 525.867 198.168 526.107 198.351 526.21C198.408 526.255 198.476 526.267 198.545 526.267Z" fill="white"/>
</g>
<mask id="mask18_10802_147557" style="mask-type:luminance" maskUnits="userSpaceOnUse" x="76" y="488" width="224" height="110">
<path d="M299.451 597.983H76.0856C77.7183 557.518 126.47 496.262 187.768 488.921C191.97 488.418 196.069 488.179 200.088 488.179C260.85 488.167 299.451 543.977 299.451 597.983Z" fill="white"/>
</mask>
<g mask="url(#mask18_10802_147557)">
<path d="M189.356 602.753C189.425 602.753 189.493 602.731 189.562 602.696C189.744 602.582 189.801 602.342 189.687 602.16L126.322 499.401C126.208 499.218 125.968 499.161 125.785 499.275C125.603 499.389 125.546 499.629 125.66 499.812L189.025 602.571C189.093 602.696 189.219 602.753 189.356 602.753Z" fill="white"/>
</g>
<mask id="mask19_10802_147557" style="mask-type:luminance" maskUnits="userSpaceOnUse" x="76" y="488" width="224" height="110">
<path d="M299.451 597.983H76.0856C77.7183 557.518 126.47 496.262 187.768 488.921C191.97 488.418 196.069 488.179 200.088 488.179C260.85 488.167 299.451 543.977 299.451 597.983Z" fill="white"/>
</mask>
<g mask="url(#mask19_10802_147557)">
<path d="M153.462 544.557C153.576 544.557 153.702 544.5 153.77 544.397C153.896 544.226 153.862 543.986 153.69 543.861L111.173 512.953C111.002 512.828 110.762 512.862 110.636 513.033C110.511 513.204 110.545 513.444 110.716 513.57L153.234 544.477C153.302 544.523 153.382 544.557 153.462 544.557Z" fill="white"/>
</g>
<mask id="mask20_10802_147557" style="mask-type:luminance" maskUnits="userSpaceOnUse" x="76" y="488" width="224" height="110">
<path d="M299.451 597.983H76.0856C77.7183 557.518 126.47 496.262 187.768 488.921C191.97 488.418 196.069 488.179 200.088 488.179C260.85 488.167 299.451 543.977 299.451 597.983Z" fill="white"/>
</mask>
<g mask="url(#mask20_10802_147557)">
<path d="M151.602 605.563C151.705 605.563 151.819 605.517 151.888 605.437C152.025 605.277 152.013 605.038 151.853 604.889L88.0428 548.406C87.8829 548.269 87.6431 548.28 87.4947 548.44C87.3577 548.6 87.3691 548.84 87.529 548.988L151.34 605.471C151.419 605.529 151.511 605.563 151.602 605.563Z" fill="white"/>
</g>
<mask id="mask21_10802_147557" style="mask-type:luminance" maskUnits="userSpaceOnUse" x="76" y="488" width="224" height="110">
<path d="M299.451 597.983H76.0856C77.7183 557.518 126.47 496.262 187.768 488.921C191.97 488.418 196.069 488.179 200.088 488.179C260.85 488.167 299.451 543.977 299.451 597.983Z" fill="white"/>
</mask>
<g mask="url(#mask21_10802_147557)">
<path d="M115.52 573.618C115.565 573.618 115.611 573.606 115.657 573.595C115.851 573.515 115.954 573.298 115.885 573.092L101.488 534.9C101.408 534.695 101.191 534.603 100.986 534.672C100.791 534.752 100.689 534.969 100.757 535.174L115.154 573.366C115.211 573.526 115.36 573.618 115.52 573.618Z" fill="white"/>
</g>
<mask id="mask22_10802_147557" style="mask-type:luminance" maskUnits="userSpaceOnUse" x="76" y="488" width="224" height="110">
<path d="M299.451 597.983H76.0856C77.7183 557.518 126.47 496.262 187.768 488.921C191.97 488.418 196.069 488.179 200.088 488.179C260.85 488.167 299.451 543.977 299.451 597.983Z" fill="white"/>
</mask>
<g mask="url(#mask22_10802_147557)">
<path d="M134.132 590.106C134.315 590.106 134.475 589.98 134.509 589.798C134.554 589.592 134.417 589.386 134.212 589.341L70.7553 575.777C70.5498 575.731 70.3442 575.868 70.2985 576.073C70.2529 576.279 70.3899 576.485 70.5954 576.53L134.052 590.094C134.075 590.094 134.109 590.106 134.132 590.106Z" fill="white"/>
</g>
</g>
<g opacity="0.85">
<path d="M496.586 528.366C494.303 513.98 492.419 499.456 492.921 484.899C493.435 470.216 496.632 452.906 504.201 440.13C508.563 432.754 524.079 415.308 527.195 434.227C528.737 443.578 524.901 452.29 522.172 461.024C519.557 469.382 515.767 477.5 513.54 485.972C509.978 499.502 507.729 513.329 503.699 526.745" fill="#B3C3F6"/>
<path d="M504.203 535.799C507.959 517.759 512.32 499.834 519.833 483.563C526.09 469.988 534.938 456.458 546.732 446.719C554.678 440.153 578.232 424.066 586.863 436.991C593.85 447.449 584.032 460.157 577.193 467.784C567.397 478.711 556.003 488.073 546.446 499.286C535.406 512.233 525.93 526.448 514.341 538.951" fill="#B3C3F6"/>
<path d="M532.664 526.047C542.369 514.092 553.717 503.474 566.299 494.602C570.546 491.6 592.25 476.882 592.193 491.223C592.159 501.053 580.388 506.705 573.138 510.519C558.193 518.374 542.015 524.026 528.109 533.594" fill="#B3C3F6"/>
<path d="M523.984 538.858C524.086 538.858 524.178 538.823 524.258 538.743C555.198 507.801 585.145 494.294 585.442 494.157C585.636 494.066 585.728 493.838 585.636 493.644C585.545 493.449 585.317 493.358 585.122 493.449C584.826 493.586 554.753 507.151 523.71 538.195C523.561 538.344 523.561 538.595 523.71 538.743C523.789 538.823 523.881 538.858 523.984 538.858Z" fill="white"/>
<path d="M505.306 543.941C505.455 543.941 505.603 543.849 505.66 543.701C536.841 467.397 571.572 447.85 571.926 447.667C572.108 447.564 572.188 447.336 572.086 447.142C571.983 446.959 571.754 446.879 571.56 446.982C571.206 447.176 536.247 466.803 504.953 543.404C504.873 543.598 504.964 543.827 505.158 543.907C505.215 543.929 505.261 543.941 505.306 543.941Z" fill="white"/>
<path d="M498.867 539.397C499.084 539.397 499.255 539.226 499.255 539.009C499.255 467.831 519.109 439.012 519.303 438.727C519.429 438.556 519.383 438.316 519.212 438.19C519.041 438.065 518.801 438.11 518.676 438.282C518.47 438.567 498.479 467.591 498.479 539.009C498.479 539.226 498.65 539.397 498.867 539.397Z" fill="white"/>
<path d="M513.07 508.534C563.339 514.551 603.311 564.789 604.658 597.969H421.493C421.493 550.768 457.468 501.878 513.07 508.534Z" fill="#668FA3"/>
<path d="M513.07 508.534C563.339 514.551 603.311 564.789 604.658 597.969H421.493C421.493 550.768 457.468 501.878 513.07 508.534Z" fill="#8AA5EE"/>
<mask id="mask23_10802_147557" style="mask-type:luminance" maskUnits="userSpaceOnUse" x="421" y="507" width="184" height="91">
<path d="M513.07 508.533C563.339 514.55 603.311 564.788 604.658 597.968H421.493C421.493 553.679 453.152 507.928 502.977 507.917C506.265 507.928 509.633 508.122 513.07 508.533Z" fill="white"/>
</mask>
<g mask="url(#mask23_10802_147557)">
<path d="M508.537 606.68C508.548 606.68 508.548 606.68 508.56 606.68C508.777 606.669 508.937 606.486 508.925 606.269L502.246 501.375C502.235 501.158 502.052 500.998 501.835 501.01C501.618 501.021 501.458 501.204 501.47 501.421L508.149 606.315C508.16 606.532 508.332 606.68 508.537 606.68Z" fill="white"/>
</g>
<mask id="mask24_10802_147557" style="mask-type:luminance" maskUnits="userSpaceOnUse" x="421" y="507" width="184" height="91">
<path d="M513.07 508.533C563.339 514.55 603.311 564.788 604.658 597.968H421.493C421.493 553.679 453.152 507.928 502.977 507.917C506.265 507.928 509.633 508.122 513.07 508.533Z" fill="white"/>
</mask>
<g mask="url(#mask24_10802_147557)">
<path d="M505.189 553.334C505.303 553.334 505.406 553.289 505.486 553.197L539.532 512.002C539.669 511.842 539.646 511.591 539.475 511.454C539.315 511.317 539.064 511.34 538.927 511.511L504.881 552.706C504.744 552.866 504.767 553.117 504.938 553.254C505.018 553.311 505.109 553.334 505.189 553.334Z" fill="white"/>
</g>
<mask id="mask25_10802_147557" style="mask-type:luminance" maskUnits="userSpaceOnUse" x="421" y="507" width="184" height="91">
<path d="M513.07 508.533C563.339 514.55 603.311 564.788 604.658 597.968H421.493C421.493 553.679 453.152 507.928 502.977 507.917C506.265 507.928 509.633 508.122 513.07 508.533Z" fill="white"/>
</mask>
<g mask="url(#mask25_10802_147557)">
<path d="M484.217 604.26C484.285 604.26 484.354 604.249 484.411 604.203C484.593 604.1 484.662 603.861 484.548 603.678L440.74 528.31C440.637 528.127 440.397 528.059 440.215 528.173C440.032 528.276 439.964 528.515 440.078 528.698L483.886 604.066C483.954 604.192 484.08 604.26 484.217 604.26Z" fill="white"/>
</g>
<mask id="mask26_10802_147557" style="mask-type:luminance" maskUnits="userSpaceOnUse" x="421" y="507" width="184" height="91">
<path d="M513.07 508.533C563.339 514.55 603.311 564.788 604.658 597.968H421.493C421.493 553.679 453.152 507.928 502.977 507.917C506.265 507.928 509.633 508.122 513.07 508.533Z" fill="white"/>
</mask>
<g mask="url(#mask26_10802_147557)">
<path d="M467.695 575.853C467.89 575.853 468.061 575.705 468.084 575.499L474.066 509.379C474.089 509.162 473.929 508.98 473.712 508.957C473.507 508.945 473.313 509.094 473.29 509.311L467.307 575.431C467.284 575.648 467.444 575.83 467.661 575.853C467.673 575.842 467.684 575.853 467.695 575.853Z" fill="white"/>
</g>
<mask id="mask27_10802_147557" style="mask-type:luminance" maskUnits="userSpaceOnUse" x="421" y="507" width="184" height="91">
<path d="M513.07 508.533C563.339 514.55 603.311 564.788 604.658 597.968H421.493C421.493 553.679 453.152 507.928 502.977 507.917C506.265 507.928 509.633 508.122 513.07 508.533Z" fill="white"/>
</mask>
<g mask="url(#mask27_10802_147557)">
<path d="M469.799 609.407C469.913 609.407 470.016 609.361 470.096 609.27C470.233 609.11 470.21 608.859 470.05 608.722L424.141 570.381C423.982 570.244 423.73 570.267 423.593 570.427C423.456 570.587 423.479 570.838 423.639 570.975L469.548 609.316C469.627 609.373 469.719 609.407 469.799 609.407Z" fill="white"/>
</g>
<mask id="mask28_10802_147557" style="mask-type:luminance" maskUnits="userSpaceOnUse" x="421" y="507" width="184" height="91">
<path d="M513.07 508.533C563.339 514.55 603.311 564.788 604.658 597.968H421.493C421.493 553.679 453.152 507.928 502.977 507.917C506.265 507.928 509.633 508.122 513.07 508.533Z" fill="white"/>
</mask>
<g mask="url(#mask28_10802_147557)">
<path d="M440.945 585.317C441.139 585.317 441.299 585.18 441.322 584.975C441.345 584.769 441.196 584.575 440.991 584.541L421.159 581.983C420.954 581.96 420.76 582.109 420.725 582.314C420.702 582.52 420.851 582.714 421.056 582.748L440.888 585.306C440.911 585.317 440.934 585.317 440.945 585.317Z" fill="white"/>
</g>
<mask id="mask29_10802_147557" style="mask-type:luminance" maskUnits="userSpaceOnUse" x="421" y="507" width="184" height="91">
<path d="M513.07 508.533C563.339 514.55 603.311 564.788 604.658 597.968H421.493C421.493 553.679 453.152 507.928 502.977 507.917C506.265 507.928 509.633 508.122 513.07 508.533Z" fill="white"/>
</mask>
<g mask="url(#mask29_10802_147557)">
<path d="M504.243 539.236C504.312 539.236 504.38 539.213 504.437 539.179C504.62 539.064 504.677 538.836 504.574 538.653L482.254 501.203C482.14 501.021 481.911 500.964 481.729 501.066C481.546 501.181 481.489 501.409 481.591 501.592L503.912 539.042C503.981 539.179 504.106 539.236 504.243 539.236Z" fill="white"/>
</g>
<mask id="mask30_10802_147557" style="mask-type:luminance" maskUnits="userSpaceOnUse" x="421" y="507" width="184" height="91">
<path d="M513.07 508.533C563.339 514.55 603.311 564.788 604.658 597.968H421.493C421.493 553.679 453.152 507.928 502.977 507.917C506.265 507.928 509.633 508.122 513.07 508.533Z" fill="white"/>
</mask>
<g mask="url(#mask30_10802_147557)">
<path d="M511.781 601.964C511.907 601.964 512.033 601.895 512.112 601.781L564.072 517.519C564.186 517.336 564.129 517.096 563.946 516.982C563.764 516.868 563.524 516.925 563.41 517.108L511.45 601.37C511.336 601.553 511.393 601.793 511.576 601.907C511.644 601.941 511.713 601.964 511.781 601.964Z" fill="white"/>
</g>
<mask id="mask31_10802_147557" style="mask-type:luminance" maskUnits="userSpaceOnUse" x="421" y="507" width="184" height="91">
<path d="M513.07 508.533C563.339 514.55 603.311 564.788 604.658 597.968H421.493C421.493 553.679 453.152 507.928 502.977 507.917C506.265 507.928 509.633 508.122 513.07 508.533Z" fill="white"/>
</mask>
<g mask="url(#mask31_10802_147557)">
<path d="M529.225 573.682C529.293 573.682 529.362 573.659 529.43 573.625L584.347 539.338C584.529 539.224 584.587 538.984 584.472 538.801C584.358 538.619 584.118 538.561 583.936 538.676L529.019 572.963C528.836 573.077 528.779 573.317 528.894 573.5C528.962 573.614 529.088 573.682 529.225 573.682Z" fill="white"/>
</g>
<mask id="mask32_10802_147557" style="mask-type:luminance" maskUnits="userSpaceOnUse" x="421" y="507" width="184" height="91">
<path d="M513.07 508.533C563.339 514.55 603.311 564.788 604.658 597.968H421.493C421.493 553.679 453.152 507.928 502.977 507.917C506.265 507.928 509.633 508.122 513.07 508.533Z" fill="white"/>
</mask>
<g mask="url(#mask32_10802_147557)">
<path d="M542.74 604.259C542.831 604.259 542.923 604.225 542.991 604.157L595.316 557.835C595.476 557.698 595.487 557.447 595.35 557.287C595.213 557.127 594.962 557.116 594.802 557.253L542.478 603.574C542.318 603.711 542.306 603.963 542.443 604.122C542.523 604.225 542.626 604.259 542.74 604.259Z" fill="white"/>
</g>
<mask id="mask33_10802_147557" style="mask-type:luminance" maskUnits="userSpaceOnUse" x="421" y="507" width="184" height="91">
<path d="M513.07 508.533C563.339 514.55 603.311 564.788 604.658 597.968H421.493C421.493 553.679 453.152 507.928 502.977 507.917C506.265 507.928 509.633 508.122 513.07 508.533Z" fill="white"/>
</mask>
<g mask="url(#mask33_10802_147557)">
<path d="M565.588 584.038C565.611 584.038 565.622 584.038 565.645 584.038L604.714 578.192C604.92 578.158 605.068 577.964 605.034 577.758C605 577.541 604.806 577.393 604.6 577.439L565.531 583.285C565.325 583.319 565.177 583.513 565.211 583.718C565.234 583.901 565.405 584.038 565.588 584.038Z" fill="white"/>
</g>
<path d="M618.806 540.744C650.98 544.592 676.566 576.744 677.422 597.981H560.202C560.202 567.758 583.219 536.474 618.806 540.744Z" fill="#B3CDE0"/>
<path d="M618.806 540.744C650.98 544.592 676.566 576.744 677.422 597.981H560.202C560.202 567.758 583.219 536.474 618.806 540.744Z" fill="#B3C3F6"/>
<mask id="mask34_10802_147557" style="mask-type:luminance" maskUnits="userSpaceOnUse" x="560" y="540" width="118" height="58">
<path d="M618.808 540.743C650.981 544.591 676.567 576.743 677.412 597.98H560.203C560.203 569.641 580.469 540.355 612.346 540.355C614.446 540.343 616.604 540.48 618.808 540.743Z" fill="white"/>
</mask>
<g mask="url(#mask34_10802_147557)">
<path d="M615.908 603.69C615.92 603.69 615.92 603.69 615.931 603.69C616.148 603.679 616.308 603.496 616.296 603.279L612.015 536.143C612.003 535.926 611.844 535.767 611.604 535.778C611.387 535.789 611.227 535.972 611.238 536.189L615.52 603.325C615.531 603.53 615.703 603.69 615.908 603.69Z" fill="white"/>
</g>
<mask id="mask35_10802_147557" style="mask-type:luminance" maskUnits="userSpaceOnUse" x="560" y="540" width="118" height="58">
<path d="M618.808 540.743C650.981 544.591 676.567 576.743 677.412 597.98H560.203C560.203 569.641 580.469 540.355 612.346 540.355C614.446 540.343 616.604 540.48 618.808 540.743Z" fill="white"/>
</mask>
<g mask="url(#mask35_10802_147557)">
<path d="M613.77 569.549C613.93 569.549 614.079 569.446 614.136 569.286L624.879 538.881C624.948 538.675 624.845 538.459 624.639 538.39C624.434 538.322 624.217 538.424 624.149 538.63L613.405 569.035C613.337 569.241 613.439 569.458 613.645 569.526C613.679 569.537 613.725 569.549 613.77 569.549Z" fill="white"/>
</g>
<mask id="mask36_10802_147557" style="mask-type:luminance" maskUnits="userSpaceOnUse" x="560" y="540" width="118" height="58">
<path d="M618.808 540.743C650.981 544.591 676.567 576.743 677.412 597.98H560.203C560.203 569.641 580.469 540.355 612.346 540.355C614.446 540.343 616.604 540.48 618.808 540.743Z" fill="white"/>
</mask>
<g mask="url(#mask36_10802_147557)">
<path d="M600.346 602.136C600.414 602.136 600.483 602.125 600.54 602.079C600.722 601.976 600.791 601.736 600.677 601.554L572.636 553.325C572.533 553.143 572.294 553.074 572.111 553.188C571.928 553.291 571.86 553.531 571.974 553.714L600.014 601.942C600.083 602.068 600.209 602.136 600.346 602.136Z" fill="white"/>
</g>
<mask id="mask37_10802_147557" style="mask-type:luminance" maskUnits="userSpaceOnUse" x="560" y="540" width="118" height="58">
<path d="M618.808 540.743C650.981 544.591 676.567 576.743 677.412 597.98H560.203C560.203 569.641 580.469 540.355 612.346 540.355C614.446 540.343 616.604 540.48 618.808 540.743Z" fill="white"/>
</mask>
<g mask="url(#mask37_10802_147557)">
<path d="M589.771 583.947C589.965 583.947 590.136 583.798 590.159 583.593L593.984 541.279C594.007 541.062 593.847 540.879 593.63 540.857C593.425 540.845 593.231 540.994 593.208 541.211L589.382 583.524C589.359 583.741 589.519 583.924 589.736 583.947C589.748 583.947 589.759 583.947 589.771 583.947Z" fill="white"/>
</g>
<mask id="mask38_10802_147557" style="mask-type:luminance" maskUnits="userSpaceOnUse" x="560" y="540" width="118" height="58">
<path d="M618.808 540.743C650.981 544.591 676.567 576.743 677.412 597.98H560.203C560.203 569.641 580.469 540.355 612.346 540.355C614.446 540.343 616.604 540.48 618.808 540.743Z" fill="white"/>
</mask>
<g mask="url(#mask38_10802_147557)">
<path d="M591.119 605.434C591.233 605.434 591.336 605.389 591.416 605.297C591.553 605.138 591.53 604.886 591.37 604.749L561.994 580.213C561.834 580.076 561.583 580.099 561.446 580.258C561.309 580.418 561.332 580.669 561.491 580.806L590.868 605.343C590.936 605.4 591.028 605.434 591.119 605.434Z" fill="white"/>
</g>
<mask id="mask39_10802_147557" style="mask-type:luminance" maskUnits="userSpaceOnUse" x="560" y="540" width="118" height="58">
<path d="M618.808 540.743C650.981 544.591 676.567 576.743 677.412 597.98H560.203C560.203 569.641 580.469 540.355 612.346 540.355C614.446 540.343 616.604 540.48 618.808 540.743Z" fill="white"/>
</mask>
<g mask="url(#mask39_10802_147557)">
<path d="M572.646 590.009C572.84 590.009 573 589.872 573.023 589.666C573.046 589.461 572.897 589.267 572.692 589.232L559.996 587.6C559.791 587.577 559.596 587.725 559.562 587.931C559.539 588.136 559.688 588.33 559.893 588.365L572.589 589.997C572.612 590.009 572.635 590.009 572.646 590.009Z" fill="white"/>
</g>
<mask id="mask40_10802_147557" style="mask-type:luminance" maskUnits="userSpaceOnUse" x="560" y="540" width="118" height="58">
<path d="M618.808 540.743C650.981 544.591 676.567 576.743 677.412 597.98H560.203C560.203 569.641 580.469 540.355 612.346 540.355C614.446 540.343 616.604 540.48 618.808 540.743Z" fill="white"/>
</mask>
<g mask="url(#mask40_10802_147557)">
<path d="M613.153 560.529C613.222 560.529 613.29 560.507 613.347 560.472C613.53 560.358 613.587 560.13 613.484 559.947L599.202 535.981C599.087 535.799 598.859 535.742 598.676 535.844C598.494 535.959 598.437 536.187 598.539 536.37L612.822 560.335C612.891 560.461 613.016 560.529 613.153 560.529Z" fill="white"/>
</g>
<mask id="mask41_10802_147557" style="mask-type:luminance" maskUnits="userSpaceOnUse" x="560" y="540" width="118" height="58">
<path d="M618.808 540.743C650.981 544.591 676.567 576.743 677.412 597.98H560.203C560.203 569.641 580.469 540.355 612.346 540.355C614.446 540.343 616.604 540.48 618.808 540.743Z" fill="white"/>
</mask>
<g mask="url(#mask41_10802_147557)">
<path d="M624.502 602.137C624.639 602.137 624.765 602.069 624.834 601.943L654.393 551.374C654.495 551.192 654.438 550.952 654.256 550.849C654.073 550.746 653.833 550.803 653.73 550.986L624.171 601.555C624.069 601.738 624.126 601.977 624.308 602.08C624.377 602.126 624.434 602.137 624.502 602.137Z" fill="white"/>
</g>
<mask id="mask42_10802_147557" style="mask-type:luminance" maskUnits="userSpaceOnUse" x="560" y="540" width="118" height="58">
<path d="M618.808 540.743C650.981 544.591 676.567 576.743 677.412 597.98H560.203C560.203 569.641 580.469 540.355 612.346 540.355C614.446 540.343 616.604 540.48 618.808 540.743Z" fill="white"/>
</mask>
<g mask="url(#mask42_10802_147557)">
<path d="M635.135 583.949C635.146 583.949 635.146 583.949 635.135 583.949C635.352 583.949 635.523 583.767 635.523 583.561L634.815 542.56C634.815 542.343 634.598 542.172 634.427 542.183C634.21 542.183 634.038 542.366 634.05 542.572L634.758 583.573C634.758 583.789 634.929 583.949 635.135 583.949Z" fill="white"/>
</g>
<mask id="mask43_10802_147557" style="mask-type:luminance" maskUnits="userSpaceOnUse" x="560" y="540" width="118" height="58">
<path d="M618.808 540.743C650.981 544.591 676.567 576.743 677.412 597.98H560.203C560.203 569.641 580.469 540.355 612.346 540.355C614.446 540.343 616.604 540.48 618.808 540.743Z" fill="white"/>
</mask>
<g mask="url(#mask43_10802_147557)">
<path d="M637.793 602.136C637.885 602.136 637.976 602.102 638.044 602.034L671.531 572.393C671.691 572.256 671.702 572.005 671.565 571.845C671.428 571.685 671.177 571.674 671.017 571.811L637.531 601.451C637.371 601.588 637.359 601.839 637.496 601.999C637.576 602.091 637.691 602.136 637.793 602.136Z" fill="white"/>
</g>
<mask id="mask44_10802_147557" style="mask-type:luminance" maskUnits="userSpaceOnUse" x="560" y="540" width="118" height="58">
<path d="M618.808 540.743C650.981 544.591 676.567 576.743 677.412 597.98H560.203C560.203 569.641 580.469 540.355 612.346 540.355C614.446 540.343 616.604 540.48 618.808 540.743Z" fill="white"/>
</mask>
<g mask="url(#mask44_10802_147557)">
<path d="M652.421 589.189C652.444 589.189 652.456 589.189 652.478 589.189L677.482 585.455C677.688 585.421 677.836 585.227 677.802 585.021C677.767 584.804 677.573 584.667 677.368 584.702L652.364 588.435C652.159 588.469 652.01 588.663 652.045 588.869C652.067 589.052 652.227 589.189 652.421 589.189Z" fill="white"/>
</g>
</g>
<path d="M347.44 526.95L343.49 525.089L319.228 576.639C318.052 579.14 315.643 580.841 312.903 581.115L312.618 581.515L318.977 584.506C319.217 584.62 319.48 584.632 319.731 584.552L319.959 584.472C321.546 583.958 322.848 582.805 323.567 581.298L348.182 528.993C348.536 528.228 348.205 527.315 347.44 526.95Z" fill="#8DA1B5"/>
<path d="M279.074 464.177L324 518.206L340.43 528.002L317.093 577.589C316.317 579.233 314.353 579.941 312.709 579.165C311.476 578.582 310.722 577.304 310.825 575.945L313.211 543.028L264.003 502.575" fill="#FFA98F"/>
<path d="M310.951 540.539L309.912 577.669C309.867 579.199 310.86 580.695 312.413 581.426C314.479 582.396 317.162 581.06 318.019 579.234L343.49 525.091L323.373 517.829C323.362 517.829 325.303 530.32 310.951 540.539Z" fill="#071A22"/>
<path d="M255.393 274.793L248.954 289.704C246.853 294.557 243.747 298.884 239.82 302.412C222.158 318.272 177.494 380.681 177.003 406.987C176.409 438.762 274.014 541.19 274.014 541.19L312.125 498.431L235.402 406.884L302.021 343.253C302.021 343.253 332.447 332.532 320.185 278.07" fill="#032D5F"/>
<path d="M300.904 498.224L229.079 408.938C226.453 406.05 226.795 401.54 229.832 399.085L290.902 337.783C290.902 337.783 321.341 326.628 309.113 270.099" stroke="#15489B" stroke-width="0.62587" stroke-miterlimit="10" stroke-dasharray="1.67 1.67"/>
<path d="M301.132 504.79L224.911 411.073C221.166 406.963 221.668 400.546 225.984 397.052C225.984 397.052 291.119 333.148 291.359 333.045C294.59 331.641 314.41 320.314 302.936 267.233" stroke="#15489B" stroke-width="0.62587" stroke-miterlimit="10"/>
<path d="M305.309 490.607L317.902 502.276L276.721 544.864L265.144 532.613L305.309 490.607Z" fill="#064487"/>
<path d="M226.143 598.459V594.086H169.171C166.408 594.086 163.851 592.636 162.435 590.261L161.944 590.169V597.203C161.944 597.465 162.047 597.716 162.218 597.911L162.389 598.093C163.531 599.315 165.129 600 166.796 600H224.601C225.446 599.989 226.143 599.304 226.143 598.459Z" fill="#8DA1B5"/>
<path d="M247.584 518.435L224.065 573.514L222.204 592.547H167.413C165.597 592.547 164.113 591.074 164.113 589.248C164.113 587.889 164.958 586.656 166.225 586.165L197.017 574.313L212.67 512.555" fill="#FFA98F"/>
<path d="M198.309 571.217L164.274 586.083C162.87 586.7 161.934 588.23 161.934 589.942C161.934 592.226 164.286 594.075 166.295 594.075H226.121L224.123 572.782C224.146 572.782 213.665 579.849 198.309 571.217Z" fill="#071A22"/>
<path d="M342.154 284.851C342.154 284.851 344.551 318.51 329.732 350.286C314.912 382.073 254.972 566.662 254.972 566.662L201.802 543.793L266.298 324.105C266.298 324.105 268.433 296.703 279.508 260.6" fill="#03387D"/>
<path d="M240.076 560.269L313.796 349.989C313.796 349.989 328.787 323.808 328.787 303.873" stroke="#1B5ABF" stroke-width="0.62587" stroke-miterlimit="10"/>
<path d="M244.228 562.048L319.742 349.976C319.742 349.976 334.732 323.807 334.732 303.86" stroke="#1B5ABF" stroke-width="0.62587" stroke-miterlimit="10" stroke-dasharray="1.67 1.67"/>
<path d="M259.561 552.561L254.457 569.037L200.237 547.229L205.238 532.055L259.561 552.561Z" fill="#044AA1"/>
<path d="M324.504 327.254C324.504 327.254 309.445 319.718 305.54 302.569" stroke="#1B5ABF" stroke-width="0.62587" stroke-miterlimit="10"/>
<path d="M266.148 329.927C266.148 329.927 260.154 323.042 260.725 317.413C262.301 301.908 266.148 282.281 266.148 282.281" stroke="#00276F" stroke-width="0.62587" stroke-miterlimit="10"/>
<path d="M191.365 185.071L204.678 171.542C204.678 171.542 192.222 140.268 190.829 140.565C187.963 141.182 193.124 154.483 193.124 154.483C193.124 154.483 185.817 140.257 184.8 141.193C182.974 142.872 188.226 157.441 188.226 157.441C188.226 157.441 181.855 143.351 180.61 144.847C179.366 146.331 185.166 168.196 185.166 168.196L191.365 185.071Z" fill="#FFA98F"/>
<path d="M207.225 173.004L204.736 168.186C204.736 168.186 203.959 159.965 201.847 153.971C199.735 147.977 198.182 145.088 197.075 145.088C195.967 145.088 197.075 154.416 197.075 154.416C197.075 154.416 195.157 162.443 197.942 167.661" fill="#FFA98F"/>
<path d="M190.588 171.186L199.848 162.531C200.247 162.177 200.384 161.584 200.179 161.07L189.652 133.428C189.652 133.428 189.173 133.542 188.819 133.633C188.624 133.679 188.396 133.736 188.225 133.873L178.086 142.71C177.687 143.064 177.55 143.658 177.755 144.172L188.282 170.843C188.442 171.243 188.773 171.471 189.138 171.494L190.588 171.186Z" fill="#0A172B"/>
<path d="M190.876 171.005L200.912 162.259C201.312 161.905 201.449 161.311 201.243 160.797L190.659 133.977C190.431 133.395 189.757 133.212 189.301 133.6L179.162 142.438C178.763 142.792 178.626 143.385 178.831 143.899L189.358 170.582C189.609 171.233 190.374 171.45 190.876 171.005Z" fill="#00276F"/>
<path d="M200.488 158.878L188.763 169.097L179.561 145.759L191.275 135.54L200.488 158.878Z" fill="#8DADE0"/>
<path d="M195.249 165.114C195.34 165.48 195.637 165.662 195.911 165.502C196.185 165.343 196.334 164.92 196.243 164.555C196.151 164.189 195.854 164.007 195.58 164.167C195.306 164.315 195.157 164.737 195.249 165.114Z" fill="#8DADE0"/>
<path d="M186.057 138.112L184.012 139.939" stroke="#8DADE0" stroke-width="0.208623" stroke-miterlimit="10" stroke-linecap="round"/>
<g opacity="0.55">
<mask id="mask45_10802_147557" style="mask-type:luminance" maskUnits="userSpaceOnUse" x="192" y="141" width="2" height="3">
<path d="M192.039 141.73H193.033V143.112H192.039V141.73Z" fill="white"/>
</mask>
<g mask="url(#mask45_10802_147557)">
<path d="M192.072 142.678C192.163 143.032 192.438 143.192 192.7 143.043C192.963 142.895 193.1 142.495 193.009 142.141C192.917 141.787 192.643 141.627 192.381 141.776C192.129 141.924 191.981 142.335 192.072 142.678Z" fill="#8DADE0"/>
</g>
</g>
<g opacity="0.51">
<mask id="mask46_10802_147557" style="mask-type:luminance" maskUnits="userSpaceOnUse" x="181" y="140" width="12" height="11">
<path d="M181.947 140.886H192.086V150.648H181.947V140.886Z" fill="white"/>
</mask>
<g mask="url(#mask46_10802_147557)">
<path d="M182.543 146.571L188.72 141.193C189.382 140.622 190.375 140.885 190.706 141.741L191.46 143.705L192.088 143.807L184.541 150.35C183.879 150.921 182.897 150.658 182.555 149.802L182.075 148.614C181.801 147.895 181.984 147.062 182.543 146.571Z" fill="white"/>
</g>
</g>
<path d="M189.506 142.483L183.284 147.895" stroke="#8DADE0" stroke-width="0.208623" stroke-miterlimit="10" stroke-linecap="round"/>
<path d="M190.088 143.967L186.514 147.072" stroke="#8DADE0" stroke-width="0.208623" stroke-miterlimit="10" stroke-linecap="round"/>
<g opacity="0.55">
<mask id="mask47_10802_147557" style="mask-type:luminance" maskUnits="userSpaceOnUse" x="198" y="156" width="2" height="2">
<path d="M198.059 156.06H199.053V157.442H198.059V156.06Z" fill="white"/>
</mask>
<g mask="url(#mask47_10802_147557)">
<path d="M198.092 157.021C198.183 157.374 198.457 157.534 198.72 157.386C198.983 157.237 199.12 156.838 199.028 156.484C198.937 156.13 198.663 155.97 198.4 156.119C198.149 156.267 198 156.667 198.092 157.021Z" fill="#8DADE0"/>
</g>
</g>
<g opacity="0.51">
<mask id="mask48_10802_147557" style="mask-type:luminance" maskUnits="userSpaceOnUse" x="187" y="155" width="12" height="10">
<path d="M187.971 155.226H198.109V164.988H187.971V155.226Z" fill="white"/>
</mask>
<g mask="url(#mask48_10802_147557)">
<path d="M188.563 160.91L194.739 155.532C195.402 154.962 196.395 155.224 196.726 156.08L197.479 158.044L198.107 158.147L190.561 164.689C189.898 165.26 188.917 164.998 188.574 164.141L188.095 162.954C187.809 162.235 188.003 161.39 188.563 160.91Z" fill="white"/>
</g>
</g>
<path d="M195.523 156.823L189.301 162.235" stroke="#8DADE0" stroke-width="0.208623" stroke-miterlimit="10" stroke-linecap="round"/>
<path d="M196.094 158.309L192.52 161.415" stroke="#8DADE0" stroke-width="0.208623" stroke-miterlimit="10" stroke-linecap="round"/>
<g opacity="0.55">
<mask id="mask49_10802_147557" style="mask-type:luminance" maskUnits="userSpaceOnUse" x="184" y="157" width="2" height="2">
<path d="M184.969 157.028H185.963V158.41H184.969V157.028Z" fill="white"/>
</mask>
<g mask="url(#mask49_10802_147557)">
<path d="M184.992 157.976C185.083 158.33 185.358 158.49 185.62 158.341C185.883 158.193 186.02 157.793 185.929 157.439C185.837 157.085 185.563 156.925 185.3 157.074C185.049 157.222 184.912 157.622 184.992 157.976Z" fill="#8DADE0"/>
</g>
</g>
<g opacity="0.51">
<mask id="mask50_10802_147557" style="mask-type:luminance" maskUnits="userSpaceOnUse" x="185" y="146" width="11" height="13">
<path d="M185.712 146.982H195.291V158.103H185.712V146.982Z" fill="white"/>
</mask>
<g mask="url(#mask50_10802_147557)">
<path d="M186.136 153.055L192.815 147.232C193.363 146.752 194.197 146.981 194.471 147.689L195.201 149.538C195.395 150.052 195.27 150.634 194.87 150.977L186.638 158.09L186.855 157.097L185.816 154.482C185.611 153.991 185.748 153.397 186.136 153.055Z" fill="white"/>
</g>
</g>
<path d="M193.387 148.729L187.153 154.141" stroke="#8DADE0" stroke-width="0.208623" stroke-miterlimit="10" stroke-linecap="round"/>
<path d="M193.959 150.212L190.385 153.318" stroke="#8DADE0" stroke-width="0.208623" stroke-miterlimit="10" stroke-linecap="round"/>
<path d="M189.859 153.821L188.477 155.031" stroke="#8DADE0" stroke-width="0.208623" stroke-miterlimit="10" stroke-linecap="round"/>
<path d="M246.237 191.374L233.096 212.474L204.747 168.196C204.747 168.196 184.516 170.08 186.834 180.105C198.08 208.489 207.225 251.625 229.34 253.806C253.624 256.204 284.576 210.807 284.576 210.807" fill="#FFA98F"/>
<path d="M243.04 232.715L243.576 232.521C239.26 220.612 233.381 212.392 233.324 212.3L232.867 212.631C232.913 212.711 238.758 220.886 243.04 232.715Z" fill="#061728"/>
<path d="M189.128 185.744C189.128 185.744 180.977 165.866 179.972 162.098C178.967 158.319 176.375 147.895 178.031 147.895C179.698 147.895 183.637 157.874 184.082 159.541C187.416 161.322 192.143 164.542 192.085 170.319" fill="#FFA98F"/>
<path d="M297.148 135.54C297.148 135.54 269.416 138.12 238.806 200.164C244.8 208.887 275.958 227.315 284.578 227.144C293.905 213.511 302.674 178.619 302.674 178.619" fill="#0568E0"/>
<path d="M269.78 189.979C278.4 155.932 291.37 139.57 291.37 139.57L319.833 131.407L342.861 160.019C366.015 230.387 343.877 307.764 343.877 307.764C327.916 314.569 261.833 300.731 245.712 284.609C245.724 284.609 262.518 218.672 269.78 189.979Z" fill="#0568E0"/>
<path d="M262.715 218.161C262.715 218.161 274.783 164.543 280.982 154.427" stroke="#225BAF" stroke-width="0.62587" stroke-miterlimit="10"/>
<path d="M370.663 185.07C370.663 185.07 384.592 222.542 380.915 244.522C375.264 278.306 320.815 310.573 320.815 310.573C320.815 310.573 322.653 319.661 318.806 323.977C309.238 316.83 306.156 308.152 306.156 308.152L310.711 300.582C310.711 300.582 340.544 253.621 339.676 238.15C339.06 227.212 322.094 172.887 322.094 172.887" fill="#FFA98F"/>
<path d="M319.835 131.407C319.835 131.407 350.068 139.879 362.878 162.817C378.405 190.607 381.465 214.242 381.465 214.242C368.221 227.487 341.55 233.23 326.902 230.193L316.467 177.02" fill="#0568E0"/>
<path d="M326.91 230.193L317.297 181.199" stroke="#225BAF" stroke-width="0.62587" stroke-miterlimit="10"/>
<path d="M301.84 126.338C312.276 125.208 338.878 126.304 340.91 143.99C341.698 150.818 334.882 155.339 330.509 157.04C324.481 159.381 317.368 160.191 311.157 160.02C302.548 159.792 293.175 159.564 285.834 155.042C280.296 151.628 278.949 149.196 277.773 146.056C276.392 142.357 279.2 137.048 281.392 134.604C286.633 128.736 294.99 127.08 301.84 126.338Z" fill="#0568E0"/>
<path d="M288.494 115.994L303.839 89.3789L315.884 110.627L315.084 115.514L319.834 131.407C315.084 145.497 295.458 147.072 291.371 139.571L288.494 115.994Z" fill="#FFA98F"/>
<path d="M274.954 80.291C272.442 89.7677 266.254 111.336 279.647 124.466C285.595 130.301 302.344 125.482 306.831 119.728C310.724 114.738 314.401 87.9751 307.402 81.4556C300.415 74.9361 278.482 67.0123 274.954 80.291Z" fill="#FFA98F"/>
<path d="M300.413 85.2017C301.417 84.4823 302.342 83.6488 303.233 82.7811C306.521 79.5499 309.478 75.6565 311.042 71.2949C311.202 70.861 311.339 70.4157 311.465 69.9705C311.955 70.1303 312.424 70.3016 312.892 70.5071C317.116 72.3453 320.461 76.1018 321.808 80.5204C322.927 84.1969 324.297 90.3168 321.295 94.7583C319.868 96.8705 318.463 99.1883 318.064 101.7L315.689 111.919C315.689 111.919 310.882 108.471 310.357 108.06C308.462 106.553 307.765 104.623 306.247 102.785C302.434 98.1607 299.83 91.5271 298.255 86.743C298.951 86.195 299.693 85.704 300.413 85.2017Z" fill="#061728"/>
<path d="M302.915 100.373C303.84 98.6947 305.05 96.788 306.82 96.6281C307.733 96.5482 308.601 96.9821 309.263 97.6101C312.665 100.853 312.928 107.098 309.366 110.352C307.87 111.711 305.803 112.339 304.411 110.455L302.629 101.549C302.504 101.172 302.709 100.739 302.915 100.373Z" fill="#FFA98F"/>
<path d="M289.816 127.435C289.942 127.435 302.307 126.898 307.49 119.248L307.022 118.928C302.01 126.339 289.919 126.864 289.805 126.864L289.816 127.435Z" fill="#061728"/>
<path d="M283.481 107.83L283.504 107.259L281.654 107.19C280.9 107.168 280.215 106.802 279.77 106.197C279.325 105.592 279.176 104.827 279.37 104.096L281.574 95.8413L281.026 95.6929L278.822 103.948C278.582 104.838 278.765 105.786 279.313 106.528C279.861 107.27 280.706 107.716 281.631 107.761L283.481 107.83Z" fill="#061728"/>
<path d="M287.372 95.475C287.166 96.0801 287.212 96.8907 287.178 97.3817C287.121 98.2495 288.057 98.7176 288.857 98.4664C290.33 97.9868 290.056 94.5045 288.24 94.7214C287.772 94.7671 287.509 95.0753 287.372 95.475Z" fill="#061728"/>
<path d="M275.122 95.475C274.916 96.0801 274.962 96.8907 274.928 97.3817C274.871 98.2495 275.807 98.7176 276.607 98.4664C278.08 97.9868 277.806 94.5045 275.99 94.7214C275.522 94.7671 275.259 95.0753 275.122 95.475Z" fill="#061728"/>
<path d="M278.581 112.888L289.713 110.89C289.713 110.89 288.948 117.775 284.632 118.437C279.62 119.213 278.581 112.888 278.581 112.888Z" fill="white"/>
<path d="M306.236 111.587C309.056 111.587 311.008 108.732 311.1 108.595L310.632 108.276C310.609 108.31 308.211 111.815 305.117 110.845L304.946 111.393C305.391 111.518 305.825 111.587 306.236 111.587Z" fill="#061728"/>
<path d="M303.027 158.912C303.027 158.912 291.199 201.797 296.337 240.629" stroke="#EBEFF5" stroke-width="0.834493" stroke-miterlimit="10" stroke-linecap="round" stroke-linejoin="round"/>
<path d="M297.9 158.72C297.9 158.72 280.432 199.641 280.341 238.815" stroke="#EBEFF5" stroke-width="0.834493" stroke-miterlimit="10" stroke-linecap="round" stroke-linejoin="round"/>
<path d="M302.295 64.3745C306.37 64.9225 308.129 65.3107 310.104 66.4068C311.748 67.3202 315.79 70.4943 316.269 73.5543C317.114 78.9548 307.352 85.2688 297.967 86.6275C296.186 86.8901 292.601 86.5819 287.407 85.7141C275.955 83.8074 262.814 78.8407 263.533 64.2831C263.533 64.2831 265.52 66.9663 267.541 67.1375C267.541 67.1375 263.59 58.3459 273.009 52.1233C272.507 52.4544 277.359 57.0215 277.668 57.2384C282.166 60.3783 286.356 62.3421 290.227 63.1756C293.914 63.9634 293.777 63.2327 302.295 64.3745Z" fill="#061728"/>
<path d="M293.414 90.7044C293.129 90.0536 292.615 89.5626 292.044 89.1858C291.462 88.8091 290.788 88.5693 290.08 88.4894C288.665 88.3067 287.146 88.889 286.37 90.0422C287.089 90.0193 287.671 89.9166 288.253 89.928C288.824 89.9052 289.361 89.928 289.909 89.9965C291.005 90.1107 292.078 90.3961 293.414 90.7044Z" fill="#061728"/>
<path d="M279.986 89.8146C279.884 89.2209 279.518 88.7299 279.05 88.3646C278.582 88.0106 277.977 87.7709 277.36 87.7594C276.744 87.748 276.139 87.885 275.648 88.1933C275.385 88.3303 275.18 88.5473 274.974 88.7299C274.791 88.9583 274.62 89.1752 274.495 89.4493C274.803 89.4607 275.066 89.415 275.317 89.3922C275.568 89.3808 275.808 89.3351 276.036 89.3237C276.493 89.278 276.904 89.278 277.292 89.278C278.102 89.3008 278.879 89.4835 279.986 89.8146Z" fill="#061728"/>
<path d="M326.625 148.693C323.383 150.657 319.935 152.198 316.395 153.397C312.856 154.562 309.191 155.361 305.492 155.567C303.642 155.681 301.793 155.646 299.943 155.487C298.105 155.315 296.278 154.984 294.463 154.539C290.855 153.614 287.396 152.107 284.085 150.269C287.042 152.644 290.467 154.505 294.143 155.681C295.981 156.274 297.877 156.651 299.795 156.914C301.713 157.131 303.654 157.176 305.583 157.074C309.442 156.823 313.244 155.921 316.795 154.493C320.357 153.066 323.736 151.171 326.625 148.693Z" fill="#3886E8"/>
</svg>
