<svg xmlns="http://www.w3.org/2000/svg" width="985" height="600" fill="none" xmlns:v="https://vecta.io/nano"><style><![CDATA[.B{fill:#fff}.C{opacity:.29}.D{fill:#8aa5ee}.E{fill:#c7d6f9}.F{fill:#1b1c17}.G{fill:#ffa98f}.H{stroke-miterlimit:10}.I{fill:#0668e1}.J{fill:#efefef}.K{fill:#343433}.L{fill:#4f88af}.M{fill:#0560cd}.N{fill:#071a22}.O{fill:#8dade0}.P{stroke:#8dade0}.Q{stroke-width:.21}.R{stroke-linecap:round}.S{fill:#e2e4e3}.T{fill:#3886e8}.U{fill:#044aa1}.V{stroke:#183862}.W{stroke-width:.85}]]></style><path opacity=".75" d="M860.22 53.68H985s-6.21-8.09-13.04-9.1c0 0-13.29-39.66-35.57-39.94-20.71-.27-29 24.39-29 24.39s-9.59-11.06-18.75-6-14.35 19.53-14.35 19.53-10.32 5.55-14.05 11.12z" fill="#e1f1ff"/><path opacity=".75" d="M397.17 39.81h-107.3s10.13-9.44 14.62-9.44S322.13-1.31 338.9.04s25.69 24.93 25.69 24.93 20.42-6.4 32.58 14.83zM202.61 221.45h-91.76s4.56-5.95 9.59-6.69c0 0 9.77-29.16 26.16-29.36 15.22-.19 21.32 17.93 21.32 17.93s7.05-8.13 13.79-4.42 10.56 14.36 10.56 14.36 7.58 4.08 10.34 8.17zm525.84-74.62h98.48s-4.89-6.39-10.29-7.18c0 0-10.5-31.29-28.07-31.51-16.34-.2-22.89 19.25-22.89 19.25s-7.57-8.73-14.8-4.73-11.33 15.41-11.33 15.41-8.14 4.38-11.09 8.76z" fill="#c8e0ff"/><path d="M555.65 403.31c76.39 0 138.31-62 138.31-138.49s-61.92-138.49-138.31-138.49-138.31 62.01-138.31 138.49 61.92 138.49 138.31 138.49z" fill="#f0f9ff"/><path opacity=".6" d="M956.01 507H.49l46.18 93h865.46l43.89-93z" fill="url(#AM)" fill-opacity=".4"/><g opacity=".45"><g class="E"><path d="M706.69 281.35h45.68V463.4h-45.68V281.35z"/><path d="M714.17 268.29h30.75v76.51h-30.75v-76.5z"/><path d="M721.01 260.01h17.05v42.44h-17.05v-42.43z"/><path d="M723.73 281.82h11.62V252.9h-4.2-4.15-3.28v28.92z"/><path d="M730.3 269.23h1.26v-28.92h-.46-.45-.35v28.92zm-2.79-10h1.26v-28.92h-.45-.46-.35v28.92zm-22.03 21.65h48.12v1.94h-48.12v-1.94z"/><path d="M713.05 267.36h32.99v1.87h-32.99v-1.87zm7.24-8.13h19.02v1.44h-19.02v-1.44z"/></g><g class="C"><mask id="A" maskUnits="userSpaceOnUse" x="740" y="271" width="3" height="9"><path d="M740.65 271.41h1.44v8.01h-1.44v-8.01z" class="B"/></mask><g mask="url(#A)" class="E"><use href="#AO"/></g></g><g class="C"><mask id="B" maskUnits="userSpaceOnUse" x="736" y="271" width="3" height="9"><path d="M736.69 271.41h1.44v8.01h-1.44v-8.01z" class="B"/></mask><g mask="url(#B)" class="E"><use href="#AO" x="-3.96"/></g></g><g class="C"><mask id="C" maskUnits="userSpaceOnUse" x="732" y="271" width="3" height="9"><path d="M732.74 271.41h1.44v8.01h-1.44v-8.01z" class="B"/></mask><g mask="url(#C)" class="E"><use href="#AO" x="-7.91"/></g></g><g class="C"><mask id="D" maskUnits="userSpaceOnUse" x="728" y="271" width="3" height="9"><path d="M728.79 271.41h1.44v8.01h-1.44v-8.01z" class="B"/></mask><g mask="url(#D)" class="E"><use href="#AO" x="-11.86"/></g></g><g class="C"><mask id="E" maskUnits="userSpaceOnUse" x="724" y="271" width="3" height="9"><path d="M724.82 271.41h1.44v8.01h-1.44v-8.01z" class="B"/></mask><g mask="url(#E)" class="E"><use href="#AO" x="-15.83"/></g></g><g class="C"><mask id="F" maskUnits="userSpaceOnUse" x="720" y="271" width="3" height="9"><path d="M720.87 271.41h1.44v8.01h-1.44v-8.01z" class="B"/></mask><g mask="url(#F)" class="E"><use href="#AO" x="-19.78"/></g></g><g class="C"><mask id="G" maskUnits="userSpaceOnUse" x="716" y="271" width="3" height="9"><path d="M716.91 271.41h1.44v8.01h-1.44v-8.01z" class="B"/></mask><g mask="url(#G)" class="E"><use href="#AO" x="-23.74"/></g></g><use href="#AP" class="E"/><g class="C"><mask id="H" maskUnits="userSpaceOnUse" x="738" y="288" width="4" height="11"><path d="M738.07 288.6h3.46v9.51h-3.46v-9.51z" class="B"/></mask><g mask="url(#H)" class="E"><use href="#AP" x="-6.83"/></g></g><g class="E"><use href="#AP" x="-13.68"/><use href="#AP" x="-20.51"/><use href="#AQ"/><use href="#AP" x="-34.2"/><use href="#AP" y="14.84"/><use href="#AP" x="-6.83" y="14.84"/><use href="#AP" x="-13.68" y="14.84"/></g><g class="C"><mask id="I" maskUnits="userSpaceOnUse" x="724" y="303" width="4" height="10"><path d="M724.39 303.44h3.46v9.51h-3.46v-9.51z" class="B"/></mask><g mask="url(#I)" class="E"><use href="#AP" x="-20.51" y="14.84"/></g></g><g class="E"><use href="#AQ" y="14.84"/><use href="#AP" x="-34.2" y="14.84"/><use href="#AP" y="29.66"/><use href="#AP" x="-6.83" y="29.66"/><use href="#AP" x="-13.68" y="29.66"/><use href="#AP" x="-20.51" y="29.66"/></g><g class="C"><mask id="J" maskUnits="userSpaceOnUse" x="717" y="318" width="5" height="10"><path d="M717.54 318.26H721v9.51h-3.46v-9.51z" class="B"/></mask><g mask="url(#J)" class="E"><use href="#AQ" y="29.66"/></g></g><g class="C"><mask id="K" maskUnits="userSpaceOnUse" x="710" y="318" width="5" height="10"><path d="M710.7 318.26h3.46v9.51h-3.46v-9.51z" class="B"/></mask><g mask="url(#K)" class="E"><use href="#AP" x="-34.2" y="29.66"/></g></g><g class="C"><mask id="L" maskUnits="userSpaceOnUse" x="744" y="333" width="5" height="10"><path d="M744.9 333.08h3.46v9.51h-3.46v-9.51z" class="B"/></mask><g mask="url(#L)" class="E"><use href="#AP" y="44.48"/></g></g><g class="E"><use href="#AP" x="-6.83" y="44.48"/><use href="#AP" x="-13.68" y="44.48"/><use href="#AP" x="-20.51" y="44.48"/><use href="#AQ" y="44.48"/><use href="#AP" x="-34.2" y="44.48"/><use href="#AP" y="59.31"/></g><g class="C"><mask id="M" maskUnits="userSpaceOnUse" x="738" y="347" width="4" height="11"><path d="M738.07 347.91h3.46v9.51h-3.46v-9.51z" class="B"/></mask><g mask="url(#M)" class="E"><use href="#AP" x="-6.83" y="59.31"/></g></g><use href="#AP" x="-13.68" y="59.31" class="E"/><g class="C"><mask id="N" maskUnits="userSpaceOnUse" x="724" y="347" width="4" height="11"><path d="M724.39 347.91h3.46v9.51h-3.46v-9.51z" class="B"/></mask><g mask="url(#N)" class="E"><use href="#AP" x="-20.51" y="59.31"/></g></g><g class="E"><use href="#AQ" y="59.31"/><use href="#AP" x="-34.2" y="59.31"/><use href="#AP" y="74.13"/><use href="#AP" x="-6.83" y="74.13"/><use href="#AP" x="-13.68" y="74.13"/><use href="#AP" x="-20.51" y="74.13"/><use href="#AQ" y="74.13"/></g><g class="C"><mask id="O" maskUnits="userSpaceOnUse" x="710" y="362" width="5" height="11"><path d="M710.7 362.73h3.46v9.51h-3.46v-9.51z" class="B"/></mask><g mask="url(#O)" class="E"><use href="#AP" x="-34.2" y="74.13"/></g></g><use href="#AP" y="88.95" class="E"/><g class="C"><mask id="P" maskUnits="userSpaceOnUse" x="738" y="377" width="4" height="11"><path d="M738.07 377.55h3.46v9.51h-3.46v-9.51z" class="B"/></mask><g mask="url(#P)" class="E"><use href="#AP" x="-6.83" y="88.95"/></g></g><g class="C"><mask id="Q" maskUnits="userSpaceOnUse" x="731" y="377" width="4" height="11"><path d="M731.22 377.55h3.46v9.51h-3.46v-9.51z" class="B"/></mask><g mask="url(#Q)" class="E"><use href="#AP" x="-13.68" y="88.95"/></g></g><g class="E"><use href="#AP" x="-20.51" y="88.95"/><use href="#AQ" y="88.95"/><use href="#AP" x="-34.2" y="88.95"/><use href="#AP" y="103.79"/><use href="#AP" x="-6.83" y="103.79"/><use href="#AP" x="-13.68" y="103.79"/><use href="#AP" x="-20.51" y="103.79"/></g><g class="C"><mask id="R" maskUnits="userSpaceOnUse" x="717" y="392" width="5" height="10"><path d="M717.54 392.39H721v9.51h-3.46v-9.51z" class="B"/></mask><g mask="url(#R)" class="E"><use href="#AQ" y="103.79"/></g></g><g class="E"><use href="#AP" x="-34.2" y="103.79"/><use href="#AP" y="118.6"/></g><g class="C"><mask id="S" maskUnits="userSpaceOnUse" x="738" y="407" width="4" height="10"><path d="M738.07 407.2h3.46v9.51h-3.46v-9.51z" class="B"/></mask><g mask="url(#S)" class="E"><use href="#AP" x="-6.83" y="118.6"/></g></g><g class="E"><use href="#AP" x="-13.68" y="118.6"/><use href="#AP" x="-20.51" y="118.6"/><use href="#AQ" y="118.6"/><use href="#AP" x="-34.2" y="118.6"/><use href="#AP" y="133.43"/><use href="#AP" x="-6.83" y="133.43"/><use href="#AP" x="-13.68" y="133.43"/></g><g class="C"><mask id="T" maskUnits="userSpaceOnUse" x="724" y="422" width="4" height="10"><path d="M724.39 422.03h3.46v9.51h-3.46v-9.51z" class="B"/></mask><g mask="url(#T)" class="E"><use href="#AP" x="-20.51" y="133.43"/></g></g><use href="#AQ" y="133.43" class="E"/><g class="C"><mask id="U" maskUnits="userSpaceOnUse" x="710" y="422" width="5" height="10"><path d="M710.7 422.03h3.46v9.51h-3.46v-9.51z" class="B"/></mask><g mask="url(#U)" class="E"><use href="#AP" x="-34.2" y="133.43"/></g></g><g class="C"><mask id="V" maskUnits="userSpaceOnUse" x="744" y="436" width="5" height="11"><path d="M744.9 436.86h3.46v9.51h-3.46v-9.51z" class="B"/></mask><g mask="url(#V)" class="E"><use href="#AP" y="148.26"/></g></g><use href="#AP" x="-6.83" y="148.26" class="E"/><g class="C"><mask id="W" maskUnits="userSpaceOnUse" x="731" y="436" width="4" height="11"><path d="M731.22 436.86h3.46v9.51h-3.46v-9.51z" class="B"/></mask><g mask="url(#W)" class="E"><use href="#AP" x="-13.68" y="148.26"/></g></g><g class="E"><use href="#AP" x="-20.51" y="148.26"/><use href="#AQ" y="148.26"/><use href="#AP" x="-34.2" y="148.26"/><path d="M811.61 288.28h73.43v153.36h-73.43V288.28z"/><path d="M809.52 285.64h77.6v4.33h-77.6v-4.33z"/><path d="M814.08 280.08h68.49v20.6h-68.49v-20.6z"/><path d="M850.2 271.66h27.12v22.51H850.2v-22.51z"/><path d="M861.63 278.01h15.69v-11.85h-11.26l-4.44 11.85z"/><path d="M869.47 256.32h1.52v26.39h-1.52v-26.39z"/><path d="M868.87 254.94c0 .76.62 1.36 1.36 1.36.76 0 1.36-.61 1.36-1.36 0-.76-.62-1.36-1.36-1.36-.76 0-1.36.62-1.36 1.36zM203.56 453.31h80.37l10.04-225.48-90.41 18.79v206.69zm350.66-128.78v-75.38h12.61v-20.19h4.5v-29.62h24.82v-21.76h2.21v21.76h4.86V172.1h2.22v27.24h15.68v49.81h8.1v75.38h6.94v137.31h-86.81V324.53h4.88z"/></g><g fill="#b3c3f6"><path d="M422.37 467.78h42.52l-16.57-85.27h-25.95v85.27z"/><path d="M457.22 310v-37.79h13.66v-14.39h7.31v-12.08h2.57v-20.72h.66v20.72h2.56v12.08h7.3v14.39h13.55V310h2.82v68.59h21.01v78.21h-21.01-21.01-32.12V310h2.71zm-78.48 43.4h66.1v1.21h-2.99V466.5h-60.11V354.61h-3v-1.21zm301.38 27.87h58.6v93.21h-58.6v-93.21zm67.42 47.76h100.78v45.45H747.54v-45.45z"/><path d="M772.17 327.48h22.13V439.1h-22.13V327.48z"/><path d="M788.27 297.69h1.15v60.71h-1.15v-60.71zm-3.74 4.61h1.15v60.71h-1.15V302.3z"/><path d="M779.07 320.56h13.52v14.96h-13.52v-14.96zM713 397.96h38.5v76.53H713v-76.53zm-114.65-80.98h72.27v157.51h-72.27V316.98z"/><path d="M605.45 311.56h58.07v26.24h-58.07v-26.24z"/><path d="M592.74 320.27h83.48v1.85h-83.48v-1.85zm56.92 74.67h34.05v79.55h-34.05v-79.55zm238.88-3.02h39.08v82.56h-39.08v-82.56z"/><path d="M837.11 369.48h77.86v105.01h-77.86V369.48z"/><path d="M835.1 365.45h84.42v4.03H835.1v-4.03z"/><path d="M877.31 354.51h34.22v21.29h-34.22v-21.29zm-16.92 0h5.75v12.95h-5.75v-12.95zm-12.07 0h6.32v12.95h-6.32v-12.95zM914.69 490h40.96v17h-40.96v-17z"/><path d="M922.68 462H942v45.45h-19.32V462zm-724.1-22.9h406.87v35.39H198.58V439.1z"/><path d="M231.07 341.14a4.9 4.9 0 0 1 4.87 4.49l5.72-.18-.02-1.69c0-7.13 1.23-14.08 3.59-20.6l-4.78-1.76a4.9 4.9 0 1 1-4.49-6.84 4.9 4.9 0 0 1 4.89 4.9 4.6 4.6 0 0 1-.22 1.44l4.79 1.76a60.1 60.1 0 0 1 12.32-19.94L254 299.2c-.88.84-2.06 1.35-3.37 1.35a4.9 4.9 0 0 1 0-9.8 4.9 4.9 0 0 1 4.89 4.9c0 1.2-.43 2.29-1.15 3.14l3.75 3.51c.38-.41.77-.81 1.18-1.21a60.2 60.2 0 0 1 19.45-13.07l-2.06-5.02a5 5 0 0 1-1.48.23 4.9 4.9 0 1 1 1.99-.42l2.05 5.01a59.9 59.9 0 0 1 20.42-4.34l-.22-6.87h-.16a4.9 4.9 0 1 1 4.89-4.9 4.9 4.9 0 0 1-4.19 4.84l.23 6.89 1.69-.02c6.83 0 13.5 1.13 19.78 3.31l1.98-5.6a4.9 4.9 0 1 1 1.87.37 5 5 0 0 1-1.35-.19l-1.98 5.6c7.62 2.71 14.65 6.97 20.71 12.62l3.57-3.81a4.9 4.9 0 1 1 3.6 1.59 4.9 4.9 0 0 1-3.22-1.21l-3.57 3.81 1.21 1.18a60.6 60.6 0 0 1 12.02 17.11l4.54-2.1a4.8 4.8 0 0 1-.25-1.56 4.9 4.9 0 1 1 4.89 4.9 4.9 4.9 0 0 1-4.44-2.84l-4.51 2.09a60.1 60.1 0 0 1 5.36 22.82l5.83-.19a4.9 4.9 0 1 1 4.88 5.05 4.9 4.9 0 0 1-4.87-4.49l-5.82.19.02 1.69a60.4 60.4 0 0 1-3.59 20.6l4.79 1.76a4.9 4.9 0 1 1 4.49 6.84 4.9 4.9 0 0 1-4.89-4.9 4.6 4.6 0 0 1 .22-1.44l-4.78-1.76a60.1 60.1 0 0 1-12.32 19.94l3.75 3.51c.88-.84 2.06-1.35 3.38-1.35a4.9 4.9 0 1 1-4.89 4.9 4.9 4.9 0 0 1 1.14-3.14l-3.75-3.51a38.3 38.3 0 0 1-1.18 1.21 60.1 60.1 0 0 1-12.62 9.69l29.46 54.38h5.29v1.56h2.59v3.09H234.53v-3.09h2.59v-1.56h5.29l29.48-54.41c-3.93-2.27-7.62-4.98-11-8.15l-4.77 5.11a4.9 4.9 0 1 1-3.22-1.21 4.9 4.9 0 0 1 2.78.87l4.81-5.14a37.2 37.2 0 0 1-1.21-1.18 60.6 60.6 0 0 1-12.02-17.11l-5.32 2.46a4.9 4.9 0 1 1-4.75-3.71 4.9 4.9 0 0 1 4.58 3.17l5.25-2.43a60 60 0 0 1-5.36-22.82l-5.72.18a4.9 4.9 0 0 1-4.88 4.77 4.9 4.9 0 0 1-4.89-4.9 4.9 4.9 0 0 1 4.89-4.88zm12.2 2.61l.02 1.63 16.86-.54c-.01-.36-.01-.72-.01-1.09a41.9 41.9 0 0 1 2.47-14.18l-15.86-5.85a59.2 59.2 0 0 0-3.48 20.03zm17.71 1.06l37.63-1.23c.01-.24.05-.48.12-.71l-35.33-13.02a40.9 40.9 0 0 0-2.42 13.9c-.01.36-.01.71 0 1.06zm81.83-2.11l-37.63 1.23c-.01.24-.05.48-.12.71l35.33 13.02a40.9 40.9 0 0 0 2.42-13.9c.01-.36.01-.71 0-1.06zm-43.49-.99l-27.46-25.75a41.1 41.1 0 0 0-8.28 13.4l35.33 13.02a3.4 3.4 0 0 1 .41-.66zm.37-.4c.22-.19.45-.36.71-.5l-14.31-34.87a41 41 0 0 0-13.86 9.6l27.46 25.77zm1.21-.7a3.6 3.6 0 0 1 .61-.13l-1.22-37.68a40.7 40.7 0 0 0-13.69 2.93l14.29 34.88zm1.16-.15c.23.01.46.05.66.11l12.51-35.56a40.7 40.7 0 0 0-13.34-2.25l-1.06.01 1.23 37.68zm1.18.29a3.2 3.2 0 0 1 .7.42l25.72-27.49a41 41 0 0 0-13.91-8.48l-12.51 35.56zm1.1.8a3.5 3.5 0 0 1 .42.59l34.18-15.8a41.2 41.2 0 0 0-8.87-12.29l-25.73 27.49zm.65 1.07a4.8 4.8 0 0 1 .18.75l37.63-1.22a40.6 40.6 0 0 0-3.63-15.33l-34.18 15.8zm-.11 2.52c-.08.19-.19.37-.31.53l.23.41 27.14 25.47a41.1 41.1 0 0 0 8.28-13.4l-35.34-13.01zm.72 2.46l17.04 31.45c3.29-1.94 6.29-4.35 8.91-7.1L305.6 347.6zm-1.85-1.13c-.12.08-.24.14-.36.22l14.31 34.87a41.1 41.1 0 0 0 4.01-1.96l-17.96-33.13zm-.87.42a3.5 3.5 0 0 1-.62.13l1.22 37.68a40.4 40.4 0 0 0 13.69-2.93l-14.29-34.88zm-1 37.84l1.06-.01-1.23-37.68a2.9 2.9 0 0 1-.66-.11l-12.51 35.56a40.7 40.7 0 0 0 13.34 2.25zm-1.34-37.98a3.2 3.2 0 0 1-.51-.29l-17.95 33.13a41.1 41.1 0 0 0 5.95 2.72l12.5-35.56zm-3.03 2.06l-23.41 25.01c2.15 1.98 4.5 3.74 7.01 5.24l16.39-30.25zm1.02-1.9l.68-1.24c-.07-.1-.13-.19-.19-.3l-34.18 15.8a41.2 41.2 0 0 0 8.87 12.29l24.83-26.54zm.25-2.04a4 4 0 0 1-.18-.75l-37.63 1.22a40.6 40.6 0 0 0 3.63 15.33l34.18-15.8zm19.2 37.43l6.43 15.67c1.95-.82 3.87-1.74 5.74-2.76l-8.06-14.88c-1.32.72-2.7 1.39-4.1 1.98zm-.51.2a41.2 41.2 0 0 1-13.98 2.99l.54 16.9c6.91-.25 13.6-1.69 19.85-4.22l-6.41-15.67zm-14.52 3.02c-.36.01-.72.01-1.09.01a41.8 41.8 0 0 1-13.62-2.28l-5.62 15.97a58.8 58.8 0 0 0 19.24 3.22l1.64-.02-.55-16.9zm-15.21-2.45a41.5 41.5 0 0 1-6.06-2.76l-8.06 14.88a57.3 57.3 0 0 0 8.51 3.84l5.62-15.96zm-40.81-59.87l15.86 5.85a41.8 41.8 0 0 1 8.45-13.67l-12.33-11.57c-5.29 5.71-9.33 12.29-11.98 19.39zm13.5-20.95c-.39.39-.76.77-1.13 1.17L271.64 315a42.1 42.1 0 0 1 14.15-9.8l-6.42-15.67a58.3 58.3 0 0 0-18.92 12.72zm19.42-12.93l6.42 15.67a41.2 41.2 0 0 1 13.98-2.99l-.55-16.9a58.2 58.2 0 0 0-19.85 4.22zm22.02-4.27l-1.63.02.54 16.89c.36-.01.72-.01 1.08-.01a41.7 41.7 0 0 1 13.62 2.28l5.62-15.97a59 59 0 0 0-19.24-3.21zm19.75 3.4L316 304.42c5.31 1.92 10.12 4.89 14.2 8.66l11.56-12.35a58.4 58.4 0 0 0-20.14-12.29zm21.7 13.8a31.2 31.2 0 0 0-1.17-1.13l-11.55 12.33c3.75 3.56 6.82 7.81 9.05 12.54l15.36-7.1a58.8 58.8 0 0 0-11.69-16.64zm11.92 17.14l-15.36 7.1c2.18 4.8 3.48 10.08 3.7 15.64l16.87-.56c-.29-7.77-2.07-15.28-5.22-22.18zm5.25 24.36l-.02-1.63-16.86.54c.01.36.01.72.01 1.09a41.9 41.9 0 0 1-2.47 14.18l15.86 5.85a58.8 58.8 0 0 0 3.48-20.03zm-3.68 20.55l-15.86-5.85a41.7 41.7 0 0 1-8.45 13.67l12.33 11.57c5.29-5.71 9.33-12.29 11.98-19.39zm-13.5 20.95l1.13-1.17-12.33-11.57a42.2 42.2 0 0 1-9.11 7.27l8.06 14.89a58.3 58.3 0 0 0 12.25-9.41zm-99.68 65.26H360.1l-29.19-53.88c-1.92 1.06-3.88 2-5.9 2.85l2.06 5.02a5 5 0 0 1 1.48-.23 4.9 4.9 0 1 1-1.99.42l-2.05-5.01c-6.42 2.61-13.32 4.09-20.42 4.34l.17 5.13a4.9 4.9 0 0 1 4.77 4.89 4.9 4.9 0 0 1-4.89 4.9 4.9 4.9 0 0 1-.43-9.78l-.17-5.13-1.69.02c-6.83 0-13.5-1.13-19.78-3.31l-1.76 5a4.9 4.9 0 1 1-2.07-.47c.55 0 1.07.1 1.57.25l1.75-4.97a60 60 0 0 1-8.75-3.95l-29.18 53.89zm29.02-55.84l8.06-14.89a42.3 42.3 0 0 1-7.18-5.36L262 386.76a58.5 58.5 0 0 0 10.68 7.9zm-12.23-9.41c.39.39.77.76 1.17 1.13l11.56-12.35c-3.75-3.56-6.82-7.81-9.05-12.54l-15.36 7.1a58 58 0 0 0 11.68 16.65zm-11.92-17.14l15.36-7.1c-2.18-4.8-3.48-10.08-3.7-15.64l-16.87.56c.29 7.77 2.07 15.28 5.22 22.18zm-92.06 14.19h62.83v92.17h-62.83v-92.17z"/><path d="M102.8 418.15h62.83v55.82H102.8v-55.82zm271.25-8.2h35.24v46.84h-35.24v-46.84z"/><path d="M143.42 294.65h44.44v179.84h-44.44V294.65zM70.25 474.49h58.61V369.48H84.42L70.25 474.49z"/><path d="M44.57 450.51h51.33v23.97H44.57v-23.97z"/><use href="#AR"/><use href="#AR" x="-5.17" y="10.49"/><use href="#AR" x="4.71" y="17.23"/><path d="M105.58 360.99h20.97v16.55h-20.97v-16.55z"/><path d="M107.88 355.09h16.38v9.29h-16.38v-9.29zm-14.65 10.74h4.03v6.67h-4.03v-6.67zm-7.17-6.09h5.75v12.77h-5.75v-12.77z"/></g><g class="D"><path d="M356.18 335.22h53.27v171.95h-53.27V335.22z"/><path d="M352.22 336.24h61.23v1.74h-61.23v-1.74z"/><use href="#AS"/><use href="#AS" y="23.39"/><use href="#AS" y="46.78"/><use href="#AS" y="70.17"/><use href="#AS" y="93.56"/><use href="#AS" y="116.96"/><path d="M350.2 331.48h65.28v4.75H350.2v-4.75z"/></g><g class="C"><mask id="X" maskUnits="userSpaceOnUse" x="399" y="343" width="6" height="15"><path d="M399.13 343.63h5.53v13.74h-5.53v-13.74z" class="B"/></mask><g mask="url(#X)" class="D"><use href="#AT"/></g></g><g class="D"><use href="#AT" x="-12.38"/><use href="#AT" x="-24.76"/><use href="#AT" x="-37.14"/><use href="#AU"/></g><g class="C"><mask id="Y" maskUnits="userSpaceOnUse" x="386" y="366" width="7" height="14"><path d="M386.75 366.09h5.53v13.73h-5.53v-13.73z" class="B"/></mask><g mask="url(#Y)" class="D"><use href="#AU" x="-12.38"/></g></g><g class="D"><use href="#AU" x="-24.76"/><use href="#AU" x="-37.14"/><use href="#AT" y="45.84"/><use href="#AT" x="-12.38" y="45.84"/><use href="#AT" x="-24.76" y="45.84"/></g><g class="C"><mask id="Z" maskUnits="userSpaceOnUse" x="361" y="389" width="7" height="15"><path d="M361.99 389.47h5.53v13.74h-5.53v-13.74z" class="B"/></mask><g mask="url(#Z)" class="D"><use href="#AT" x="-37.14" y="45.84"/></g></g><use href="#AT" y="69.24" class="D"/><g class="C"><mask id="a" maskUnits="userSpaceOnUse" x="386" y="412" width="7" height="15"><path d="M386.75 412.87h5.53v13.74h-5.53v-13.74z" class="B"/></mask><g mask="url(#a)" class="D"><use href="#AT" x="-12.38" y="69.24"/></g></g><g class="C"><mask id="b" maskUnits="userSpaceOnUse" x="374" y="412" width="6" height="15"><path d="M374.37 412.87h5.53v13.74h-5.53v-13.74z" class="B"/></mask><g mask="url(#b)" class="D"><use href="#AT" x="-24.76" y="69.24"/></g></g><use href="#AT" x="-37.14" y="69.24" class="D"/><g class="C"><mask id="c" maskUnits="userSpaceOnUse" x="399" y="436" width="6" height="14"><path d="M399.13 436.26h5.53v13.73h-5.53v-13.73z" class="B"/></mask><g mask="url(#c)" class="D"><use href="#AU" y="70.17"/></g></g><g class="D"><use href="#AU" x="-12.38" y="70.17"/><use href="#AU" x="-24.76" y="70.17"/><use href="#AU" x="-37.14" y="70.17"/><use href="#AT" y="116.01"/><use href="#AT" x="-12.38" y="116.01"/></g><g class="C"><mask id="d" maskUnits="userSpaceOnUse" x="374" y="459" width="6" height="15"><path d="M374.37 459.64h5.53v13.74h-5.53v-13.74z" class="B"/></mask><g mask="url(#d)" class="D"><use href="#AT" x="-24.76" y="116.01"/></g></g><g class="D"><use href="#AT" x="-37.14" y="116.01"/><use href="#AT" y="139.4"/></g><g class="C"><mask id="e" maskUnits="userSpaceOnUse" x="386" y="483" width="7" height="14"><path d="M386.75 483.03h5.53v13.74h-5.53v-13.74z" class="B"/></mask><g mask="url(#e)" class="D"><use href="#AT" x="-12.38" y="139.4"/></g></g><use href="#AT" x="-24.76" y="139.4" class="D"/><g class="C"><mask id="f" maskUnits="userSpaceOnUse" x="361" y="483" width="7" height="14"><path d="M361.99 483.03h5.53v13.74h-5.53v-13.74z" class="B"/></mask><g mask="url(#f)" class="D"><use href="#AT" x="-37.14" y="139.4"/></g></g><g class="D"><path d="M387.98 324.93h18.12v8.93h-18.12v-8.93z"/><path d="M386.75 324.68h20.58v1.52h-20.58v-1.52zm99.07 182.48h70.97V343.79l-70.97-17.39v180.76z"/><path d="M553.68 340.91h6.23v166.25h-6.23V340.91zm-17.74-4.68h6.23v170.93h-6.23V336.23zm-17.75-4.87h6.23v175.8h-6.23v-175.8zm-17.74-3.95h6.23v179.77h-6.23V327.41zm-17.74-4.23h6.23v183.98h-6.23V323.18z"/></g><g class="C"><mask id="g" maskUnits="userSpaceOnUse" x="543" y="354" width="10" height="14"><path d="M543.78 354.86h8.28v12.62h-8.28v-12.62z" class="B"/></mask><g mask="url(#g)" class="D"><use href="#AV"/></g></g><g class="C"><mask id="h" maskUnits="userSpaceOnUse" x="526" y="354" width="9" height="14"><path d="M526.04 354.86h8.28v12.62h-8.28v-12.62z" class="B"/></mask><g mask="url(#h)" class="D"><use href="#AV" x="-17.74"/></g></g><use href="#AV" x="-35.48" class="D"/><g class="C"><mask id="i" maskUnits="userSpaceOnUse" x="490" y="354" width="9" height="14"><path d="M490.55 354.86h8.28v12.62h-8.28v-12.62z" class="B"/></mask><g mask="url(#i)" class="D"><use href="#AV" x="-53.23"/></g></g><g class="D"><use href="#AV" y="21.97"/><use href="#AV" x="-17.74" y="21.97"/></g><g class="C"><mask id="j" maskUnits="userSpaceOnUse" x="508" y="376" width="9" height="14"><path d="M508.3 376.85h8.28v12.62h-8.28v-12.62z" class="B"/></mask><g mask="url(#j)" class="D"><use href="#AV" x="-35.48" y="21.97"/></g></g><g class="C"><mask id="k" maskUnits="userSpaceOnUse" x="490" y="376" width="9" height="14"><path d="M490.55 376.85h8.28v12.62h-8.28v-12.62z" class="B"/></mask><g mask="url(#k)" class="D"><use href="#AV" x="-53.23" y="21.97"/></g></g><g class="C"><mask id="l" maskUnits="userSpaceOnUse" x="543" y="398" width="10" height="14"><path d="M543.78 398.84h8.28v12.62h-8.28v-12.62z" class="B"/></mask><g mask="url(#l)" class="D"><use href="#AV" y="43.96"/></g></g><g class="C"><mask id="m" maskUnits="userSpaceOnUse" x="526" y="398" width="9" height="14"><path d="M526.04 398.84h8.28v12.62h-8.28v-12.62z" class="B"/></mask><g mask="url(#m)" class="D"><use href="#AV" x="-17.74" y="43.96"/></g></g><g class="C"><mask id="n" maskUnits="userSpaceOnUse" x="508" y="398" width="9" height="14"><path d="M508.3 398.84h8.28v12.62h-8.28v-12.62z" class="B"/></mask><g mask="url(#n)" class="D"><use href="#AV" x="-35.48" y="43.96"/></g></g><use href="#AV" x="-53.23" y="43.96" class="D"/><g class="C"><mask id="o" maskUnits="userSpaceOnUse" x="543" y="420" width="10" height="14"><path d="M543.78 420.82h8.28v12.62h-8.28v-12.62z" class="B"/></mask><g mask="url(#o)" class="D"><use href="#AV" y="65.94"/></g></g><use href="#AV" x="-17.74" y="65.94" class="D"/><g class="C"><mask id="p" maskUnits="userSpaceOnUse" x="508" y="420" width="9" height="14"><path d="M508.3 420.82h8.28v12.62h-8.28v-12.62z" class="B"/></mask><g mask="url(#p)" class="D"><use href="#AV" x="-35.48" y="65.94"/></g></g><g class="C"><mask id="q" maskUnits="userSpaceOnUse" x="490" y="420" width="9" height="14"><path d="M490.55 420.82h8.28v12.62h-8.28v-12.62z" class="B"/></mask><g mask="url(#q)" class="D"><use href="#AV" x="-53.23" y="65.94"/></g></g><g class="C"><mask id="r" maskUnits="userSpaceOnUse" x="543" y="442" width="10" height="14"><path d="M543.78 442.81h8.28v12.62h-8.28v-12.62z" class="B"/></mask><g mask="url(#r)" class="D"><use href="#AV" y="87.93"/></g></g><g class="C"><mask id="s" maskUnits="userSpaceOnUse" x="526" y="442" width="9" height="14"><path d="M526.04 442.81h8.28v12.62h-8.28v-12.62z" class="B"/></mask><g mask="url(#s)" class="D"><use href="#AV" x="-17.74" y="87.93"/></g></g><use href="#AV" x="-35.48" y="87.93" class="D"/><g class="C"><mask id="t" maskUnits="userSpaceOnUse" x="490" y="442" width="9" height="14"><path d="M490.55 442.81h8.28v12.62h-8.28v-12.62z" class="B"/></mask><g mask="url(#t)" class="D"><use href="#AV" x="-53.23" y="87.93"/></g></g><g class="D"><use href="#AV" y="109.9"/><use href="#AV" x="-17.74" y="109.9"/></g><g class="C"><mask id="u" maskUnits="userSpaceOnUse" x="508" y="464" width="9" height="14"><path d="M508.3 464.78h8.28v12.62h-8.28v-12.62z" class="B"/></mask><g mask="url(#u)" class="D"><use href="#AV" x="-35.48" y="109.9"/></g></g><g class="C"><mask id="v" maskUnits="userSpaceOnUse" x="490" y="464" width="9" height="14"><path d="M490.55 464.78h8.28v12.62h-8.28v-12.62z" class="B"/></mask><g mask="url(#v)" class="D"><use href="#AV" x="-53.23" y="109.9"/></g></g><g class="C"><mask id="w" maskUnits="userSpaceOnUse" x="543" y="486" width="10" height="14"><path d="M543.78 486.78h8.28v12.62h-8.28v-12.62z" class="B"/></mask><g mask="url(#w)" class="D"><use href="#AV" y="131.9"/></g></g><use href="#AV" x="-17.74" y="131.9" class="D"/><g class="C"><mask id="x" maskUnits="userSpaceOnUse" x="508" y="486" width="9" height="14"><path d="M508.3 486.78h8.28v12.62h-8.28v-12.62z" class="B"/></mask><g mask="url(#x)" class="D"><use href="#AV" x="-35.48" y="131.9"/></g></g><g class="D"><use href="#AV" x="-53.23" y="131.9"/><path d="M759.24 351.61v1.7h1.69v4.83h-29.69v149.02h48.72V365.93v-7.79-4.83h1.77v-1.7h-22.49zm-124.76 67.7h41.74v87.86h-41.74v-87.86zm189.74-20.14h33.93v108.01h-33.93v-108z"/><path d="M793.95 421.66h36.98v85.5h-36.98v-85.5zm36.98-26.82h15.01v12.93h-15.01v-12.93z"/><path d="M788.98 420.26h39.41v3.16h-39.41v-3.16zm-32.5 38.08h41.45v48.83h-41.45v-48.83zm141.71-39.72h33.73v88.54h-33.73v-88.54z"/><path d="M845.94 474.49h52.25v32.68h-52.25v-32.68z"/><use href="#AW"/><use href="#AW" x="-144.31"/><path d="M666.69 451.76h30.93l13.09 48.36h-44.02v-48.36zm-15.16-70.38h.87v53.66h-.87v-53.66zm-4.6 18.16h1.15v31.66h-1.15v-31.66z"/><path d="M638.58 405.15h15.66v15.68h-15.66v-15.68z"/><path d="M636.15 403.93h20.73v1.4h-20.73v-1.4zm-44.65 57.91h50.57v45.32H591.5v-45.32z"/><path d="M568.67 411.96h32.5v87.44h-32.5v-87.44zM422.36 428.4h51.91v78.76h-51.91V428.4z"/><path d="M431.38 478.13h59.18v29.03h-59.18v-29.03zm-44.63 18.65h38.49v10.39h-38.49v-10.39zm-83.37-18.63h62.58v29.03h-62.58v-29.03z"/><path d="M263.17 402.15h77.86v105.01h-77.86V402.15z"/><path d="M258.62 398.13h84.42v4.03h-84.42v-4.03z"/><path d="M266.62 387.19h34.22v21.29h-34.22v-21.29zm45.39 0h5.75v12.95h-5.75v-12.95zm11.5 0h6.32v12.95h-6.32v-12.95zM148 353.8h61.64v153.36H148V353.8z"/><path d="M146.25 351.17h65.14v4.33h-65.14v-4.33z"/><path d="M150.07 345.62h57.49v20.6h-57.49v-20.6z"/><path d="M154.47 337.18h22.77v22.51h-22.77v-22.51z"/><path d="M167.65 343.53h-13.17v-11.85h9.45l3.72 11.85z"/><path d="M159.79 321.84h1.28v26.4h-1.28v-26.4z"/><path d="M161.57 320.48c0 .76-.52 1.36-1.15 1.36-.64 0-1.15-.62-1.15-1.36 0-.76.52-1.36 1.15-1.36.63-.01 1.15.6 1.15 1.36zm-32.71 123.37h27.58v63.31h-27.58v-63.31zm74.69-30.86h31.46v94.17h-31.46v-94.17z"/><path d="M219.27 507.16h44.31V456.8l-37.4 16.58-6.91 33.78zM70.25 479.81h67.67v27.36H70.25v-27.36z"/><path d="M55.94 397.96h39.31v109.21H55.94V397.96z"/><path d="M0 486.78h65.12v20.38H0v-20.38zm54.14-90.82h43.11v3.59H54.14v-3.59z"/><path d="M61.19 380.55h.87v22.01h-.87v-22.01zm5.75 2.78h.87v17.66h-.87v-17.66zM41.38 439.1H58.9v50.03h-25l7.47-50.03z"/></g></g><g opacity=".28"><mask id="y" maskUnits="userSpaceOnUse" x="341" y="162" width="83" height="32"><path d="M423.09 162.69h-82.02V193h82.02v-30.32z" class="B"/></mask><g mask="url(#y)"><mask id="z" maskUnits="userSpaceOnUse" x="341" y="162" width="83" height="32"><path d="M423.07 184.77c0-4.53-3.63-8.19-8.1-8.19-2.11 0-4.01.82-5.46 2.15a11 11 0 0 0-10.73-8.8 10.7 10.7 0 0 0-4.39.93c-1.86-4.78-6.46-8.17-11.84-8.17-6.62 0-12.04 5.1-12.66 11.62-1.51-1.09-3.34-1.73-5.33-1.73a9.2 9.2 0 0 0-8.82 6.71c-1.52-1.87-3.83-3.06-6.41-3.06-4.58 0-8.29 3.75-8.29 8.39s3.71 8.39 8.29 8.39h18.51v-.01h36.99c.13 0 .25-.02.39-.04h9.5c.08 0 .16.01.24.01s.16-.01.24-.01h.04c4.35-.16 7.82-3.75 7.82-8.18z" class="B"/></mask><g mask="url(#z)"><path d="M423.08 162.69h-82.02V193h82.02v-30.32z" fill="url(#AN)"/></g></g></g><path d="M209.67 337.66h38.21c13.03 0 25.88.24 38.56.72a775.6 775.6 0 0 1 35.87 2.16l-2.16 33.44H223.3c-6.7 0-11.65 1.68-14.88 5.03s-4.85 8.63-4.85 15.82v135.21c0 7.19 1.62 12.47 4.85 15.82s8.18 5.03 14.88 5.03h96.85l2.16 33.44a625.5 625.5 0 0 1-35.87 1.98l-38.56.72-38.21.18c-15.31 0-27.57-4.25-36.76-12.77-9.21-8.51-13.93-19.96-14.16-34.34V384.77c.24-14.39 4.97-25.83 14.16-34.34 9.21-8.51 21.47-12.77 36.76-12.77zM165.2 440.14h141.34v33.08H165.2v-33.08zm274.3-38.41a12.2 12.2 0 0 1 7.49 2.41c2.13 1.61 3.65 3.75 4.54 6.43l55.83 175.93h-34.2l-42.21-142.46-2.13-8.57-1.87-8.3h-7.49l-1.87 8.3-2.4 8.57-41.93 142.46h-34.19l55.83-175.93a11.3 11.3 0 0 1 4.41-6.43 12.7 12.7 0 0 1 7.62-2.41h32.57zm30.99 105.77v26.24h-94.82V507.5h94.82zm115.4-109.25a419.7 419.7 0 0 1 28.71 1.6c10.07.89 19.9 2.6 29.52 5.09l-2.13 22.76-26.58-.66-28.98-.4c-5.7 0-10.55.18-14.56.53-4.01.36-7.26 1.25-9.75 2.68-2.5 1.44-4.32 3.62-5.47 6.56s-1.74 7.01-1.74 12.18c0 8.04 1.64 13.75 4.94 17.14 3.29 3.39 8.68 6.07 16.16 8.04l36.33 10.72c14.6 4.47 24.66 10.94 30.18 19.41 5.52 8.49 8.28 19.77 8.28 33.88 0 10.54-1.25 19.19-3.74 25.97-2.5 6.78-6.33 12.04-11.49 15.8-5.17 3.75-11.93 6.43-20.3 8.04-8.38 1.61-18.43 2.41-30.18 2.41-6.05 0-14.38-.36-24.97-1.07s-22.66-2.5-36.2-5.36l2.13-24.1 26.44.94a505.3 505.3 0 0 0 18.43.4h14.43c8.18 0 14.6-.53 19.24-1.6 4.63-1.07 7.88-3.31 9.75-6.7s2.81-8.3 2.81-14.72c0-5.53-.66-9.86-2-12.99a15.4 15.4 0 0 0-6.54-7.36c-3.02-1.78-6.94-3.31-11.75-4.55l-37.67-11.51c-13.89-4.28-23.64-10.62-29.25-19.01-5.6-8.39-8.41-19.64-8.41-33.74 0-10.54 1.24-19.14 3.74-25.84s6.32-11.78 11.49-15.27c5.16-3.48 11.8-5.89 19.9-7.23 8.08-1.36 17.83-2.03 29.23-2.03zm287.32-59.87l-83.58 166.85h-41.61l-83.94-166.84 50.91 9.08 41.99 88.01a101.8 101.8 0 0 1 5.56 14.75 319.2 319.2 0 0 0 4.85 15.1h2.87l4.66-15.1a174.3 174.3 0 0 1 5.38-14.75l45.91-97.08h47v-.01zm-82.14 138.44v109.67h-44.84V476.82h44.84z" class="I"/><use href="#AX" fill="#ce2749"/><use href="#AX" x="-1.59" y="2.83" class="L"/><use href="#AX" x="-2.62" y="5.54" fill="#9ec2a8"/><path d="M180.8 343.79l-20.9-16.44c-1.11-.87-.51-2.69.88-2.69h120.62l16.2 19.13H180.8z" class="M"/><path d="M185.66 319.79v21.36l-19.97-14.01.68-14.83 19.3 7.48z" class="S"/><path d="M180.8 318.16l-17.1-6.95c-.99-.4-.71-1.91.35-1.92l112.57-.72 21 8.59-116.81 1z" class="M"/><path d="M297.59 317.16H180.8v26.65h116.8v-26.65z" class="T"/><g opacity=".08"><mask id="AA" maskUnits="userSpaceOnUse" x="166" y="312" width="15" height="11"><path d="M180.8 312.3h-14.55v10.28h14.55V312.3z" class="B"/></mask><g mask="url(#AA)" class="F"><path d="M180.8 318.16l-14.5-5.85-.05 1.05 14.55 9.23v-4.43z"/></g></g><path d="M291.09 322.59h-78.36v16.43h78.36v-16.43z" class="J"/><path d="M191.86 330.65a6 6 0 0 0 5.89 6.07c3.26 0 5.89-2.72 5.89-6.07a6 6 0 0 0-5.89-6.07 6 6 0 0 0-5.89 6.07z" fill="#2c2c2c"/><path d="M191.58 330.65c0-3.5 2.77-6.35 6.17-6.35s6.17 2.85 6.17 6.35-2.77 6.35-6.17 6.35c-3.41 0-6.17-2.85-6.17-6.35zm.54 0a5.7 5.7 0 0 0 5.62 5.78 5.7 5.7 0 0 0 5.62-5.78 5.7 5.7 0 0 0-5.62-5.78c-3.09 0-5.62 2.59-5.62 5.78z" fill="#bac6a9"/><path d="M197.49 138.03l-31.47 18.61c-1.64 1.06-.59 3.01 1.17 3.01l119.15-2.57 10.13-13.47-98.97-5.57z" class="M"/><path d="M198.52 164.5l1.03-25.65-26.2 15.51.94 18.68 24.24-8.54z" fill="#e4e4e2"/><path d="M197.66 163.06l-27.2 10.57c-1.42.55-1.02 2.36.49 2.29l112.07-5.25 13.82-7.61h-99.19z" class="M"/><path d="M197.49 138.03l99.4 5.59-.07 19.44h-99.17l-.16-25.03z" class="T"/><path d="M292.72 160.78l.05-14.22-63.19-4.08-.06 17.97 63.21.33z" class="B"/><path d="M294.53 287.21H178.32v27.08h116.21v-27.08z" class="U"/><g class="T"><path d="M297.3 268.15H181.1v19.13h116.2v-19.13z"/><path d="M292.84 245.4h-116.2v22.8h116.2v-22.8z"/></g><path d="M300.16 219.71H183.95v27.14h116.21v-27.14z" class="U"/><path d="M297.53 192.4H181.33v27.14h116.21V192.4z" fill="#0568e0"/><g fill="#58a0ed"><path d="M294.92 182.95H178.71v9.34h116.21v-9.34z"/><path d="M300.16 175.59H183.95v9.34h116.21v-9.34z"/></g><path d="M180.47 170.89h116.2a9.9 9.9 0 0 1 0-4.67l-116.2 2.33v2.34z" class="S"/><path d="M178.32 175.56h116.21a7.4 7.4 0 0 1 0-4.67H178.32v4.67z" fill="#dadadb"/><path d="M291.88 223.9h-72.15v18.77h72.15V223.9z" class="J"/><use href="#AY" class="K"/><use href="#AZ" class="B"/><path d="M192.05 233.52a5.8 5.8 0 0 0 5.7 5.87 5.8 5.8 0 0 0 5.7-5.87 5.8 5.8 0 0 0-5.7-5.87c-3.16 0-5.7 2.63-5.7 5.87z" class="K"/><path d="M191.77 233.52c0-3.39 2.68-6.14 5.98-6.14 3.29 0 5.98 2.75 5.98 6.14s-2.68 6.14-5.98 6.14-5.98-2.75-5.98-6.14zm.56 0a5.5 5.5 0 0 0 5.42 5.58 5.5 5.5 0 0 0 5.42-5.58 5.5 5.5 0 0 0-5.42-5.57 5.5 5.5 0 0 0-5.42 5.57z" class="B"/><path d="M192.8 208.87a5.8 5.8 0 0 0 5.7 5.87 5.8 5.8 0 0 0 5.7-5.87 5.8 5.8 0 0 0-5.7-5.86 5.8 5.8 0 0 0-5.7 5.86z" class="K"/><use href="#Aa" class="B"/><use href="#AY" x="0.56" y="46.18" class="K"/><use href="#AZ" x="0.55" y="46.18" class="B"/><path d="M208.06 150.55a5.8 5.8 0 0 0 5.7 5.87 5.8 5.8 0 0 0 5.7-5.87 5.8 5.8 0 0 0-5.7-5.86c-3.16 0-5.7 2.63-5.7 5.86z" class="K"/><g class="B"><use href="#Aa" x="15.26" y="-58.33"/><path d="M211.66 208.01s-37.11 21.75-61.82-15.5l-31.11 19.79s46.69 19.59 50.28 18.35c26.44-9.12 42.66-22.64 42.66-22.64zm-14.17-53.49s-6.85 3.14-25.47-6.38l-19.95 7.81s20.49 11.45 22.42 10.79c14.26-4.92 23-12.21 23-12.21z"/></g><g opacity=".07"><mask id="AB" maskUnits="userSpaceOnUse" x="178" y="245" width="15" height="54"><path d="M192.1 245.4H178.4v53.04h13.71V245.4z" class="B"/></mask><g mask="url(#AB)" class="F"><path d="M179.37 273.87c11.44-11.99 12.46-28.47 12.46-28.47s1.95 19.68-4.68 45.19c-.27 1.01-3.84 4.07-8.75 7.86.1-8.21.53-16.39.96-24.57z"/></g></g><path d="M188.72 238.3s-2.52 40.37-43.46 40.67l-.93 34.63s38.81-26.68 39.72-30.12c6.63-25.48 4.68-45.17 4.68-45.17z" class="B"/><path d="M281.05 166.73l7.73-1.34 7.39-.98-4.45.84 7.23-1.51c-1.45.99-2.69 1.47-3.53 1.7-.01 0-.01.02.01.02l3.58-.23c.01 0 .02.02.01.02-2.82 1.58-4.81 1.47-4.81 1.47l-12.19-.23-.98.22z" class="S"/><path d="M184.67 163.87l-15.11 5.62v.57l28.38-9.28-13.27 3.09z" class="J"/><g opacity=".2"><mask id="AC" maskUnits="userSpaceOnUse" x="189" y="175" width="71" height="36"><path d="M259.74 175.56h-69.81v35.25h69.81v-35.25z" class="B"/></mask><g mask="url(#AC)" class="F"><path d="M259.74 175.56s-53.08 25.74-54.98 35.25l-14.84-12.4s47.47-22.68 69.81-22.86z"/></g></g><path d="M187.92 206.65c12.96-10.23 27.6-17.98 43.22-22.89l28.6-8.2H153.48l34.44 31.09z" class="B"/><path d="M290.03 198.89v4.42a4.1 4.1 0 0 0-2.87 3.95 4.1 4.1 0 0 0 2.87 3.95v4.84h-23.31v-17.14h23.31v-.01zm-2.95 72.53v3.25c-1.66.37-2.87 1.52-2.87 2.9s1.21 2.52 2.87 2.9V284h-23.31v-12.59h23.31z" class="J"/><path d="M272.44 200.26h-.56v14.34h.56v-14.34zm-1.7 0h-2.63v14.34h2.63v-14.34z" fill="#78b3f4"/><g class="J"><use href="#Ab"/><use href="#Ab" y="-45.32"/></g><g opacity=".16"><mask id="AD" maskUnits="userSpaceOnUse" x="269" y="274" width="11" height="9"><path d="M279.87 274.29h-9.93v8.09h9.93v-8.09z" class="B"/></mask><g mask="url(#AD)" class="L"><use href="#Ac"/></g><mask id="AE" maskUnits="userSpaceOnUse" x="269" y="274" width="11" height="9"><path d="M279.87 274.29h-9.93v8.09h9.93v-8.09z" class="B"/></mask><g mask="url(#AE)" class="L"><use href="#Ac" x="-3.66"/></g><mask id="AF" maskUnits="userSpaceOnUse" x="269" y="274" width="11" height="9"><path d="M279.87 274.29h-9.93v8.09h9.93v-8.09z" class="B"/></mask><g mask="url(#AF)" class="L"><use href="#Ac" x="-8.35"/></g></g><path d="M194.39 272.65h-2.53V284h2.53v-11.36z" class="U"/><path d="M486 219.98c1.74 3.94 4.74 7.57 8.59 9.55 3.52 1.8 7.59 2.37 11.51 1.94l-.74-9.2c-.31-7.84.25-11.13.51-18.24.3-7.98 5.46-12.25 5.15-17.17-.23-3.49-5.23-20.15-11.15-23.17-4.83-2.45-2.17 7.11-3.81 8.45-2.82 2.31-.02 7.87-1.29 9.97s-6.85 8.6-6.85 8.6-2.58 13.94-3.5 24.33a24.5 24.5 0 0 0 1.57 4.94zm180.88 135.54c-.01 5.02 3.89 9.34 8.9 9.47h.1c3.11.06 6.2-.41 9.32-.25 2.69.13 5.41.39 8.1.04 2.47-.33 4.73-1.3 6.2-3.39 1.36-1.94 2.01-4.31 2.36-6.63a32.2 32.2 0 0 0-.28-11.01c-2.98-.65-5.07-1.4-5.81-2.27-4.15-4.8-13.62-33.09-13.62-33.09l-26.89 13.41 11.67 30.18s-.04 1.41-.04 3.54z" class="G"/><path d="M698.12 341.04l49.44 6.32c2.05.26 3.82 1.89 4.46 4.1.86 2.94-1.47 6.23-4.06 6.99l-77.07 22.59-5.46-28.23c.01 0 16.16 5.17 32.69-11.78z" class="N"/><path d="M478.64 360.01s12.99-4.15 21.68-13.49c33.47-36.03 97.78-130.13 122.15-124.48 2.57.59 7.87 1.97 10.7 3.8 40.09 25.86 56.89 76.61 71.34 108.17l-36.1 27.37-43.16-78.23-59.3 96.93-87.31-20.07z" fill="#032d5f"/><path d="M350.15 261.49s28.9-8.9 47.97-4.01l71.92 17.23-11.79 40.85-60.6 1.41c-1.95 0-47.5-55.49-47.5-55.49z" class="I"/><path d="M351.43 239.23l10.66 21.1s1.08 9.43-1.36 13.55c-4.22 7.11-33.48-10.26-33.48-10.26l-12.84-32.34 37.03 7.95z" class="G"/><path d="M320.48 238.88c11.73 14.01 29.52 16.11 37.94 14.25l-6.34-12.42-35.41-14.07 3.81 12.24z" class="N"/><path d="M670.44 553.47c2.19 2.98 6.21 4.72 9.55 5.72 3.97 1.18 8.38 1.7 12.49 1.21 4.44-.54 8.32-2.69 11.1-6.19a24.9 24.9 0 0 0 2.07-3.07c-1.69-.86-2.83-1.65-3.25-2.38-3.23-5.55-7.53-39.88-7.53-39.88l-30.51 7.64 6.15 36.63c.02 0-.01.12-.06.31z" class="G"/><path d="M455.61 324.37l38.51-1.49s154.6 23.51 173.3 33.43c18.69 9.91 39.68 188.69 39.68 188.69l-42.92 5.67-41.85-152.51-124.29 3.31-42.43-77.1z" fill="#032d5f"/><path d="M704.06 549.39l45.55 20.25c1.88.83 3.12 2.91 3.1 5.2-.02 3.07-3.2 5.54-5.89 5.53l-80.3-.48 2.86-28.6c.01 0 14.02 9.58 34.69-1.89z" class="N"/><path d="M507.47 318.17s-45.28-.16-57.39-1.26c-9.58-.87-36.46-47.36-87.83-56.34-9.09-1.59-18.56-.69-29.37 1.47-12.69 2.55-23.25 12.24-26.44 24.8-.04.16-.07.3-.12.46-10.25 41.35-6.11 103.7 5.57 112.71l37.28-18.98c6.26 4.57 13.25 8.53 21.06 11.66 38.5 15.42 127.8 8.76 127.8 8.76l9.45-83.29zm-168.78-5.15c.87 3.74 5.91 28.06 5.91 28.06l30.65 40.07-20.98-1.15c-.41-.42-13.27-57.01-15.57-66.98l-.28-1.22a9.7 9.7 0 0 0-.14-.62l-.12-.5c-.06-.23-.08-.37-.1-.42-.01-.04-.01-.04 0 0 .01.06.05.21.1.42.04.13.07.3.12.5a12.1 12.1 0 0 1 .14.62" class="I"/><g class="F"><path d="M338.15 310.69l-.1-.42.1.42zm.26 1.11l-.14-.61.14.61z"/><path d="M338.05 310.26c-.01-.04-.01-.04 0 0zm.36 1.54l.28 1.22V313l-.28-1.21z"/></g><path d="M446.67 387.42v-.09c.06.05.08.09 0 .09z" fill="#f48c7f"/><path d="M323.49 265.16l99.87 85.12-58.72-91.98s-21.59-1.53-41.15 6.85z" class="B"/><path d="M319.13 402.08l34.67-25.1-3.86-64.3L320 270.21" class="I"/><path d="M327.25 263.62s39.31 29.74 35.27-3.17c0 0-3.19-13.11-35.27 3.17zm34.09-27.39c3.53-13.23-.69-27.98-3.9-38.97-2.12-7.22-5.27-13.11-11.75-16.73-10.56-5.89-28.62-7.33-36.45 4.57-6.56 9.94-6 22.35-1.98 33.02 3.16 8.35 5.09 16.01 11.74 21.81 7.56 6.59 18.84 7.98 27.37 6.41 5.94-1.09 13.62-5.06 14.97-10.11z" class="G"/><path d="M329.76 197.4a29 29 0 0 1 12.1-3.94l-.1-1.04a30.1 30.1 0 0 0-12.55 4.07l.54.91zm28.1-5.77l.35-.99c-3.48-1.23-6.96-.33-10.02.47l.27 1.01c2.9-.76 6.22-1.62 9.4-.5z" class="F"/><path d="M343.17 224.45l13.63-1.35s.76 8.01-6.33 8.35c-1.98.08-6.27-1.71-7.3-7z" fill="#e5f4f6"/><path d="M351.88 219.4c.04 0 .06-.01.1-.01.66-.09 1.35-.23 1.83-.75.78-.86.53-2.16.27-3.06l-.6-2.2c-.9-3.31-2.27-8.3-3.01-10.08l-.72.3c.73 1.73 2.08 6.69 2.99 9.98l.6 2.2c.2.72.42 1.76-.1 2.33-.29.31-.75.44-1.35.51a18.8 18.8 0 0 1-5.5-.15l-.13.77c1.86.33 3.75.37 5.63.16zm6.09-14.72c.3 1.4-.14 2.72-.99 2.93-.86.22-1.8-.75-2.1-2.15s.15-2.72.99-2.93c.86-.2 1.8.75 2.1 2.15zm-15.95.95c.3 1.4-.14 2.72-.99 2.93-.86.22-1.8-.75-2.1-2.15s.15-2.72.99-2.93c.86-.22 1.8.75 2.1 2.15z" class="F"/><path d="M369.44 184.3l.19-.86c.94-5.04-1.95-10.64-6.68-12.29-2.16-.75-2.68-.77-4.82-1.56-4.51-1.65-7.13-6.49-11.31-8.91-7.76-4.48-15.65 2.62-23.03 4.48-3.56.89-7.17 1.48-10.72 2.43-5.51 1.46-10.92 3.88-15.04 7.92-6.98 6.84-9.33 17.6-7.91 27.34s10.52 24.74 26.22 34.88c-3.48-8.63-7.03-21.99-4.69-28.47.25-.7-2.45-.53-2.04-1.16.52-.8 1.27-1.4 2-1.99 2.13-1.74 4.39-3.52 7.05-4.08 2.25-.47 4.74-.02 6.76-1.16 2.47-1.39 3.34-4.66 3.13-7.53-.17-2.39-.59-5.43 1.46-6.6 2.79-1.58 5.7 2.69 8.86 2.31 1.05-.13 1.97-.77 2.91-1.28 2.07-1.12 4.51-1.83 6.85-1.53 1.92.24 3.63 1.38 4.81 2.92 1.71 2.23 3.41 2.9 6.4 3.22 5.12.57 8.31-3.28 9.59-8.07z" class="N"/><path d="M316.71 211.18c-1.77-3.71-5.92-5.67-8.8-4.96-4.27 1.04-6.06 5.62-5.97 9.52.09 3.55 1.1 6.55 3.41 9.39 2.18 2.66 6.5 5.4 9.9 4.44 2.31-.65 3.41-3.62 3.46-5.75" class="G"/><path d="M316.65 211.17l.64-.46-.07-.11a12.4 12.4 0 0 0-3.44-3.46c-2.25-1.44-4.78-1.68-7.53-.72l.25.74c5.88-2.04 9.03 2.43 10.06 3.9l.08.12zm-4.26 7.3l.47-.63-6.36-4.64-.46.63 6.35 4.63z" class="F"/><g fill="#183862"><path d="M358.94 213.37c-3.31.35-6.4-2.97-6.87-7.4s1.84-8.31 5.17-8.68c3.31-.35 6.4 2.97 6.87 7.4.46 4.43-1.86 8.33-5.17 8.68zm-1.64-15.46c-2.98.31-5.05 3.9-4.62 7.99s3.21 7.16 6.18 6.84 5.05-3.9 4.62-7.99c-.43-4.08-3.21-7.16-6.18-6.84zm-16.28 18.81c-3.99.42-7.69-3.57-8.26-8.92s2.22-10.03 6.21-10.45 7.7 3.57 8.26 8.92c.57 5.34-2.22 10.03-6.21 10.45zm-1.99-18.75c-3.65.39-6.19 4.77-5.66 9.78.53 5 3.93 8.76 7.58 8.36 3.65-.39 6.19-4.77 5.66-9.78-.53-5-3.93-8.75-7.58-8.36z"/><path d="M352.37 205.38l-5.51.59.06.61 5.51-.59-.06-.61zm-35.65 4.52l.23.29 15.87-1.93-.07-.62-16.35 1.98.31.28z"/></g><path d="M312.31 229.85c-.65.07-1.17.04-1.22.04l.05-.62c.01 0 1.71.12 2.75-.51l.31.53c-.57.34-1.29.48-1.89.56z" class="F"/><path d="M437.34 271.02l30.25 3.9 15.16-70.06s18.01 4.77 26.71 3.38l-10.97 99.16c-.62 6.23-5.51 12.19-11.72 12.93l-50.31-2.7.87-46.6z" class="I"/><path d="M497.57 317.86l-18.71.31h-14.7l-23.11-5.9" class="H V W"/><path d="M442.87 385.89c2.56-.98 3.19-1.53 5.84-1.1 3 .51 2.97.04 5.64-.68 2.33-.63 3.83.2 5.93.92 2.82.95 2.57.27 5.4-.27 4.46-.84 10.92 9.29 14.5 10.85l-42.65-.45c.36-2 .1-4.13.84-6.08 1.17-3.04 2.03-2.27 4.48-3.2z" class="G"/><path d="M317.55 377.56c10.04-10.81 40.03.47 52.26 2.49 19.13 3.15 44.13-.6 69.33-.2l6.18 17.95c-23.56 9.7-113.37 30.49-129.15 9.98-14.62-19-9.4-18.61 1.37-30.21z" class="I"/><path d="M377.14 381.1l36.75-.94m18.83 22.33s-46.57 11.12-57.47 11.2" class="H V W"/><path d="M422.78 349.08l-10-15.56-17.2-26.87-25.5-27.59v-6.84l-10.97-.75-3.87 8.45a133.7 133.7 0 0 0 10.76 2.57l24.72 40.07 18.72 15.92 12.9 11c.04-.2.19-.36.45-.4z" fill="#183862"/><path d="M423.13 350.06l-53.53-24.8-2.83-11.8-8.02 8.5-23.12-47.93m87.62 76.19l-17.33-45.27-5.19-.95 5.42-7.08-36.08-29.75" class="H V W"/><g fill="#258df4"><path d="M359.18 271.67l-7.08 15.62-34.87-13.63 8.91-11.28 33.04 9.29z"/><path d="M359.19 271.67l1.29-14.42 12.41-1.29 1.42 16.76-15.13-1.05z"/></g><path d="M555.04 400.09a4.3 4.3 0 0 1-4.39 4.21l-132.86-2a4.3 4.3 0 0 1-4.26-4.34 4.3 4.3 0 0 1 4.39-4.21l132.86 2.02a4.3 4.3 0 0 1 4.25 4.33z" class="B"/><path d="M582.44 400.88c-.46 2.21-2.37 3.97-4.27 3.95l-107.06-1.62c-1.9-.02-3.01-1.85-2.47-4.04l20.19-83.08c.54-2.21 2.47-3.97 4.31-3.95l104 1.57c1.84.02 2.98 1.85 2.52 4.04l-17.22 83.13z" fill="#c1c1c1"/><path d="M584.75 400.9c-.46 2.21-2.36 3.97-4.27 3.95l-107.06-1.62c-1.9-.03-3.01-1.85-2.47-4.04l20.13-83.08c.53-2.21 2.47-3.97 4.31-3.95l104 1.57c1.84.02 2.98 1.83 2.52 4.04l-17.16 83.13z" class="B"/><path d="M540.56 358.54c-.49 2.21-2.42 3.98-4.29 3.95-1.88-.03-3-1.85-2.5-4.06.49-2.21 2.42-3.97 4.29-3.95 1.88.04 2.99 1.85 2.5 4.06z" fill="#626b72"/><g class="G"><path d="M505.53 204.15l-16.36-9.62s.19-46.48 1.84-46.72c3.39-.5 3.81 23.23 3.81 23.23s1.56-25.63 3.06-25.03c2.7 1.09 3.52 26.25 3.52 26.25s.58-25.09 2.57-23.97c1.98 1.12 5.21 34.52 5.21 34.52l-3.65 21.34z"/><path d="M486.98 197.18l.75-6.31s-2.53-9.34-2.68-16.8c-.16-7.46.36-11.26 1.58-11.72s3.83 10.25 3.83 10.25 5.4 8.03 4.5 14.89"/></g><path d="M504.47 188.33l-13.72-5.7c-.58-.22-.98-.82-.96-1.47l.11-37.64 1-.11c.23-.03.49-.06.75.02l14.75 5.53c.58.22.98.82.96 1.46l-.52 36.58c-.01.5-.29.89-.66 1.06l-1.71.26z" fill="#060c16"/><path d="M504.09 188.26l-14.6-5.47c-.58-.22-.98-.82-.96-1.47l.52-36.76c.01-.74.68-1.22 1.34-.97l14.75 5.53c.58.22.98.82.96 1.46l-.52 36.58c-.01.82-.76 1.36-1.5 1.1z" fill="#0a172b"/><path d="M488.56 178.91l17.06 6.39.45-32.38-17.06-6.38-.45 32.38zm8.31 4.68c.05.45-.2.76-.57.7s-.7-.46-.75-.91.19-.76.57-.7c.36.05.7.46.75.91z" class="O"/><path d="M495.78 147.2l3 1.16" class="H P Q R"/><g opacity=".55"><mask id="AG" maskUnits="userSpaceOnUse" x="489" y="153" width="3" height="3"><path d="M490.92 153.58l-1.08.41.57 1.51 1.09-.41-.57-1.51z" class="B"/></mask><g mask="url(#AG)" class="O"><path d="M491.3 154.64c.05.42-.19.71-.53.66-.35-.05-.66-.44-.71-.86s.19-.71.53-.66.66.43.71.86z"/></g></g><g opacity=".51"><mask id="AH" maskUnits="userSpaceOnUse" x="490" y="148" width="16" height="16"><path d="M501.65 148.5l-11.12 4.17 4.02 10.72 11.12-4.17-4.02-10.72z" class="B"/></mask><g mask="url(#AH)" class="B"><path d="M503.35 154.99l-8.98-3.37c-.96-.36-1.94.34-1.95 1.41l-.02 2.46-.64.37 10.97 4.08c.97.36 1.93-.34 1.95-1.41l.04-1.5a2.2 2.2 0 0 0-1.36-2.05z"/></g></g><path d="M494.04 153.37l9.04 3.38m-9.07-1.52l5.19 1.94" class="H P Q R"/><g opacity=".55"><mask id="AI" maskUnits="userSpaceOnUse" x="489" y="174" width="2" height="3"><path d="M490.19 174.17l-1.08.41.57 1.51 1.08-.41-.57-1.51z" class="B"/></mask><g mask="url(#AI)" class="O"><path d="M490.57 175.23c.05.42-.19.71-.53.66-.35-.05-.66-.44-.71-.86s.19-.71.53-.66.66.44.71.86z"/></g></g><g opacity=".51"><mask id="AJ" maskUnits="userSpaceOnUse" x="489" y="169" width="16" height="15"><path d="M500.92 169.09l-11.12 4.17 4.02 10.72 11.12-4.17-4.02-10.72z" class="B"/></mask><g mask="url(#AJ)" class="B"><path d="M502.63 175.58l-8.98-3.37c-.97-.36-1.94.34-1.95 1.41l-.02 2.46-.64.37 10.97 4.08c.96.36 1.93-.34 1.95-1.41l.04-1.5c0-.92-.55-1.75-1.36-2.05z"/></g></g><path d="M493.3 173.96l9.05 3.37m-9.06-1.51l5.2 1.94" class="H P Q R"/><g opacity=".55"><mask id="AK" maskUnits="userSpaceOnUse" x="503" y="168" width="3" height="3"><path d="M504.58 168.88l-1.08.41.57 1.51 1.08-.41-.57-1.51z" class="B"/></mask><g mask="url(#AK)" class="O"><path d="M504.97 169.94c.05.42-.19.71-.53.66-.35-.05-.66-.44-.71-.86s.19-.71.53-.66c.34.06.66.45.71.86z"/></g></g><g opacity=".51"><mask id="AL" maskUnits="userSpaceOnUse" x="489" y="158" width="16" height="17"><path d="M499.64 158.17l-10.5 3.94 4.58 12.21 10.5-3.94-4.58-12.22z" class="B"/></mask><g mask="url(#AL)" class="B"><path d="M501.69 165.02l-9.71-3.64c-.81-.3-1.62.29-1.63 1.18l-.04 2.33c-.01.64.38 1.23.95 1.45l11.94 4.43-.64-1 .07-3.3a1.5 1.5 0 0 0-.95-1.45z"/></g></g><path d="M491.97 163.25l9.05 3.37m-9.07-1.51l5.2 1.93m.78.36l2.01.75" class="H P Q R"/><path d="M505.39 204.56s8.91-13.63 6.99-30.57c-.52-4.55-1.89-17.06-3.71-16.38-1.83.69-2.04 13.25-1.84 15.27-2.92 3.32-6.77 8.8-4.34 15.12" class="G"/><defs><linearGradient id="AM" x1="478.25" y1="507" x2="478.25" y2="600" gradientUnits="userSpaceOnUse"><stop stop-color="#becff6"/><stop offset="1" stop-color="#e7eeff"/></linearGradient><linearGradient id="AN" x1="382.07" y1="162.69" x2="382.07" y2="193" gradientUnits="userSpaceOnUse"><stop stop-color="#f2e3b7"/></linearGradient><path id="AO" d="M740.65 271.41h1.44v8.01h-1.44v-8.01z"/><path id="AP" d="M744.9 288.6h3.46v9.51h-3.46v-9.51z"/><path id="AQ" d="M717.54 288.6H721v9.51h-3.46v-9.51z"/><path id="AR" d="M153.37 257.08h1.53v48.87h-1.53v-48.87z"/><path id="AS" d="M353.86 360.39h57.93v1.74h-57.93v-1.74z"/><path id="AT" d="M399.13 343.63h5.53v13.74h-5.53v-13.74z"/><path id="AU" d="M399.13 366.09h5.53v13.73h-5.53v-13.73z"/><path id="AV" d="M543.78 354.88h8.28v12.62h-8.28v-12.62z"/><path id="AW" d="M663.52 493.09h81.4v14.07h-81.4v-14.07z"/><path id="AX" d="M300.16 178.15h3.94c.06 0 .12-.05.12-.12v-1.22c0-.06-.05-.12-.12-.12h-3.94v1.46z"/><path id="AY" d="M189.65 255.49a5.8 5.8 0 0 0 5.7 5.87 5.8 5.8 0 0 0 5.7-5.87 5.8 5.8 0 0 0-5.7-5.87 5.8 5.8 0 0 0-5.7 5.87z"/><path id="AZ" d="M189.38 255.49c0-3.39 2.68-6.14 5.98-6.14 3.29 0 5.98 2.75 5.98 6.14s-2.68 6.14-5.98 6.14c-3.29 0-5.98-2.75-5.98-6.14zm.55 0a5.5 5.5 0 0 0 5.42 5.57 5.5 5.5 0 0 0 5.42-5.57 5.5 5.5 0 0 0-5.42-5.58 5.5 5.5 0 0 0-5.42 5.58z"/><path id="Aa" d="M192.52 208.87c0-3.39 2.68-6.14 5.98-6.14 3.29 0 5.98 2.75 5.98 6.14s-2.68 6.14-5.98 6.14-5.98-2.75-5.98-6.14zm.56 0a5.5 5.5 0 0 0 5.42 5.58 5.5 5.5 0 0 0 5.42-5.58 5.5 5.5 0 0 0-5.42-5.58 5.5 5.5 0 0 0-5.42 5.58z"/><path id="Ab" d="M285.09 294.06h-67.06v13.49h67.06v-13.49z"/><path id="Ac" d="M279.87 274.29h-1.58v8.09h1.58v-8.09z"/></defs></svg>