<svg width="60" height="60" viewBox="0 0 60 60" fill="none" xmlns="http://www.w3.org/2000/svg">
<path d="M30.0545 20.6328C38.1094 20.6328 46.1643 20.6328 54.2192 20.6328C57.9078 20.6328 59.971 22.6849 59.971 26.345C59.971 32.8671 59.971 39.3893 59.971 45.9115C59.971 49.4576 57.8838 51.5456 54.3331 51.5516C49.1871 51.5576 44.0351 51.5636 38.8831 51.5396C38.2953 51.5396 37.9054 51.7076 37.5276 52.1516C35.6143 54.4137 33.6711 56.6577 31.7338 58.9018C30.4623 60.3778 29.5087 60.3658 28.2192 58.8718C26.3059 56.6518 24.3806 54.4317 22.4914 52.1936C22.0955 51.7256 21.6817 51.5336 21.0579 51.5396C15.9059 51.5636 10.7539 51.5576 5.60185 51.5516C2.11119 51.5456 0.0059977 49.4456 0 45.9715C0.0059977 39.3833 0.0059977 32.8011 0.0059977 26.213C0.0059977 22.7389 2.12319 20.6388 5.60785 20.6328C13.7587 20.6328 21.9096 20.6328 30.0545 20.6328ZM30.0485 30.1731C25.8021 30.1731 21.5617 30.1731 17.3154 30.1731C15.63 30.1731 13.9446 30.1551 12.2593 30.1851C11.3237 30.2031 10.5859 30.9351 10.526 31.8291C10.466 32.6691 11.1857 33.4971 12.0974 33.6232C12.3732 33.6592 12.6551 33.6652 12.937 33.6652C24.2967 33.6652 35.6503 33.6652 47.01 33.6652C47.3218 33.6652 47.6757 33.7252 47.9336 33.5992C48.3834 33.3771 48.9172 33.1251 49.1691 32.7291C49.9308 31.5171 49.0192 30.1851 47.4538 30.1791C41.654 30.1671 35.8542 30.1731 30.0485 30.1731ZM19.0727 40.6973C21.1959 40.6973 23.319 40.7033 25.4422 40.6973C26.7077 40.6913 27.5534 39.9773 27.5474 38.9333C27.5414 37.9373 26.7137 37.1812 25.5142 37.1752C21.2079 37.1572 16.9015 37.1572 12.5952 37.1752C11.4076 37.1812 10.5559 37.9313 10.532 38.9093C10.508 39.9353 11.3716 40.6913 12.6192 40.6973C14.7663 40.7033 16.9195 40.6973 19.0727 40.6973ZM40.8563 40.6973C43.0095 40.6973 45.1627 40.7033 47.3158 40.6973C48.5933 40.6913 49.439 39.9953 49.451 38.9573C49.469 37.9493 48.5873 37.1752 47.3458 37.1752C43.0695 37.1632 38.7931 37.1632 34.5167 37.1752C33.2752 37.1812 32.4056 37.9613 32.4355 38.9753C32.4655 40.0193 33.2932 40.6913 34.5827 40.6973C36.6759 40.7033 38.7631 40.6973 40.8563 40.6973Z" fill="#0668E1"/>
<path d="M45.0311 15.0283C45.091 14.0623 45.073 13.0842 45.235 12.1422C45.3609 11.4162 45.199 10.9002 44.7072 10.3842C44.0414 9.68215 43.4237 8.93813 42.8179 8.18811C41.8283 6.95808 42.2901 5.39203 43.8495 5.21803C46.6025 4.91202 48.4138 3.61599 49.5653 1.07792C50.2311 -0.398117 51.8504 -0.314115 52.7561 1.05992C52.8101 1.13792 52.87 1.20992 52.906 1.29993C53.8237 3.72399 55.617 4.91802 58.166 5.13403C58.5978 5.17003 59.0777 5.40403 59.4195 5.68604C60.1333 6.26806 60.1812 7.25808 59.5815 8.0381C59.0297 8.75212 58.4839 9.49614 57.8241 10.0962C57.0324 10.8222 56.9125 11.6502 57.0564 12.6222C57.1704 13.3902 57.2184 14.1703 57.2784 14.9503C57.3863 16.4443 56.1808 17.3743 54.7893 16.8463C53.7997 16.4683 52.8521 15.9883 51.8504 15.6523C51.4246 15.5143 50.8788 15.5203 50.447 15.6643C49.4454 16.0003 48.4977 16.4803 47.5081 16.8523C46.1286 17.3563 44.9591 16.4863 45.0311 15.0283Z" fill="#0668E1"/>
<path d="M23.8578 15.3404C23.9298 14.2664 23.8758 13.4683 24.0557 12.7183C24.3256 11.5903 24.0437 10.7443 23.2161 9.96424C22.6523 9.43623 22.1785 8.80021 21.6926 8.1942C20.697 6.94617 21.1528 5.57813 22.6823 5.18212C23.4979 4.97211 24.3016 4.72011 25.1293 4.5941C26.029 4.4561 26.6527 4.07809 27.0666 3.22607C27.4444 2.44605 27.9482 1.72003 28.4281 0.99401C29.2737 -0.290023 30.7072 -0.302023 31.5469 0.97001C32.0986 1.79803 32.5425 2.70405 33.1422 3.49608C33.4661 3.92209 33.9699 4.3001 34.4737 4.4861C35.3134 4.79211 36.2251 4.91211 37.1007 5.12212C38.888 5.55413 39.3619 6.91016 38.2043 8.3142C37.5685 9.08222 36.8608 9.79624 36.279 10.6003C36.0151 10.9603 35.8652 11.4883 35.8712 11.9383C35.8832 12.9343 36.0511 13.9243 36.1171 14.9204C36.2191 16.4864 34.9296 17.5424 33.5861 16.7804C31.145 15.3944 28.8839 15.3824 26.4368 16.7684C25.1053 17.5244 23.8278 16.5464 23.8578 15.3404Z" fill="#0668E1"/>
<path d="M2.6977 15.2443C2.80566 14.0143 2.9616 12.9883 2.9496 11.9623C2.9436 11.4582 2.73368 10.8882 2.4458 10.4742C1.87002 9.66419 1.15629 8.95018 0.532529 8.17616C-0.457091 6.95212 0.0227252 5.57209 1.55814 5.17008C1.82803 5.09808 2.09793 4.97807 2.37382 4.97207C4.66494 4.90007 6.03842 3.61004 6.90808 1.61799C7.02204 1.34198 7.20197 1.07797 7.3879 0.825965C8.1736 -0.236063 9.54107 -0.254063 10.2968 0.831965C10.8846 1.67199 11.4363 2.54801 11.9162 3.45403C12.276 4.13805 12.7918 4.42006 13.5055 4.55206C14.3932 4.72007 15.2629 4.94807 16.1385 5.17608C17.6739 5.57209 18.1358 6.94612 17.1701 8.18816C17.0142 8.38616 16.8463 8.56617 16.6843 8.75817C14.5491 11.2362 14.5491 11.2362 14.921 14.4703C14.951 14.7163 14.987 14.9683 14.975 15.2143C14.933 16.5164 13.7934 17.3264 12.5759 16.8764C11.5263 16.4924 10.5187 15.9884 9.4631 15.6164C9.09124 15.4843 8.59943 15.4903 8.23357 15.6164C7.20797 15.9764 6.22434 16.4564 5.20474 16.8464C3.85525 17.3564 2.64372 16.4624 2.6977 15.2443Z" fill="#0668E1"/>
</svg>
