<svg width="60" height="60" viewBox="0 0 60 60" fill="none" xmlns="http://www.w3.org/2000/svg">
<path d="M38.7779 41.1641C27.5761 50.3775 12.7678 47.4335 5.28174 38.2201C-2.31365 28.9522 -1.65793 15.2684 6.86639 6.76374C15.3907 -1.74094 29.1061 -2.17708 38.2315 5.18274C47.6847 12.8151 50.3623 27.7528 41.1822 38.7108C42.439 39.9102 43.6412 41.1096 44.898 42.3089C45.0072 42.418 45.2805 42.3634 45.4444 42.3089C47.8487 41.4367 49.9798 41.8183 51.783 43.6173C54.0233 45.798 56.2091 47.9787 58.3401 50.2139C60.5805 52.5036 60.5259 56.1018 58.3401 58.337C56.1544 60.5177 52.4933 60.5722 50.1983 58.3915C48.0673 56.1563 45.8815 53.9756 43.6958 51.7404C41.9472 49.9413 41.5101 47.8697 42.3844 45.4709C42.439 45.2529 42.439 44.8712 42.2751 44.7077C41.1276 43.5083 39.9801 42.3634 38.7779 41.1641ZM30.199 23.446C30.199 25.2451 30.199 27.0986 30.199 28.8977C30.199 30.0426 30.8547 30.7513 31.9476 30.7513C33.3136 30.8058 34.6797 30.8058 35.9911 30.6968C39.3244 30.4787 41.2915 26.8806 39.6522 23.9912C39.379 23.5005 39.379 23.2279 39.6522 22.7373C41.1276 20.0659 39.7615 16.7949 36.7561 16.1407C35.2808 15.8136 33.6415 15.9771 32.1115 15.9226C30.8 15.9226 30.1443 16.5768 30.1443 17.8852C30.1443 19.7933 30.199 21.5924 30.199 23.446ZM17.9589 23.337C17.9589 24.2637 17.9043 25.1905 17.9589 26.1718C18.1229 28.7887 20.3086 30.8058 22.9314 30.8058C25.609 30.8058 27.7947 28.7887 27.9586 26.1173C28.0679 24.3183 28.0679 22.4647 27.9586 20.6656C27.7947 18.0488 25.609 16.0317 22.9861 16.0317C20.3632 16.0317 18.1775 17.9943 18.0136 20.6656C17.9043 21.4834 17.9589 22.4102 17.9589 23.337ZM12.2214 19.4662C12.2214 20.3385 12.2214 21.1018 12.2214 21.9195C12.2214 23.2824 12.2214 24.6999 12.2214 26.0628C12.2214 26.717 11.8935 27.2077 11.2378 27.2622C10.5821 27.3167 10.1996 26.9351 10.0903 26.2264C10.0903 26.1173 10.0903 26.0083 10.0357 25.8993C9.81711 24.9725 8.99747 24.3728 8.12318 24.4818C7.19425 24.5909 6.53853 25.4631 6.59317 26.4444C6.81174 28.9522 8.72425 30.8058 11.1285 30.8058C13.5875 30.8058 15.6093 29.0067 15.6639 26.499C15.7732 23.6095 15.7186 20.6656 15.7186 17.7762C15.7186 16.7949 15.0082 16.0862 14.0246 16.0862C12.7678 16.0317 11.4564 16.0317 10.1996 16.0862C9.1614 16.1407 8.45104 16.8494 8.45104 17.8307C8.45104 18.812 9.1614 19.5208 10.1996 19.5753C10.8007 19.4662 11.4564 19.4662 12.2214 19.4662Z" fill="#0668E1"/>
<path d="M33.6953 21.592C33.6953 20.8833 33.6953 20.229 33.6953 19.5203C34.4057 19.5203 35.116 19.4658 35.8264 19.5203C36.3728 19.5748 36.7553 19.9565 36.7553 20.5016C36.81 21.1013 36.4275 21.5375 35.8264 21.592C35.1707 21.6465 34.4603 21.592 33.6953 21.592Z" fill="#0668E1"/>
<path d="M33.6953 27.2619C33.6953 26.4987 33.6953 25.899 33.6953 25.1902C34.4057 25.1902 35.116 25.1357 35.8264 25.1902C36.4275 25.2448 36.7553 25.6264 36.7553 26.2261C36.7553 26.8258 36.3728 27.2074 35.7717 27.2619C35.116 27.3164 34.4057 27.2619 33.6953 27.2619Z" fill="#0668E1"/>
<path d="M24.521 23.3375C24.521 24.0462 24.521 24.8095 24.521 25.5182C24.4663 26.554 23.8106 27.2627 22.9363 27.2627C22.062 27.2627 21.4609 26.4995 21.4609 25.5182C21.4609 24.1008 21.4609 22.6833 21.4609 21.2113C21.4609 20.23 22.1167 19.4668 22.9909 19.4668C23.8652 19.4668 24.5756 20.1755 24.5756 21.2113C24.5209 21.9201 24.521 22.6288 24.521 23.3375Z" fill="#0668E1"/>
</svg>
