<svg width="1920" height="9528" viewBox="0 0 1920 9528" fill="none" xmlns="http://www.w3.org/2000/svg">
<g opacity="0.6" filter="url(#filter0_f_12847_42165)">
<path d="M100.965 1507.32C37.3617 1620.86 142.134 1805.1 290.296 1865.47C350.097 1889.83 390.226 1892.83 454.659 1886.66C560.843 1876.5 636.718 1849.5 697.212 1763.15C807.156 1606.21 679.885 1370.97 493.581 1318.19C329.505 1271.7 160.644 1400.78 100.965 1507.32Z" fill="#CCB0FF" fill-opacity="0.6"/>
</g>
<g opacity="0.6" filter="url(#filter1_f_12847_42165)">
<path d="M170.965 3501.94C107.362 3615.48 212.134 3799.72 360.296 3860.09C420.097 3884.46 460.226 3887.45 524.659 3881.28C630.843 3871.12 706.718 3844.12 767.212 3757.77C877.156 3600.83 749.885 3365.59 563.581 3312.81C399.505 3266.32 230.644 3395.4 170.965 3501.94Z" fill="#CCB0FF" fill-opacity="0.6"/>
</g>
<g opacity="0.6" filter="url(#filter2_f_12847_42165)">
<path d="M-14.0351 5588.97C-77.6383 5702.51 27.1344 5886.75 175.296 5947.12C235.097 5971.48 275.226 5974.48 339.659 5968.31C445.843 5958.14 521.718 5931.15 582.212 5844.79C692.156 5687.85 564.885 5452.62 378.581 5399.83C214.505 5353.35 45.6441 5482.43 -14.0351 5588.97Z" fill="#CCB0FF" fill-opacity="0.6"/>
</g>
<g opacity="0.6" filter="url(#filter3_f_12847_42165)">
<path d="M1471.96 6513.04C1408.36 6626.58 1513.13 6810.82 1661.3 6871.19C1721.1 6895.56 1761.23 6898.55 1825.66 6892.38C1931.84 6882.22 2007.72 6855.22 2068.21 6768.87C2178.16 6611.93 2050.89 6376.69 1864.58 6323.91C1700.51 6277.42 1531.64 6406.5 1471.96 6513.04Z" fill="#CCB0FF" fill-opacity="0.6"/>
</g>
<g opacity="0.4" filter="url(#filter4_f_12847_42165)">
<path d="M110.583 483.905C26.477 634.045 266.326 1101.45 360.945 957.502C418.912 869.313 548.686 994.493 578.292 985.528C607.897 976.563 721.829 603.167 908.508 603.167C990.948 603.167 835.177 438.211 629.76 233.807C528.582 133.128 189.5 343.028 110.583 483.905Z" fill="#0668E1" fill-opacity="0.4"/>
</g>
<g opacity="0.4" filter="url(#filter5_f_12847_42165)">
<path d="M1116.23 7539.61C1033.83 7686.55 1268.81 8144 1361.51 8003.12C1418.3 7916.81 1545.44 8039.32 1574.45 8030.55C1603.45 8021.77 1715.07 7656.33 1897.96 7656.33C1978.73 7656.33 1826.12 7494.89 1624.87 7294.83C1525.75 7196.3 1193.54 7401.73 1116.23 7539.61Z" fill="#0668E1" fill-opacity="0.4"/>
</g>
<g opacity="0.6" filter="url(#filter6_f_12847_42165)">
<path d="M1536.07 41.496C1487.9 127.561 1625.28 395.495 1679.48 312.977C1712.68 262.424 1787.01 334.181 1803.97 329.042C1820.93 323.903 1886.19 109.861 1993.12 109.861C2040.34 109.861 1951.11 15.3023 1833.45 -101.869C1775.5 -159.581 1581.27 -39.2592 1536.07 41.496Z" fill="#0668E1" fill-opacity="0.4"/>
</g>
<g opacity="0.6" filter="url(#filter7_f_12847_42165)">
<path d="M-43.9286 41.496C-92.1039 127.561 45.28 395.495 99.4771 312.977C132.68 262.424 207.014 334.181 223.971 329.042C240.929 323.903 306.188 109.861 413.117 109.861C460.338 109.861 371.113 15.3023 253.452 -101.869C195.498 -159.581 1.27446 -39.2592 -43.9286 41.496Z" fill="#CCB0FF" fill-opacity="0.4"/>
</g>
<g opacity="0.4" filter="url(#filter8_f_12847_42165)">
<path d="M141.792 2430.6C71.0349 2556.86 272.818 2949.91 352.42 2828.86C401.186 2754.7 510.364 2859.96 535.271 2852.42C560.177 2844.88 656.027 2530.89 813.078 2530.89C882.434 2530.89 751.385 2392.18 578.57 2220.29C493.45 2135.63 208.184 2312.14 141.792 2430.6Z" fill="#0668E1" fill-opacity="0.4"/>
</g>
<g opacity="0.4" filter="url(#filter9_f_12847_42165)">
<path d="M35.1 4670.63C-32.3454 4790.82 159.992 5164.98 235.868 5049.75C282.352 4979.15 386.419 5079.36 410.16 5072.18C433.901 5065.01 525.264 4766.1 674.963 4766.1C741.073 4766.1 616.159 4634.05 451.433 4470.43C370.297 4389.83 98.3842 4557.86 35.1 4670.63Z" fill="#0668E1" fill-opacity="0.4"/>
</g>
<g opacity="0.4" filter="url(#filter10_f_12847_42165)">
<path d="M35.1 6322.17C-32.3454 6442.36 159.992 6816.52 235.868 6701.29C282.352 6630.69 386.419 6730.9 410.16 6723.72C433.901 6716.55 525.264 6417.64 674.963 6417.64C741.073 6417.64 616.159 6285.59 451.433 6121.97C370.297 6041.37 98.3842 6209.4 35.1 6322.17Z" fill="#0668E1" fill-opacity="0.4"/>
</g>
<g opacity="0.6" filter="url(#filter11_f_12847_42165)">
<path d="M1043 487.32C961.7 632.91 1193.54 1086.15 1284.99 946.565C1341.02 861.048 1466.46 982.435 1495.08 973.741C1523.69 965.048 1633.82 602.967 1814.26 602.967C1893.95 602.967 1743.38 443.01 1544.83 244.8C1447.03 147.172 1119.28 350.712 1043 487.32Z" fill="#CCB0FF" fill-opacity="0.4"/>
</g>
<g opacity="0.4" filter="url(#filter12_f_12847_42165)">
<path d="M-29.0045 7761.12C-110.3 7906.71 121.535 8359.95 212.993 8220.36C269.022 8134.84 394.461 8256.23 423.077 8247.54C451.693 8238.84 561.818 7876.76 742.26 7876.76C821.945 7876.76 671.379 7716.81 472.825 7518.6C375.028 7420.97 47.2757 7624.51 -29.0045 7761.12Z" fill="#CCB0FF" fill-opacity="0.4"/>
</g>
<g opacity="0.4" filter="url(#filter13_f_12847_42165)">
<path d="M899.165 8524.89C759.658 8774.61 1157.5 9552.05 1314.44 9312.61C1410.59 9165.93 1625.85 9374.14 1674.96 9359.23C1724.07 9344.32 1913.05 8723.26 2222.69 8723.26C2359.44 8723.26 2101.06 8448.89 1760.33 8108.9C1592.5 7941.45 1030.07 8290.57 899.165 8524.89Z" fill="#CCB0FF" fill-opacity="0.4"/>
</g>
<g opacity="0.6" filter="url(#filter14_f_12847_42165)">
<path d="M1369.42 2523.36C1310.01 2629.52 1479.45 2960.02 1546.29 2858.23C1587.24 2795.88 1678.92 2884.39 1699.83 2878.05C1720.75 2871.71 1801.23 2607.69 1933.11 2607.69C1991.35 2607.69 1881.31 2491.06 1736.19 2346.53C1664.71 2275.34 1425.17 2423.75 1369.42 2523.36Z" fill="#CCB0FF" fill-opacity="0.4"/>
</g>
<g opacity="0.4" filter="url(#filter15_f_12847_42165)">
<path d="M1182.6 5371.95C1084.05 5547.88 1365.11 6095.55 1475.99 5926.88C1543.92 5823.54 1695.99 5970.22 1730.68 5959.71C1765.38 5949.21 1898.89 5511.7 2117.64 5511.7C2214.25 5511.7 2031.71 5318.41 1791 5078.91C1672.43 4960.94 1275.08 5206.89 1182.6 5371.95Z" fill="#CCB0FF" fill-opacity="0.4"/>
</g>
<g opacity="0.6" filter="url(#filter16_f_12847_42165)">
<path d="M1117.4 1604.78C1043.73 1736.34 1253.82 2145.92 1336.69 2019.78C1387.46 1942.5 1501.13 2052.19 1527.06 2044.34C1553 2036.48 1652.79 1709.29 1816.3 1709.29C1888.51 1709.29 1752.07 1564.74 1572.15 1385.63C1483.52 1297.41 1186.52 1481.34 1117.4 1604.78Z" fill="#0668E1" fill-opacity="0.3"/>
</g>
<g opacity="0.6" filter="url(#filter17_f_12847_42165)">
<path d="M1119.21 3993.73C1036.91 4140.84 1271.6 4598.8 1364.19 4457.76C1420.91 4371.35 1547.9 4494 1576.87 4485.22C1605.84 4476.43 1717.32 4110.58 1899.99 4110.58C1980.66 4110.58 1828.24 3948.96 1627.23 3748.68C1528.23 3650.04 1196.43 3855.7 1119.21 3993.73Z" fill="#0668E1" fill-opacity="0.3"/>
</g>
<defs>
<filter id="filter0_f_12847_42165" x="-718" y="508.434" width="2256" height="2180.99" filterUnits="userSpaceOnUse" color-interpolation-filters="sRGB">
<feFlood flood-opacity="0" result="BackgroundImageFix"/>
<feBlend mode="normal" in="SourceGraphic" in2="BackgroundImageFix" result="shape"/>
<feGaussianBlur stdDeviation="400" result="effect1_foregroundBlur_12847_42165"/>
</filter>
<filter id="filter1_f_12847_42165" x="-648" y="2503.05" width="2256" height="2180.99" filterUnits="userSpaceOnUse" color-interpolation-filters="sRGB">
<feFlood flood-opacity="0" result="BackgroundImageFix"/>
<feBlend mode="normal" in="SourceGraphic" in2="BackgroundImageFix" result="shape"/>
<feGaussianBlur stdDeviation="400" result="effect1_foregroundBlur_12847_42165"/>
</filter>
<filter id="filter2_f_12847_42165" x="-833" y="4590.08" width="2256" height="2180.99" filterUnits="userSpaceOnUse" color-interpolation-filters="sRGB">
<feFlood flood-opacity="0" result="BackgroundImageFix"/>
<feBlend mode="normal" in="SourceGraphic" in2="BackgroundImageFix" result="shape"/>
<feGaussianBlur stdDeviation="400" result="effect1_foregroundBlur_12847_42165"/>
</filter>
<filter id="filter3_f_12847_42165" x="653" y="5514.16" width="2256" height="2180.99" filterUnits="userSpaceOnUse" color-interpolation-filters="sRGB">
<feFlood flood-opacity="0" result="BackgroundImageFix"/>
<feBlend mode="normal" in="SourceGraphic" in2="BackgroundImageFix" result="shape"/>
<feGaussianBlur stdDeviation="400" result="effect1_foregroundBlur_12847_42165"/>
</filter>
<filter id="filter4_f_12847_42165" x="-507" y="-392.59" width="2038" height="1978.58" filterUnits="userSpaceOnUse" color-interpolation-filters="sRGB">
<feFlood flood-opacity="0" result="BackgroundImageFix"/>
<feBlend mode="normal" in="SourceGraphic" in2="BackgroundImageFix" result="shape"/>
<feGaussianBlur stdDeviation="300" result="effect1_foregroundBlur_12847_42165"/>
</filter>
<filter id="filter5_f_12847_42165" x="299" y="6469" width="2421" height="2362" filterUnits="userSpaceOnUse" color-interpolation-filters="sRGB">
<feFlood flood-opacity="0" result="BackgroundImageFix"/>
<feBlend mode="normal" in="SourceGraphic" in2="BackgroundImageFix" result="shape"/>
<feGaussianBlur stdDeviation="400" result="effect1_foregroundBlur_12847_42165"/>
</filter>
<filter id="filter6_f_12847_42165" x="926" y="-717" width="1680" height="1646.31" filterUnits="userSpaceOnUse" color-interpolation-filters="sRGB">
<feFlood flood-opacity="0" result="BackgroundImageFix"/>
<feBlend mode="normal" in="SourceGraphic" in2="BackgroundImageFix" result="shape"/>
<feGaussianBlur stdDeviation="300" result="effect1_foregroundBlur_12847_42165"/>
</filter>
<filter id="filter7_f_12847_42165" x="-654" y="-717" width="1680" height="1646.31" filterUnits="userSpaceOnUse" color-interpolation-filters="sRGB">
<feFlood flood-opacity="0" result="BackgroundImageFix"/>
<feBlend mode="normal" in="SourceGraphic" in2="BackgroundImageFix" result="shape"/>
<feGaussianBlur stdDeviation="300" result="effect1_foregroundBlur_12847_42165"/>
</filter>
<filter id="filter8_f_12847_42165" x="-473" y="1598.1" width="1905" height="1854.71" filterUnits="userSpaceOnUse" color-interpolation-filters="sRGB">
<feFlood flood-opacity="0" result="BackgroundImageFix"/>
<feBlend mode="normal" in="SourceGraphic" in2="BackgroundImageFix" result="shape"/>
<feGaussianBlur stdDeviation="300" result="effect1_foregroundBlur_12847_42165"/>
</filter>
<filter id="filter9_f_12847_42165" x="-579" y="3849.3" width="1872" height="1823.26" filterUnits="userSpaceOnUse" color-interpolation-filters="sRGB">
<feFlood flood-opacity="0" result="BackgroundImageFix"/>
<feBlend mode="normal" in="SourceGraphic" in2="BackgroundImageFix" result="shape"/>
<feGaussianBlur stdDeviation="300" result="effect1_foregroundBlur_12847_42165"/>
</filter>
<filter id="filter10_f_12847_42165" x="-579" y="5500.84" width="1872" height="1823.26" filterUnits="userSpaceOnUse" color-interpolation-filters="sRGB">
<feFlood flood-opacity="0" result="BackgroundImageFix"/>
<feBlend mode="normal" in="SourceGraphic" in2="BackgroundImageFix" result="shape"/>
<feGaussianBlur stdDeviation="300" result="effect1_foregroundBlur_12847_42165"/>
</filter>
<filter id="filter11_f_12847_42165" x="426" y="-380.797" width="2010" height="1954.99" filterUnits="userSpaceOnUse" color-interpolation-filters="sRGB">
<feFlood flood-opacity="0" result="BackgroundImageFix"/>
<feBlend mode="normal" in="SourceGraphic" in2="BackgroundImageFix" result="shape"/>
<feGaussianBlur stdDeviation="300" result="effect1_foregroundBlur_12847_42165"/>
</filter>
<filter id="filter12_f_12847_42165" x="-646" y="6893" width="2010" height="1954.99" filterUnits="userSpaceOnUse" color-interpolation-filters="sRGB">
<feFlood flood-opacity="0" result="BackgroundImageFix"/>
<feBlend mode="normal" in="SourceGraphic" in2="BackgroundImageFix" result="shape"/>
<feGaussianBlur stdDeviation="300" result="effect1_foregroundBlur_12847_42165"/>
</filter>
<filter id="filter13_f_12847_42165" x="270" y="7465" width="2590" height="2495" filterUnits="userSpaceOnUse" color-interpolation-filters="sRGB">
<feFlood flood-opacity="0" result="BackgroundImageFix"/>
<feBlend mode="normal" in="SourceGraphic" in2="BackgroundImageFix" result="shape"/>
<feGaussianBlur stdDeviation="300" result="effect1_foregroundBlur_12847_42165"/>
</filter>
<filter id="filter14_f_12847_42165" x="757" y="1727.86" width="1792" height="1750.51" filterUnits="userSpaceOnUse" color-interpolation-filters="sRGB">
<feFlood flood-opacity="0" result="BackgroundImageFix"/>
<feBlend mode="normal" in="SourceGraphic" in2="BackgroundImageFix" result="shape"/>
<feGaussianBlur stdDeviation="300" result="effect1_foregroundBlur_12847_42165"/>
</filter>
<filter id="filter15_f_12847_42165" x="562" y="4447.98" width="2182" height="2112.28" filterUnits="userSpaceOnUse" color-interpolation-filters="sRGB">
<feFlood flood-opacity="0" result="BackgroundImageFix"/>
<feBlend mode="normal" in="SourceGraphic" in2="BackgroundImageFix" result="shape"/>
<feGaussianBlur stdDeviation="300" result="effect1_foregroundBlur_12847_42165"/>
</filter>
<filter id="filter16_f_12847_42165" x="302" y="562.5" width="2334" height="2282.24" filterUnits="userSpaceOnUse" color-interpolation-filters="sRGB">
<feFlood flood-opacity="0" result="BackgroundImageFix"/>
<feBlend mode="normal" in="SourceGraphic" in2="BackgroundImageFix" result="shape"/>
<feGaussianBlur stdDeviation="400" result="effect1_foregroundBlur_12847_42165"/>
</filter>
<filter id="filter17_f_12847_42165" x="302" y="2922.82" width="2420" height="2362.85" filterUnits="userSpaceOnUse" color-interpolation-filters="sRGB">
<feFlood flood-opacity="0" result="BackgroundImageFix"/>
<feBlend mode="normal" in="SourceGraphic" in2="BackgroundImageFix" result="shape"/>
<feGaussianBlur stdDeviation="400" result="effect1_foregroundBlur_12847_42165"/>
</filter>
</defs>
</svg>
