<svg width="1920" height="13461" viewBox="0 0 1920 13461" fill="none" xmlns="http://www.w3.org/2000/svg">
<g opacity="0.6" filter="url(#filter0_f_13921_73330)">
<path d="M100.965 1439.31C37.3617 1554.81 142.134 1742.22 290.296 1803.63C350.097 1828.42 390.226 1831.47 454.659 1825.19C560.843 1814.85 636.718 1787.39 697.212 1699.55C807.156 1539.91 679.885 1300.61 493.581 1246.92C329.505 1199.63 160.644 1330.94 100.965 1439.31Z" fill="#CCB0FF" fill-opacity="0.6"/>
</g>
<g opacity="0.6" filter="url(#filter1_f_13921_73330)">
<path d="M100.965 7369.31C37.3617 7484.81 142.134 7672.22 290.296 7733.63C350.097 7758.42 390.226 7761.47 454.659 7755.19C560.843 7744.85 636.718 7717.39 697.212 7629.55C807.156 7469.91 679.885 7230.61 493.581 7176.92C329.505 7129.63 160.644 7260.94 100.965 7369.31Z" fill="#CCB0FF" fill-opacity="0.6"/>
</g>
<g opacity="0.6" filter="url(#filter2_f_13921_73330)">
<path d="M22.0872 3571.52C-51.9873 3705.97 70.0346 3924.15 242.588 3995.64C312.235 4024.49 358.971 4028.04 434.012 4020.73C557.677 4008.69 646.043 3976.73 716.497 3874.47C844.541 3688.62 696.318 3410.05 479.341 3347.55C288.253 3292.5 91.5916 3445.36 22.0872 3571.52Z" fill="#CCB0FF" fill-opacity="0.6"/>
</g>
<g opacity="0.6" filter="url(#filter3_f_13921_73330)">
<path d="M170.965 9398.31C107.362 9513.81 212.134 9701.22 360.296 9762.63C420.097 9787.42 460.226 9790.47 524.659 9784.19C630.843 9773.85 706.718 9746.39 767.212 9658.55C877.156 9498.91 749.885 9259.61 563.581 9205.92C399.505 9158.63 230.644 9289.94 170.965 9398.31Z" fill="#CCB0FF" fill-opacity="0.6"/>
</g>
<g opacity="0.6" filter="url(#filter4_f_13921_73330)">
<path d="M-14.0351 5591.31C-77.6383 5706.81 27.1344 5894.22 175.296 5955.63C235.097 5980.42 275.226 5983.47 339.659 5977.19C445.843 5966.85 521.718 5939.39 582.212 5851.55C692.156 5691.91 564.885 5452.61 378.581 5398.92C214.505 5351.63 45.6441 5482.94 -14.0351 5591.31Z" fill="#CCB0FF" fill-opacity="0.6"/>
</g>
<g opacity="0.6" filter="url(#filter5_f_13921_73330)">
<path d="M-14.0351 11521.3C-77.6383 11636.8 27.1344 11824.2 175.296 11885.6C235.097 11910.4 275.226 11913.5 339.659 11907.2C445.843 11896.9 521.718 11869.4 582.212 11781.5C692.156 11621.9 564.885 11382.6 378.581 11328.9C214.505 11281.6 45.6441 11412.9 -14.0351 11521.3Z" fill="#CCB0FF" fill-opacity="0.6"/>
</g>
<g opacity="0.6" filter="url(#filter6_f_13921_73330)">
<path d="M1471.96 6531.31C1408.36 6646.81 1513.13 6834.22 1661.3 6895.63C1721.1 6920.42 1761.23 6923.47 1825.66 6917.19C1931.84 6906.85 2007.72 6879.39 2068.21 6791.55C2178.16 6631.91 2050.89 6392.61 1864.58 6338.92C1700.51 6291.63 1531.64 6422.94 1471.96 6531.31Z" fill="#CCB0FF" fill-opacity="0.6"/>
</g>
<g opacity="0.6" filter="url(#filter7_f_13921_73330)">
<path d="M1471.96 12461.3C1408.36 12576.8 1513.13 12764.2 1661.3 12825.6C1721.1 12850.4 1761.23 12853.5 1825.66 12847.2C1931.84 12836.9 2007.72 12809.4 2068.21 12721.5C2178.16 12561.9 2050.89 12322.6 1864.58 12268.9C1700.51 12221.6 1531.64 12352.9 1471.96 12461.3Z" fill="#CCB0FF" fill-opacity="0.6"/>
</g>
<g opacity="0.6" filter="url(#filter8_f_13921_73330)">
<path d="M-97.698 308.414C-190.027 475.886 73.2718 997.252 177.141 836.682C240.775 738.312 383.237 877.943 415.737 867.943C448.237 857.943 573.307 441.443 778.237 441.443C868.737 441.443 697.737 257.444 472.237 29.4436C361.167 -82.8578 -11.0656 151.274 -97.698 308.414Z" fill="#0668E1" fill-opacity="0.4"/>
</g>
<g opacity="0.4" filter="url(#filter9_f_13921_73330)">
<path d="M-117.836 2293.46C-214.287 2468.55 60.7669 3013.66 169.274 2845.78C235.749 2742.93 384.571 2888.92 418.522 2878.46C452.473 2868 583.127 2432.54 797.207 2432.54C891.747 2432.54 713.112 2240.17 477.545 2001.78C361.516 1884.37 -27.3359 2129.16 -117.836 2293.46Z" fill="#0668E1" fill-opacity="0.3"/>
</g>
<g opacity="0.4" filter="url(#filter10_f_13921_73330)">
<path d="M141.792 8308.51C71.0349 8436.94 272.818 8836.77 352.42 8713.63C401.186 8638.19 510.364 8745.27 535.271 8737.6C560.177 8729.93 656.027 8410.53 813.078 8410.53C882.434 8410.53 751.385 8269.43 578.57 8094.58C493.45 8008.46 208.184 8188.01 141.792 8308.51Z" fill="#0668E1" fill-opacity="0.4"/>
</g>
<g opacity="0.4" filter="url(#filter11_f_13921_73330)">
<path d="M35.1 4657.15C-32.3454 4779.41 159.992 5160.02 235.868 5042.8C282.352 4970.99 386.419 5072.92 410.16 5065.62C433.901 5058.32 525.264 4754.27 674.963 4754.27C741.073 4754.27 616.159 4619.94 451.433 4453.49C370.297 4371.51 98.3842 4542.43 35.1 4657.15Z" fill="#0668E1" fill-opacity="0.4"/>
</g>
<g opacity="0.4" filter="url(#filter12_f_13921_73330)">
<path d="M35.1 10587.2C-32.3454 10709.4 159.992 11090 235.868 10972.8C282.352 10901 386.419 11002.9 410.16 10995.6C433.901 10988.3 525.264 10684.3 674.963 10684.3C741.073 10684.3 616.159 10549.9 451.433 10383.5C370.297 10301.5 98.3842 10472.4 35.1 10587.2Z" fill="#0668E1" fill-opacity="0.4"/>
</g>
<g opacity="0.6" filter="url(#filter13_f_13921_73330)">
<path d="M1234.31 410.999C1151.51 561.413 1387.64 1029.67 1480.79 885.459C1537.86 797.109 1665.62 922.517 1694.76 913.536C1723.91 904.554 1836.07 530.478 2019.86 530.478C2101.02 530.478 1947.66 365.221 1745.43 160.444C1645.82 59.582 1312 269.865 1234.31 410.999Z" fill="#CCB0FF" fill-opacity="0.4"/>
</g>
<g opacity="0.6" filter="url(#filter14_f_13921_73330)">
<path d="M1373.01 2530.4C1296.43 2669.63 1514.81 3103.07 1600.96 2969.58C1653.74 2887.8 1771.9 3003.88 1798.86 2995.57C1825.81 2987.26 1929.55 2641 2099.52 2641C2174.58 2641 2032.75 2488.03 1845.72 2298.48C1753.6 2205.12 1444.86 2399.76 1373.01 2530.4Z" fill="#CCB0FF" fill-opacity="0.4"/>
</g>
<g opacity="0.6" filter="url(#filter15_f_13921_73330)">
<path d="M1105.51 8619.47C1002.63 8806.53 1296 9388.85 1411.74 9209.51C1482.64 9099.64 1641.37 9255.59 1677.58 9244.42C1713.8 9233.25 1853.15 8768.06 2081.49 8768.06C2182.33 8768.06 1991.79 8562.54 1740.54 8307.89C1616.78 8182.45 1202.03 8443.96 1105.51 8619.47Z" fill="#CCB0FF" fill-opacity="0.3"/>
</g>
<g opacity="0.6" filter="url(#filter16_f_13921_73330)">
<path d="M1182.6 5366.56C1084.05 5545.51 1365.11 6102.62 1475.99 5931.04C1543.92 5825.93 1695.99 5975.13 1730.68 5964.45C1765.38 5953.76 1898.89 5508.71 2117.64 5508.71C2214.25 5508.71 2031.71 5312.09 1791 5068.46C1672.43 4948.46 1275.08 5198.65 1182.6 5366.56Z" fill="#CCB0FF" fill-opacity="0.3"/>
</g>
<g opacity="0.4" filter="url(#filter17_f_13921_73330)">
<path d="M1182.6 11300.6C1084.05 11479.5 1365.11 12036.6 1475.99 11865C1543.92 11759.9 1695.99 11909.1 1730.68 11898.4C1765.38 11887.8 1898.89 11442.7 2117.64 11442.7C2214.25 11442.7 2031.71 11246.1 1791 11002.5C1672.43 10882.5 1275.08 11132.6 1182.6 11300.6Z" fill="#CCB0FF" fill-opacity="0.4"/>
</g>
<g opacity="0.6" filter="url(#filter18_f_13921_73330)">
<path d="M1117.4 1538.46C1043.73 1672.29 1253.82 2088.92 1336.69 1960.61C1387.46 1882 1501.13 1993.58 1527.06 1985.59C1553 1977.6 1652.79 1644.76 1816.3 1644.76C1888.51 1644.76 1752.07 1497.73 1572.15 1315.53C1483.52 1225.79 1186.52 1412.89 1117.4 1538.46Z" fill="#0668E1" fill-opacity="0.3"/>
</g>
<g opacity="0.6" filter="url(#filter19_f_13921_73330)">
<path d="M1117.4 7468.46C1043.73 7602.29 1253.82 8018.92 1336.69 7890.61C1387.46 7812 1501.13 7923.58 1527.06 7915.59C1553 7907.6 1652.79 7574.76 1816.3 7574.76C1888.51 7574.76 1752.07 7427.73 1572.15 7245.53C1483.52 7155.79 1186.52 7342.89 1117.4 7468.46Z" fill="#0668E1" fill-opacity="0.3"/>
</g>
<g opacity="0.6" filter="url(#filter20_f_13921_73330)">
<path d="M1119.21 3968.58C1036.91 4118.22 1271.6 4584.08 1364.19 4440.61C1420.91 4352.71 1547.9 4477.47 1576.87 4468.54C1605.84 4459.6 1717.32 4087.45 1899.99 4087.45C1980.66 4087.45 1828.24 3923.04 1627.23 3719.31C1528.23 3618.96 1196.43 3828.17 1119.21 3968.58Z" fill="#0668E1" fill-opacity="0.3"/>
</g>
<g opacity="0.6" filter="url(#filter21_f_13921_73330)">
<path d="M1119.21 9898.58C1036.91 10048.2 1271.6 10514.1 1364.19 10370.6C1420.91 10282.7 1547.9 10407.5 1576.87 10398.5C1605.84 10389.6 1717.32 10017.4 1899.99 10017.4C1980.66 10017.4 1828.24 9853.04 1627.23 9649.31C1528.23 9548.96 1196.43 9758.17 1119.21 9898.58Z" fill="#0668E1" fill-opacity="0.3"/>
</g>
<g opacity="0.4" filter="url(#filter22_f_13921_73330)">
<path d="M23.2482 6418.17C-87.9564 6620.27 229.171 7249.42 354.276 7055.65C430.919 6936.95 602.506 7105.44 641.651 7093.38C680.795 7081.31 831.435 6578.7 1078.26 6578.7C1187.26 6578.7 981.303 6356.67 709.702 6081.53C575.925 5946.01 127.592 6228.55 23.2482 6418.17Z" fill="#0668E1" fill-opacity="0.3"/>
</g>
<g opacity="0.4" filter="url(#filter23_f_13921_73330)">
<path d="M23.2482 12348.2C-87.9564 12550.3 229.171 13179.4 354.276 12985.7C430.919 12866.9 602.506 13035.4 641.651 13023.4C680.795 13011.3 831.435 12508.7 1078.26 12508.7C1187.26 12508.7 981.303 12286.7 709.702 12011.5C575.925 11876 127.592 12158.5 23.2482 12348.2Z" fill="#0668E1" fill-opacity="0.3"/>
</g>
<defs>
<filter id="filter0_f_13921_73330" x="-718" y="437" width="2256" height="2191" filterUnits="userSpaceOnUse" color-interpolation-filters="sRGB">
<feFlood flood-opacity="0" result="BackgroundImageFix"/>
<feBlend mode="normal" in="SourceGraphic" in2="BackgroundImageFix" result="shape"/>
<feGaussianBlur stdDeviation="400" result="effect1_foregroundBlur_13921_73330"/>
</filter>
<filter id="filter1_f_13921_73330" x="-718" y="6367" width="2256" height="2191" filterUnits="userSpaceOnUse" color-interpolation-filters="sRGB">
<feFlood flood-opacity="0" result="BackgroundImageFix"/>
<feBlend mode="normal" in="SourceGraphic" in2="BackgroundImageFix" result="shape"/>
<feGaussianBlur stdDeviation="400" result="effect1_foregroundBlur_13921_73330"/>
</filter>
<filter id="filter2_f_13921_73330" x="-800" y="2536" width="2364" height="2288" filterUnits="userSpaceOnUse" color-interpolation-filters="sRGB">
<feFlood flood-opacity="0" result="BackgroundImageFix"/>
<feBlend mode="normal" in="SourceGraphic" in2="BackgroundImageFix" result="shape"/>
<feGaussianBlur stdDeviation="400" result="effect1_foregroundBlur_13921_73330"/>
</filter>
<filter id="filter3_f_13921_73330" x="-648" y="8396" width="2256" height="2191" filterUnits="userSpaceOnUse" color-interpolation-filters="sRGB">
<feFlood flood-opacity="0" result="BackgroundImageFix"/>
<feBlend mode="normal" in="SourceGraphic" in2="BackgroundImageFix" result="shape"/>
<feGaussianBlur stdDeviation="400" result="effect1_foregroundBlur_13921_73330"/>
</filter>
<filter id="filter4_f_13921_73330" x="-833" y="4589" width="2256" height="2191" filterUnits="userSpaceOnUse" color-interpolation-filters="sRGB">
<feFlood flood-opacity="0" result="BackgroundImageFix"/>
<feBlend mode="normal" in="SourceGraphic" in2="BackgroundImageFix" result="shape"/>
<feGaussianBlur stdDeviation="400" result="effect1_foregroundBlur_13921_73330"/>
</filter>
<filter id="filter5_f_13921_73330" x="-833" y="10519" width="2256" height="2191" filterUnits="userSpaceOnUse" color-interpolation-filters="sRGB">
<feFlood flood-opacity="0" result="BackgroundImageFix"/>
<feBlend mode="normal" in="SourceGraphic" in2="BackgroundImageFix" result="shape"/>
<feGaussianBlur stdDeviation="400" result="effect1_foregroundBlur_13921_73330"/>
</filter>
<filter id="filter6_f_13921_73330" x="653" y="5529" width="2256" height="2191" filterUnits="userSpaceOnUse" color-interpolation-filters="sRGB">
<feFlood flood-opacity="0" result="BackgroundImageFix"/>
<feBlend mode="normal" in="SourceGraphic" in2="BackgroundImageFix" result="shape"/>
<feGaussianBlur stdDeviation="400" result="effect1_foregroundBlur_13921_73330"/>
</filter>
<filter id="filter7_f_13921_73330" x="653" y="11459" width="2256" height="2191" filterUnits="userSpaceOnUse" color-interpolation-filters="sRGB">
<feFlood flood-opacity="0" result="BackgroundImageFix"/>
<feBlend mode="normal" in="SourceGraphic" in2="BackgroundImageFix" result="shape"/>
<feGaussianBlur stdDeviation="400" result="effect1_foregroundBlur_13921_73330"/>
</filter>
<filter id="filter8_f_13921_73330" x="-717" y="-600" width="2119.93" height="2068.46" filterUnits="userSpaceOnUse" color-interpolation-filters="sRGB">
<feFlood flood-opacity="0" result="BackgroundImageFix"/>
<feBlend mode="normal" in="SourceGraphic" in2="BackgroundImageFix" result="shape"/>
<feGaussianBlur stdDeviation="300" result="effect1_foregroundBlur_13921_73330"/>
</filter>
<filter id="filter9_f_13921_73330" x="-738" y="1371" width="2161" height="2108" filterUnits="userSpaceOnUse" color-interpolation-filters="sRGB">
<feFlood flood-opacity="0" result="BackgroundImageFix"/>
<feBlend mode="normal" in="SourceGraphic" in2="BackgroundImageFix" result="shape"/>
<feGaussianBlur stdDeviation="300" result="effect1_foregroundBlur_13921_73330"/>
</filter>
<filter id="filter10_f_13921_73330" x="-473" y="7472" width="1905" height="1866" filterUnits="userSpaceOnUse" color-interpolation-filters="sRGB">
<feFlood flood-opacity="0" result="BackgroundImageFix"/>
<feBlend mode="normal" in="SourceGraphic" in2="BackgroundImageFix" result="shape"/>
<feGaussianBlur stdDeviation="300" result="effect1_foregroundBlur_13921_73330"/>
</filter>
<filter id="filter11_f_13921_73330" x="-579" y="3832" width="1872" height="1834" filterUnits="userSpaceOnUse" color-interpolation-filters="sRGB">
<feFlood flood-opacity="0" result="BackgroundImageFix"/>
<feBlend mode="normal" in="SourceGraphic" in2="BackgroundImageFix" result="shape"/>
<feGaussianBlur stdDeviation="300" result="effect1_foregroundBlur_13921_73330"/>
</filter>
<filter id="filter12_f_13921_73330" x="-579" y="9762" width="1872" height="1834" filterUnits="userSpaceOnUse" color-interpolation-filters="sRGB">
<feFlood flood-opacity="0" result="BackgroundImageFix"/>
<feBlend mode="normal" in="SourceGraphic" in2="BackgroundImageFix" result="shape"/>
<feGaussianBlur stdDeviation="300" result="effect1_foregroundBlur_13921_73330"/>
</filter>
<filter id="filter13_f_13921_73330" x="617" y="-466" width="2025" height="1980" filterUnits="userSpaceOnUse" color-interpolation-filters="sRGB">
<feFlood flood-opacity="0" result="BackgroundImageFix"/>
<feBlend mode="normal" in="SourceGraphic" in2="BackgroundImageFix" result="shape"/>
<feGaussianBlur stdDeviation="300" result="effect1_foregroundBlur_13921_73330"/>
</filter>
<filter id="filter14_f_13921_73330" x="757" y="1674" width="1963" height="1922" filterUnits="userSpaceOnUse" color-interpolation-filters="sRGB">
<feFlood flood-opacity="0" result="BackgroundImageFix"/>
<feBlend mode="normal" in="SourceGraphic" in2="BackgroundImageFix" result="shape"/>
<feGaussianBlur stdDeviation="300" result="effect1_foregroundBlur_13921_73330"/>
</filter>
<filter id="filter15_f_13921_73330" x="484" y="7675" width="2225" height="2170" filterUnits="userSpaceOnUse" color-interpolation-filters="sRGB">
<feFlood flood-opacity="0" result="BackgroundImageFix"/>
<feBlend mode="normal" in="SourceGraphic" in2="BackgroundImageFix" result="shape"/>
<feGaussianBlur stdDeviation="300" result="effect1_foregroundBlur_13921_73330"/>
</filter>
<filter id="filter16_f_13921_73330" x="562" y="4437" width="2182" height="2128" filterUnits="userSpaceOnUse" color-interpolation-filters="sRGB">
<feFlood flood-opacity="0" result="BackgroundImageFix"/>
<feBlend mode="normal" in="SourceGraphic" in2="BackgroundImageFix" result="shape"/>
<feGaussianBlur stdDeviation="300" result="effect1_foregroundBlur_13921_73330"/>
</filter>
<filter id="filter17_f_13921_73330" x="562" y="10371" width="2182" height="2128" filterUnits="userSpaceOnUse" color-interpolation-filters="sRGB">
<feFlood flood-opacity="0" result="BackgroundImageFix"/>
<feBlend mode="normal" in="SourceGraphic" in2="BackgroundImageFix" result="shape"/>
<feGaussianBlur stdDeviation="300" result="effect1_foregroundBlur_13921_73330"/>
</filter>
<filter id="filter18_f_13921_73330" x="302" y="492" width="2334" height="2294" filterUnits="userSpaceOnUse" color-interpolation-filters="sRGB">
<feFlood flood-opacity="0" result="BackgroundImageFix"/>
<feBlend mode="normal" in="SourceGraphic" in2="BackgroundImageFix" result="shape"/>
<feGaussianBlur stdDeviation="400" result="effect1_foregroundBlur_13921_73330"/>
</filter>
<filter id="filter19_f_13921_73330" x="302" y="6422" width="2334" height="2294" filterUnits="userSpaceOnUse" color-interpolation-filters="sRGB">
<feFlood flood-opacity="0" result="BackgroundImageFix"/>
<feBlend mode="normal" in="SourceGraphic" in2="BackgroundImageFix" result="shape"/>
<feGaussianBlur stdDeviation="400" result="effect1_foregroundBlur_13921_73330"/>
</filter>
<filter id="filter20_f_13921_73330" x="302" y="2893" width="2420" height="2376" filterUnits="userSpaceOnUse" color-interpolation-filters="sRGB">
<feFlood flood-opacity="0" result="BackgroundImageFix"/>
<feBlend mode="normal" in="SourceGraphic" in2="BackgroundImageFix" result="shape"/>
<feGaussianBlur stdDeviation="400" result="effect1_foregroundBlur_13921_73330"/>
</filter>
<filter id="filter21_f_13921_73330" x="302" y="8823" width="2420" height="2376" filterUnits="userSpaceOnUse" color-interpolation-filters="sRGB">
<feFlood flood-opacity="0" result="BackgroundImageFix"/>
<feBlend mode="normal" in="SourceGraphic" in2="BackgroundImageFix" result="shape"/>
<feGaussianBlur stdDeviation="400" result="effect1_foregroundBlur_13921_73330"/>
</filter>
<filter id="filter22_f_13921_73330" x="-800" y="5246" width="2708" height="2648" filterUnits="userSpaceOnUse" color-interpolation-filters="sRGB">
<feFlood flood-opacity="0" result="BackgroundImageFix"/>
<feBlend mode="normal" in="SourceGraphic" in2="BackgroundImageFix" result="shape"/>
<feGaussianBlur stdDeviation="400" result="effect1_foregroundBlur_13921_73330"/>
</filter>
<filter id="filter23_f_13921_73330" x="-800" y="11176" width="2708" height="2648" filterUnits="userSpaceOnUse" color-interpolation-filters="sRGB">
<feFlood flood-opacity="0" result="BackgroundImageFix"/>
<feBlend mode="normal" in="SourceGraphic" in2="BackgroundImageFix" result="shape"/>
<feGaussianBlur stdDeviation="400" result="effect1_foregroundBlur_13921_73330"/>
</filter>
</defs>
</svg>
