<svg width="1920" height="2314" viewBox="0 0 1920 2314" fill="none" xmlns="http://www.w3.org/2000/svg">
<g opacity="0.6" filter="url(#filter0_f_10802_218021)">
<path d="M858.22 1994.57C787.054 2140.6 904.285 2377.55 1070.06 2455.19C1136.97 2486.53 1181.87 2490.38 1253.97 2482.45C1372.78 2469.38 1457.67 2434.65 1525.36 2323.59C1648.38 2121.75 1505.98 1819.21 1297.52 1751.32C1113.93 1691.54 924.995 1857.55 858.22 1994.57Z" fill="#F1ACFF" fill-opacity="0.4"/>
</g>
<g opacity="0.6" filter="url(#filter1_f_10802_218021)">
<path d="M1060.3 1073.64C967.973 1262.96 1231.27 1852.33 1335.14 1670.81C1398.78 1559.61 1541.24 1717.46 1573.74 1706.15C1606.24 1694.85 1731.31 1224.02 1936.24 1224.02C2026.74 1224.02 1855.74 1016.02 1630.24 758.284C1519.17 631.335 1146.93 896.005 1060.3 1073.64Z" fill="#0668E1" fill-opacity="0.2"/>
</g>
<g opacity="0.6" filter="url(#filter2_f_10802_218021)">
<path d="M668.757 456.122C607.735 581.081 781.755 970.098 850.404 850.289C892.461 776.891 986.617 881.076 1008.1 873.614C1029.58 866.153 1112.24 555.382 1247.68 555.382C1307.49 555.382 1194.48 418.091 1045.44 247.969C972.031 164.176 726.014 338.873 668.757 456.122Z" fill="#0668E1" fill-opacity="0.6"/>
</g>
<g opacity="0.6" filter="url(#filter3_f_10802_218021)">
<path d="M-33.1527 2033.05C-70.6893 2110.19 36.3557 2350.32 78.5843 2276.36C104.455 2231.06 162.373 2295.37 175.586 2290.76C188.799 2286.16 239.647 2094.32 322.962 2094.32C359.755 2094.32 290.234 2009.57 198.556 1904.56C153.401 1852.84 2.06802 1960.67 -33.1527 2033.05Z" fill="#0668E1" fill-opacity="0.6"/>
</g>
<defs>
<filter id="filter0_f_10802_218021" x="37" y="938.781" width="2334" height="2347.22" filterUnits="userSpaceOnUse" color-interpolation-filters="sRGB">
<feFlood flood-opacity="0" result="BackgroundImageFix"/>
<feBlend mode="normal" in="SourceGraphic" in2="BackgroundImageFix" result="shape"/>
<feGaussianBlur stdDeviation="400" result="effect1_foregroundBlur_10802_218021"/>
</filter>
<filter id="filter1_f_10802_218021" x="441" y="125" width="2119.93" height="2181.74" filterUnits="userSpaceOnUse" color-interpolation-filters="sRGB">
<feFlood flood-opacity="0" result="BackgroundImageFix"/>
<feBlend mode="normal" in="SourceGraphic" in2="BackgroundImageFix" result="shape"/>
<feGaussianBlur stdDeviation="300" result="effect1_foregroundBlur_10802_218021"/>
</filter>
<filter id="filter2_f_10802_218021" x="56" y="-374" width="1808" height="1848" filterUnits="userSpaceOnUse" color-interpolation-filters="sRGB">
<feFlood flood-opacity="0" result="BackgroundImageFix"/>
<feBlend mode="normal" in="SourceGraphic" in2="BackgroundImageFix" result="shape"/>
<feGaussianBlur stdDeviation="300" result="effect1_foregroundBlur_10802_218021"/>
</filter>
<filter id="filter3_f_10802_218021" x="-841" y="1091" width="1974" height="2000" filterUnits="userSpaceOnUse" color-interpolation-filters="sRGB">
<feFlood flood-opacity="0" result="BackgroundImageFix"/>
<feBlend mode="normal" in="SourceGraphic" in2="BackgroundImageFix" result="shape"/>
<feGaussianBlur stdDeviation="400" result="effect1_foregroundBlur_10802_218021"/>
</filter>
</defs>
</svg>
