<svg width="1920" height="2868" viewBox="0 0 1920 2868" fill="none" xmlns="http://www.w3.org/2000/svg">
<g filter="url(#filter0_f_10802_146815)">
<path d="M941.401 118.458C867.733 252.288 1077.82 668.92 1160.69 540.606C1211.46 461.997 1325.13 573.578 1351.06 565.587C1377 557.596 1476.79 224.764 1640.3 224.764C1712.51 224.764 1576.07 77.7276 1396.15 -104.471C1307.52 -194.213 1010.52 -7.11454 941.401 118.458Z" fill="#0668E1" fill-opacity="0.2"/>
</g>
<g filter="url(#filter1_f_10802_146815)">
<path d="M15.4009 1039.46C-58.2672 1173.29 151.816 1589.92 234.692 1461.61C285.465 1383 399.133 1494.58 425.065 1486.59C450.996 1478.6 550.788 1145.76 714.299 1145.76C786.508 1145.76 650.069 998.728 470.145 816.529C381.524 726.787 84.5239 913.885 15.4009 1039.46Z" fill="#0668E1" fill-opacity="0.2"/>
</g>
<g opacity="0.6" filter="url(#filter2_f_10802_146815)">
<path d="M120.401 2333.46C46.7328 2467.29 256.816 2883.92 339.692 2755.61C390.465 2677 504.133 2788.58 530.065 2780.59C555.996 2772.6 655.788 2439.76 819.299 2439.76C891.508 2439.76 755.069 2292.73 575.145 2110.53C486.524 2020.79 189.524 2207.89 120.401 2333.46Z" fill="#0668E1" fill-opacity="0.2"/>
</g>
<g filter="url(#filter3_f_10802_146815)">
<path d="M1054.4 922.458C980.733 1056.29 1190.82 1472.92 1273.69 1344.61C1324.46 1266 1438.13 1377.58 1464.06 1369.59C1490 1361.6 1589.79 1028.76 1753.3 1028.76C1825.51 1028.76 1689.07 881.728 1509.15 699.529C1420.52 609.787 1123.52 796.885 1054.4 922.458Z" fill="#CCB0FF" fill-opacity="0.5"/>
</g>
<g filter="url(#filter4_f_10802_146815)">
<path d="M416.401 1654.46C342.733 1788.29 552.816 2204.92 635.692 2076.61C686.465 1998 800.133 2109.58 826.065 2101.59C851.996 2093.6 951.788 1760.76 1115.3 1760.76C1187.51 1760.76 1051.07 1613.73 871.145 1431.53C782.524 1341.79 485.524 1528.89 416.401 1654.46Z" fill="#CCB0FF" fill-opacity="0.3"/>
</g>
<g filter="url(#filter5_f_10802_146815)">
<path d="M-151.599 185.458C-225.267 319.288 -15.1843 735.92 67.6921 607.606C118.465 528.997 232.133 640.578 258.065 632.587C283.996 624.596 383.788 291.764 547.299 291.764C619.508 291.764 483.069 144.728 303.145 -37.4712C214.524 -127.213 -82.4761 59.8855 -151.599 185.458Z" fill="#CCB0FF" fill-opacity="0.2"/>
</g>
<g filter="url(#filter6_f_10802_146815)">
<path d="M1498.4 2127.46C1424.73 2261.29 1634.82 2677.92 1717.69 2549.61C1768.46 2471 1882.13 2582.58 1908.06 2574.59C1934 2566.6 2033.79 2233.76 2197.3 2233.76C2269.51 2233.76 2133.07 2086.73 1953.15 1904.53C1864.52 1814.79 1567.52 2001.89 1498.4 2127.46Z" fill="#CCB0FF" fill-opacity="0.3"/>
</g>
<g filter="url(#filter7_f_10802_146815)">
<path d="M120.401 3027.46C46.7328 3161.29 256.816 3577.92 339.692 3449.61C390.465 3371 504.133 3482.58 530.065 3474.59C555.996 3466.6 655.788 3133.76 819.299 3133.76C891.508 3133.76 755.069 2986.73 575.145 2804.53C486.524 2714.79 189.524 2901.89 120.401 3027.46Z" fill="#0668E1" fill-opacity="0.3"/>
</g>
<defs>
<filter id="filter0_f_10802_146815" x="126" y="-928" width="2334" height="2294" filterUnits="userSpaceOnUse" color-interpolation-filters="sRGB">
<feFlood flood-opacity="0" result="BackgroundImageFix"/>
<feBlend mode="normal" in="SourceGraphic" in2="BackgroundImageFix" result="shape"/>
<feGaussianBlur stdDeviation="400" result="effect1_foregroundBlur_10802_146815"/>
</filter>
<filter id="filter1_f_10802_146815" x="-800" y="-7" width="2334" height="2294" filterUnits="userSpaceOnUse" color-interpolation-filters="sRGB">
<feFlood flood-opacity="0" result="BackgroundImageFix"/>
<feBlend mode="normal" in="SourceGraphic" in2="BackgroundImageFix" result="shape"/>
<feGaussianBlur stdDeviation="400" result="effect1_foregroundBlur_10802_146815"/>
</filter>
<filter id="filter2_f_10802_146815" x="-695" y="1287" width="2334" height="2294" filterUnits="userSpaceOnUse" color-interpolation-filters="sRGB">
<feFlood flood-opacity="0" result="BackgroundImageFix"/>
<feBlend mode="normal" in="SourceGraphic" in2="BackgroundImageFix" result="shape"/>
<feGaussianBlur stdDeviation="400" result="effect1_foregroundBlur_10802_146815"/>
</filter>
<filter id="filter3_f_10802_146815" x="239" y="-124" width="2334" height="2294" filterUnits="userSpaceOnUse" color-interpolation-filters="sRGB">
<feFlood flood-opacity="0" result="BackgroundImageFix"/>
<feBlend mode="normal" in="SourceGraphic" in2="BackgroundImageFix" result="shape"/>
<feGaussianBlur stdDeviation="400" result="effect1_foregroundBlur_10802_146815"/>
</filter>
<filter id="filter4_f_10802_146815" x="-399" y="608" width="2334" height="2294" filterUnits="userSpaceOnUse" color-interpolation-filters="sRGB">
<feFlood flood-opacity="0" result="BackgroundImageFix"/>
<feBlend mode="normal" in="SourceGraphic" in2="BackgroundImageFix" result="shape"/>
<feGaussianBlur stdDeviation="400" result="effect1_foregroundBlur_10802_146815"/>
</filter>
<filter id="filter5_f_10802_146815" x="-967" y="-861" width="2334" height="2294" filterUnits="userSpaceOnUse" color-interpolation-filters="sRGB">
<feFlood flood-opacity="0" result="BackgroundImageFix"/>
<feBlend mode="normal" in="SourceGraphic" in2="BackgroundImageFix" result="shape"/>
<feGaussianBlur stdDeviation="400" result="effect1_foregroundBlur_10802_146815"/>
</filter>
<filter id="filter6_f_10802_146815" x="683" y="1081" width="2334" height="2294" filterUnits="userSpaceOnUse" color-interpolation-filters="sRGB">
<feFlood flood-opacity="0" result="BackgroundImageFix"/>
<feBlend mode="normal" in="SourceGraphic" in2="BackgroundImageFix" result="shape"/>
<feGaussianBlur stdDeviation="400" result="effect1_foregroundBlur_10802_146815"/>
</filter>
<filter id="filter7_f_10802_146815" x="-695" y="1981" width="2334" height="2294" filterUnits="userSpaceOnUse" color-interpolation-filters="sRGB">
<feFlood flood-opacity="0" result="BackgroundImageFix"/>
<feBlend mode="normal" in="SourceGraphic" in2="BackgroundImageFix" result="shape"/>
<feGaussianBlur stdDeviation="400" result="effect1_foregroundBlur_10802_146815"/>
</filter>
</defs>
</svg>
