<svg width="1920" height="700" viewBox="0 0 1920 700" fill="none" xmlns="http://www.w3.org/2000/svg">
<g filter="url(#filter0_f_10802_152400)">
<path d="M1290.46 268.871C1230.85 376.861 1400.86 713.047 1467.93 609.509C1509.02 546.078 1601 636.115 1621.99 629.667C1642.98 623.219 1723.73 354.651 1856.06 354.651C1914.49 354.651 1804.08 236.005 1658.47 88.9858C1586.75 16.5717 1346.4 167.544 1290.46 268.871Z" fill="#0668E1" fill-opacity="0.3"/>
</g>
<g filter="url(#filter1_f_10802_152400)">
<path d="M10.4009 406.458C-63.2672 540.288 146.816 956.92 229.692 828.606C280.465 749.997 394.133 861.578 420.065 853.587C445.996 845.596 545.788 512.764 709.299 512.764C781.508 512.764 645.069 365.728 465.145 183.529C376.524 93.787 79.5239 280.885 10.4009 406.458Z" fill="#CCB0FF" fill-opacity="0.6"/>
</g>
<defs>
<filter id="filter0_f_10802_152400" x="478" y="-730" width="2194" height="2160" filterUnits="userSpaceOnUse" color-interpolation-filters="sRGB">
<feFlood flood-opacity="0" result="BackgroundImageFix"/>
<feBlend mode="normal" in="SourceGraphic" in2="BackgroundImageFix" result="shape"/>
<feGaussianBlur stdDeviation="400" result="effect1_foregroundBlur_10802_152400"/>
</filter>
<filter id="filter1_f_10802_152400" x="-805" y="-640" width="2334" height="2294" filterUnits="userSpaceOnUse" color-interpolation-filters="sRGB">
<feFlood flood-opacity="0" result="BackgroundImageFix"/>
<feBlend mode="normal" in="SourceGraphic" in2="BackgroundImageFix" result="shape"/>
<feGaussianBlur stdDeviation="400" result="effect1_foregroundBlur_10802_152400"/>
</filter>
</defs>
</svg>
