<svg width="360" height="9930" viewBox="0 0 360 9930" fill="none" xmlns="http://www.w3.org/2000/svg">
<g opacity="0.6" filter="url(#filter0_f_14121_89342)">
<path d="M217.777 989.025C199.711 1027.59 251.23 1147.66 271.554 1110.68C284.005 1088.03 311.88 1120.18 318.239 1117.88C324.599 1115.58 349.071 1019.66 389.169 1019.66C406.877 1019.66 373.418 977.287 329.294 924.781C307.562 898.918 234.728 952.837 217.777 989.025Z" fill="#CCB0FF" fill-opacity="0.4"/>
</g>
<g opacity="0.4" filter="url(#filter1_f_14121_89342)">
<path d="M20.0848 1322.35C-9.02109 1384.44 73.9817 1577.75 106.726 1518.22C126.786 1481.75 171.696 1533.52 181.941 1529.81C192.186 1526.1 231.614 1371.67 296.216 1371.67C324.746 1371.67 270.839 1303.45 199.752 1218.92C164.738 1177.28 47.395 1264.09 20.0848 1322.35Z" fill="#0668E1" fill-opacity="0.2"/>
</g>
<g opacity="0.4" filter="url(#filter2_f_14121_89342)">
<path d="M57.7768 2096.57C39.711 2135.14 91.23 2255.21 111.554 2218.23C124.005 2195.57 151.88 2227.73 158.239 2225.43C164.599 2223.12 189.071 2127.21 229.169 2127.21C246.877 2127.21 213.418 2084.83 169.294 2032.33C147.562 2006.47 74.7279 2060.38 57.7768 2096.57Z" fill="#0668E1" fill-opacity="0.2"/>
</g>
<g opacity="0.4" filter="url(#filter3_f_14121_89342)">
<path d="M127.777 1900.03C109.711 1938.59 161.23 2058.66 181.554 2021.68C194.005 1999.03 221.88 2031.18 228.239 2028.88C234.599 2026.58 259.071 1930.66 299.169 1930.66C316.877 1930.66 283.418 1888.29 239.294 1835.78C217.562 1809.92 144.728 1863.84 127.777 1900.03Z" fill="#0668E1" fill-opacity="0.2"/>
</g>
<g opacity="0.4" filter="url(#filter4_f_14121_89342)">
<path d="M148.329 2770.15C122.837 2824.53 195.536 2993.82 224.215 2941.68C241.785 2909.74 281.12 2955.08 290.093 2951.83C299.067 2948.59 333.6 2813.34 390.183 2813.34C415.17 2813.34 367.956 2753.6 305.693 2679.56C275.026 2643.1 172.249 2719.12 148.329 2770.15Z" fill="#0668E1" fill-opacity="0.2"/>
</g>
<g opacity="0.4" filter="url(#filter5_f_14121_89342)">
<path d="M212.777 3198.03C194.711 3236.59 246.23 3356.66 266.554 3319.68C279.005 3297.03 306.88 3329.18 313.239 3326.88C319.599 3324.58 344.071 3228.66 384.169 3228.66C401.877 3228.66 368.418 3186.29 324.294 3133.78C302.562 3107.92 229.728 3161.84 212.777 3198.03Z" fill="#0668E1" fill-opacity="0.2"/>
</g>
<g opacity="0.4" filter="url(#filter6_f_14121_89342)">
<path d="M53.658 3643.72C31.377 3691.35 94.917 3839.63 119.983 3793.96C135.339 3765.98 169.719 3805.7 177.562 3802.85C185.405 3800.01 215.587 3681.55 265.042 3681.55C286.881 3681.55 245.615 3629.22 191.197 3564.37C164.393 3532.43 74.5644 3599.02 53.658 3643.72Z" fill="#0668E1" fill-opacity="0.2"/>
</g>
<g opacity="0.4" filter="url(#filter7_f_14121_89342)">
<path d="M52.7768 4164.03C34.711 4202.59 86.23 4322.66 106.554 4285.68C119.005 4263.03 146.88 4295.18 153.239 4292.88C159.599 4290.58 184.071 4194.66 224.169 4194.66C241.877 4194.66 208.418 4152.29 164.294 4099.78C142.562 4073.92 69.7279 4127.84 52.7768 4164.03Z" fill="#0668E1" fill-opacity="0.2"/>
</g>
<g opacity="0.4" filter="url(#filter8_f_14121_89342)">
<path d="M177.777 4366.03C159.711 4404.59 211.23 4524.66 231.554 4487.68C244.005 4465.03 271.88 4497.18 278.239 4494.88C284.599 4492.58 309.071 4396.66 349.169 4396.66C366.877 4396.66 333.418 4354.29 289.294 4301.78C267.562 4275.92 194.728 4329.84 177.777 4366.03Z" fill="#0668E1" fill-opacity="0.2"/>
</g>
<g opacity="0.4" filter="url(#filter9_f_14121_89342)">
<path d="M5.11963 4752.59C-19.3695 4805.05 50.4673 4968.34 78.0175 4918.05C94.8956 4887.24 132.682 4930.97 141.302 4927.84C149.922 4924.71 183.096 4794.26 237.451 4794.26C261.455 4794.26 216.099 4736.63 156.288 4665.22C126.828 4630.05 28.0978 4703.38 5.11963 4752.59Z" fill="#0668E1" fill-opacity="0.2"/>
</g>
<g opacity="0.4" filter="url(#filter10_f_14121_89342)">
<path d="M36.8259 5269.56C13.7419 5318.73 79.5717 5471.82 105.541 5424.67C121.451 5395.79 157.069 5436.78 165.195 5433.85C173.32 5430.91 204.59 5308.62 255.827 5308.62C278.454 5308.62 235.7 5254.59 179.321 5187.65C151.551 5154.67 58.4857 5223.42 36.8259 5269.56Z" fill="#0668E1" fill-opacity="0.2"/>
</g>
<g opacity="0.4" filter="url(#filter11_f_14121_89342)">
<path d="M28.0777 5699.78C3.7893 5747.99 73.0537 5898.07 100.378 5851.85C117.118 5823.53 154.594 5863.73 163.144 5860.85C171.694 5857.97 204.595 5738.08 258.505 5738.08C282.312 5738.08 237.328 5685.11 178.007 5619.48C148.789 5587.15 50.8675 5654.55 28.0777 5699.78Z" fill="#0668E1" fill-opacity="0.2"/>
</g>
<g opacity="0.4" filter="url(#filter12_f_14121_89342)">
<path d="M57.7768 6136.57C39.711 6175.14 91.23 6295.21 111.554 6258.23C124.005 6235.57 151.88 6267.73 158.239 6265.43C164.599 6263.12 189.071 6167.21 229.169 6167.21C246.877 6167.21 213.418 6124.83 169.294 6072.33C147.562 6046.47 74.7279 6100.38 57.7768 6136.57Z" fill="#0668E1" fill-opacity="0.2"/>
</g>
<g opacity="0.4" filter="url(#filter13_f_14121_89342)">
<path d="M57.7768 6556.57C39.711 6595.14 91.23 6715.21 111.554 6678.23C124.005 6655.57 151.88 6687.73 158.239 6685.43C164.599 6683.12 189.071 6587.21 229.169 6587.21C246.877 6587.21 213.418 6544.83 169.294 6492.33C147.562 6466.47 74.7279 6520.38 57.7768 6556.57Z" fill="#0668E1" fill-opacity="0.2"/>
</g>
<g opacity="0.4" filter="url(#filter14_f_14121_89342)">
<path d="M57.7768 6976.57C39.711 7015.14 91.23 7135.21 111.554 7098.23C124.005 7075.57 151.88 7107.73 158.239 7105.43C164.599 7103.12 189.071 7007.21 229.169 7007.21C246.877 7007.21 213.418 6964.83 169.294 6912.33C147.562 6886.47 74.7279 6940.38 57.7768 6976.57Z" fill="#0668E1" fill-opacity="0.2"/>
</g>
<g opacity="0.4" filter="url(#filter15_f_14121_89342)">
<path d="M57.7768 7396.57C39.711 7435.14 91.23 7555.21 111.554 7518.23C124.005 7495.57 151.88 7527.73 158.239 7525.43C164.599 7523.12 189.071 7427.21 229.169 7427.21C246.877 7427.21 213.418 7384.83 169.294 7332.33C147.562 7306.47 74.7279 7360.38 57.7768 7396.57Z" fill="#0668E1" fill-opacity="0.3"/>
</g>
<g opacity="0.4" filter="url(#filter16_f_14121_89342)">
<path d="M57.7768 8626.57C39.711 8665.14 91.23 8785.21 111.554 8748.23C124.005 8725.57 151.88 8757.73 158.239 8755.43C164.599 8753.12 189.071 8657.21 229.169 8657.21C246.877 8657.21 213.418 8614.83 169.294 8562.33C147.562 8536.47 74.7279 8590.38 57.7768 8626.57Z" fill="#0668E1" fill-opacity="0.3"/>
</g>
<g opacity="0.4" filter="url(#filter17_f_14121_89342)">
<path d="M57.7768 7816.57C39.711 7855.14 91.23 7975.21 111.554 7938.23C124.005 7915.57 151.88 7947.73 158.239 7945.43C164.599 7943.12 189.071 7847.21 229.169 7847.21C246.877 7847.21 213.418 7804.83 169.294 7752.33C147.562 7726.47 74.7279 7780.38 57.7768 7816.57Z" fill="#0668E1" fill-opacity="0.2"/>
</g>
<g opacity="0.4" filter="url(#filter18_f_14121_89342)">
<path d="M57.7768 9046.57C39.711 9085.14 91.23 9205.21 111.554 9168.23C124.005 9145.57 151.88 9177.73 158.239 9175.43C164.599 9173.12 189.071 9077.21 229.169 9077.21C246.877 9077.21 213.418 9034.83 169.294 8982.33C147.562 8956.47 74.7279 9010.38 57.7768 9046.57Z" fill="#0668E1" fill-opacity="0.2"/>
</g>
<g opacity="0.4" filter="url(#filter19_f_14121_89342)">
<path d="M57.7768 8236.57C39.711 8275.14 91.23 8395.21 111.554 8358.23C124.005 8335.57 151.88 8367.73 158.239 8365.43C164.599 8363.12 189.071 8267.21 229.169 8267.21C246.877 8267.21 213.418 8224.83 169.294 8172.33C147.562 8146.47 74.7279 8200.38 57.7768 8236.57Z" fill="#0668E1" fill-opacity="0.2"/>
</g>
<g opacity="0.4" filter="url(#filter20_f_14121_89342)">
<path d="M57.7768 9466.57C39.711 9505.14 91.23 9625.21 111.554 9588.23C124.005 9565.57 151.88 9597.73 158.239 9595.43C164.599 9593.12 189.071 9497.21 229.169 9497.21C246.877 9497.21 213.418 9454.83 169.294 9402.33C147.562 9376.47 74.7279 9430.38 57.7768 9466.57Z" fill="#0668E1" fill-opacity="0.2"/>
</g>
<g opacity="0.6" filter="url(#filter21_f_14121_89342)">
<path d="M227.546 1585.23C196.232 1652.14 285.532 1860.46 320.76 1796.3C342.342 1757 390.659 1812.79 401.681 1808.79C412.704 1804.8 455.122 1638.38 524.626 1638.38C555.32 1638.38 497.324 1564.86 420.844 1473.76C383.174 1428.89 256.928 1522.44 227.546 1585.23Z" fill="#CCB0FF" fill-opacity="0.3"/>
</g>
<g opacity="0.6" filter="url(#filter22_f_14121_89342)">
<path d="M221.91 2282.33C198.424 2332.47 265.399 2488.56 291.82 2440.49C308.006 2411.04 344.244 2452.84 352.511 2449.85C360.778 2446.85 392.592 2322.16 444.719 2322.16C467.74 2322.16 424.243 2267.07 366.883 2198.81C338.63 2165.19 243.946 2235.29 221.91 2282.33Z" fill="#CCB0FF" fill-opacity="0.4"/>
</g>
<g opacity="0.6" filter="url(#filter23_f_14121_89342)">
<path d="M40.7768 2557.03C22.711 2595.59 74.23 2715.66 94.5539 2678.68C107.005 2656.03 134.88 2688.18 141.239 2685.88C147.599 2683.58 172.071 2587.66 212.169 2587.66C229.877 2587.66 196.418 2545.29 152.294 2492.78C130.562 2466.92 57.7279 2520.84 40.7768 2557.03Z" fill="#CCB0FF" fill-opacity="0.6"/>
</g>
<g opacity="0.6" filter="url(#filter24_f_14121_89342)">
<path d="M39.5741 3019.94C17.6945 3066.61 80.0897 3211.89 104.704 3167.14C119.784 3139.73 153.544 3178.64 161.245 3175.86C168.947 3173.07 198.586 3057.01 247.149 3057.01C268.595 3057.01 228.072 3005.74 174.634 2942.2C148.314 2910.91 60.1038 2976.15 39.5741 3019.94Z" fill="#CCB0FF" fill-opacity="0.4"/>
</g>
<g opacity="0.6" filter="url(#filter25_f_14121_89342)">
<path d="M103.777 3415.03C85.711 3453.59 137.23 3573.66 157.554 3536.68C170.005 3514.03 197.88 3546.18 204.239 3543.88C210.599 3541.58 235.071 3445.66 275.169 3445.66C292.877 3445.66 259.418 3403.29 215.294 3350.78C193.562 3324.92 120.728 3378.84 103.777 3415.03Z" fill="#CCB0FF" fill-opacity="0.6"/>
</g>
<g opacity="0.6" filter="url(#filter26_f_14121_89342)">
<path d="M281.105 3573.6C266.251 3605.41 308.611 3704.47 325.322 3673.96C335.56 3655.27 358.479 3681.8 363.708 3679.9C368.937 3678 389.058 3598.87 422.028 3598.87C436.588 3598.87 409.077 3563.91 372.798 3520.59C354.929 3499.26 295.043 3543.74 281.105 3573.6Z" fill="#CCB0FF" fill-opacity="0.6"/>
</g>
<g opacity="0.6" filter="url(#filter27_f_14121_89342)">
<path d="M128.455 3947.28C102.36 4002.81 176.777 4175.71 206.133 4122.46C224.118 4089.84 264.382 4136.14 273.568 4132.83C282.753 4129.51 318.102 3991.39 376.022 3991.39C401.6 3991.39 353.27 3930.37 289.536 3854.76C258.145 3817.52 152.94 3895.17 128.455 3947.28Z" fill="#CCB0FF" fill-opacity="0.4"/>
</g>
<g opacity="0.6" filter="url(#filter28_f_14121_89342)">
<path d="M247.777 4634.03C229.711 4672.59 281.23 4792.66 301.554 4755.68C314.005 4733.03 341.88 4765.18 348.239 4762.88C354.599 4760.58 379.071 4664.66 419.169 4664.66C436.877 4664.66 403.418 4622.29 359.294 4569.78C337.562 4543.92 264.728 4597.84 247.777 4634.03Z" fill="#CCB0FF" fill-opacity="0.6"/>
</g>
<g opacity="0.6" filter="url(#filter29_f_14121_89342)">
<path d="M192.952 5029.4C169.266 5080.11 236.813 5238 263.46 5189.38C279.784 5159.59 316.332 5201.87 324.669 5198.84C333.007 5195.82 365.093 5069.68 417.666 5069.68C440.883 5069.68 397.014 5013.96 339.164 4944.92C310.67 4910.91 215.177 4981.81 192.952 5029.4Z" fill="#CCB0FF" fill-opacity="0.3"/>
</g>
<g opacity="0.6" filter="url(#filter30_f_14121_89342)">
<path d="M219.777 5511.03C201.711 5549.59 253.23 5669.66 273.554 5632.68C286.005 5610.03 313.88 5642.18 320.239 5639.88C326.599 5637.58 351.071 5541.66 391.169 5541.66C408.877 5541.66 375.418 5499.29 331.294 5446.78C309.562 5420.92 236.728 5474.84 219.777 5511.03Z" fill="#CCB0FF" fill-opacity="0.6"/>
</g>
<g opacity="0.6" filter="url(#filter31_f_14121_89342)">
<path d="M188.162 5872.3C163.472 5925.14 233.881 6089.63 261.657 6038.97C278.673 6007.94 316.769 6051.99 325.46 6048.84C334.151 6045.68 367.597 5914.28 422.397 5914.28C446.598 5914.28 400.871 5856.22 340.569 5784.29C310.868 5748.86 211.328 5822.73 188.162 5872.3Z" fill="#CCB0FF" fill-opacity="0.3"/>
</g>
<g opacity="0.6" filter="url(#filter32_f_14121_89342)">
<path d="M220.777 6350.57C202.711 6389.14 254.23 6509.21 274.554 6472.23C287.005 6449.57 314.88 6481.73 321.239 6479.43C327.599 6477.12 352.071 6381.21 392.169 6381.21C409.877 6381.21 376.418 6338.83 332.294 6286.33C310.562 6260.47 237.728 6314.38 220.777 6350.57Z" fill="#CCB0FF" fill-opacity="0.6"/>
</g>
<g opacity="0.6" filter="url(#filter33_f_14121_89342)">
<path d="M220.777 6770.57C202.711 6809.14 254.23 6929.21 274.554 6892.23C287.005 6869.57 314.88 6901.73 321.239 6899.43C327.599 6897.12 352.071 6801.21 392.169 6801.21C409.877 6801.21 376.418 6758.83 332.294 6706.33C310.562 6680.47 237.728 6734.38 220.777 6770.57Z" fill="#CCB0FF" fill-opacity="0.6"/>
</g>
<g opacity="0.6" filter="url(#filter34_f_14121_89342)">
<path d="M220.777 7190.57C202.711 7229.14 254.23 7349.21 274.554 7312.23C287.005 7289.57 314.88 7321.73 321.239 7319.43C327.599 7317.12 352.071 7221.21 392.169 7221.21C409.877 7221.21 376.418 7178.83 332.294 7126.33C310.562 7100.47 237.728 7154.38 220.777 7190.57Z" fill="#CCB0FF" fill-opacity="0.4"/>
</g>
<g opacity="0.6" filter="url(#filter35_f_14121_89342)">
<path d="M220.777 7610.57C202.711 7649.14 254.23 7769.21 274.554 7732.23C287.005 7709.57 314.88 7741.73 321.239 7739.43C327.599 7737.12 352.071 7641.21 392.169 7641.21C409.877 7641.21 376.418 7598.83 332.294 7546.33C310.562 7520.47 237.728 7574.38 220.777 7610.57Z" fill="#CCB0FF" fill-opacity="0.6"/>
</g>
<g opacity="0.6" filter="url(#filter36_f_14121_89342)">
<path d="M220.777 8840.57C202.711 8879.14 254.23 8999.21 274.554 8962.23C287.005 8939.57 314.88 8971.73 321.239 8969.43C327.599 8967.12 352.071 8871.21 392.169 8871.21C409.877 8871.21 376.418 8828.83 332.294 8776.33C310.562 8750.47 237.728 8804.38 220.777 8840.57Z" fill="#CCB0FF" fill-opacity="0.6"/>
</g>
<g opacity="0.6" filter="url(#filter37_f_14121_89342)">
<path d="M220.777 8030.57C202.711 8069.14 254.23 8189.21 274.554 8152.23C287.005 8129.57 314.88 8161.73 321.239 8159.43C327.599 8157.12 352.071 8061.21 392.169 8061.21C409.877 8061.21 376.418 8018.83 332.294 7966.33C310.562 7940.47 237.728 7994.38 220.777 8030.57Z" fill="#CCB0FF" fill-opacity="0.6"/>
</g>
<g opacity="0.6" filter="url(#filter38_f_14121_89342)">
<path d="M220.777 9260.57C202.711 9299.14 254.23 9419.21 274.554 9382.23C287.005 9359.57 314.88 9391.73 321.239 9389.43C327.599 9387.12 352.071 9291.21 392.169 9291.21C409.877 9291.21 376.418 9248.83 332.294 9196.33C310.562 9170.47 237.728 9224.38 220.777 9260.57Z" fill="#CCB0FF" fill-opacity="0.6"/>
</g>
<g opacity="0.6" filter="url(#filter39_f_14121_89342)">
<path d="M220.777 8350.57C202.711 8389.14 254.23 8509.21 274.554 8472.23C287.005 8449.57 314.88 8481.73 321.239 8479.43C327.599 8477.12 352.071 8381.21 392.169 8381.21C409.877 8381.21 376.418 8338.83 332.294 8286.33C310.562 8260.47 237.728 8314.38 220.777 8350.57Z" fill="#CCB0FF" fill-opacity="0.6"/>
</g>
<g opacity="0.6" filter="url(#filter40_f_14121_89342)">
<path d="M220.777 9580.57C202.711 9619.14 254.23 9739.21 274.554 9702.23C287.005 9679.57 314.88 9711.73 321.239 9709.43C327.599 9707.12 352.071 9611.21 392.169 9611.21C409.877 9611.21 376.418 9568.83 332.294 9516.33C310.562 9490.47 237.728 9544.38 220.777 9580.57Z" fill="#CCB0FF" fill-opacity="0.6"/>
</g>
<g opacity="0.6" filter="url(#filter41_f_14121_89342)">
<path d="M44.7768 810.025C26.711 848.593 78.23 968.66 98.5539 931.682C111.005 909.028 138.88 941.184 145.239 938.881C151.599 936.578 176.071 840.661 216.169 840.661C233.877 840.661 200.418 798.287 156.294 745.781C134.562 719.918 61.7279 773.837 44.7768 810.025Z" fill="#CCB0FF" fill-opacity="0.6"/>
</g>
<g opacity="0.4" filter="url(#filter42_f_14121_89342)">
<path d="M218.406 635.1C197.33 680.224 257.435 820.702 281.146 777.438C295.672 750.933 328.193 788.555 335.613 785.861C343.032 783.166 371.582 670.943 418.364 670.943C439.023 670.943 399.987 621.366 348.51 559.933C323.155 529.675 238.183 592.76 218.406 635.1Z" fill="#0668E1" fill-opacity="0.2"/>
</g>
<g filter="url(#filter43_f_14121_89342)">
<path d="M238.651 93.8947C221.187 131.305 270.989 247.77 290.635 211.901C302.671 189.927 329.617 221.118 335.765 218.885C341.912 216.651 365.568 123.611 404.33 123.611C421.447 123.611 389.104 82.5089 346.451 31.5772C325.443 6.49091 255.037 58.7922 238.651 93.8947Z" fill="#0668E1" fill-opacity="0.3"/>
</g>
<g opacity="0.6" filter="url(#filter44_f_14121_89342)">
<path d="M238.357 313.531C222.299 344.77 268.093 442.024 286.159 412.072C297.227 393.723 322.005 419.769 327.657 417.904C333.31 416.038 355.063 338.345 390.706 338.345C406.446 338.345 376.704 304.023 337.484 261.492C318.166 240.544 253.425 284.218 238.357 313.531Z" fill="#CCB0FF" fill-opacity="0.4"/>
</g>
<g opacity="0.6" filter="url(#filter45_f_14121_89342)">
<path d="M83.3571 428.531C67.2987 459.77 113.093 557.024 131.159 527.072C142.227 508.723 167.005 534.769 172.657 532.904C178.31 531.038 200.063 453.345 235.706 453.345C251.446 453.345 221.704 419.023 182.484 376.492C163.166 355.544 98.4248 399.218 83.3571 428.531Z" fill="#0668E1" fill-opacity="0.4"/>
</g>
<g opacity="0.6" filter="url(#filter46_f_14121_89342)">
<path d="M39.1964 82.7446C19.1234 127.676 76.3667 267.554 98.9488 224.474C112.783 198.083 143.756 235.544 150.821 232.861C157.887 230.178 185.079 118.435 229.632 118.435C249.307 118.435 212.131 69.0699 163.105 7.89944C138.958 -22.23 58.031 40.5855 39.1964 82.7446Z" fill="#CCB0FF" fill-opacity="0.4"/>
</g>
<defs>
<filter id="filter0_f_14121_89342" x="14" y="718" width="580" height="600" filterUnits="userSpaceOnUse" color-interpolation-filters="sRGB">
<feFlood flood-opacity="0" result="BackgroundImageFix"/>
<feBlend mode="normal" in="SourceGraphic" in2="BackgroundImageFix" result="shape"/>
<feGaussianBlur stdDeviation="100" result="effect1_foregroundBlur_14121_89342"/>
</filter>
<filter id="filter1_f_14121_89342" x="-186" y="1008" width="690" height="722" filterUnits="userSpaceOnUse" color-interpolation-filters="sRGB">
<feFlood flood-opacity="0" result="BackgroundImageFix"/>
<feBlend mode="normal" in="SourceGraphic" in2="BackgroundImageFix" result="shape"/>
<feGaussianBlur stdDeviation="100" result="effect1_foregroundBlur_14121_89342"/>
</filter>
<filter id="filter2_f_14121_89342" x="-146" y="1825.55" width="580" height="600" filterUnits="userSpaceOnUse" color-interpolation-filters="sRGB">
<feFlood flood-opacity="0" result="BackgroundImageFix"/>
<feBlend mode="normal" in="SourceGraphic" in2="BackgroundImageFix" result="shape"/>
<feGaussianBlur stdDeviation="100" result="effect1_foregroundBlur_14121_89342"/>
</filter>
<filter id="filter3_f_14121_89342" x="-26" y="1679" width="480" height="500" filterUnits="userSpaceOnUse" color-interpolation-filters="sRGB">
<feFlood flood-opacity="0" result="BackgroundImageFix"/>
<feBlend mode="normal" in="SourceGraphic" in2="BackgroundImageFix" result="shape"/>
<feGaussianBlur stdDeviation="75" result="effect1_foregroundBlur_14121_89342"/>
</filter>
<filter id="filter4_f_14121_89342" x="-57" y="2470" width="654" height="682" filterUnits="userSpaceOnUse" color-interpolation-filters="sRGB">
<feFlood flood-opacity="0" result="BackgroundImageFix"/>
<feBlend mode="normal" in="SourceGraphic" in2="BackgroundImageFix" result="shape"/>
<feGaussianBlur stdDeviation="100" result="effect1_foregroundBlur_14121_89342"/>
</filter>
<filter id="filter5_f_14121_89342" x="9" y="2927" width="580" height="600" filterUnits="userSpaceOnUse" color-interpolation-filters="sRGB">
<feFlood flood-opacity="0" result="BackgroundImageFix"/>
<feBlend mode="normal" in="SourceGraphic" in2="BackgroundImageFix" result="shape"/>
<feGaussianBlur stdDeviation="100" result="effect1_foregroundBlur_14121_89342"/>
</filter>
<filter id="filter6_f_14121_89342" x="-151" y="3356" width="622" height="647" filterUnits="userSpaceOnUse" color-interpolation-filters="sRGB">
<feFlood flood-opacity="0" result="BackgroundImageFix"/>
<feBlend mode="normal" in="SourceGraphic" in2="BackgroundImageFix" result="shape"/>
<feGaussianBlur stdDeviation="100" result="effect1_foregroundBlur_14121_89342"/>
</filter>
<filter id="filter7_f_14121_89342" x="-151" y="3893" width="580" height="600" filterUnits="userSpaceOnUse" color-interpolation-filters="sRGB">
<feFlood flood-opacity="0" result="BackgroundImageFix"/>
<feBlend mode="normal" in="SourceGraphic" in2="BackgroundImageFix" result="shape"/>
<feGaussianBlur stdDeviation="100" result="effect1_foregroundBlur_14121_89342"/>
</filter>
<filter id="filter8_f_14121_89342" x="-26" y="4095" width="580" height="600" filterUnits="userSpaceOnUse" color-interpolation-filters="sRGB">
<feFlood flood-opacity="0" result="BackgroundImageFix"/>
<feBlend mode="normal" in="SourceGraphic" in2="BackgroundImageFix" result="shape"/>
<feGaussianBlur stdDeviation="100" result="effect1_foregroundBlur_14121_89342"/>
</filter>
<filter id="filter9_f_14121_89342" x="-200" y="4456" width="644" height="672" filterUnits="userSpaceOnUse" color-interpolation-filters="sRGB">
<feFlood flood-opacity="0" result="BackgroundImageFix"/>
<feBlend mode="normal" in="SourceGraphic" in2="BackgroundImageFix" result="shape"/>
<feGaussianBlur stdDeviation="100" result="effect1_foregroundBlur_14121_89342"/>
</filter>
<filter id="filter10_f_14121_89342" x="-168" y="4979" width="630" height="655" filterUnits="userSpaceOnUse" color-interpolation-filters="sRGB">
<feFlood flood-opacity="0" result="BackgroundImageFix"/>
<feBlend mode="normal" in="SourceGraphic" in2="BackgroundImageFix" result="shape"/>
<feGaussianBlur stdDeviation="100" result="effect1_foregroundBlur_14121_89342"/>
</filter>
<filter id="filter11_f_14121_89342" x="-177" y="5411" width="642" height="650" filterUnits="userSpaceOnUse" color-interpolation-filters="sRGB">
<feFlood flood-opacity="0" result="BackgroundImageFix"/>
<feBlend mode="normal" in="SourceGraphic" in2="BackgroundImageFix" result="shape"/>
<feGaussianBlur stdDeviation="100" result="effect1_foregroundBlur_14121_89342"/>
</filter>
<filter id="filter12_f_14121_89342" x="-146" y="5865.55" width="580" height="600" filterUnits="userSpaceOnUse" color-interpolation-filters="sRGB">
<feFlood flood-opacity="0" result="BackgroundImageFix"/>
<feBlend mode="normal" in="SourceGraphic" in2="BackgroundImageFix" result="shape"/>
<feGaussianBlur stdDeviation="100" result="effect1_foregroundBlur_14121_89342"/>
</filter>
<filter id="filter13_f_14121_89342" x="-146" y="6285.55" width="580" height="600" filterUnits="userSpaceOnUse" color-interpolation-filters="sRGB">
<feFlood flood-opacity="0" result="BackgroundImageFix"/>
<feBlend mode="normal" in="SourceGraphic" in2="BackgroundImageFix" result="shape"/>
<feGaussianBlur stdDeviation="100" result="effect1_foregroundBlur_14121_89342"/>
</filter>
<filter id="filter14_f_14121_89342" x="-146" y="6705.55" width="580" height="600" filterUnits="userSpaceOnUse" color-interpolation-filters="sRGB">
<feFlood flood-opacity="0" result="BackgroundImageFix"/>
<feBlend mode="normal" in="SourceGraphic" in2="BackgroundImageFix" result="shape"/>
<feGaussianBlur stdDeviation="100" result="effect1_foregroundBlur_14121_89342"/>
</filter>
<filter id="filter15_f_14121_89342" x="-96" y="7175.55" width="480" height="500" filterUnits="userSpaceOnUse" color-interpolation-filters="sRGB">
<feFlood flood-opacity="0" result="BackgroundImageFix"/>
<feBlend mode="normal" in="SourceGraphic" in2="BackgroundImageFix" result="shape"/>
<feGaussianBlur stdDeviation="75" result="effect1_foregroundBlur_14121_89342"/>
</filter>
<filter id="filter16_f_14121_89342" x="-96" y="8405.55" width="480" height="500" filterUnits="userSpaceOnUse" color-interpolation-filters="sRGB">
<feFlood flood-opacity="0" result="BackgroundImageFix"/>
<feBlend mode="normal" in="SourceGraphic" in2="BackgroundImageFix" result="shape"/>
<feGaussianBlur stdDeviation="75" result="effect1_foregroundBlur_14121_89342"/>
</filter>
<filter id="filter17_f_14121_89342" x="-146" y="7545.55" width="580" height="600" filterUnits="userSpaceOnUse" color-interpolation-filters="sRGB">
<feFlood flood-opacity="0" result="BackgroundImageFix"/>
<feBlend mode="normal" in="SourceGraphic" in2="BackgroundImageFix" result="shape"/>
<feGaussianBlur stdDeviation="100" result="effect1_foregroundBlur_14121_89342"/>
</filter>
<filter id="filter18_f_14121_89342" x="-146" y="8775.55" width="580" height="600" filterUnits="userSpaceOnUse" color-interpolation-filters="sRGB">
<feFlood flood-opacity="0" result="BackgroundImageFix"/>
<feBlend mode="normal" in="SourceGraphic" in2="BackgroundImageFix" result="shape"/>
<feGaussianBlur stdDeviation="100" result="effect1_foregroundBlur_14121_89342"/>
</filter>
<filter id="filter19_f_14121_89342" x="-146" y="7965.55" width="580" height="600" filterUnits="userSpaceOnUse" color-interpolation-filters="sRGB">
<feFlood flood-opacity="0" result="BackgroundImageFix"/>
<feBlend mode="normal" in="SourceGraphic" in2="BackgroundImageFix" result="shape"/>
<feGaussianBlur stdDeviation="100" result="effect1_foregroundBlur_14121_89342"/>
</filter>
<filter id="filter20_f_14121_89342" x="-146" y="9195.55" width="580" height="600" filterUnits="userSpaceOnUse" color-interpolation-filters="sRGB">
<feFlood flood-opacity="0" result="BackgroundImageFix"/>
<feBlend mode="normal" in="SourceGraphic" in2="BackgroundImageFix" result="shape"/>
<feGaussianBlur stdDeviation="100" result="effect1_foregroundBlur_14121_89342"/>
</filter>
<filter id="filter21_f_14121_89342" x="-29" y="1212" width="812" height="847" filterUnits="userSpaceOnUse" color-interpolation-filters="sRGB">
<feFlood flood-opacity="0" result="BackgroundImageFix"/>
<feBlend mode="normal" in="SourceGraphic" in2="BackgroundImageFix" result="shape"/>
<feGaussianBlur stdDeviation="125" result="effect1_foregroundBlur_14121_89342"/>
</filter>
<filter id="filter22_f_14121_89342" x="-23" y="1950" width="714" height="740" filterUnits="userSpaceOnUse" color-interpolation-filters="sRGB">
<feFlood flood-opacity="0" result="BackgroundImageFix"/>
<feBlend mode="normal" in="SourceGraphic" in2="BackgroundImageFix" result="shape"/>
<feGaussianBlur stdDeviation="120" result="effect1_foregroundBlur_14121_89342"/>
</filter>
<filter id="filter23_f_14121_89342" x="-183" y="2266" width="620" height="640" filterUnits="userSpaceOnUse" color-interpolation-filters="sRGB">
<feFlood flood-opacity="0" result="BackgroundImageFix"/>
<feBlend mode="normal" in="SourceGraphic" in2="BackgroundImageFix" result="shape"/>
<feGaussianBlur stdDeviation="110" result="effect1_foregroundBlur_14121_89342"/>
</filter>
<filter id="filter24_f_14121_89342" x="-185" y="2714" width="658" height="682" filterUnits="userSpaceOnUse" color-interpolation-filters="sRGB">
<feFlood flood-opacity="0" result="BackgroundImageFix"/>
<feBlend mode="normal" in="SourceGraphic" in2="BackgroundImageFix" result="shape"/>
<feGaussianBlur stdDeviation="110" result="effect1_foregroundBlur_14121_89342"/>
</filter>
<filter id="filter25_f_14121_89342" x="-120" y="3124" width="620" height="640" filterUnits="userSpaceOnUse" color-interpolation-filters="sRGB">
<feFlood flood-opacity="0" result="BackgroundImageFix"/>
<feBlend mode="normal" in="SourceGraphic" in2="BackgroundImageFix" result="shape"/>
<feGaussianBlur stdDeviation="110" result="effect1_foregroundBlur_14121_89342"/>
</filter>
<filter id="filter26_f_14121_89342" x="58" y="3295" width="588" height="605" filterUnits="userSpaceOnUse" color-interpolation-filters="sRGB">
<feFlood flood-opacity="0" result="BackgroundImageFix"/>
<feBlend mode="normal" in="SourceGraphic" in2="BackgroundImageFix" result="shape"/>
<feGaussianBlur stdDeviation="110" result="effect1_foregroundBlur_14121_89342"/>
</filter>
<filter id="filter27_f_14121_89342" x="-97" y="3625" width="700" height="728" filterUnits="userSpaceOnUse" color-interpolation-filters="sRGB">
<feFlood flood-opacity="0" result="BackgroundImageFix"/>
<feBlend mode="normal" in="SourceGraphic" in2="BackgroundImageFix" result="shape"/>
<feGaussianBlur stdDeviation="110" result="effect1_foregroundBlur_14121_89342"/>
</filter>
<filter id="filter28_f_14121_89342" x="24" y="4343" width="620" height="640" filterUnits="userSpaceOnUse" color-interpolation-filters="sRGB">
<feFlood flood-opacity="0" result="BackgroundImageFix"/>
<feBlend mode="normal" in="SourceGraphic" in2="BackgroundImageFix" result="shape"/>
<feGaussianBlur stdDeviation="110" result="effect1_foregroundBlur_14121_89342"/>
</filter>
<filter id="filter29_f_14121_89342" x="-32" y="4716" width="676" height="703" filterUnits="userSpaceOnUse" color-interpolation-filters="sRGB">
<feFlood flood-opacity="0" result="BackgroundImageFix"/>
<feBlend mode="normal" in="SourceGraphic" in2="BackgroundImageFix" result="shape"/>
<feGaussianBlur stdDeviation="110" result="effect1_foregroundBlur_14121_89342"/>
</filter>
<filter id="filter30_f_14121_89342" x="-4" y="5220" width="620" height="640" filterUnits="userSpaceOnUse" color-interpolation-filters="sRGB">
<feFlood flood-opacity="0" result="BackgroundImageFix"/>
<feBlend mode="normal" in="SourceGraphic" in2="BackgroundImageFix" result="shape"/>
<feGaussianBlur stdDeviation="110" result="effect1_foregroundBlur_14121_89342"/>
</filter>
<filter id="filter31_f_14121_89342" x="-37" y="5555" width="686" height="714" filterUnits="userSpaceOnUse" color-interpolation-filters="sRGB">
<feFlood flood-opacity="0" result="BackgroundImageFix"/>
<feBlend mode="normal" in="SourceGraphic" in2="BackgroundImageFix" result="shape"/>
<feGaussianBlur stdDeviation="110" result="effect1_foregroundBlur_14121_89342"/>
</filter>
<filter id="filter32_f_14121_89342" x="-3" y="6059.55" width="620" height="640" filterUnits="userSpaceOnUse" color-interpolation-filters="sRGB">
<feFlood flood-opacity="0" result="BackgroundImageFix"/>
<feBlend mode="normal" in="SourceGraphic" in2="BackgroundImageFix" result="shape"/>
<feGaussianBlur stdDeviation="110" result="effect1_foregroundBlur_14121_89342"/>
</filter>
<filter id="filter33_f_14121_89342" x="-3" y="6479.55" width="620" height="640" filterUnits="userSpaceOnUse" color-interpolation-filters="sRGB">
<feFlood flood-opacity="0" result="BackgroundImageFix"/>
<feBlend mode="normal" in="SourceGraphic" in2="BackgroundImageFix" result="shape"/>
<feGaussianBlur stdDeviation="110" result="effect1_foregroundBlur_14121_89342"/>
</filter>
<filter id="filter34_f_14121_89342" x="-3" y="6899.55" width="620" height="640" filterUnits="userSpaceOnUse" color-interpolation-filters="sRGB">
<feFlood flood-opacity="0" result="BackgroundImageFix"/>
<feBlend mode="normal" in="SourceGraphic" in2="BackgroundImageFix" result="shape"/>
<feGaussianBlur stdDeviation="110" result="effect1_foregroundBlur_14121_89342"/>
</filter>
<filter id="filter35_f_14121_89342" x="-3" y="7319.55" width="620" height="640" filterUnits="userSpaceOnUse" color-interpolation-filters="sRGB">
<feFlood flood-opacity="0" result="BackgroundImageFix"/>
<feBlend mode="normal" in="SourceGraphic" in2="BackgroundImageFix" result="shape"/>
<feGaussianBlur stdDeviation="110" result="effect1_foregroundBlur_14121_89342"/>
</filter>
<filter id="filter36_f_14121_89342" x="-3" y="8549.55" width="620" height="640" filterUnits="userSpaceOnUse" color-interpolation-filters="sRGB">
<feFlood flood-opacity="0" result="BackgroundImageFix"/>
<feBlend mode="normal" in="SourceGraphic" in2="BackgroundImageFix" result="shape"/>
<feGaussianBlur stdDeviation="110" result="effect1_foregroundBlur_14121_89342"/>
</filter>
<filter id="filter37_f_14121_89342" x="-3" y="7739.55" width="620" height="640" filterUnits="userSpaceOnUse" color-interpolation-filters="sRGB">
<feFlood flood-opacity="0" result="BackgroundImageFix"/>
<feBlend mode="normal" in="SourceGraphic" in2="BackgroundImageFix" result="shape"/>
<feGaussianBlur stdDeviation="110" result="effect1_foregroundBlur_14121_89342"/>
</filter>
<filter id="filter38_f_14121_89342" x="-3" y="8969.55" width="620" height="640" filterUnits="userSpaceOnUse" color-interpolation-filters="sRGB">
<feFlood flood-opacity="0" result="BackgroundImageFix"/>
<feBlend mode="normal" in="SourceGraphic" in2="BackgroundImageFix" result="shape"/>
<feGaussianBlur stdDeviation="110" result="effect1_foregroundBlur_14121_89342"/>
</filter>
<filter id="filter39_f_14121_89342" x="-3" y="8059.55" width="620" height="640" filterUnits="userSpaceOnUse" color-interpolation-filters="sRGB">
<feFlood flood-opacity="0" result="BackgroundImageFix"/>
<feBlend mode="normal" in="SourceGraphic" in2="BackgroundImageFix" result="shape"/>
<feGaussianBlur stdDeviation="110" result="effect1_foregroundBlur_14121_89342"/>
</filter>
<filter id="filter40_f_14121_89342" x="-3" y="9289.55" width="620" height="640" filterUnits="userSpaceOnUse" color-interpolation-filters="sRGB">
<feFlood flood-opacity="0" result="BackgroundImageFix"/>
<feBlend mode="normal" in="SourceGraphic" in2="BackgroundImageFix" result="shape"/>
<feGaussianBlur stdDeviation="110" result="effect1_foregroundBlur_14121_89342"/>
</filter>
<filter id="filter41_f_14121_89342" x="-139" y="559" width="540" height="560" filterUnits="userSpaceOnUse" color-interpolation-filters="sRGB">
<feFlood flood-opacity="0" result="BackgroundImageFix"/>
<feBlend mode="normal" in="SourceGraphic" in2="BackgroundImageFix" result="shape"/>
<feGaussianBlur stdDeviation="90" result="effect1_foregroundBlur_14121_89342"/>
</filter>
<filter id="filter42_f_14121_89342" x="64" y="402" width="510" height="534" filterUnits="userSpaceOnUse" color-interpolation-filters="sRGB">
<feFlood flood-opacity="0" result="BackgroundImageFix"/>
<feBlend mode="normal" in="SourceGraphic" in2="BackgroundImageFix" result="shape"/>
<feGaussianBlur stdDeviation="75" result="effect1_foregroundBlur_14121_89342"/>
</filter>
<filter id="filter43_f_14121_89342" x="55" y="-155" width="534" height="554" filterUnits="userSpaceOnUse" color-interpolation-filters="sRGB">
<feFlood flood-opacity="0" result="BackgroundImageFix"/>
<feBlend mode="normal" in="SourceGraphic" in2="BackgroundImageFix" result="shape"/>
<feGaussianBlur stdDeviation="90" result="effect1_foregroundBlur_14121_89342"/>
</filter>
<filter id="filter44_f_14121_89342" x="85" y="106" width="460" height="462" filterUnits="userSpaceOnUse" color-interpolation-filters="sRGB">
<feFlood flood-opacity="0" result="BackgroundImageFix"/>
<feBlend mode="normal" in="SourceGraphic" in2="BackgroundImageFix" result="shape"/>
<feGaussianBlur stdDeviation="75" result="effect1_foregroundBlur_14121_89342"/>
</filter>
<filter id="filter45_f_14121_89342" x="-120" y="171" width="560" height="562" filterUnits="userSpaceOnUse" color-interpolation-filters="sRGB">
<feFlood flood-opacity="0" result="BackgroundImageFix"/>
<feBlend mode="normal" in="SourceGraphic" in2="BackgroundImageFix" result="shape"/>
<feGaussianBlur stdDeviation="100" result="effect1_foregroundBlur_14121_89342"/>
</filter>
<filter id="filter46_f_14121_89342" x="-115" y="-150" width="500" height="533" filterUnits="userSpaceOnUse" color-interpolation-filters="sRGB">
<feFlood flood-opacity="0" result="BackgroundImageFix"/>
<feBlend mode="normal" in="SourceGraphic" in2="BackgroundImageFix" result="shape"/>
<feGaussianBlur stdDeviation="75" result="effect1_foregroundBlur_14121_89342"/>
</filter>
</defs>
</svg>
