<svg width="360" height="1591" viewBox="0 0 360 1591" fill="none" xmlns="http://www.w3.org/2000/svg">
<g filter="url(#filter0_f_10806_236719)">
<path d="M234.812 419.992C221.363 444.424 259.715 520.482 274.844 497.058C284.113 482.707 304.864 503.077 309.598 501.618C314.332 500.159 332.55 439.399 362.399 439.399C375.582 439.399 350.674 412.557 317.828 379.295C301.649 362.912 247.43 397.068 234.812 419.992Z" fill="#0668E1" fill-opacity="0.3"/>
</g>
<g filter="url(#filter1_f_10806_236719)">
<path d="M-15.1885 613.992C-28.637 638.424 9.71483 714.482 24.8444 691.058C34.1132 676.707 54.8641 697.077 59.598 695.618C64.3319 694.159 82.5496 633.399 112.399 633.399C125.582 633.399 100.674 606.557 67.8278 573.295C51.6494 556.912 -2.56968 591.068 -15.1885 613.992Z" fill="#0668E1" fill-opacity="0.3"/>
</g>
<g opacity="0.4" filter="url(#filter2_f_10806_236719)">
<path d="M236.812 1006.99C223.363 1031.42 261.715 1107.48 276.844 1084.06C286.113 1069.71 306.864 1090.08 311.598 1088.62C316.332 1087.16 334.55 1026.4 364.399 1026.4C377.582 1026.4 352.674 999.557 319.828 966.295C303.649 949.912 249.43 984.068 236.812 1006.99Z" fill="#E203FF" fill-opacity="0.3"/>
</g>
<g filter="url(#filter3_f_10806_236719)">
<path d="M208.812 1517.99C195.363 1542.42 233.715 1618.48 248.844 1595.06C258.113 1580.71 278.864 1601.08 283.598 1599.62C288.332 1598.16 306.55 1537.4 336.399 1537.4C349.582 1537.4 324.674 1510.56 291.828 1477.3C275.649 1460.91 221.43 1495.07 208.812 1517.99Z" fill="#0668E1" fill-opacity="0.3"/>
</g>
<g opacity="0.6" filter="url(#filter4_f_10806_236719)">
<path d="M95.6929 1193.31C78.0286 1225.51 128.403 1325.77 148.275 1294.89C160.449 1275.97 187.705 1302.82 193.923 1300.9C200.141 1298.98 224.069 1218.89 263.276 1218.89C280.591 1218.89 247.875 1183.51 204.732 1139.66C183.483 1118.07 112.267 1163.09 95.6929 1193.31Z" fill="#0668E1" fill-opacity="0.2"/>
</g>
<g opacity="0.4" filter="url(#filter5_f_10806_236719)">
<path d="M249.063 680.363C234.41 707.167 276.198 790.614 292.683 764.914C302.782 749.169 325.392 771.518 330.55 769.917C335.708 768.317 355.557 701.654 388.081 701.654C402.444 701.654 375.305 672.205 339.517 635.713C321.889 617.738 262.813 655.212 249.063 680.363Z" fill="#E203FF" fill-opacity="0.3"/>
</g>
<g opacity="0.4" filter="url(#filter6_f_10806_236719)">
<path d="M13.8536 895.811C0.203902 920.688 39.1293 998.131 54.4852 974.28C63.8926 959.668 84.9539 980.409 89.7586 978.923C94.5633 977.438 113.053 915.571 143.35 915.571C156.729 915.571 131.449 888.24 98.1114 854.374C81.6911 837.692 26.6611 872.47 13.8536 895.811Z" fill="#E203FF" fill-opacity="0.3"/>
</g>
<g opacity="0.4" filter="url(#filter7_f_10806_236719)">
<path d="M-2.14643 1524.81C-15.7961 1549.69 23.1293 1627.13 38.4852 1603.28C47.8926 1588.67 68.9539 1609.41 73.7586 1607.92C78.5633 1606.44 97.0534 1544.57 127.35 1544.57C140.729 1544.57 115.449 1517.24 82.1114 1483.37C65.6911 1466.69 10.6611 1501.47 -2.14643 1524.81Z" fill="#E203FF" fill-opacity="0.3"/>
</g>
<g filter="url(#filter8_f_10806_236719)">
<path d="M-8.02054 397.942C-22.2724 423.975 18.3703 505.02 34.4036 480.06C44.2261 464.769 66.2165 486.474 71.2332 484.92C76.2499 483.365 95.5557 418.621 127.189 418.621C141.158 418.621 114.763 390.019 79.9546 354.577C62.8098 337.12 5.35203 373.515 -8.02054 397.942Z" fill="#CCB0FF" fill-opacity="0.4"/>
</g>
<g filter="url(#filter9_f_10806_236719)">
<path d="M265.812 3.99238C252.363 28.4238 290.715 104.482 305.844 81.0579C315.113 66.7074 335.864 87.0772 340.598 85.6183C345.332 84.1595 363.55 23.3991 393.399 23.3991C406.582 23.3991 381.674 -3.44324 348.828 -36.7047C332.649 -53.0876 278.43 -18.9317 265.812 3.99238Z" fill="#0668E1" fill-opacity="0.3"/>
</g>
<g filter="url(#filter10_f_10806_236719)">
<path d="M-51.3 23.9318C-73.7818 64.6207 -9.66933 191.291 15.6227 152.279C31.1173 128.38 65.8064 162.304 73.72 159.874C81.6337 157.445 112.088 56.2524 161.988 56.2524C184.024 56.2524 142.386 11.5483 87.4776 -43.8464C60.4324 -71.131 -30.2053 -14.2466 -51.3 23.9318Z" fill="#CCB0FF" fill-opacity="0.6"/>
</g>
<defs>
<filter id="filter0_f_10806_236719" x="-18" y="125" width="633.996" height="626.695" filterUnits="userSpaceOnUse" color-interpolation-filters="sRGB">
<feFlood flood-opacity="0" result="BackgroundImageFix"/>
<feBlend mode="normal" in="SourceGraphic" in2="BackgroundImageFix" result="shape"/>
<feGaussianBlur stdDeviation="125" result="effect1_foregroundBlur_10806_236719"/>
</filter>
<filter id="filter1_f_10806_236719" x="-268" y="319" width="633.996" height="626.695" filterUnits="userSpaceOnUse" color-interpolation-filters="sRGB">
<feFlood flood-opacity="0" result="BackgroundImageFix"/>
<feBlend mode="normal" in="SourceGraphic" in2="BackgroundImageFix" result="shape"/>
<feGaussianBlur stdDeviation="125" result="effect1_foregroundBlur_10806_236719"/>
</filter>
<filter id="filter2_f_10806_236719" x="-16" y="712" width="633.996" height="626.695" filterUnits="userSpaceOnUse" color-interpolation-filters="sRGB">
<feFlood flood-opacity="0" result="BackgroundImageFix"/>
<feBlend mode="normal" in="SourceGraphic" in2="BackgroundImageFix" result="shape"/>
<feGaussianBlur stdDeviation="125" result="effect1_foregroundBlur_10806_236719"/>
</filter>
<filter id="filter3_f_10806_236719" x="6" y="1273" width="533.996" height="526.695" filterUnits="userSpaceOnUse" color-interpolation-filters="sRGB">
<feFlood flood-opacity="0" result="BackgroundImageFix"/>
<feBlend mode="normal" in="SourceGraphic" in2="BackgroundImageFix" result="shape"/>
<feGaussianBlur stdDeviation="100" result="effect1_foregroundBlur_10806_236719"/>
</filter>
<filter id="filter4_f_10806_236719" x="-54.0446" y="987.955" width="468.089" height="459.089" filterUnits="userSpaceOnUse" color-interpolation-filters="sRGB">
<feFlood flood-opacity="0" result="BackgroundImageFix"/>
<feBlend mode="normal" in="SourceGraphic" in2="BackgroundImageFix" result="shape"/>
<feGaussianBlur stdDeviation="73.0223" result="effect1_foregroundBlur_10806_236719"/>
</filter>
<filter id="filter5_f_10806_236719" x="26" y="411" width="586" height="579" filterUnits="userSpaceOnUse" color-interpolation-filters="sRGB">
<feFlood flood-opacity="0" result="BackgroundImageFix"/>
<feBlend mode="normal" in="SourceGraphic" in2="BackgroundImageFix" result="shape"/>
<feGaussianBlur stdDeviation="110" result="effect1_foregroundBlur_10806_236719"/>
</filter>
<filter id="filter6_f_10806_236719" x="-209" y="630" width="576" height="569" filterUnits="userSpaceOnUse" color-interpolation-filters="sRGB">
<feFlood flood-opacity="0" result="BackgroundImageFix"/>
<feBlend mode="normal" in="SourceGraphic" in2="BackgroundImageFix" result="shape"/>
<feGaussianBlur stdDeviation="110" result="effect1_foregroundBlur_10806_236719"/>
</filter>
<filter id="filter7_f_10806_236719" x="-225" y="1259" width="576" height="569" filterUnits="userSpaceOnUse" color-interpolation-filters="sRGB">
<feFlood flood-opacity="0" result="BackgroundImageFix"/>
<feBlend mode="normal" in="SourceGraphic" in2="BackgroundImageFix" result="shape"/>
<feGaussianBlur stdDeviation="110" result="effect1_foregroundBlur_10806_236719"/>
</filter>
<filter id="filter8_f_10806_236719" x="-161" y="200" width="442" height="435" filterUnits="userSpaceOnUse" color-interpolation-filters="sRGB">
<feFlood flood-opacity="0" result="BackgroundImageFix"/>
<feBlend mode="normal" in="SourceGraphic" in2="BackgroundImageFix" result="shape"/>
<feGaussianBlur stdDeviation="75" result="effect1_foregroundBlur_10806_236719"/>
</filter>
<filter id="filter9_f_10806_236719" x="13" y="-291" width="633.996" height="626.695" filterUnits="userSpaceOnUse" color-interpolation-filters="sRGB">
<feFlood flood-opacity="0" result="BackgroundImageFix"/>
<feBlend mode="normal" in="SourceGraphic" in2="BackgroundImageFix" result="shape"/>
<feGaussianBlur stdDeviation="125" result="effect1_foregroundBlur_10806_236719"/>
</filter>
<filter id="filter10_f_10806_236719" x="-356" y="-351" width="824" height="811" filterUnits="userSpaceOnUse" color-interpolation-filters="sRGB">
<feFlood flood-opacity="0" result="BackgroundImageFix"/>
<feBlend mode="normal" in="SourceGraphic" in2="BackgroundImageFix" result="shape"/>
<feGaussianBlur stdDeviation="150" result="effect1_foregroundBlur_10806_236719"/>
</filter>
</defs>
</svg>
