<svg width="360" height="1550" viewBox="0 0 360 1550" fill="none" xmlns="http://www.w3.org/2000/svg">
<g filter="url(#filter0_f_10806_244461)">
<path d="M234.812 198.58C221.363 227.14 259.715 316.051 274.844 288.669C284.113 271.893 304.864 295.705 309.598 294C314.332 292.294 332.55 221.266 362.399 221.266C375.582 221.266 350.674 189.888 317.828 151.006C301.649 131.854 247.43 171.782 234.812 198.58Z" fill="#0668E1" fill-opacity="0.3"/>
</g>
<g filter="url(#filter1_f_10806_244461)">
<path d="M-15.1885 530.58C-28.637 559.14 9.71483 648.051 24.8444 620.669C34.1132 603.893 54.8641 627.705 59.598 626C64.3319 624.294 82.5496 553.266 112.399 553.266C125.582 553.266 100.674 521.888 67.8278 483.006C51.6494 463.854 -2.56968 503.782 -15.1885 530.58Z" fill="#0668E1" fill-opacity="0.3"/>
</g>
<g filter="url(#filter2_f_10806_244461)">
<path d="M-15.1885 1180.58C-28.637 1209.14 9.71483 1298.05 24.8444 1270.67C34.1132 1253.89 54.8641 1277.7 59.598 1276C64.3319 1274.29 82.5496 1203.27 112.399 1203.27C125.582 1203.27 100.674 1171.89 67.8278 1133.01C51.6494 1113.85 -2.56968 1153.78 -15.1885 1180.58Z" fill="#0668E1" fill-opacity="0.3"/>
</g>
<g filter="url(#filter3_f_10806_244461)">
<path d="M236.812 884.783C223.363 913.343 261.715 1002.25 276.844 974.872C286.113 958.096 306.864 981.908 311.598 980.203C316.332 978.497 334.55 907.469 364.399 907.469C377.582 907.469 352.674 876.091 319.828 837.209C303.649 818.057 249.43 857.985 236.812 884.783Z" fill="#0668E1" fill-opacity="0.3"/>
</g>
<g filter="url(#filter4_f_10806_244461)">
<path d="M236.812 1464.78C223.363 1493.34 261.715 1582.25 276.844 1554.87C286.113 1538.1 306.864 1561.91 311.598 1560.2C316.332 1558.5 334.55 1487.47 364.399 1487.47C377.582 1487.47 352.674 1456.09 319.828 1417.21C303.649 1398.06 249.43 1437.99 236.812 1464.78Z" fill="#0668E1" fill-opacity="0.3"/>
</g>
<g opacity="0.4" filter="url(#filter5_f_10806_244461)">
<path d="M249.063 502.954C234.41 534.288 276.198 631.836 292.683 601.794C302.782 583.389 325.392 609.514 330.55 607.643C335.708 605.772 355.557 527.844 388.081 527.844C402.444 527.844 375.305 493.418 339.517 450.759C321.889 429.747 262.813 473.553 249.063 502.954Z" fill="#E203FF" fill-opacity="0.3"/>
</g>
<g opacity="0.4" filter="url(#filter6_f_10806_244461)">
<path d="M249.063 1152.95C234.41 1184.29 276.198 1281.84 292.683 1251.79C302.782 1233.39 325.392 1259.51 330.55 1257.64C335.708 1255.77 355.557 1177.84 388.081 1177.84C402.444 1177.84 375.305 1143.42 339.517 1100.76C321.889 1079.75 262.813 1123.55 249.063 1152.95Z" fill="#E203FF" fill-opacity="0.3"/>
</g>
<g opacity="0.4" filter="url(#filter7_f_10806_244461)">
<path d="M13.8536 883.397C0.203902 912.477 39.1293 1003.01 54.4852 975.125C63.8926 958.044 84.9539 982.29 89.7586 980.553C94.5633 978.817 113.053 906.496 143.35 906.496C156.729 906.496 131.449 874.546 98.1114 834.956C81.6911 815.456 26.6611 856.111 13.8536 883.397Z" fill="#E203FF" fill-opacity="0.3"/>
</g>
<g opacity="0.4" filter="url(#filter8_f_10806_244461)">
<path d="M13.8536 1463.4C0.203902 1492.48 39.1293 1583.01 54.4852 1555.13C63.8926 1538.04 84.9539 1562.29 89.7586 1560.55C94.5633 1558.82 113.053 1486.5 143.35 1486.5C156.729 1486.5 131.449 1454.55 98.1114 1414.96C81.6911 1395.46 26.6611 1436.11 13.8536 1463.4Z" fill="#E203FF" fill-opacity="0.3"/>
</g>
<g filter="url(#filter9_f_10806_244461)">
<path d="M-8.02054 172.809C-22.2724 203.242 18.3703 297.983 34.4036 268.804C44.2261 250.929 66.2165 276.302 71.2332 274.485C76.2499 272.668 95.5557 196.983 127.189 196.983C141.158 196.983 114.763 163.547 79.9546 122.116C62.8098 101.709 5.35203 144.255 -8.02054 172.809Z" fill="#CCB0FF" fill-opacity="0.4"/>
</g>
<g filter="url(#filter10_f_10806_244461)">
<path d="M-51.3 -264.406C-73.7818 -216.841 -9.66933 -68.7647 15.6227 -114.369C31.1173 -142.308 65.8064 -102.65 73.72 -105.49C81.6337 -108.331 112.088 -226.623 161.988 -226.623C184.024 -226.623 142.386 -278.882 87.4776 -343.638C60.4324 -375.533 -30.2053 -309.036 -51.3 -264.406Z" fill="#CCB0FF" fill-opacity="0.6"/>
</g>
<defs>
<filter id="filter0_f_10806_244461" x="32" y="-54.0156" width="533.996" height="548.102" filterUnits="userSpaceOnUse" color-interpolation-filters="sRGB">
<feFlood flood-opacity="0" result="BackgroundImageFix"/>
<feBlend mode="normal" in="SourceGraphic" in2="BackgroundImageFix" result="shape"/>
<feGaussianBlur stdDeviation="100" result="effect1_foregroundBlur_10806_244461"/>
</filter>
<filter id="filter1_f_10806_244461" x="-218" y="277.984" width="533.996" height="548.102" filterUnits="userSpaceOnUse" color-interpolation-filters="sRGB">
<feFlood flood-opacity="0" result="BackgroundImageFix"/>
<feBlend mode="normal" in="SourceGraphic" in2="BackgroundImageFix" result="shape"/>
<feGaussianBlur stdDeviation="100" result="effect1_foregroundBlur_10806_244461"/>
</filter>
<filter id="filter2_f_10806_244461" x="-218" y="927.984" width="533.996" height="548.102" filterUnits="userSpaceOnUse" color-interpolation-filters="sRGB">
<feFlood flood-opacity="0" result="BackgroundImageFix"/>
<feBlend mode="normal" in="SourceGraphic" in2="BackgroundImageFix" result="shape"/>
<feGaussianBlur stdDeviation="100" result="effect1_foregroundBlur_10806_244461"/>
</filter>
<filter id="filter3_f_10806_244461" x="34" y="632.188" width="533.996" height="548.102" filterUnits="userSpaceOnUse" color-interpolation-filters="sRGB">
<feFlood flood-opacity="0" result="BackgroundImageFix"/>
<feBlend mode="normal" in="SourceGraphic" in2="BackgroundImageFix" result="shape"/>
<feGaussianBlur stdDeviation="100" result="effect1_foregroundBlur_10806_244461"/>
</filter>
<filter id="filter4_f_10806_244461" x="34" y="1212.19" width="533.996" height="548.102" filterUnits="userSpaceOnUse" color-interpolation-filters="sRGB">
<feFlood flood-opacity="0" result="BackgroundImageFix"/>
<feBlend mode="normal" in="SourceGraphic" in2="BackgroundImageFix" result="shape"/>
<feGaussianBlur stdDeviation="100" result="effect1_foregroundBlur_10806_244461"/>
</filter>
<filter id="filter5_f_10806_244461" x="26" y="225.25" width="586" height="602.492" filterUnits="userSpaceOnUse" color-interpolation-filters="sRGB">
<feFlood flood-opacity="0" result="BackgroundImageFix"/>
<feBlend mode="normal" in="SourceGraphic" in2="BackgroundImageFix" result="shape"/>
<feGaussianBlur stdDeviation="110" result="effect1_foregroundBlur_10806_244461"/>
</filter>
<filter id="filter6_f_10806_244461" x="26" y="875.25" width="586" height="602.492" filterUnits="userSpaceOnUse" color-interpolation-filters="sRGB">
<feFlood flood-opacity="0" result="BackgroundImageFix"/>
<feBlend mode="normal" in="SourceGraphic" in2="BackgroundImageFix" result="shape"/>
<feGaussianBlur stdDeviation="110" result="effect1_foregroundBlur_10806_244461"/>
</filter>
<filter id="filter7_f_10806_244461" x="-209" y="609.844" width="576" height="590.797" filterUnits="userSpaceOnUse" color-interpolation-filters="sRGB">
<feFlood flood-opacity="0" result="BackgroundImageFix"/>
<feBlend mode="normal" in="SourceGraphic" in2="BackgroundImageFix" result="shape"/>
<feGaussianBlur stdDeviation="110" result="effect1_foregroundBlur_10806_244461"/>
</filter>
<filter id="filter8_f_10806_244461" x="-209" y="1189.84" width="576" height="590.797" filterUnits="userSpaceOnUse" color-interpolation-filters="sRGB">
<feFlood flood-opacity="0" result="BackgroundImageFix"/>
<feBlend mode="normal" in="SourceGraphic" in2="BackgroundImageFix" result="shape"/>
<feGaussianBlur stdDeviation="110" result="effect1_foregroundBlur_10806_244461"/>
</filter>
<filter id="filter9_f_10806_244461" x="-161" y="-33.2344" width="442" height="457.812" filterUnits="userSpaceOnUse" color-interpolation-filters="sRGB">
<feFlood flood-opacity="0" result="BackgroundImageFix"/>
<feBlend mode="normal" in="SourceGraphic" in2="BackgroundImageFix" result="shape"/>
<feGaussianBlur stdDeviation="75" result="effect1_foregroundBlur_10806_244461"/>
</filter>
<filter id="filter10_f_10806_244461" x="-356" y="-652" width="824" height="846.656" filterUnits="userSpaceOnUse" color-interpolation-filters="sRGB">
<feFlood flood-opacity="0" result="BackgroundImageFix"/>
<feBlend mode="normal" in="SourceGraphic" in2="BackgroundImageFix" result="shape"/>
<feGaussianBlur stdDeviation="150" result="effect1_foregroundBlur_10806_244461"/>
</filter>
</defs>
</svg>
