<svg width="360" height="2438" viewBox="0 0 360 2438" fill="none" xmlns="http://www.w3.org/2000/svg">
<g filter="url(#filter0_f_10806_239273)">
<path d="M234.812 470.992C221.363 495.424 259.715 571.482 274.844 548.058C284.113 533.707 304.864 554.077 309.598 552.618C314.332 551.159 332.55 490.399 362.399 490.399C375.582 490.399 350.674 463.557 317.828 430.295C301.649 413.912 247.43 448.068 234.812 470.992Z" fill="#0668E1" fill-opacity="0.3"/>
</g>
<g filter="url(#filter1_f_10806_239273)">
<path d="M234.812 1460.99C221.363 1485.42 259.715 1561.48 274.844 1538.06C284.113 1523.71 304.864 1544.08 309.598 1542.62C314.332 1541.16 332.55 1480.4 362.399 1480.4C375.582 1480.4 350.674 1453.56 317.828 1420.3C301.649 1403.91 247.43 1438.07 234.812 1460.99Z" fill="#0668E1" fill-opacity="0.3"/>
</g>
<g filter="url(#filter2_f_10806_239273)">
<path d="M-15.1885 754.992C-28.637 779.424 9.71483 855.482 24.8444 832.058C34.1132 817.707 54.8641 838.077 59.598 836.618C64.3319 835.159 82.5496 774.399 112.399 774.399C125.582 774.399 100.674 747.557 67.8278 714.295C51.6494 697.912 -2.56968 732.068 -15.1885 754.992Z" fill="#0668E1" fill-opacity="0.3"/>
</g>
<g filter="url(#filter3_f_10806_239273)">
<path d="M-15.1885 1744.99C-28.637 1769.42 9.71483 1845.48 24.8444 1822.06C34.1132 1807.71 54.8641 1828.08 59.598 1826.62C64.3319 1825.16 82.5496 1764.4 112.399 1764.4C125.582 1764.4 100.674 1737.56 67.8278 1704.3C51.6494 1687.91 -2.56968 1722.07 -15.1885 1744.99Z" fill="#0668E1" fill-opacity="0.3"/>
</g>
<g filter="url(#filter4_f_10806_239273)">
<path d="M236.812 1057.99C223.363 1082.42 261.715 1158.48 276.844 1135.06C286.113 1120.71 306.864 1141.08 311.598 1139.62C316.332 1138.16 334.55 1077.4 364.399 1077.4C377.582 1077.4 352.674 1050.56 319.828 1017.3C303.649 1000.91 249.43 1035.07 236.812 1057.99Z" fill="#0668E1" fill-opacity="0.3"/>
</g>
<g filter="url(#filter5_f_10806_239273)">
<path d="M286.812 2047.99C273.363 2072.42 311.715 2148.48 326.844 2125.06C336.113 2110.71 356.864 2131.08 361.598 2129.62C366.332 2128.16 384.55 2067.4 414.399 2067.4C427.582 2067.4 402.674 2040.56 369.828 2007.3C353.649 1990.91 299.43 2025.07 286.812 2047.99Z" fill="#0668E1" fill-opacity="0.3"/>
</g>
<g filter="url(#filter6_f_10806_239273)">
<path d="M-21.1885 2318.99C-34.637 2343.42 3.71483 2419.48 18.8444 2396.06C28.1132 2381.71 48.8641 2402.08 53.598 2400.62C58.3319 2399.16 76.5496 2338.4 106.399 2338.4C119.582 2338.4 94.6739 2311.56 61.8278 2278.3C45.6494 2261.91 -8.56968 2296.07 -21.1885 2318.99Z" fill="#0668E1" fill-opacity="0.3"/>
</g>
<g filter="url(#filter7_f_10806_239273)">
<path d="M122.979 1291.94C108.728 1317.98 149.37 1399.02 165.404 1374.06C175.226 1358.77 197.217 1380.47 202.233 1378.92C207.25 1377.37 226.556 1312.62 258.189 1312.62C272.158 1312.62 245.763 1284.02 210.955 1248.58C193.81 1231.12 136.352 1267.52 122.979 1291.94Z" fill="#0668E1" fill-opacity="0.3"/>
</g>
<g opacity="0.4" filter="url(#filter8_f_10806_239273)">
<path d="M249.063 731.363C234.41 758.167 276.198 841.614 292.683 815.914C302.782 800.169 325.392 822.518 330.55 820.917C335.708 819.317 355.557 752.654 388.081 752.654C402.444 752.654 375.305 723.205 339.517 686.713C321.889 668.738 262.813 706.212 249.063 731.363Z" fill="#E203FF" fill-opacity="0.3"/>
</g>
<g opacity="0.4" filter="url(#filter9_f_10806_239273)">
<path d="M249.063 1721.36C234.41 1748.17 276.198 1831.61 292.683 1805.91C302.782 1790.17 325.392 1812.52 330.55 1810.92C335.708 1809.32 355.557 1742.65 388.081 1742.65C402.444 1742.65 375.305 1713.2 339.517 1676.71C321.889 1658.74 262.813 1696.21 249.063 1721.36Z" fill="#E203FF" fill-opacity="0.3"/>
</g>
<g opacity="0.4" filter="url(#filter10_f_10806_239273)">
<path d="M13.8536 1056.81C0.203902 1081.69 39.1293 1159.13 54.4852 1135.28C63.8926 1120.67 84.9539 1141.41 89.7586 1139.92C94.5633 1138.44 113.053 1076.57 143.35 1076.57C156.729 1076.57 131.449 1049.24 98.1114 1015.37C81.6911 998.692 26.6611 1033.47 13.8536 1056.81Z" fill="#E203FF" fill-opacity="0.3"/>
</g>
<g opacity="0.4" filter="url(#filter11_f_10806_239273)">
<path d="M-9.14643 2043.81C-22.7961 2068.69 16.1293 2146.13 31.4852 2122.28C40.8926 2107.67 61.9539 2128.41 66.7586 2126.92C71.5633 2125.44 90.0534 2063.57 120.35 2063.57C133.729 2063.57 108.449 2036.24 75.1114 2002.37C58.6911 1985.69 3.6611 2020.47 -9.14643 2043.81Z" fill="#E203FF" fill-opacity="0.2"/>
</g>
<g opacity="0.4" filter="url(#filter12_f_10806_239273)">
<path d="M240.854 2313.81C227.204 2338.69 266.129 2416.13 281.485 2392.28C290.893 2377.67 311.954 2398.41 316.759 2396.92C321.563 2395.44 340.053 2333.57 370.35 2333.57C383.729 2333.57 358.449 2306.24 325.111 2272.37C308.691 2255.69 253.661 2290.47 240.854 2313.81Z" fill="#E203FF" fill-opacity="0.2"/>
</g>
<g filter="url(#filter13_f_10806_239273)">
<path d="M-8.02054 448.942C-22.2724 474.975 18.3703 556.02 34.4036 531.06C44.2261 515.769 66.2165 537.474 71.2332 535.92C76.2499 534.365 95.5557 469.621 127.189 469.621C141.158 469.621 114.763 441.019 79.9546 405.577C62.8098 388.12 5.35203 424.515 -8.02054 448.942Z" fill="#CCB0FF" fill-opacity="0.4"/>
</g>
<g filter="url(#filter14_f_10806_239273)">
<path d="M-8.02054 1438.94C-22.2724 1464.98 18.3703 1546.02 34.4036 1521.06C44.2261 1505.77 66.2165 1527.47 71.2332 1525.92C76.2499 1524.37 95.5557 1459.62 127.189 1459.62C141.158 1459.62 114.763 1431.02 79.9546 1395.58C62.8098 1378.12 5.35203 1414.52 -8.02054 1438.94Z" fill="#CCB0FF" fill-opacity="0.4"/>
</g>
<g filter="url(#filter15_f_10806_239273)">
<path d="M286.812 11.9924C273.363 36.4238 311.715 112.482 326.844 89.0579C336.113 74.7074 356.864 95.0772 361.598 93.6183C366.332 92.1595 384.55 31.3991 414.399 31.3991C427.582 31.3991 402.674 4.55676 369.828 -28.7047C353.649 -45.0876 299.43 -10.9317 286.812 11.9924Z" fill="#0668E1" fill-opacity="0.3"/>
</g>
<g filter="url(#filter16_f_10806_239273)">
<path d="M-51.3 74.9318C-73.7818 115.621 -9.66933 242.291 15.6227 203.279C31.1173 179.38 65.8064 213.304 73.72 210.874C81.6337 208.445 112.088 107.252 161.988 107.252C184.024 107.252 142.386 62.5483 87.4776 7.15357C60.4324 -20.131 -30.2053 36.7534 -51.3 74.9318Z" fill="#CCB0FF" fill-opacity="0.6"/>
</g>
<defs>
<filter id="filter0_f_10806_239273" x="32" y="226" width="533.996" height="526.695" filterUnits="userSpaceOnUse" color-interpolation-filters="sRGB">
<feFlood flood-opacity="0" result="BackgroundImageFix"/>
<feBlend mode="normal" in="SourceGraphic" in2="BackgroundImageFix" result="shape"/>
<feGaussianBlur stdDeviation="100" result="effect1_foregroundBlur_10806_239273"/>
</filter>
<filter id="filter1_f_10806_239273" x="32" y="1216" width="533.996" height="526.695" filterUnits="userSpaceOnUse" color-interpolation-filters="sRGB">
<feFlood flood-opacity="0" result="BackgroundImageFix"/>
<feBlend mode="normal" in="SourceGraphic" in2="BackgroundImageFix" result="shape"/>
<feGaussianBlur stdDeviation="100" result="effect1_foregroundBlur_10806_239273"/>
</filter>
<filter id="filter2_f_10806_239273" x="-218" y="510" width="533.996" height="526.695" filterUnits="userSpaceOnUse" color-interpolation-filters="sRGB">
<feFlood flood-opacity="0" result="BackgroundImageFix"/>
<feBlend mode="normal" in="SourceGraphic" in2="BackgroundImageFix" result="shape"/>
<feGaussianBlur stdDeviation="100" result="effect1_foregroundBlur_10806_239273"/>
</filter>
<filter id="filter3_f_10806_239273" x="-218" y="1500" width="533.996" height="526.695" filterUnits="userSpaceOnUse" color-interpolation-filters="sRGB">
<feFlood flood-opacity="0" result="BackgroundImageFix"/>
<feBlend mode="normal" in="SourceGraphic" in2="BackgroundImageFix" result="shape"/>
<feGaussianBlur stdDeviation="100" result="effect1_foregroundBlur_10806_239273"/>
</filter>
<filter id="filter4_f_10806_239273" x="34" y="813" width="533.996" height="526.695" filterUnits="userSpaceOnUse" color-interpolation-filters="sRGB">
<feFlood flood-opacity="0" result="BackgroundImageFix"/>
<feBlend mode="normal" in="SourceGraphic" in2="BackgroundImageFix" result="shape"/>
<feGaussianBlur stdDeviation="100" result="effect1_foregroundBlur_10806_239273"/>
</filter>
<filter id="filter5_f_10806_239273" x="84" y="1803" width="533.996" height="526.695" filterUnits="userSpaceOnUse" color-interpolation-filters="sRGB">
<feFlood flood-opacity="0" result="BackgroundImageFix"/>
<feBlend mode="normal" in="SourceGraphic" in2="BackgroundImageFix" result="shape"/>
<feGaussianBlur stdDeviation="100" result="effect1_foregroundBlur_10806_239273"/>
</filter>
<filter id="filter6_f_10806_239273" x="-224" y="2074" width="533.996" height="526.695" filterUnits="userSpaceOnUse" color-interpolation-filters="sRGB">
<feFlood flood-opacity="0" result="BackgroundImageFix"/>
<feBlend mode="normal" in="SourceGraphic" in2="BackgroundImageFix" result="shape"/>
<feGaussianBlur stdDeviation="100" result="effect1_foregroundBlur_10806_239273"/>
</filter>
<filter id="filter7_f_10806_239273" x="-26.0446" y="1097.96" width="434.089" height="427.089" filterUnits="userSpaceOnUse" color-interpolation-filters="sRGB">
<feFlood flood-opacity="0" result="BackgroundImageFix"/>
<feBlend mode="normal" in="SourceGraphic" in2="BackgroundImageFix" result="shape"/>
<feGaussianBlur stdDeviation="73.0223" result="effect1_foregroundBlur_10806_239273"/>
</filter>
<filter id="filter8_f_10806_239273" x="26" y="462" width="586" height="579" filterUnits="userSpaceOnUse" color-interpolation-filters="sRGB">
<feFlood flood-opacity="0" result="BackgroundImageFix"/>
<feBlend mode="normal" in="SourceGraphic" in2="BackgroundImageFix" result="shape"/>
<feGaussianBlur stdDeviation="110" result="effect1_foregroundBlur_10806_239273"/>
</filter>
<filter id="filter9_f_10806_239273" x="26" y="1452" width="586" height="579" filterUnits="userSpaceOnUse" color-interpolation-filters="sRGB">
<feFlood flood-opacity="0" result="BackgroundImageFix"/>
<feBlend mode="normal" in="SourceGraphic" in2="BackgroundImageFix" result="shape"/>
<feGaussianBlur stdDeviation="110" result="effect1_foregroundBlur_10806_239273"/>
</filter>
<filter id="filter10_f_10806_239273" x="-209" y="791" width="576" height="569" filterUnits="userSpaceOnUse" color-interpolation-filters="sRGB">
<feFlood flood-opacity="0" result="BackgroundImageFix"/>
<feBlend mode="normal" in="SourceGraphic" in2="BackgroundImageFix" result="shape"/>
<feGaussianBlur stdDeviation="110" result="effect1_foregroundBlur_10806_239273"/>
</filter>
<filter id="filter11_f_10806_239273" x="-172" y="1838" width="456" height="449" filterUnits="userSpaceOnUse" color-interpolation-filters="sRGB">
<feFlood flood-opacity="0" result="BackgroundImageFix"/>
<feBlend mode="normal" in="SourceGraphic" in2="BackgroundImageFix" result="shape"/>
<feGaussianBlur stdDeviation="80" result="effect1_foregroundBlur_10806_239273"/>
</filter>
<filter id="filter12_f_10806_239273" x="78" y="2108" width="456" height="449" filterUnits="userSpaceOnUse" color-interpolation-filters="sRGB">
<feFlood flood-opacity="0" result="BackgroundImageFix"/>
<feBlend mode="normal" in="SourceGraphic" in2="BackgroundImageFix" result="shape"/>
<feGaussianBlur stdDeviation="80" result="effect1_foregroundBlur_10806_239273"/>
</filter>
<filter id="filter13_f_10806_239273" x="-161" y="251" width="442" height="435" filterUnits="userSpaceOnUse" color-interpolation-filters="sRGB">
<feFlood flood-opacity="0" result="BackgroundImageFix"/>
<feBlend mode="normal" in="SourceGraphic" in2="BackgroundImageFix" result="shape"/>
<feGaussianBlur stdDeviation="75" result="effect1_foregroundBlur_10806_239273"/>
</filter>
<filter id="filter14_f_10806_239273" x="-161" y="1241" width="442" height="435" filterUnits="userSpaceOnUse" color-interpolation-filters="sRGB">
<feFlood flood-opacity="0" result="BackgroundImageFix"/>
<feBlend mode="normal" in="SourceGraphic" in2="BackgroundImageFix" result="shape"/>
<feGaussianBlur stdDeviation="75" result="effect1_foregroundBlur_10806_239273"/>
</filter>
<filter id="filter15_f_10806_239273" x="134" y="-183" width="433.996" height="426.695" filterUnits="userSpaceOnUse" color-interpolation-filters="sRGB">
<feFlood flood-opacity="0" result="BackgroundImageFix"/>
<feBlend mode="normal" in="SourceGraphic" in2="BackgroundImageFix" result="shape"/>
<feGaussianBlur stdDeviation="75" result="effect1_foregroundBlur_10806_239273"/>
</filter>
<filter id="filter16_f_10806_239273" x="-406" y="-350" width="924" height="911" filterUnits="userSpaceOnUse" color-interpolation-filters="sRGB">
<feFlood flood-opacity="0" result="BackgroundImageFix"/>
<feBlend mode="normal" in="SourceGraphic" in2="BackgroundImageFix" result="shape"/>
<feGaussianBlur stdDeviation="175" result="effect1_foregroundBlur_10806_239273"/>
</filter>
</defs>
</svg>
