<svg width="360" height="755" viewBox="0 0 360 755" fill="none" xmlns="http://www.w3.org/2000/svg">
<g opacity="0.6" filter="url(#filter0_f_11820_39920)">
<path d="M-87.4188 110.782C-114.116 158.991 -37.9823 309.075 -7.9481 262.852C10.4518 234.535 51.6451 274.73 61.0425 271.851C70.44 268.973 106.604 149.076 165.861 149.076C192.029 149.076 142.584 96.1094 77.3797 30.4758C45.2635 -1.85192 -62.3687 65.5466 -87.4188 110.782Z" fill="#0668E1" fill-opacity="0.4"/>
</g>
<g opacity="0.6" filter="url(#filter1_f_11820_39920)">
<path d="M234.958 46.8768C220.807 72.3314 261.164 151.575 277.084 127.17C286.837 112.218 308.673 133.441 313.654 131.921C318.635 130.402 337.805 67.0963 369.216 67.0963C383.087 67.0963 356.877 39.1297 322.314 4.47522C305.29 -12.5938 248.237 22.9926 234.958 46.8768Z" fill="#5A00FF" fill-opacity="0.4"/>
</g>
<g filter="url(#filter2_f_11820_39920)">
<path d="M234.958 736.877C220.807 762.331 261.164 841.575 277.084 817.17C286.837 802.218 308.673 823.441 313.654 821.921C318.635 820.402 337.805 757.096 369.216 757.096C383.087 757.096 356.877 729.13 322.314 694.475C305.29 677.406 248.237 712.993 234.958 736.877Z" fill="#0668E1" fill-opacity="0.3"/>
</g>
<g opacity="0.6" filter="url(#filter3_f_11820_39920)">
<path d="M-65.146 444.754C-93.1479 495.663 -13.2935 654.151 18.2086 605.34C37.5077 575.437 80.7142 617.883 90.5709 614.843C100.428 611.803 138.36 485.193 200.512 485.193C227.959 485.193 176.097 429.259 107.706 359.95C74.0207 325.812 -38.8717 396.985 -65.146 444.754Z" fill="#0668E1" fill-opacity="0.4"/>
</g>
<defs>
<filter id="filter0_f_11820_39920" x="-343" y="-228" width="766" height="750" filterUnits="userSpaceOnUse" color-interpolation-filters="sRGB">
<feFlood flood-opacity="0" result="BackgroundImageFix"/>
<feBlend mode="normal" in="SourceGraphic" in2="BackgroundImageFix" result="shape"/>
<feGaussianBlur stdDeviation="125" result="effect1_foregroundBlur_11820_39920"/>
</filter>
<filter id="filter1_f_11820_39920" x="-18" y="-250" width="641" height="632" filterUnits="userSpaceOnUse" color-interpolation-filters="sRGB">
<feFlood flood-opacity="0" result="BackgroundImageFix"/>
<feBlend mode="normal" in="SourceGraphic" in2="BackgroundImageFix" result="shape"/>
<feGaussianBlur stdDeviation="125" result="effect1_foregroundBlur_11820_39920"/>
</filter>
<filter id="filter2_f_11820_39920" x="-18" y="440" width="641" height="632" filterUnits="userSpaceOnUse" color-interpolation-filters="sRGB">
<feFlood flood-opacity="0" result="BackgroundImageFix"/>
<feBlend mode="normal" in="SourceGraphic" in2="BackgroundImageFix" result="shape"/>
<feGaussianBlur stdDeviation="125" result="effect1_foregroundBlur_11820_39920"/>
</filter>
<filter id="filter3_f_11820_39920" x="-321" y="101" width="779" height="764" filterUnits="userSpaceOnUse" color-interpolation-filters="sRGB">
<feFlood flood-opacity="0" result="BackgroundImageFix"/>
<feBlend mode="normal" in="SourceGraphic" in2="BackgroundImageFix" result="shape"/>
<feGaussianBlur stdDeviation="125" result="effect1_foregroundBlur_11820_39920"/>
</filter>
</defs>
</svg>
