<svg width="360" height="488" viewBox="0 0 360 488" fill="none" xmlns="http://www.w3.org/2000/svg">
<g filter="url(#filter0_f_14737_60792)">
<path d="M228.812 23.9924C215.363 48.4238 253.715 124.482 268.844 101.058C278.113 86.7074 298.864 107.077 303.598 105.618C308.332 104.159 326.55 43.3991 356.399 43.3991C369.582 43.3991 344.674 16.5568 311.828 -16.7047C295.649 -33.0876 241.43 1.06834 228.812 23.9924Z" fill="#0668E1" fill-opacity="0.3"/>
</g>
<g filter="url(#filter1_f_14737_60792)">
<path d="M-4.18848 39.9924C-17.637 64.4238 20.7148 140.482 35.8444 117.058C45.1132 102.707 65.8641 123.077 70.598 121.618C75.3319 120.159 93.5496 59.3991 123.399 59.3991C136.582 59.3991 111.674 32.5568 78.8278 -0.704679C62.6494 -17.0876 8.43032 17.0683 -4.18848 39.9924Z" fill="#CCB0FF" fill-opacity="0.6"/>
</g>
<g filter="url(#filter2_f_14737_60792)">
<path d="M119.812 227.992C106.363 252.424 144.715 328.482 159.844 305.058C169.113 290.707 189.864 311.077 194.598 309.618C199.332 308.159 217.55 247.399 247.399 247.399C260.582 247.399 235.674 220.557 202.828 187.295C186.649 170.912 132.43 205.068 119.812 227.992Z" fill="#CCB0FF" fill-opacity="0.8"/>
</g>
<g filter="url(#filter3_f_14737_60792)">
<path d="M2.81152 414.602C-10.637 439.033 27.7148 515.092 42.8444 491.667C52.1132 477.317 72.8641 497.687 77.598 496.228C82.3319 494.769 100.55 434.008 130.399 434.008C143.582 434.008 118.674 407.166 85.8278 373.905C69.6494 357.522 15.4303 391.678 2.81152 414.602Z" fill="#0668E1" fill-opacity="0.3"/>
</g>
<g opacity="0.4" filter="url(#filter4_f_14737_60792)">
<path d="M218.226 457.383C204.777 481.814 243.129 557.873 258.258 534.448C267.527 520.098 288.278 540.468 293.012 539.009C297.746 537.55 315.964 476.79 345.814 476.79C358.996 476.79 334.088 449.947 301.242 416.686C285.063 400.303 230.844 434.459 218.226 457.383Z" fill="#E203FF" fill-opacity="0.3"/>
</g>
<defs>
<filter id="filter0_f_14737_60792" x="26" y="-221" width="533.996" height="526.695" filterUnits="userSpaceOnUse" color-interpolation-filters="sRGB">
<feFlood flood-opacity="0" result="BackgroundImageFix"/>
<feBlend mode="normal" in="SourceGraphic" in2="BackgroundImageFix" result="shape"/>
<feGaussianBlur stdDeviation="100" result="effect1_foregroundBlur_14737_60792"/>
</filter>
<filter id="filter1_f_14737_60792" x="-207" y="-205" width="533.996" height="526.695" filterUnits="userSpaceOnUse" color-interpolation-filters="sRGB">
<feFlood flood-opacity="0" result="BackgroundImageFix"/>
<feBlend mode="normal" in="SourceGraphic" in2="BackgroundImageFix" result="shape"/>
<feGaussianBlur stdDeviation="100" result="effect1_foregroundBlur_14737_60792"/>
</filter>
<filter id="filter2_f_14737_60792" x="-83" y="-17" width="533.996" height="526.695" filterUnits="userSpaceOnUse" color-interpolation-filters="sRGB">
<feFlood flood-opacity="0" result="BackgroundImageFix"/>
<feBlend mode="normal" in="SourceGraphic" in2="BackgroundImageFix" result="shape"/>
<feGaussianBlur stdDeviation="100" result="effect1_foregroundBlur_14737_60792"/>
</filter>
<filter id="filter3_f_14737_60792" x="-150" y="219.609" width="433.996" height="426.695" filterUnits="userSpaceOnUse" color-interpolation-filters="sRGB">
<feFlood flood-opacity="0" result="BackgroundImageFix"/>
<feBlend mode="normal" in="SourceGraphic" in2="BackgroundImageFix" result="shape"/>
<feGaussianBlur stdDeviation="75" result="effect1_foregroundBlur_14737_60792"/>
</filter>
<filter id="filter4_f_14737_60792" x="15.4141" y="212.391" width="533.996" height="526.695" filterUnits="userSpaceOnUse" color-interpolation-filters="sRGB">
<feFlood flood-opacity="0" result="BackgroundImageFix"/>
<feBlend mode="normal" in="SourceGraphic" in2="BackgroundImageFix" result="shape"/>
<feGaussianBlur stdDeviation="100" result="effect1_foregroundBlur_14737_60792"/>
</filter>
</defs>
</svg>
